<svg width="187" height="54" viewBox="0 0 187 54" fill="none" xmlns="http://www.w3.org/2000/svg">
<path opacity="0.27" d="M186.3 4.60393L186.3 4.80393C186.3 25.8039 176.5 38.2039 155.9 38.2039C147.5 38.2039 125.9 33.2039 117.7 33.2039C104.7 33.2039 99.5 37.2039 95.9 48.0039C94.7 51.6039 91.5 53.4039 90.1 53.4039C89.1 53.4039 88.7 52.8039 88.7 52.6039C85.1 36.4039 76.3 33.2039 68.9 33.2039C61.9 33.2039 38.5 37.2039 33.7 37.2039C24.7 37.2039 14.3 34.2039 7.50004 24.0039C1.90005 15.4039 0.500045 7.60392 0.500046 1.80392C0.500046 1.00392 0.900045 0.603922 1.50005 0.603922C4.10005 0.603923 5.30004 1.20392 5.70004 1.80392C6.30004 2.80392 7.10004 4.20392 7.50005 6.60392C9.90004 18.4039 18.1 24.8039 29.5 24.8039C41.5 24.8039 54.9 19.8039 65.3 19.8039C75.5 19.8039 84.9 29.0039 90.3 39.8039C98.5 23.4039 107.3 19.8039 119.5 19.8039C127.3 19.8039 143.1 24.4039 146.7 24.8039C153.1 26.0039 155.1 26.4039 159.7 26.4039C171.7 26.4039 180.3 12.6039 180.5 2.80393C180.5 1.40393 181.7 0.40393 182.3 0.40393C183.5 0.403931 186.3 3.20393 186.3 4.60393Z" fill="black"/>
</svg>
