<svg width="8" height="8" viewBox="0 0 8 8" fill="none" xmlns="http://www.w3.org/2000/svg">
<path fill-rule="evenodd" clip-rule="evenodd" d="M4.37726 0C4.59078 0 4.80431 0.104575 4.91107 0.470588C5.44488 2.19608 5.49826 2.30065 7.52675 2.9281C8.00718 3.13725 8.06056 3.29412 7.9538 3.97386C7.79365 4.39216 7.63351 4.49673 7.47337 4.60131C5.49826 5.54248 5.44488 5.59477 4.85769 7.63399C4.75093 7.84314 4.5374 8 4.2705 8C3.79006 8 3.20287 7.68627 3.04273 7.26797C2.5623 5.69935 2.29539 5.22876 0.854099 4.75817C0.320287 4.54902 0 4.13072 0 3.55556C0 3.24183 0.160144 3.08497 0.320287 3.03268C1.9751 2.66667 2.5623 2.24837 3.04273 0.993464C3.25625 0.418301 3.79006 0 4.37726 0Z" fill="#e36216"/>
</svg>
