<svg width="177" height="34" viewBox="0 0 177 34" fill="none" xmlns="http://www.w3.org/2000/svg">
<path opacity="0.5" d="M50.6862 8.47589V1.5C50.6862 1.22386 50.9101 1 51.1862 1H55.7744C56.0506 1 56.2744 1.22386 56.2744 1.5V8.47589C56.2744 8.75203 56.4983 8.97589 56.7744 8.97589H63.6765C63.9526 8.97589 64.1765 9.19975 64.1765 9.47589V14.1163C64.1765 14.3924 63.9526 14.6163 63.6765 14.6163H56.7744C56.4983 14.6163 56.2744 14.8402 56.2744 15.1163V22.0922C56.2744 22.3683 56.0506 22.5922 55.7744 22.5922H50.7655C50.7217 22.5922 50.6862 22.5567 50.6862 22.5129V15.1163C50.6862 14.8402 50.4624 14.6163 50.1862 14.6163H43.2842C43.008 14.6163 42.7842 14.3924 42.7842 14.1163V9.47589C42.7842 9.19975 43.008 8.97589 43.2842 8.97589H50.1862C50.4624 8.97589 50.6862 8.75203 50.6862 8.47589Z" stroke="#007385" stroke-width="2"/>
<path opacity="0.5" d="M123.195 6.16284V11.2391C123.195 11.3272 123.172 11.4137 123.128 11.4899L118.674 19.1741C117.321 21.5074 119.005 24.4293 121.702 24.4293H131.042C133.739 24.4293 135.422 21.5074 134.07 19.1741L129.616 11.4899C129.571 11.4137 129.548 11.3272 129.548 11.2391V6.3201C129.548 6.21773 129.58 6.11782 129.638 6.03389L129.801 5.80033C130.495 4.806 129.784 3.44168 128.571 3.44168H124.172C122.959 3.44168 122.248 4.806 122.942 5.80033L123.195 6.16284ZM123.195 6.16284H126.216" stroke="#007385" stroke-width="2" stroke-linecap="round"/>
<path opacity="0.5" d="M122.852 16.8738C122.852 16.8738 124.029 16.8738 126.384 16.8738C128.44 16.8738 128.738 16.0343 128.738 16.0343" stroke="#007385" stroke-width="2" stroke-linecap="round"/>
<g opacity="0.5">
<path d="M84.5962 25.0806V17.0474M84.5962 17.0474V10.7054C84.5962 9.72901 85.3017 8.89654 86.2774 8.86162C88.901 8.76771 93.5775 9.2546 92.6403 14.0805C91.7169 18.836 84.5962 17.0474 84.5962 17.0474ZM84.5962 17.0474L98.2093 29.4624" stroke="#007385" stroke-width="2" stroke-linecap="round"/>
<path d="M98.2092 21.1857L89.1338 29.4624" stroke="#007385" stroke-width="2" stroke-linecap="round"/>
</g>
<g opacity="0.5">
<path d="M2.09109 19.8521L6.69129 16.4858C9.46364 14.4571 13.3067 15.1468 15.275 18.0262V18.0262C17.2433 20.9057 21.0863 21.5953 23.8586 19.5666L28.4588 16.2003" stroke="#007385" stroke-width="2" stroke-linecap="round"/>
<path d="M9.21854 30.2795L12.5375 27.8508C13.9477 26.8189 14.9287 25.2728 15.2851 23.521L15.4497 22.7117M21.3307 5.77284L17.6054 8.27073C16.2153 9.2028 15.1992 10.6253 14.7442 12.2759L14.588 12.8425" stroke="#007385" stroke-width="2" stroke-linecap="round"/>
<path d="M18.6938 11.9689L21.9338 16.7087" stroke="#007385" stroke-width="2" stroke-linecap="round"/>
<path d="M22.3589 9.28714L25.5988 14.0269" stroke="#007385" stroke-width="2" stroke-linecap="round"/>
<path d="M4.95166 22.0255L8.19156 26.7652" stroke="#007385" stroke-width="2" stroke-linecap="round"/>
<path d="M8.6167 19.3437L11.8566 24.0834" stroke="#007385" stroke-width="2" stroke-linecap="round"/>
</g>
<path opacity="0.5" d="M155.465 18.7066L162.491 27.0456C162.69 27.2827 163.056 27.2827 163.255 27.0456L170.281 18.7066C171.613 17.1247 171.637 14.8201 170.338 13.2108C168.994 11.5454 166.455 11.5454 165.111 13.2108L163.262 15.5005C163.062 15.7483 162.684 15.7483 162.484 15.5005L160.635 13.2108C159.291 11.5454 156.753 11.5454 155.408 13.2108C154.109 14.8201 154.133 17.1247 155.465 18.7066Z" stroke="#007385" stroke-width="2" stroke-linecap="round"/>
<path opacity="0.5" d="M152.132 8.80497L149.746 6.46815" stroke="#007385" stroke-width="2" stroke-linecap="round"/>
<path opacity="0.5" d="M173.613 8.80497L176 6.46815" stroke="#007385" stroke-width="2" stroke-linecap="round"/>
<path opacity="0.5" d="M158.815 5.53342L158.099 2.96292" stroke="#007385" stroke-width="2" stroke-linecap="round"/>
<path opacity="0.5" d="M166.453 5.53342L167.169 2.96292" stroke="#007385" stroke-width="2" stroke-linecap="round"/>
</svg>
