<?xml version="1.0" encoding="utf-8"?>
<!-- Generator: Adobe Illustrator 16.0.0, SVG Export Plug-In . SVG Version: 6.00 Build 0)  -->
<!DOCTYPE svg PUBLIC "-//W3C//DTD SVG 1.1//EN" "http://www.w3.org/Graphics/SVG/1.1/DTD/svg11.dtd">
<svg version="1.1" id="Layer_1" xmlns="http://www.w3.org/2000/svg" xmlns:xlink="http://www.w3.org/1999/xlink" x="0px" y="0px"
	 width="33px" height="33px" viewBox="0 0 33 33" enable-background="new 0 0 33 33" xml:space="preserve">
<path d="M16.5,0C7.387,0,0,7.387,0,16.5C0,25.613,7.387,33,16.5,33C25.613,33,33,25.613,33,16.5C33,7.387,25.613,0,16.5,0z
	 M10.875,20.75c-2.295,0-4.156-1.86-4.156-4.156c0-2.295,1.861-4.156,4.156-4.156s4.156,1.861,4.156,4.156
	C15.031,18.89,13.17,20.75,10.875,20.75z M22.125,20.75c-2.295,0-4.156-1.86-4.156-4.156c0-2.295,1.861-4.156,4.156-4.156
	s4.156,1.861,4.156,4.156C26.281,18.89,24.42,20.75,22.125,20.75z"/>
</svg>
