<?xml version="1.0" encoding="utf-8"?>
<!-- Generator: Adobe Illustrator 16.0.0, SVG Export Plug-In . SVG Version: 6.00 Build 0)  -->
<!DOCTYPE svg PUBLIC "-//W3C//DTD SVG 1.1//EN" "http://www.w3.org/Graphics/SVG/1.1/DTD/svg11.dtd">
<svg version="1.1" id="Layer_1" xmlns="http://www.w3.org/2000/svg" xmlns:xlink="http://www.w3.org/1999/xlink" x="0px" y="0px"
	 width="600px" height="130px" viewBox="0 0 600 130" enable-background="new 0 0 600 130" xml:space="preserve">
<rect opacity="0" fill-rule="evenodd" clip-rule="evenodd" width="600" height="130"/>
<g opacity="0.7">
	<path fill-rule="evenodd" clip-rule="evenodd" d="M108.61,71.976c-0.362,0-0.621,0-0.879,0c-3.998,0-7.996,0.001-11.994-0.002
		c-2.204-0.001-3.415-1.22-3.415-3.429c-0.001-2.987-0.003-5.975,0-8.962c0.002-2.056,1.269-3.32,3.329-3.321
		c4.02-0.003,8.04-0.001,12.059-0.001c0.263,0,0.524,0,0.863,0c0.014-0.291,0.035-0.545,0.035-0.799
		c0.002-4.02,0-8.039,0.002-12.059c0.001-2.403,1.202-3.601,3.601-3.601c2.79,0,5.581,0.062,8.368-0.021
		c2.195-0.065,3.726,1.326,3.672,3.631c-0.093,3.995-0.026,7.995-0.026,11.992c0,0.258,0,0.515,0,0.855c0.33,0,0.585,0,0.841,0
		c4.02,0,8.04-0.001,12.059,0.001c2.145,0.001,3.399,1.253,3.401,3.393c0.002,3.009,0.003,6.019,0,9.027
		c-0.002,2.012-1.275,3.289-3.29,3.291c-4.042,0.005-8.084,0.003-12.125,0.003c-0.26,0-0.521,0-0.885,0c0,0.31,0,0.562,0,0.814
		c0,4.086,0.002,8.171-0.001,12.257c-0.001,2.152-1.235,3.377-3.398,3.379c-3.207,0.001-6.415,0.001-9.621,0
		c-1.75-0.001-2.59-0.821-2.593-2.574c-0.009-4.327-0.002-8.654-0.002-12.98C108.61,72.61,108.61,72.351,108.61,71.976z
		 M96.462,60.348c0,2.55,0,5.017,0,7.531c0.31,0,0.571,0,0.832,0c3.975,0,7.951,0,11.926,0c2.26,0.001,3.506,1.24,3.507,3.495
		c0.002,4.041,0.001,8.082,0.001,12.123c0,0.257,0,0.515,0,0.803c2.496,0,4.92,0,7.408,0c0-0.273,0-0.509,0-0.745
		c0-4.107,0-8.214,0-12.32c0-2.091,1.269-3.354,3.368-3.354c4.041-0.001,8.082-0.001,12.123-0.001c0.237,0,0.475,0,0.753,0
		c0-2.528,0-4.998,0-7.531c-0.28,0-0.516,0-0.753,0c-4.019,0-8.038,0-12.057,0c-2.243,0-3.434-1.202-3.434-3.467
		c0-4.063,0-8.125,0-12.188c0-0.234,0-0.468,0-0.728c-2.504,0-4.931,0-7.408,0c0,0.284,0,0.523,0,0.762
		c0,4.085,0.004,8.17-0.002,12.255c-0.003,2.101-1.273,3.365-3.357,3.366c-2.416,0-4.831,0-7.247,0
		C100.256,60.348,98.39,60.348,96.462,60.348z"/>
	<path fill-rule="evenodd" clip-rule="evenodd" d="M266.668,92.229c-3.119,0-6.237,0.005-9.355-0.001
		c-5.132-0.009-9.006-3.501-9.509-8.601c-0.191-1.939,0.309-3.74,1.281-5.417c2.892-4.99,5.79-9.976,8.668-14.972
		c0.177-0.306,0.293-0.693,0.296-1.044c0.023-2.833,0.022-5.666,0.001-8.499c-0.003-0.327-0.11-0.693-0.28-0.975
		c-2.097-3.473,0.263-7.803,4.335-7.867c3.031-0.049,6.062-0.03,9.092-0.003c2.008,0.018,3.558,0.916,4.517,2.686
		c0.955,1.764,0.864,3.53-0.18,5.254c-0.148,0.246-0.244,0.566-0.246,0.853c-0.018,2.855-0.021,5.71,0.001,8.564
		c0.003,0.33,0.116,0.693,0.282,0.981c2.903,5.035,5.829,10.058,8.735,15.09c3.195,5.531,0.064,12.492-6.191,13.752
		c-0.705,0.143-1.439,0.184-2.16,0.188C272.861,92.24,269.765,92.229,266.668,92.229z M262.196,54.548c0,0.303,0,0.537,0,0.772
		c0,2.394-0.011,4.788,0.006,7.181c0.005,0.86-0.205,1.633-0.638,2.377c-2.958,5.079-5.894,10.169-8.851,15.248
		c-1.022,1.755-1.156,3.541-0.167,5.321c1.016,1.83,2.64,2.671,4.731,2.668c6.281-0.01,12.562,0,18.843-0.005
		c4.249-0.005,6.688-4.229,4.563-7.899c-2.956-5.106-5.91-10.214-8.882-15.311c-0.423-0.726-0.635-1.467-0.628-2.309
		c0.021-2.965,0.033-5.93-0.004-8.895c-0.015-1.133,0.154-2.155,0.859-3.092c0.552-0.733,0.093-1.624-0.823-1.632
		c-3.008-0.026-6.018-0.022-9.026-0.003c-0.847,0.005-1.205,0.601-0.932,1.492c1.631,0,3.276-0.006,4.921,0.001
		c1.326,0.006,2.249,0.86,2.245,2.061c-0.003,1.193-0.93,2.021-2.27,2.023C264.853,54.549,263.563,54.548,262.196,54.548z"/>
	<path fill-rule="evenodd" clip-rule="evenodd" d="M186.659,77.729c4.259,3.884,8.421,7.682,12.611,11.501
		c2.056-1.874,4.082-3.72,6.108-5.567c0.584-0.531,1.159-1.076,1.75-1.602c0.957-0.851,2.217-0.835,3.004,0.026
		c0.819,0.897,0.708,2.153-0.263,3.038c-2.354,2.143-4.706,4.289-7.061,6.432c-0.145,0.132-0.301,0.25-0.513,0.425
		c0.951,0.869,1.834,1.68,2.719,2.486c1.654,1.511,3.328,3,4.958,4.536c1.164,1.098,0.871,2.82-0.556,3.411
		c-0.825,0.342-1.586,0.171-2.25-0.436c-2.4-2.19-4.803-4.378-7.205-6.566c-0.211-0.191-0.425-0.378-0.69-0.615
		c-0.868,0.786-1.727,1.559-2.58,2.337c-1.769,1.612-3.533,3.23-5.304,4.841c-0.901,0.82-2.166,0.803-2.951-0.03
		c-0.817-0.866-0.752-2.128,0.18-2.983c2.506-2.302,5.022-4.592,7.608-6.954c-4.499-4.104-8.98-8.192-13.613-12.418
		c0,0.394,0,0.616,0,0.838c0,3.67,0.003,7.338-0.003,11.007c-0.001,0.982-0.526,1.717-1.399,2.012
		c-0.846,0.287-1.77,0.031-2.271-0.729c-0.227-0.348-0.395-0.808-0.396-1.217c-0.021-9.974-0.031-19.946-0.005-29.92
		c0.008-2.831,2.195-5.297,5.038-5.509c3.577-0.266,7.112,0.062,10.425,1.622c3.841,1.81,5.859,5.501,5.414,9.73
		c-0.219,2.086-0.678,4.072-1.942,5.79c-1.781,2.425-4.298,3.612-7.177,4.124c-0.968,0.173-1.961,0.215-2.943,0.316
		C187.164,77.673,186.976,77.694,186.659,77.729z M182.61,73.278c0.838,0.089,1.599,0.22,2.362,0.238
		c1.161,0.029,2.326,0.01,3.486-0.05c0.586-0.03,1.169-0.173,1.746-0.301c4.323-0.954,5.588-4.248,4.979-8.205
		c-0.331-2.148-1.928-3.25-3.837-3.942c-2.178-0.791-4.451-0.94-6.742-0.92c-1.401,0.013-1.992,0.621-1.993,2.025
		c-0.002,3.271-0.001,6.541-0.001,9.812C182.61,72.351,182.61,72.766,182.61,73.278z"/>
	<path fill-rule="evenodd" clip-rule="evenodd" d="M341.923,69.478c1.051-1.298,2.048-2.548,3.066-3.78
		c3.41-4.122,9.534-4.409,13.293-0.631c3.828,3.848,4.124,10.219,0.58,14.481c-4.782,5.753-9.624,11.458-14.455,17.169
		c-1.454,1.72-3.536,1.707-4.99-0.009c-2.881-3.401-5.741-6.818-8.611-10.228c-1.811-2.148-3.609-4.307-5.438-6.44
		c-3.759-4.383-3.83-10.365-0.152-14.615c3.473-4.016,10-4.001,13.441,0.045C339.75,66.757,340.792,68.087,341.923,69.478z
		 M341.89,93.273c0.106-0.076,0.148-0.096,0.176-0.128c4.521-5.37,9.062-10.724,13.554-16.119c1.803-2.165,2.107-4.629,0.999-7.219
		c-1.639-3.827-6.104-4.431-8.718-1.198c-1.159,1.433-2.312,2.87-3.474,4.301c-1.403,1.728-3.608,1.727-5.019-0.006
		c-1.232-1.515-2.442-3.049-3.684-4.557c-2.129-2.586-5.94-2.42-7.853,0.329c-1.809,2.601-1.688,5.913,0.354,8.366
		c2.499,3.002,5.029,5.979,7.547,8.967C337.808,88.426,339.843,90.843,341.89,93.273z"/>
	<path fill-rule="evenodd" clip-rule="evenodd" d="M47.263,84.622c-4.12-0.13-8.097-2.14-10.987-6.138
		c-1.699-2.35-3.783-4.076-6.65-4.724c-3.037-0.686-5.856-0.142-8.383,1.671c-3.122,2.238-6.206,4.53-9.306,6.8
		c-1.121,0.82-2.333,0.736-3.026-0.213c-0.758-1.034-0.542-2.287,0.573-3.108c3.147-2.316,6.273-4.662,9.463-6.919
		c6.58-4.651,15.458-3.129,20.117,3.454c1.765,2.493,3.998,4.232,7.03,4.81c2.931,0.561,5.634-0.047,8.053-1.793
		c3.15-2.274,6.27-4.591,9.413-6.874c1.302-0.944,2.883-0.374,3.243,1.159c0.198,0.845-0.049,1.596-0.745,2.108
		c-3.375,2.487-6.735,4.999-10.164,7.408C53.571,83.895,50.917,84.621,47.263,84.622z"/>
	<path fill-rule="evenodd" clip-rule="evenodd" d="M40.029,86.706c-0.43,3.195-1.373,6.267-3.461,8.84
		c-1,1.231-2.158,2.372-3.398,3.359c-2.126,1.692-4.373,3.232-6.568,4.837c-1.117,0.814-2.294,0.713-3.012-0.257
		c-0.743-1.005-0.498-2.285,0.61-3.1c1.997-1.468,3.968-2.974,6.007-4.38c3.195-2.205,5.063-5.211,5.691-9.019
		c0.05-0.303,0.104-0.605,0.184-0.901c0.288-1.052,1.194-1.661,2.227-1.51C39.333,84.726,40.041,85.58,40.029,86.706z"/>
	<path fill-rule="evenodd" clip-rule="evenodd" d="M50.106,49.538c0.844,0.092,1.59,0.578,1.884,1.346
		c0.314,0.821,0.25,1.627-0.406,2.252c-0.456,0.436-1.004,0.777-1.531,1.132c-2.129,1.436-4.265,2.862-6.4,4.29
		c-2.568,1.717-4.243,4.085-5.115,7.035c-0.125,0.42-0.221,0.85-0.356,1.267c-0.36,1.116-1.358,1.715-2.385,1.447
		c-1.103-0.289-1.749-1.332-1.492-2.492c0.994-4.494,3.279-8.145,7.122-10.751c2.489-1.687,4.99-3.356,7.5-5.013
		C49.278,49.817,49.71,49.706,50.106,49.538z"/>
	<path fill-rule="evenodd" clip-rule="evenodd" d="M16.387,83.133c0.696-0.001,1.239,0.295,1.624,0.854
		c2.233,3.259,4.469,6.515,6.681,9.788c0.703,1.041,0.441,2.311-0.539,2.96c-0.942,0.624-2.083,0.368-2.798-0.67
		c-2.19-3.182-4.369-6.372-6.547-9.562c-0.498-0.729-0.589-1.509-0.178-2.302C14.993,83.499,15.6,83.156,16.387,83.133z"/>
	<path fill-rule="evenodd" clip-rule="evenodd" d="M32.712,89.439c-0.095,0.944-0.658,1.745-1.471,1.998
		c-0.901,0.281-1.746-0.026-2.337-0.888c-2.023-2.95-4.038-5.908-6.054-8.862c-0.222-0.327-0.462-0.645-0.65-0.989
		c-0.541-0.997-0.242-2.195,0.674-2.789c0.902-0.587,2.051-0.371,2.722,0.599c2.234,3.231,4.447,6.478,6.644,9.734
		C32.474,88.59,32.558,89.039,32.712,89.439z"/>
	<path fill-rule="evenodd" clip-rule="evenodd" d="M61.052,68.719c-0.109,0.929-0.691,1.745-1.497,1.998
		c-0.854,0.27-1.725-0.042-2.292-0.866c-1.742-2.53-3.471-5.07-5.206-7.605c-0.483-0.707-0.991-1.398-1.446-2.122
		c-0.501-0.798-0.496-1.626,0.043-2.411c0.487-0.708,1.209-1.003,2.011-0.768c0.467,0.138,0.979,0.464,1.255,0.857
		c2.24,3.2,4.436,6.431,6.621,9.668C60.786,67.835,60.884,68.3,61.052,68.719z"/>
	<path fill-rule="evenodd" clip-rule="evenodd" d="M51.388,76.321c-0.686-0.008-1.235-0.288-1.621-0.852
		c-2.244-3.277-4.495-6.55-6.714-9.844c-0.664-0.985-0.364-2.289,0.58-2.907c0.922-0.604,2.073-0.366,2.759,0.629
		c2.219,3.214,4.42,6.44,6.62,9.668c0.501,0.734,0.553,1.526,0.108,2.3C52.747,75.968,52.168,76.336,51.388,76.321z"/>
	<path fill-rule="evenodd" clip-rule="evenodd" d="M314.945,50.968c0.448,0.238,0.976,0.393,1.334,0.728
		c1.63,1.53,3.221,3.104,4.812,4.677c0.944,0.935,0.983,2.181,0.129,3.037c-0.822,0.822-2.084,0.792-2.998-0.098
		c-1.587-1.545-3.163-3.101-4.742-4.654c-0.663-0.653-0.829-1.429-0.51-2.292C313.262,51.581,314.007,51.106,314.945,50.968z"/>
	<path fill-rule="evenodd" clip-rule="evenodd" d="M371.172,53.217c-0.282,0.496-0.477,1.078-0.863,1.474
		c-1.531,1.569-3.123,3.079-4.692,4.612c-0.902,0.882-2.175,0.931-2.998,0.115c-0.836-0.827-0.811-2.093,0.089-2.988
		c1.587-1.577,3.189-3.14,4.786-4.706c0.666-0.653,1.458-0.812,2.3-0.456C370.587,51.605,371,52.253,371.172,53.217z"/>
	<path fill-rule="evenodd" clip-rule="evenodd" d="M333.573,53.24c-0.924,0.002-1.716-0.542-1.978-1.444
		c-0.518-1.789-1.018-3.583-1.491-5.385c-0.288-1.095,0.293-2.1,1.346-2.444c0.997-0.326,2.159,0.135,2.484,1.156
		c0.618,1.939,1.176,3.903,1.646,5.883C335.855,52.165,334.806,53.238,333.573,53.24z"/>
	<path fill-rule="evenodd" clip-rule="evenodd" d="M352.863,45.898c-0.095,0.399-0.176,0.784-0.28,1.162
		c-0.417,1.522-0.835,3.042-1.264,4.561c-0.342,1.208-1.438,1.872-2.57,1.574c-1.131-0.297-1.721-1.418-1.385-2.651
		c0.462-1.69,0.921-3.382,1.405-5.066c0.278-0.965,0.979-1.539,1.868-1.599c0.854-0.059,1.625,0.369,1.979,1.14
		C352.741,45.289,352.783,45.599,352.863,45.898z"/>
	<path fill-rule="evenodd" clip-rule="evenodd" d="M263.856,76.642c-1.405,0-2.81,0.005-4.215-0.003
		c-1.357-0.007-2.258-0.82-2.27-2.033c-0.013-1.203,0.894-2.062,2.239-2.074c2.678-0.023,5.357-0.002,8.034-0.052
		c0.94-0.017,1.825-0.196,2.489-1.065c0.586-0.766,1.749-0.792,2.578-0.241c0.785,0.521,1.108,1.554,0.733,2.444
		c-0.598,1.418-1.799,2.154-3.188,2.521c-1.091,0.29-2.24,0.397-3.371,0.485C265.882,76.703,264.867,76.642,263.856,76.642z"/>
</g>
</svg>
