<svg width="137" height="53" viewBox="0 0 137 53" fill="none" xmlns="http://www.w3.org/2000/svg">
<g opacity="0.5">
<path d="M70 24.0684C70 24.0684 71.5 24.3546 71.5 22C71.5 19.8941 67.7641 15.2416 66.8654 14.8079C62.8213 12.8562 57.7849 11.6274 56.5 12.5C55.4552 13.2095 55.3893 14.9981 54.3008 15.6447C53.7098 15.9957 53.1313 15.6065 52.1 16.3467C50.725 17.3336 51.5499 19.1546 50.9998 19.8565C50.2311 20.8373 49.4746 20.2188 48.799 21.2605C48.1192 22.3086 48.8767 23.5674 47.6987 24.0684C47.1751 24.2911 46.5984 24.4194 46.5984 24.4194C45.2685 24.9284 46.5984 27.9292 46.5984 27.9292C46.4567 31.0234 46.5984 32.4922 49.153 34.7647M70 24.0684C70 24.0684 72.1356 26.285 71.0848 27.5C69.2873 29.5785 64.7301 24.5433 62.5 23.5M70 24.0684C70 24.0684 66.2821 19.5803 63.91 18.2037C61.9455 17.0636 58.5 16.5 58.5 16.5M62.5 23.5C60.7025 21.9489 54.5309 20.5901 54.5309 20.5901M62.5 23.5C63.8741 24.6857 67.5 26.7348 67.5 28C67.5 29 66.8739 29.6921 66 30C64.2279 30.6243 59.3988 27.7313 58.5 27.5M58.5 27.5C56.6661 26.096 53.8108 26.053 52.1 25M58.5 27.5C60 28.6483 62.6451 29.2824 61.5 31C60.3549 32.7176 58.4987 32.3055 55.5 31C53.647 30.1933 50.9505 30.1921 50.9505 30.1921" stroke="#007385" stroke-width="2" stroke-linecap="round"/>
<path d="M63.5 12.9551C63.5 12.9551 64.175 12.0001 66.595 12C68.8419 12 72.5 13 73 15C73.5 17 70.5 17.5 70.5 17.5" stroke="#007385" stroke-width="2" stroke-linecap="round"/>
<path d="M52.5 30.5C50.7025 32.1628 50.5009 32.6864 49.6021 34.3491C48.7034 36.0119 37.5347 38.8624 1 46.9541" stroke="#007385" stroke-width="2" stroke-linecap="round"/>
<path d="M71.2598 12.9895C72.608 10.911 73.9561 9.66388 75.7536 10.0797C77.5512 10.4955 78.0005 11.7424 80.2474 14.2366C81.5956 15.7331 82.045 15.8994 82.4944 17.5621C82.4944 17.5621 83.5036 17.2997 84.2919 18.3934C85.0801 19.4872 85.1906 21.719 85.1906 21.719C85.1906 21.719 86.5388 20.4718 87.4375 23.3818C87.8227 24.6288 88.3363 25.876 81.5956 32.5271C78.762 35.323 73.2424 37.4787 71.2598 38.7624M71.2598 38.7624C69.9117 39.6354 69.2115 40.3299 66.766 41.6723M71.2598 38.7624L66.766 41.6723M46.5 51.5C56.5 47 60.3296 45.2055 66.766 41.6723" stroke="#007385" stroke-width="2" stroke-linecap="round"/>
<path d="M67.1279 41.8316C71.6217 43.0787 78.5 47 89 51" stroke="#007385" stroke-width="2" stroke-linecap="round"/>
<path d="M81.957 32.2705C83.3052 32.6862 97.6996 36.4176 105.788 38.2882C112.979 39.951 124.528 41.8196 136 44.2569" stroke="#007385" stroke-width="2" stroke-linecap="round"/>
<path d="M26 26.2752H34.8611" stroke="#007385" stroke-width="2" stroke-linecap="round"/>
<path d="M34.5 11L40 13.5" stroke="#007385" stroke-width="2" stroke-linecap="round"/>
<path d="M52.2378 2.44954L54 6.5" stroke="#007385" stroke-width="2" stroke-linecap="round"/>
<path d="M74 1.5L72.5 5" stroke="#007385" stroke-width="2" stroke-linecap="round"/>
<path d="M92.7823 8.74312L87.5 11.5" stroke="#007385" stroke-width="2" stroke-linecap="round"/>
<path d="M103 21.5L95.5 22.2294" stroke="#007385" stroke-width="2" stroke-linecap="round"/>
</g>
</svg>
