<?xml version="1.0" encoding="utf-8"?>
<!-- Generator: Adobe Illustrator 16.0.0, SVG Export Plug-In . SVG Version: 6.00 Build 0)  -->
<!DOCTYPE svg PUBLIC "-//W3C//DTD SVG 1.1//EN" "http://www.w3.org/Graphics/SVG/1.1/DTD/svg11.dtd">
<svg version="1.1" id="Layer_1" xmlns="http://www.w3.org/2000/svg" xmlns:xlink="http://www.w3.org/1999/xlink" x="0px" y="0px"
	 width="33px" height="33px" viewBox="0 0 33 33" enable-background="new 0 0 33 33" xml:space="preserve">
<rect fill-opacity="0" width="33" height="33"/>
<path d="M33,16.5C33,25.613,25.613,33,16.5,33C7.387,33,0,25.613,0,16.5C0,7.387,7.387,0,16.5,0C25.613,0,33,7.387,33,16.5z
	 M14.964,9.569v11.178c0,0.622,0.5,1.125,1.122,1.125c2.214,0,7.066,0,8.629,0c2.049-0.001,4.887-0.384,4.318-4.221
	c-0.568-3.837-5.244-2.687-5.244-2.687s0.005-4.638-4.602-6.207c-1.303-0.444-2.625-0.333-3.435-0.188
	C15.276,8.656,14.964,9.084,14.964,9.569z M12.703,9.381c-0.26,0.13-0.424,0.396-0.424,0.687v11.421
	c0,0.424,0.344,0.768,0.768,0.768s0.767-0.344,0.767-0.768V10.067C13.813,9.497,13.213,9.125,12.703,9.381z M10.36,13.814
	c-0.424,0-0.768,0.343-0.768,0.767v6.907c0,0.424,0.344,0.768,0.768,0.768s0.767-0.344,0.767-0.768v-6.907
	C11.127,14.158,10.784,13.814,10.36,13.814z M7.675,12.663c-0.424,0-0.768,0.344-0.768,0.768v7.674c0,0.424,0.344,0.768,0.768,0.768
	s0.768-0.344,0.768-0.768V13.43C8.442,13.006,8.099,12.663,7.675,12.663z M4.796,15.732c-0.424,0-0.768,0.344-0.768,0.768v3.453
	c0,0.424,0.344,0.768,0.768,0.768s0.767-0.344,0.767-0.768V16.5C5.563,16.076,5.22,15.732,4.796,15.732z"/>
</svg>
