<?xml version="1.0" encoding="utf-8"?>
<!-- Generator: Adobe Illustrator 16.0.0, SVG Export Plug-In . SVG Version: 6.00 Build 0)  -->
<!DOCTYPE svg PUBLIC "-//W3C//DTD SVG 1.1//EN" "http://www.w3.org/Graphics/SVG/1.1/DTD/svg11.dtd">
<svg version="1.1" id="Layer_1" xmlns="http://www.w3.org/2000/svg" xmlns:xlink="http://www.w3.org/1999/xlink" x="0px" y="0px"
	 width="600px" height="130px" viewBox="0 0 600 130" enable-background="new 0 0 600 130" xml:space="preserve">
<rect opacity="0" fill-rule="evenodd" clip-rule="evenodd" width="600" height="130"/>
<g opacity="0.7">
	<path fill-rule="evenodd" clip-rule="evenodd" d="M197.313,51.905c-1.062,0.972-2.069,1.893-3.098,2.833
		c-0.347-0.324-0.217-0.688-0.235-1.003c-0.116-2.157-0.101-4.331-0.631-6.442c-0.216-0.858-0.496-1.721-0.892-2.507
		c-0.56-1.12-1.26-1.358-2.466-1.053c-0.394,0.1-0.792,0.189-1.279,0.307c-0.19-0.7-0.378-1.351-0.543-2.008
		c-0.374-1.499-1.119-2.765-2.163-3.913c-2.01-2.208-3.942-4.485-5.908-6.73c-0.632-0.723-1.232-1.481-1.921-2.145
		c-0.487-0.468-1.059-0.889-1.665-1.183c-1.624-0.787-3.19-0.635-4.638,0.486c-1.014,0.786-1.852,1.73-2.649,2.865
		c0.394,0.372,0.813,0.715,1.172,1.115c1.451,1.615,2.225,3.45,1.738,5.661c-0.267,1.221-0.948,2.19-1.887,2.993
		c-0.924,0.795-2,1.316-3.137,1.729c-0.317,0.116-0.636,0.23-0.979,0.356c0.552,1.058,1.136,2.032,1.579,3.067
		c0.445,1.033,0.876,2.102,1.09,3.2c0.47,2.39,0.121,4.646-1.523,6.574c-0.043,0.049-0.058,0.123-0.051,0.105
		c0.43,1.033,0.923,1.984,1.23,2.99c0.708,2.32-0.059,4.452-1.943,5.699c-1.354,0.896-2.837,0.949-4.36,0.659
		c-0.564-0.107-1.115-0.305-1.725-0.475c-0.086,0.203-0.173,0.381-0.24,0.571c-1.107,3.113-4.12,4.944-7.381,4.417
		c-1.146-0.186-2.268-0.522-3.397-0.803c-0.324-0.079-0.64-0.196-0.963-0.296c-0.082,0.133-0.152,0.211-0.182,0.3
		c-1.261,3.778-4.467,5.737-8.399,5.161c-2.504-0.369-4.814-1.323-7.149-2.229c-1.305-0.506-2.679-0.823-4.003-1.281
		c-0.74-0.258-1.217,0.024-1.726,0.516c-1.545,1.489-2.962,3.104-3.81,5.076c-1.014,2.357-2.789,3.787-5.094,4.629
		c-2.895,1.062-5.788,2.149-8.736,3.038c-8.866,2.677-17.855,4.903-26.874,6.979c-21.349,4.92-42.721,9.743-64.085,14.598
		c-0.366,0.084-0.749,0.145-1.121,0.132c-0.939-0.032-1.721-0.711-1.901-1.594c-0.202-0.983,0.214-1.912,1.082-2.336
		c0.273-0.134,0.582-0.198,0.882-0.266c11.91-2.673,23.827-5.31,35.729-8.017c16.048-3.646,32.097-7.283,48.004-11.516
		c4.573-1.217,9.131-2.487,13.572-4.137c0.408-0.149,0.807-0.323,1.292-0.517c-0.274-0.351-0.472-0.62-0.688-0.878
		c-2.088-2.481-3.178-5.351-3.276-8.581c-0.041-1.372,0.124-2.766-0.057-4.114c-0.175-1.311-0.711-2.57-1.016-3.869
		c-0.263-1.112-0.258-2.25,0.077-3.359c0.428-1.418,1.337-2.358,2.789-2.765c0.624-0.174,1.318-0.291,1.822-0.654
		c0.582-0.419,0.238-1.216,0.365-1.837c0.124-0.604,0.191-1.226,0.382-1.808c0.629-1.921,1.87-3.231,3.861-3.79
		c1.592-0.447,1.573-0.472,1.634-2.114c0.031-0.82,0.042-1.654,0.197-2.455c0.579-2.976,2.909-5.099,5.923-5.473
		c0.239-0.028,0.479-0.056,0.718-0.064c0.648-0.024,1.104-0.351,1.396-0.904c0.369-0.696,0.69-1.419,1.069-2.111
		c0.443-0.81,0.87-1.638,1.404-2.387c0.95-1.329,2.297-2.005,3.92-2.189c2.637-0.299,5.199,0.172,7.749,0.733
		c1.271,0.28,2.522,0.649,3.778,0.994c0.302,0.082,0.566,0.196,0.862-0.047c2.29-1.877,5.031-2.249,7.848-2.232
		c2.625,0.016,5.183,0.506,7.673,1.345c0.353,0.119,0.708,0.227,1.117,0.356c0.249-0.314,0.462-0.62,0.715-0.89
		c0.936-1.001,1.803-2.086,2.843-2.965c3.741-3.161,8.133-2.364,10.996-0.154c0.888,0.686,1.675,1.522,2.425,2.366
		c2.39,2.695,4.735,5.428,7.109,8.14c0.798,0.911,1.483,1.892,1.937,3.017c0.167,0.417,0.412,0.625,0.864,0.759
		c1.733,0.515,3.027,1.641,3.809,3.243c0.537,1.1,0.869,2.3,1.267,3.464c0.143,0.417,0.202,0.86,0.31,1.336
		c2.309,0.396,3.497,2.02,4.333,3.989c0.333,0.787,0.601,1.607,0.839,2.429c0.464,1.57,0.323,3.12-0.241,4.644
		c-0.59,1.592-1.473,3.019-2.454,4.391c-2.002,2.799-4.32,5.331-6.683,7.821c-0.162,0.172-0.314,0.354-0.556,0.62
		c0.34,0.121,0.605,0.237,0.881,0.311c15.854,4.149,31.717,8.268,47.702,11.895c6.883,1.562,13.837,2.83,20.771,4.19
		c13.762,2.693,27.528,5.362,41.293,8.039c0.168,0.034,0.338,0.064,0.503,0.117c1.144,0.352,1.797,1.369,1.564,2.428
		c-0.264,1.201-1.298,1.885-2.554,1.636c-2.289-0.449-4.565-0.955-6.854-1.404c-7.232-1.418-14.457-2.893-21.712-4.217
		c-19.166-3.497-38.254-7.322-57.106-12.271c-9.053-2.38-18.126-4.686-27.186-7.03c-0.487-0.126-0.882-0.157-1.312,0.237
		c-2.859,2.609-6.127,4.633-9.518,6.457c-3.111,1.671-6.263,3.27-9.412,4.872c-2.122,1.077-4.04,2.459-5.969,3.834
		c-0.667,0.472-1.342,0.931-2.125,1.474c0.202,0.108,0.3,0.176,0.405,0.216c6.128,2.335,12.038,5.156,18.004,7.855
		c7.873,3.565,15.796,7.008,23.875,10.087c0.225,0.087,0.452,0.17,0.665,0.278c0.997,0.518,1.428,1.603,1.041,2.605
		c-0.391,1.022-1.421,1.566-2.494,1.305c-0.265-0.065-0.515-0.186-0.773-0.282c-9.137-3.476-18.059-7.462-26.971-11.475
		c-4.908-2.206-9.867-4.299-14.818-6.411c-1.038-0.438-2.14-0.732-3.208-1.104c-0.484-0.167-0.903-0.113-1.366,0.145
		c-13.309,7.36-27.165,13.595-41.026,19.817c-0.402,0.178-0.832,0.354-1.262,0.398c-0.995,0.104-1.831-0.478-2.146-1.403
		c-0.304-0.9,0.044-1.896,0.878-2.422c0.317-0.198,0.673-0.338,1.016-0.494c7.848-3.616,15.748-7.127,23.529-10.879
		c6.114-2.949,12.128-6.114,18.096-9.349c2.827-1.535,5.464-3.428,8.15-5.209c2.293-1.522,4.708-2.816,7.164-4.044
		c3.589-1.796,7.17-3.608,10.571-5.75c2.39-1.508,4.638-3.2,6.568-5.273c2.523-2.714,5.077-5.401,7.5-8.205
		c1.132-1.311,1.998-2.862,2.966-4.314C199.585,56.284,198.729,53.599,197.313,51.905z M122.218,70.185
		c-0.001,0-0.001-0.042-0.02-0.064c-0.042-0.056-0.09-0.104-0.142-0.148c-0.796-0.676-1.055-1.521-0.664-2.49
		c0.4-0.99,1.228-1.332,2.242-1.296c0.651,0.023,1.304,0.059,1.953,0.109c3.026,0.235,5.975,0.773,8.781,2.006
		c1.409,0.618,2.868,1.15,4.346,1.575c0.939,0.27,1.952,0.343,2.937,0.376c1.012,0.031,1.71-0.592,2.267-1.396
		c0.271-0.387,0.238-0.71-0.132-0.973c-0.585-0.419-1.177-0.83-1.788-1.207c-1.196-0.737-2.455-1.387-3.6-2.196
		c-1.334-0.942-2.751-1.672-4.308-2.14c-1.838-0.55-3.706-1.014-5.523-1.625c-1.293-0.433-2.568-0.966-3.776-1.597
		c-1.151-0.603-1.449-1.882-0.846-2.908c0.586-0.994,1.778-1.337,2.863-0.736c1.304,0.723,2.699,1.176,4.122,1.572
		c3.269,0.909,6.491,1.848,9.477,3.605c2.528,1.488,5.304,2.566,8.011,3.734c1.315,0.568,2.711,0.962,4.09,1.362
		c0.548,0.16,1.16,0.209,1.729,0.155c0.921-0.084,1.575-0.623,1.938-1.486c0.344-0.823-0.216-1.318-0.72-1.762
		c-1.079-0.951-2.178-1.886-3.324-2.755c-1.694-1.288-3.474-2.462-5.142-3.778c-1.175-0.925-2.43-1.663-3.792-2.242
		c-3.801-1.615-7.77-2.692-11.766-3.676c-0.465-0.114-0.947-0.201-1.382-0.388c-0.947-0.405-1.39-1.351-1.174-2.375
		c0.195-0.921,1.027-1.599,2.011-1.588c0.373,0.008,0.752,0.078,1.114,0.171c1.927,0.496,3.843,1.021,5.771,1.511
		c5.977,1.525,11.32,4.3,16.121,8.152c0.777,0.625,1.558,1.245,2.375,1.81c1.523,1.052,3.046,2.109,4.625,3.072
		c0.69,0.42,1.495,0.698,2.283,0.896c1.108,0.277,1.633-0.316,1.157-1.364c-0.448-0.985-1.007-1.962-1.692-2.795
		c-2.536-3.074-5.232-6-8.094-8.777c-2.647-2.568-5.548-4.698-9.174-5.669c-1.125-0.303-2.245-0.627-3.378-0.899
		c-1.033-0.249-2.085-0.414-3.118-0.663c-1.148-0.276-1.78-1.258-1.6-2.4c0.168-1.072,1.064-1.778,2.207-1.719
		c0.341,0.019,0.686,0.068,1.02,0.141c1.139,0.245,2.274,0.509,3.412,0.764c5.182,1.156,9.735,3.465,13.438,7.333
		c2.11,2.206,4.221,4.414,6.331,6.621c0.229,0.239,0.458,0.478,0.806,0.843c0.106-0.486,0.193-0.806,0.243-1.133
		c0.186-1.283-0.23-2.443-0.775-3.565c-1.784-3.676-4.17-6.934-6.993-9.871c-0.462-0.48-1.072-0.863-1.68-1.148
		c-3.579-1.676-7.286-3.013-11.124-3.961c-2.233-0.552-4.484-1.011-6.811-0.918c-0.831,0.033-1.451,0.345-1.83,1.099
		c-0.17,0.337-0.345,0.672-0.516,1.007c-0.45,0.888-0.852,1.802-1.363,2.651c-1.054,1.76-2.572,2.82-4.687,2.89
		c-0.204,0.008-0.409,0.043-0.61,0.088c-1.388,0.309-2.082,1.018-2.254,2.436c-0.104,0.848-0.087,1.711-0.123,2.567
		c-0.071,1.623-0.775,2.922-2.12,3.804c-0.646,0.424-1.402,0.708-2.142,0.959c-1.066,0.362-1.393,0.691-1.51,1.801
		c-0.067,0.647-0.104,1.3-0.191,1.946c-0.233,1.732-1.112,3.003-2.75,3.685c-0.568,0.237-1.151,0.448-1.745,0.612
		c-0.458,0.126-0.628,0.389-0.561,0.824c0.1,0.644,0.092,1.347,0.364,1.912c0.932,1.939,0.9,3.97,0.797,6.03
		c-0.014,0.272-0.006,0.549,0.01,0.822c0.084,1.376,0.238,2.737,0.798,4.015c0.55,1.261,1.324,2.354,2.308,3.304
		C120.238,73.188,121.199,71.73,122.218,70.185z M163.651,39.508c0.513-0.134,1.061-0.221,1.567-0.418
		c0.727-0.285,1.469-0.58,2.123-0.998c0.822-0.523,0.955-1.204,0.443-2.035c-0.281-0.458-0.647-0.91-1.08-1.215
		c-0.75-0.529-1.546-1.03-2.387-1.39c-3.01-1.286-6.161-1.814-9.434-1.558c-0.145,0.011-0.285,0.075-0.62,0.167
		c1.927,1.001,3.94,1.448,5.337,2.946C160.953,36.459,162.255,37.955,163.651,39.508z"/>
	<path fill-rule="evenodd" clip-rule="evenodd" d="M79.82,57.871c2.986,0,5.972-0.007,8.957,0.006
		c0.405,0.002,0.829,0.047,1.206,0.18c0.826,0.293,1.37,1.175,1.323,2.015c-0.047,0.873-0.643,1.657-1.499,1.89
		c-0.358,0.101-0.745,0.13-1.116,0.13c-5.938,0.007-11.875,0.006-17.812,0.002c-0.273,0-0.552-0.009-0.818-0.06
		c-1.112-0.213-1.812-1.107-1.743-2.204c0.064-1.017,0.867-1.837,1.927-1.949c0.273-0.029,0.549-0.012,0.823-0.012
		C73.985,57.871,76.902,57.871,79.82,57.871z"/>
	<path fill-rule="evenodd" clip-rule="evenodd" d="M217.967,53.5c-1.23,0.024-2.159-0.746-2.288-1.901
		c-0.122-1.12,0.634-2.101,1.894-2.268c1.698-0.227,3.404-0.36,5.11-0.528c3.34-0.329,6.684-0.654,10.026-0.979
		c0.342-0.033,0.684-0.072,1.026-0.06c1.059,0.039,1.906,0.818,2.018,1.836c0.125,1.086-0.538,2.071-1.626,2.273
		c-0.907,0.169-1.836,0.236-2.758,0.327c-4.363,0.429-8.727,0.851-13.093,1.277C218.173,53.489,218.07,53.493,217.967,53.5z"/>
	<path fill-rule="evenodd" clip-rule="evenodd" d="M88.638,25.504c0.166,0.05,0.541,0.119,0.876,0.271
		c3.75,1.694,7.49,3.404,11.237,5.102c0.898,0.406,1.438,1.063,1.438,2.062c-0.001,1.354-1.33,2.329-2.652,1.977
		c-0.229-0.062-0.446-0.177-0.664-0.276c-3.622-1.643-7.243-3.286-10.862-4.933c-0.28-0.127-0.567-0.255-0.816-0.432
		c-0.748-0.533-1.037-1.511-0.736-2.386C86.745,26.058,87.532,25.504,88.638,25.504z"/>
	<path fill-rule="evenodd" clip-rule="evenodd" d="M214.118,22.75c-0.047,1.018-0.565,1.636-1.387,2.062
		c-2.464,1.275-4.922,2.558-7.385,3.839c-1.184,0.616-2.352,1.265-3.556,1.842c-1.197,0.575-2.432,0.103-2.914-1.048
		c-0.429-1.029-0.045-2.102,1.038-2.688c1.748-0.947,3.517-1.849,5.279-2.768c1.913-0.998,3.814-2.013,5.741-2.984
		c1.319-0.663,2.674-0.114,3.078,1.198C214.071,22.398,214.092,22.605,214.118,22.75z"/>
	<path fill-rule="evenodd" clip-rule="evenodd" d="M126.375,7.379c0.562,0.015,1.191,0.432,1.565,1.203
		c0.329,0.676,0.61,1.375,0.909,2.064c0.901,2.07,1.801,4.139,2.7,6.21c0.232,0.536,0.441,1.066,0.264,1.68
		c-0.253,0.878-0.809,1.431-1.701,1.578c-0.893,0.147-1.605-0.207-2.112-0.96c-0.057-0.083-0.105-0.176-0.145-0.269
		c-1.254-2.885-2.506-5.771-3.757-8.659c-0.23-0.531-0.21-1.064,0.022-1.592C124.465,7.843,125.201,7.366,126.375,7.379z"/>
	<path fill-rule="evenodd" clip-rule="evenodd" d="M166.921,14.693c0.049-0.17,0.116-0.544,0.258-0.886
		c0.988-2.335,1.979-4.671,2.994-6.994c0.576-1.316,1.776-1.808,2.923-1.25c0.871,0.424,1.328,1.356,1.125,2.31
		c-0.037,0.166-0.08,0.334-0.146,0.49c-1.038,2.427-2.062,4.86-3.127,7.274c-0.466,1.056-1.401,1.504-2.418,1.26
		C167.567,16.668,166.938,15.885,166.921,14.693z"/>
</g>
</svg>
