<svg width="149" height="33" viewBox="0 0 149 33" fill="none" xmlns="http://www.w3.org/2000/svg">
<g opacity="0.5">
<path d="M18.9956 11.6021C12.7739 11.4753 5.25097 17.1806 1.84017 20.078C0.871017 20.9012 0.99505 22.3757 2.08719 23.0271C5.67559 25.1673 13.1883 29.1741 18.9956 29.0783C24.7327 28.9837 30.0748 24.8297 32.3425 22.8058C33.0339 22.1887 33.1288 21.1756 32.566 20.4393C30.5068 17.7455 25.2202 11.729 18.9956 11.6021Z" stroke="#007385" stroke-width="2"/>
<path d="M25.2469 20.34C25.2469 21.7938 24.7998 23.0721 24.1241 23.9651C23.4488 24.8574 22.5898 25.32 21.7216 25.32C20.8535 25.32 19.9944 24.8574 19.3191 23.9651C18.6434 23.0721 18.1963 21.7938 18.1963 20.34C18.1963 18.8862 18.6434 17.6079 19.3191 16.7149C19.9944 15.8226 20.8535 15.36 21.7216 15.36C22.5898 15.36 23.4488 15.8226 24.1241 16.7149C24.7998 17.6079 25.2469 18.8862 25.2469 20.34Z" stroke="#007385" stroke-width="2"/>
<path d="M41.3481 20.72H101.987" stroke="#007385" stroke-width="2" stroke-linecap="round" stroke-dasharray="4 8"/>
<path d="M124.217 17.8286C124.747 20.7306 127.241 24.3313 128.245 25.6897C128.513 26.053 128.665 26.4887 128.665 26.9404V29.8407C128.665 30.6177 129.113 31.3316 129.847 31.5857C130.458 31.7972 131.196 32 131.778 32C132.36 32 133.098 31.7972 133.709 31.5857C134.443 31.3316 134.891 30.6177 134.891 29.8407V26.9297C134.891 26.4845 135.038 26.0548 135.3 25.6948C136.286 24.3385 138.757 20.7254 139.339 17.8286C140.229 13.4 135.833 8.97144 131.778 8.97144C127.723 8.97144 123.327 12.9571 124.217 17.8286Z" stroke="#007385" stroke-width="2"/>
<path d="M130.872 24.8958C131.107 25.3959 131.702 25.6113 132.202 25.3769C132.702 25.1425 132.918 24.5471 132.683 24.0471L130.872 24.8958ZM132.245 20.4308C131.97 20.9098 132.136 21.521 132.615 21.7959C133.094 22.0708 133.705 21.9053 133.98 21.4263L132.245 20.4308ZM134.032 19.3263L133.164 18.8286L134.032 19.3263ZM132.683 24.0471L130.238 18.8286L128.427 19.6774L130.872 24.8958L132.683 24.0471ZM130.238 18.8286H133.164V16.8286H130.238V18.8286ZM133.164 18.8286L132.245 20.4308L133.98 21.4263L134.899 19.8241L133.164 18.8286ZM133.164 18.8286L133.164 18.8286L134.899 19.8241C135.664 18.4908 134.702 16.8286 133.164 16.8286V18.8286ZM130.238 18.8286L130.238 18.8286V16.8286C128.773 16.8286 127.805 18.3511 128.427 19.6774L130.238 18.8286Z" fill="#007385"/>
<path d="M131.778 4.54286V1" stroke="#007385" stroke-width="2" stroke-linecap="round"/>
<path d="M121.195 9.31215L118.679 6.80698" stroke="#007385" stroke-width="2" stroke-linecap="round"/>
<path d="M141.916 9.31215L144.432 6.80698" stroke="#007385" stroke-width="2" stroke-linecap="round"/>
<path d="M119.545 20.5519L116 20.2431" stroke="#007385" stroke-width="2" stroke-linecap="round"/>
<path d="M144.455 20.5519L148 20.2431" stroke="#007385" stroke-width="2" stroke-linecap="round"/>
</g>
</svg>
