<?xml version="1.0" encoding="utf-8"?>
<!-- Generator: Adobe Illustrator 16.0.0, SVG Export Plug-In . SVG Version: 6.00 Build 0)  -->
<!DOCTYPE svg PUBLIC "-//W3C//DTD SVG 1.1//EN" "http://www.w3.org/Graphics/SVG/1.1/DTD/svg11.dtd">
<svg version="1.1" id="Layer_1" xmlns="http://www.w3.org/2000/svg" xmlns:xlink="http://www.w3.org/1999/xlink" x="0px" y="0px"
	 width="33px" height="33px" viewBox="0 0 33 33" enable-background="new 0 0 33 33" xml:space="preserve">
<rect fill-opacity="0" width="33" height="33"/>
<path d="M33,16.5C33,25.613,25.613,33,16.5,33C7.387,33,0,25.613,0,16.5C0,7.387,7.387,0,16.5,0C25.613,0,33,7.387,33,16.5z
	 M26.791,10.826c-0.712,0.332-1.477,0.555-2.28,0.656c0.819-0.515,1.449-1.332,1.745-2.304c-0.767,0.477-1.616,0.824-2.52,1.011
	c-0.725-0.81-1.757-1.315-2.898-1.315c-2.192,0-3.97,1.865-3.97,4.166c0,0.327,0.035,0.645,0.103,0.949
	c-3.299-0.174-6.224-1.832-8.182-4.352c-0.342,0.615-0.538,1.331-0.538,2.094c0,1.445,0.701,2.72,1.767,3.467
	c-0.651-0.021-1.263-0.209-1.798-0.521c0,0.017,0,0.035,0,0.052c0,2.018,1.368,3.702,3.184,4.085
	c-0.333,0.095-0.684,0.146-1.046,0.146c-0.255,0-0.504-0.027-0.747-0.076c0.505,1.655,1.971,2.859,3.708,2.894
	c-1.358,1.117-3.07,1.783-4.93,1.783c-0.32,0-0.636-0.02-0.947-0.058c1.757,1.182,3.843,1.871,6.085,1.871
	c7.301,0,11.295-6.348,11.295-11.852c0-0.181-0.005-0.36-0.012-0.539C25.586,12.395,26.259,11.661,26.791,10.826"/>
</svg>
