<svg id="a4835f54-1373-4162-b3ae-5685668ece7f" data-name="Layer 1" xmlns="http://www.w3.org/2000/svg" viewBox="0 0 22 22"><path d="M11,9A2,2,0,1,0,13,11,2,2,0,0,0,11,9Z"/><path d="M11,0A11,11,0,1,0,22,11,11,11,0,0,0,11,0Zm6,13.52a3.69,3.69,0,0,1-1,2.57,3.51,3.51,0,0,1-2.51,1c-1,.06-4,.06-5,0a3.52,3.52,0,0,1-2.52-1,3.69,3.69,0,0,1-1-2.57c-.06-1-.06-4,0-5A3.72,3.72,0,0,1,6,5.9a3.53,3.53,0,0,1,2.52-1c1,0,4,0,5,0A3.55,3.55,0,0,1,16,5.9a3.63,3.63,0,0,1,1,2.57C17,9.48,17,12.51,17,13.52Z"/><path d="M15.68,7.39a2,2,0,0,0-1.14-1.17A10.85,10.85,0,0,0,11.42,6h-.84a10.85,10.85,0,0,0-3.12.25A2.08,2.08,0,0,0,6.32,7.39a11.66,11.66,0,0,0-.24,3.18v.86a11.27,11.27,0,0,0,.24,3.18,2,2,0,0,0,1.14,1.16,10.53,10.53,0,0,0,3.12.25h.85a10.44,10.44,0,0,0,3.11-.25,2,2,0,0,0,1.14-1.16,11.25,11.25,0,0,0,.25-3.18c0-.16,0-.31,0-.43s0-.28,0-.44A11.18,11.18,0,0,0,15.68,7.39ZM11,14.14A3.14,3.14,0,1,1,14.08,11,3.1,3.1,0,0,1,11,14.14Zm3.21-5.68a.74.74,0,1,1,.71-.73A.73.73,0,0,1,14.21,8.46Z"/></svg>