<?xml version="1.0" encoding="utf-8"?>
<!-- Generator: Adobe Illustrator 16.0.0, SVG Export Plug-In . SVG Version: 6.00 Build 0)  -->
<!DOCTYPE svg PUBLIC "-//W3C//DTD SVG 1.1//EN" "http://www.w3.org/Graphics/SVG/1.1/DTD/svg11.dtd">
<svg version="1.1" id="Layer_1" xmlns="http://www.w3.org/2000/svg" xmlns:xlink="http://www.w3.org/1999/xlink" x="0px" y="0px"
	 width="600px" height="130px" viewBox="0 0 600 130" enable-background="new 0 0 600 130" xml:space="preserve">
<rect x="0.929" opacity="0" fill-rule="evenodd" clip-rule="evenodd" width="600" height="130"/>
<g opacity="0.7">
	<path fill-rule="evenodd" clip-rule="evenodd" d="M49.7,96.182c-6.244-0.204-12.146-1.834-17.919-4.007
		c-6.896-2.593-13.443-5.916-19.75-9.711c-3.614-2.175-4.234-7.005-1.067-9.733c8.227-7.089,17.047-13.288,27.324-17.114
		c3.985-1.484,8.096-2.385,12.387-2.222c5.055,0.191,9.643,1.874,13.942,4.425c6.864,4.075,12.37,9.636,17.171,15.931
		c1.781,2.335,1.619,5.666-0.53,7.613c-7.474,6.774-15.769,12.125-25.851,14.134C53.534,95.871,51.604,95.96,49.7,96.182z
		 M50.042,91.724c0.685-0.049,1.72-0.093,2.746-0.209c0.849-0.097,1.698-0.236,2.532-0.425c8.78-1.993,16.025-6.761,22.668-12.599
		c0.776-0.683,0.806-1.509,0.145-2.363c-4.206-5.433-8.956-10.3-14.802-13.992c-3.686-2.327-7.625-4.004-12.039-4.341
		c-4.314-0.328-8.399,0.677-12.361,2.23c-9.305,3.648-17.301,9.39-24.888,15.759c-1.109,0.933-0.948,2.241,0.331,3.004
		c6.706,4.003,13.655,7.504,21.049,10.066C40.046,90.456,44.763,91.625,50.042,91.724z"/>
	<path fill-rule="evenodd" clip-rule="evenodd" d="M288.52,92.637c0.734-3.062-0.747-5.363-2.44-7.707
		c-2.563-3.548-4.654-7.384-6.226-11.486c-4.34-11.334,2.403-20.941,10.899-24.431c7.203-2.959,13.544-1.151,19.153,3.828
		c3.65,3.243,5.957,7.288,6.534,12.214c0.373,3.177-0.434,6.151-1.599,9.056c-1.913,4.77-4.624,9.088-7.591,13.253
		c-0.526,0.74-0.767,1.501-0.756,2.39c0.018,1.891,0.014,3.782,0.003,5.673c-0.019,3.02-1.591,5.11-4.418,6.146
		c-3.336,1.221-6.604,1.083-9.833-0.283c-2.353-0.995-3.53-2.875-3.713-5.373C288.454,94.829,288.52,93.73,288.52,92.637z
		 M312.167,66.5c-0.036-0.431-0.047-0.995-0.136-1.547c-0.625-3.827-2.634-6.848-5.532-9.316c-2.515-2.141-5.367-3.563-8.732-3.663
		c-8.184-0.244-18.091,8.687-13.932,19.664c1.795,4.74,4.412,9.005,7.378,13.068c1.152,1.576,1.709,3.265,1.675,5.197
		c-0.032,1.803-0.013,3.606-0.004,5.409c0.007,1.295,0.352,1.705,1.548,2.15c1.99,0.74,3.959,0.788,5.97,0.072
		c1.373-0.488,1.763-0.929,1.77-2.373c0.01-1.893,0.033-3.784-0.006-5.676c-0.036-1.696,0.474-3.177,1.461-4.545
		c2.354-3.259,4.503-6.648,6.221-10.295C311.049,72.102,312.12,69.514,312.167,66.5z"/>
	<path fill-rule="evenodd" clip-rule="evenodd" d="M152.379,77.71c-1.419,0-2.838,0.011-4.256-0.003
		c-1.354-0.014-2.31-0.911-2.321-2.148c-0.011-1.255,0.905-2.166,2.292-2.178c2.867-0.025,5.734-0.024,8.602-0.002
		c1.384,0.011,2.316,0.91,2.323,2.152c0.007,1.278-0.952,2.164-2.382,2.177C155.217,77.72,153.798,77.71,152.379,77.71z"/>
	<path fill-rule="evenodd" clip-rule="evenodd" d="M179,77.709c-1.445,0.001-2.89,0.015-4.333-0.004
		c-1.325-0.017-2.293-0.962-2.284-2.188c0.009-1.19,0.933-2.12,2.244-2.134c2.918-0.03,5.838-0.031,8.756-0.001
		c1.338,0.014,2.267,0.994,2.229,2.233c-0.039,1.211-0.956,2.07-2.278,2.089C181.889,77.725,180.444,77.709,179,77.709z"/>
	<path fill-rule="evenodd" clip-rule="evenodd" d="M125.833,77.71c-1.444,0-2.889,0.013-4.334-0.004
		c-1.299-0.015-2.255-0.895-2.299-2.078c-0.046-1.238,0.887-2.23,2.223-2.244c2.918-0.03,5.838-0.031,8.757-0.001
		c1.373,0.015,2.265,0.943,2.24,2.209c-0.024,1.235-0.968,2.102-2.34,2.114C128.663,77.721,127.248,77.71,125.833,77.71z"/>
	<path fill-rule="evenodd" clip-rule="evenodd" d="M205.546,77.71c-1.416,0-2.831,0.012-4.246-0.004
		c-1.358-0.016-2.31-0.904-2.331-2.143c-0.02-1.202,0.954-2.171,2.294-2.183c2.889-0.025,5.778-0.026,8.667,0.002
		c1.343,0.013,2.311,0.988,2.281,2.188c-0.031,1.243-0.974,2.121-2.333,2.135C208.436,77.721,206.99,77.71,205.546,77.71z"/>
	<path fill-rule="evenodd" clip-rule="evenodd" d="M299.681,36.248c0,1.238,0.012,2.477-0.003,3.716
		c-0.016,1.312-0.879,2.232-2.097,2.268c-1.271,0.037-2.224-0.854-2.241-2.212c-0.035-2.536-0.03-5.074-0.003-7.609
		c0.014-1.362,0.931-2.27,2.19-2.266c1.255,0.003,2.138,0.933,2.151,2.298C299.692,33.71,299.681,34.979,299.681,36.248z"/>
	<path fill-rule="evenodd" clip-rule="evenodd" d="M332.823,72.337c0.816-0.102,1.688,0.199,2.19,1.205
		c0.406,0.812,0.357,1.649-0.272,2.3c-0.36,0.372-0.911,0.715-1.412,0.773c-2.546,0.291-5.101,0.511-7.656,0.706
		c-1.431,0.108-2.444-0.729-2.545-1.988c-0.1-1.236,0.787-2.213,2.225-2.351C327.758,72.75,330.166,72.563,332.823,72.337z"/>
	<path fill-rule="evenodd" clip-rule="evenodd" d="M327.557,45.132c-0.253,0.482-0.412,1.055-0.773,1.431
		c-1.785,1.847-3.609,3.657-5.449,5.449c-0.95,0.926-2.325,0.906-3.172,0.026c-0.842-0.875-0.778-2.207,0.169-3.159
		c1.77-1.779,3.545-3.554,5.323-5.325c0.699-0.696,1.534-0.859,2.444-0.506C326.934,43.37,327.434,44.167,327.557,45.132z"/>
	<path fill-rule="evenodd" clip-rule="evenodd" d="M273.955,52.706c-0.263-0.149-0.869-0.353-1.287-0.754
		c-1.831-1.76-3.617-3.568-5.4-5.377c-0.87-0.885-0.881-2.17-0.071-3.027c0.818-0.864,2.207-0.934,3.101-0.067
		c1.887,1.83,3.744,3.69,5.588,5.565c0.665,0.675,0.78,1.522,0.39,2.38C275.903,52.249,275.219,52.664,273.955,52.706z"/>
	<path fill-rule="evenodd" clip-rule="evenodd" d="M263.541,72.371c2.246,0.19,4.656,0.372,7.062,0.603
		c1.452,0.139,2.348,1.1,2.264,2.326c-0.087,1.283-1.127,2.13-2.604,2.019c-2.438-0.184-4.876-0.402-7.31-0.646
		c-1.456-0.147-2.34-1.12-2.22-2.344C260.859,73.022,261.849,72.288,263.541,72.371z"/>
	<path fill-rule="evenodd" clip-rule="evenodd" d="M101.439,77.708c-0.736,0.001-1.474,0.019-2.209-0.003
		c-1.257-0.039-2.137-0.904-2.166-2.1c-0.029-1.215,0.793-2.165,2.04-2.209c1.559-0.054,3.123-0.057,4.681,0.006
		c1.259,0.05,2.066,0.994,2.031,2.209c-0.035,1.198-0.908,2.053-2.168,2.091C102.912,77.725,102.175,77.706,101.439,77.708z"/>
	<path fill-rule="evenodd" clip-rule="evenodd" d="M229.897,77.708c-0.736,0-1.474,0.022-2.208-0.006
		c-1.179-0.044-2.069-0.935-2.114-2.076c-0.046-1.159,0.836-2.182,2.041-2.226c1.559-0.055,3.123-0.056,4.681-0.003
		c1.223,0.042,2.104,1.035,2.072,2.2c-0.029,1.176-0.936,2.067-2.176,2.105C231.429,77.727,230.662,77.708,229.897,77.708z"/>
	<path fill-rule="evenodd" clip-rule="evenodd" d="M66.103,74.968c-0.094,3.604-1.04,7.092-3.69,9.903
		c-3.865,4.104-9.265,3.888-12.873-0.438c-4.42-5.3-4.338-14.414,0.177-19.625c3.795-4.38,9.586-4.245,13.222,0.319
		C65.19,67.954,66.063,71.238,66.103,74.968z M61.726,74.377c-0.011-2.248-0.611-4.674-2.351-6.703
		c-1.965-2.293-4.486-2.263-6.426,0.043c-1.338,1.592-1.998,3.469-2.222,5.499c-0.321,2.909,0.149,5.67,1.907,8.081
		c2.072,2.843,4.909,2.868,7.037,0.09C61.166,79.434,61.719,77.168,61.726,74.377z"/>
	<path fill-rule="evenodd" clip-rule="evenodd" d="M300.54,71.415c-2.215,0-4.218,0-6.374,0c0.145,0.341,0.252,0.621,0.38,0.893
		c1.625,3.474,3.261,6.942,4.875,10.42c0.481,1.039,0.286,2.013-0.462,2.673c-0.685,0.606-1.79,0.756-2.547,0.218
		c-0.411-0.293-0.772-0.743-0.991-1.201c-1.78-3.726-3.543-7.461-5.267-11.215c-1.31-2.853,0.708-6.081,3.837-6.15
		c2.246-0.049,4.493-0.052,6.737,0c3.12,0.071,5.136,3.372,3.761,6.17c-0.662,1.348-1.431,2.647-2.22,3.928
		c-0.645,1.05-1.927,1.32-2.946,0.718c-1.011-0.596-1.36-1.839-0.773-2.936C299.158,73.793,299.818,72.684,300.54,71.415z"/>
</g>
</svg>
