<svg width="22" height="22" viewBox="0 0 22 22" fill="none" xmlns="http://www.w3.org/2000/svg">
<path fill-rule="evenodd" clip-rule="evenodd" d="M11 22C17.0751 22 22 17.0751 22 11C22 4.92487 17.0751 0 11 0C4.92493 0 0 4.92487 0 11C0 17.0751 4.92493 22 11 22ZM16.5667 11.0491C17.8563 9.75934 17.8466 7.65863 16.5449 6.35693C15.2432 5.05524 13.1425 5.04547 11.8528 6.33521L9.98462 8.20337C8.69482 9.49304 8.70459 11.5938 10.0063 12.8955L10.3206 13.2098C10.5809 13.4701 11.0011 13.472 11.259 13.2141C11.517 12.9562 11.515 12.536 11.2546 12.2757L10.9404 11.9614C10.1594 11.1804 10.1536 9.91998 10.9274 9.14612L12.7955 7.27795C13.5693 6.50415 14.8298 6.50995 15.6108 7.29102C16.3918 8.07202 16.3977 9.33246 15.6239 10.1063L14.6138 11.1164C14.3558 11.3743 14.3578 11.7945 14.618 12.0548C14.8784 12.3152 15.2986 12.3171 15.5565 12.0592L16.5667 11.0491ZM6.28088 11.9071C5.02112 13.1668 5.05518 15.2433 6.35693 16.545C7.65857 17.8467 9.73499 17.8807 10.9948 16.621L12.8195 14.7963C14.0792 13.5366 14.0452 11.4601 12.7434 10.1584L12.4292 9.84418C12.1688 9.5838 11.7535 9.57703 11.5016 9.82898C11.2496 10.0809 11.2565 10.4962 11.5168 10.7565L11.8311 11.0708C12.6121 11.8518 12.6324 13.0977 11.8767 13.8535L10.052 15.6782C9.29614 16.434 8.05029 16.4136 7.26929 15.6326C6.48828 14.8516 6.46777 13.6057 7.22363 12.8499L8.13599 11.9376C8.38794 11.6856 8.3811 11.2703 8.12073 11.0099C7.86047 10.7496 7.44519 10.7428 7.19324 10.9948L6.28088 11.9071Z" fill="black"/>
</svg>
