<?xml version="1.0" encoding="utf-8"?>
<!-- Generator: Adobe Illustrator 16.0.0, SVG Export Plug-In . SVG Version: 6.00 Build 0)  -->
<!DOCTYPE svg PUBLIC "-//W3C//DTD SVG 1.1//EN" "http://www.w3.org/Graphics/SVG/1.1/DTD/svg11.dtd">
<svg version="1.1" id="Layer_1" xmlns="http://www.w3.org/2000/svg" xmlns:xlink="http://www.w3.org/1999/xlink" x="0px" y="0px"
	 width="600px" height="130px" viewBox="0 0 600 130" enable-background="new 0 0 600 130" xml:space="preserve">
<rect opacity="0" fill-rule="evenodd" clip-rule="evenodd" width="600" height="130"/>
<g opacity="0.7">
	<path fill-rule="evenodd" clip-rule="evenodd" d="M40.015,55.116c0,0.964,0.004,1.844,0,2.723c-0.008,1.515-0.806,2.309-2.329,2.31
		c-4.865,0.002-9.729,0.002-14.594,0c-1.498,0-2.297-0.773-2.301-2.261c-0.011-3.347-0.012-6.692,0-10.038
		c0.006-1.478,0.782-2.226,2.255-2.227c4.885-0.001,9.77-0.002,14.655,0.001c1.538,0,2.306,0.771,2.312,2.303
		c0.003,1.024,0,2.047,0,3.252c1.162,0,2.284-0.028,3.403,0.004c6.869,0.203,13.661,0.943,20.27,2.952
		c5.05,1.535,9.773,3.781,14.321,6.433c5.159,3.007,10.56,5.436,16.398,6.817c3.243,0.766,6.529,1.203,9.853,1.396
		c0.121,0.006,0.242,0.001,0.459,0.001c0-0.263,0-0.5,0-0.736c0-3.183-0.001-6.363,0-9.545c0-1.654,0.751-2.41,2.396-2.41
		c10.797,0,21.593,0,32.388,0c1.723,0.001,2.436,0.71,2.436,2.422c0.002,3.14,0,6.281,0,9.421c0,0.24,0,0.48,0,0.892
		c1.553-0.289,3.01-0.495,4.435-0.838c3.472-0.833,6.615-2.423,9.554-4.409c2.464-1.664,4.834-3.467,7.32-5.096
		c4.081-2.675,8.628-4.122,13.431-4.826c4.338-0.636,8.708-0.689,13.079-0.712c0.325-0.002,0.649,0,1.057,0c0-0.271,0-0.488,0-0.707
		c0-1.497-0.012-2.996,0.004-4.494c0.012-1.302,0.823-2.117,2.121-2.117c7.902-0.007,15.804-0.007,23.708,0
		c1.261,0,2.071,0.825,2.083,2.091c0.014,1.519,0.003,3.039,0.003,4.557c0,0.201,0,0.4,0,0.657c1.366,0,2.675,0.026,3.98-0.005
		c5.17-0.119,10.341-0.184,15.506-0.413c3.851-0.169,7.69-0.614,11.54-0.836c4.648-0.267,9.302-0.494,13.956-0.617
		c4.595-0.121,9.193-0.09,13.789-0.126c0.203-0.002,0.405,0,0.708,0c0-0.798,0-1.548,0-2.299c0-0.348-0.007-0.697,0.004-1.047
		c0.032-1.119,0.826-1.93,1.951-1.959c0.983-0.024,1.97-0.006,2.955-0.006c3.94-0.001,7.882-0.001,11.822,0
		c1.763,0,2.474,0.702,2.474,2.445c0.001,3.263,0.001,6.526-0.001,9.79c0,1.492-0.787,2.29-2.274,2.291
		c-4.884,0.002-9.77,0.002-14.654,0c-1.496,0-2.27-0.78-2.276-2.276c-0.002-0.942,0-1.886,0-2.883
		c-13.346-0.22-26.621,0.278-39.873,1.647c1.131,0.67,2.304,1.268,3.368,2.019c1.941,1.371,3.835,2.811,5.719,4.261
		c4.105,3.157,8.809,4.923,13.809,6.005c4.566,0.99,9.203,1.421,13.86,1.579c4.325,0.146,8.657,0.154,12.986,0.224
		c0.241,0.005,0.481,0.001,0.811,0.001c0-0.473,0-0.876,0-1.28c0-0.882-0.006-1.766,0.001-2.646
		c0.012-1.498,0.789-2.278,2.278-2.288c1.13-0.008,2.259-0.002,3.387-0.002c3.694,0,7.39-0.002,11.084,0.001
		c1.723,0.001,2.476,0.757,2.477,2.479c0.002,3.2,0.002,6.404,0,9.604c-0.001,1.718-0.727,2.455-2.416,2.455
		c-4.783,0.002-9.564,0.001-14.348,0.001c-0.165,0-0.328-0.004-0.493-0.011c-1.142-0.057-1.911-0.804-1.96-1.956
		c-0.033-0.753-0.006-1.511-0.006-2.368c-0.838,0-1.609,0.017-2.378-0.002c-4.902-0.12-9.81-0.141-14.704-0.397
		c-6.389-0.338-12.682-1.281-18.69-3.643c-3.565-1.402-6.772-3.379-9.712-5.827c-1.226-1.02-2.549-1.921-3.94-2.778
		c0.024,0.058,0.037,0.124,0.074,0.171c2.507,3.425,5.009,6.854,7.53,10.271c2.136,2.896,4.414,5.662,7.283,7.886
		c3.74,2.897,8.033,4.559,12.579,5.647c4.619,1.106,9.315,1.733,14.049,1.983c5.243,0.276,10.495,0.409,15.743,0.603
		c0.204,0.008,0.407,0,0.707,0c0-0.735-0.001-1.446,0-2.153c0-0.35-0.008-0.698,0.006-1.047c0.045-1.153,0.855-1.973,2.01-1.976
		c5.068-0.012,10.138-0.012,15.21,0c1.143,0.003,1.976,0.84,1.98,1.993c0.014,3.511,0.015,7.021-0.001,10.53
		c-0.005,1.187-0.88,1.989-2.123,1.993c-2.298,0.01-4.598,0.004-6.896,0.004c-2.627,0-5.255,0.001-7.882-0.002
		c-1.523-0.001-2.295-0.778-2.303-2.315c-0.005-0.98-0.001-1.961-0.001-3.073c-1.419,0-2.766,0.014-4.115-0.002
		c-5.953-0.065-11.896-0.338-17.813-1.018c-5.183-0.595-10.294-1.529-15.212-3.354c-6.21-2.306-11.146-6.272-15.075-11.535
		c-2.59-3.466-5.082-7.008-7.667-10.479c-1.872-2.512-3.983-4.796-6.73-6.402c-2.636-1.543-5.516-2.276-8.525-2.564
		c-1.157-0.112-2.324-0.148-3.563-0.225c0,0.359,0,0.64,0,0.92c0,1.457,0.007,2.915-0.002,4.373
		c-0.008,1.295-0.811,2.113-2.098,2.164c-0.144,0.005-0.287,0.001-0.431,0.001c-7.614,0-15.229,0.001-22.845,0
		c-1.817,0-2.542-0.721-2.542-2.528c0-1.416,0-2.832,0-4.248c0-0.22,0-0.439,0-0.696c-1.623,0-3.177-0.03-4.73,0.007
		c-3.755,0.087-7.501,0.279-11.194,1.055c-4.306,0.9-8.197,2.676-11.71,5.324c-3.146,2.37-6.365,4.641-9.931,6.359
		c-0.405,0.193-0.814,0.381-1.25,0.585c0.053,0.059,0.08,0.116,0.12,0.127c3.56,1.069,6.797,2.84,10.044,4.59
		c4.686,2.526,9.517,4.688,14.733,5.896c3.526,0.819,7.099,1.321,10.705,1.516c3.953,0.212,7.914,0.28,11.872,0.412
		c0.2,0.005,0.401,0,0.671,0c0-0.281,0-0.5,0-0.719c0-1.704-0.007-3.406,0.001-5.11c0.006-1.23,0.815-2.075,2.027-2.076
		c7.943-0.009,15.887-0.008,23.83,0c1.12,0.001,1.89,0.721,2.021,1.831c0.028,0.245,0.026,0.493,0.026,0.739
		c0.002,4.558,0.002,9.113,0.001,13.671c0,1.895-0.701,2.59-2.604,2.59c-7.635,0-15.271,0-22.906,0
		c-1.651,0-2.396-0.749-2.396-2.403c0-1.474,0-2.945,0-4.574c-1.528,0-2.999,0.018-4.468-0.003
		c-4.557-0.068-9.102-0.304-13.628-0.876c-5.841-0.74-11.449-2.297-16.753-4.853c-3.469-1.671-6.85-3.526-10.309-5.218
		c-4.027-1.971-8.343-2.764-12.795-2.923c-0.057-0.002-0.115,0.026-0.251,0.06c0,0.229,0,0.47,0,0.71c0,3.1,0.002,6.199,0,9.298
		c-0.001,1.656-0.752,2.407-2.407,2.407c-10.775,0.001-21.552,0.001-32.327,0c-1.731,0-2.486-0.751-2.486-2.464
		c-0.001-3.08,0-6.159,0-9.238c0-0.221,0-0.443,0-0.791c-1.319,0.208-2.577,0.346-3.808,0.606
		c-6.504,1.383-12.104,4.463-16.932,9.016c-3.192,3.009-6.612,5.707-10.685,7.472c-3.596,1.559-7.39,2.128-11.264,2.301
		c-1.247,0.056-2.499,0.009-3.798,0.009c-0.028,0.318-0.054,0.493-0.056,0.668c-0.004,0.943,0.004,1.889-0.004,2.833
		c-0.01,1.329-0.823,2.14-2.147,2.149c-0.35,0.004-0.698,0.002-1.046,0.002c-4.557,0-9.113,0.001-13.67-0.002
		c-1.56-0.001-2.338-0.781-2.34-2.354c-0.003-3.306-0.004-6.608,0.001-9.914c0.001-1.459,0.787-2.253,2.233-2.257
		c4.926-0.002,9.852-0.002,14.778,0c1.424,0.004,2.188,0.781,2.194,2.218c0.002,0.897,0,1.794,0,2.787
		c1.763-0.076,3.441-0.106,5.114-0.229c3.001-0.216,5.932-0.763,8.699-2.013c3.046-1.375,5.706-3.33,8.129-5.586
		c3.138-2.924,6.433-5.606,10.27-7.563c0.049-0.026,0.088-0.073,0.208-0.172c-0.185-0.014-0.292-0.028-0.4-0.028
		c-7.226,0.009-14.452-0.073-21.673,0.063c-4.674,0.09-9.344,0.454-14.01,0.779c-6.673,0.463-13.344,0.952-20.038,1.005
		c-0.22,0.001-0.442,0.021-0.725,0.037c0,0.727,0.006,1.42-0.001,2.111c-0.013,1.369-0.808,2.186-2.183,2.188
		c-4.948,0.011-9.894,0.011-14.84,0c-1.434-0.003-2.189-0.778-2.192-2.226c-0.008-3.346-0.009-6.692,0-10.036
		c0.005-1.498,0.786-2.271,2.289-2.271c4.865-0.006,9.729-0.006,14.594,0c1.554,0.001,2.332,0.804,2.334,2.366
		c0.001,1.247,0,2.495,0,3.798c0.667,0,1.277,0.027,1.884-0.004c6.636-0.36,13.275-0.679,19.908-1.109
		c5.959-0.386,11.918-0.734,17.894-0.73c3.756,0.003,7.511,0.001,11.268,0.001c0.216,0,0.433,0,0.649,0
		c0.007-0.039,0.014-0.08,0.02-0.119c-0.906-0.399-1.841-0.748-2.715-1.208c-3.248-1.704-6.478-3.44-9.71-5.171
		c-5.648-3.027-11.625-5.086-17.957-6.101c-4.75-0.76-9.536-1.047-14.338-1.115C40.467,55.115,40.286,55.116,40.015,55.116z
		 M137.903,60.126c-9.728,0-19.416,0-29.123,0c0,7.092,0,14.143,0,21.213c9.722,0,19.411,0,29.123,0
		C137.903,74.254,137.903,67.209,137.903,60.126z M224.004,78.99c-0.204-0.018-0.365-0.042-0.525-0.042
		c-6.256-0.002-12.514,0.003-18.771-0.012c-0.469-0.001-0.586,0.149-0.584,0.599c0.017,3.222,0.008,6.443,0.011,9.665
		c0,0.172,0.032,0.347,0.049,0.518c6.637,0,13.213,0,19.821,0C224.004,86.142,224.004,82.599,224.004,78.99z M194.861,60.402
		c6.632,0,13.205,0,19.79,0c0-3.601,0-7.17,0-10.741c-6.626,0-13.199,0-19.79,0C194.861,53.254,194.861,56.797,194.861,60.402z
		 M35.969,49.654c-3.747,0-7.429,0-11.147,0c0,2.16,0,4.281,0,6.428c3.73,0,7.429,0,11.147,0
		C35.969,53.93,35.969,51.821,35.969,49.654z M293.372,49.65c-3.743,0-7.407,0-11.104,0c0,2.17,0,4.305,0,6.425
		c3.738,0,7.422,0,11.104,0C293.372,53.919,293.372,51.809,293.372,49.65z M29.68,68.577c-3.735,0-7.416,0-11.128,0
		c-0.013,0.219-0.032,0.398-0.032,0.58c-0.003,1.743,0.021,3.486-0.015,5.229c-0.011,0.554,0.16,0.687,0.694,0.683
		c3.281-0.023,6.562-0.011,9.844-0.013c0.2,0,0.4-0.019,0.637-0.029C29.68,72.865,29.68,70.742,29.68,68.577z M304.059,75.029
		c0-2.186,0-4.309,0-6.439c-3.732,0-7.43,0-11.116,0c0,2.173,0,4.292,0,6.439C296.664,75.029,300.332,75.029,304.059,75.029z
		 M54.157,93.905c0-2.152,0-4.27,0-6.411c-3.736,0-7.431,0-11.119,0c0,2.17,0,4.292,0,6.411
		C46.765,93.905,50.446,93.905,54.157,93.905z M301.497,87.476c0,2.179,0,4.298,0,6.425c3.725,0,7.4,0,11.09,0
		c0-2.156,0-4.274,0-6.425C308.881,87.476,305.22,87.476,301.497,87.476z"/>
</g>
</svg>
