<svg viewBox="0 0 64 35" xmlns="http://www.w3.org/2000/svg">
  <path d="M60.1895 19.1783C60.5875 19.7481 60.7832 20.5109 60.7832 21.4694C60.7832 23.0216 60.4421 24.3102 59.7623 25.3339C59.0786 26.3576 58.26 26.8688 57.2998 26.8688C56.6928 26.8688 56.1849 26.588 55.7763 26.0262C55.3676 25.4644 55.1613 24.7376 55.1613 23.8456C55.1613 22.352 55.5025 21.0567 56.1849 19.9624C56.8687 18.8695 57.678 18.3224 58.6197 18.3224C59.2703 18.3224 59.794 18.6086 60.1895 19.1783ZM54.4869 18.6325C53.3694 19.9704 52.8113 21.6344 52.8113 23.6246C52.8113 25.2261 53.2159 26.4774 54.0253 27.3774C54.8334 28.2773 55.9522 28.7272 57.3778 28.7272C58.9966 28.7272 60.3614 28.059 61.4696 26.7211C62.5792 25.3832 63.1333 23.6739 63.1333 21.5919C63.1333 20.0889 62.722 18.8868 61.8981 17.9816C61.0742 17.0777 59.9831 16.625 58.6183 16.625C56.9837 16.6264 55.6044 17.2946 54.4869 18.6325ZM50.4824 16.9725L46.6008 24.2077L44.9464 16.9725H42.6743L45.4397 28.5928H46.5783L52.8113 16.9725H50.4824ZM32.0613 16.9725L30.3593 28.3691H32.6247L33.7356 21.1113C33.7541 20.9848 34.0041 20.696 34.4841 20.2433C34.9655 19.7894 35.3689 19.4512 35.6956 19.2289C36.0222 19.0053 36.329 18.8402 36.6147 18.7337C36.9016 18.6259 37.1595 18.5726 37.3896 18.5726C37.7864 18.5726 38.117 18.7297 38.3815 19.0426C38.6447 19.3567 38.7796 19.8107 38.7796 20.4057C38.7796 20.6201 38.7558 20.8557 38.7135 21.1113L37.6039 28.3691H39.8706L41.0358 21.1858C41.0887 20.8717 41.1151 20.5708 41.1151 20.2819C41.1151 19.2569 40.8559 18.4222 40.3375 17.7739C39.8164 17.1256 39.0877 16.8008 38.1448 16.8008C36.7549 16.8008 35.4139 17.5436 34.1205 19.0306L34.0583 18.9906L34.3664 16.9738H32.0613V16.9725ZM26.7952 16.9725L25.0931 28.3691H27.385L29.0884 16.9725H26.7952ZM27.4353 14.2794C27.6945 14.523 28.0052 14.6429 28.3663 14.6429C28.7273 14.6429 29.0368 14.5217 29.296 14.2794C29.5565 14.0345 29.6861 13.7443 29.6861 13.4061C29.6861 13.0587 29.5565 12.7645 29.296 12.5209C29.0368 12.2759 28.7273 12.1548 28.3663 12.1548C28.0052 12.1548 27.6945 12.2772 27.4353 12.5209C27.176 12.7645 27.0464 13.0587 27.0464 13.4061C27.0464 13.7443 27.176 14.0358 27.4353 14.2794ZM15.3728 26.5533C14.8583 25.8891 14.6004 24.9772 14.6004 23.823C14.6004 22.1217 15.0012 20.6893 15.8013 19.5298C16.6027 18.369 17.6633 17.7899 18.9832 17.7899C19.9063 17.7899 20.6455 18.1253 21.1997 18.7989C21.7551 19.4712 22.0315 20.3791 22.0315 21.5173C22.0315 23.2013 21.5845 24.6284 20.6919 25.7972C19.7992 26.9647 18.7227 27.5491 17.465 27.5491C16.5842 27.5504 15.8859 27.2176 15.3728 26.5533ZM14.9377 18.7191C13.8678 20.0317 13.3335 21.725 13.3335 23.7964C13.3335 25.282 13.7276 26.4535 14.5145 27.3081C15.3027 28.1641 16.3038 28.5915 17.5178 28.5915C19.0837 28.5915 20.4392 27.9405 21.5832 26.6385C22.7271 25.3379 23.2985 23.6313 23.2985 21.5173C23.2985 20.0556 22.9136 18.8961 22.1439 18.0375C21.3743 17.1788 20.3374 16.7489 19.0361 16.7489C17.3711 16.7502 16.0062 17.4065 14.9377 18.7191ZM8.57381 32.7103C7.81205 33.1429 6.7144 33.3599 5.28081 33.3599C4.17124 33.3599 3.29576 33.1948 2.65435 32.8647C2.01162 32.5345 1.69024 32.0926 1.69024 31.5401C1.69024 30.7227 2.23776 30.0664 3.33279 29.5712C4.42914 29.076 5.29272 28.8284 5.9262 28.8284C6.14705 28.8284 6.83344 29.0081 7.98533 29.3689C9.13722 29.7283 9.71513 30.2754 9.71513 31.0089C9.71513 31.7105 9.33424 32.2776 8.57381 32.7103ZM9.04198 18.5087C9.66752 19.0545 9.97965 19.7441 9.97965 20.5774C9.97965 21.4614 9.65429 22.3067 9.0023 23.1161C8.35164 23.9242 7.4272 24.3302 6.23035 24.3302C5.33369 24.3302 4.61163 24.032 4.06676 23.4383C3.52057 22.8446 3.24815 22.1363 3.24815 21.319C3.24815 20.3378 3.61052 19.4859 4.33656 18.7683C5.06261 18.0508 5.909 17.69 6.87706 17.69C7.69569 17.6913 8.41776 17.9643 9.04198 18.5087ZM7.14158 16.7502C5.75957 16.7502 4.57594 17.1961 3.59068 18.0881C2.60543 18.98 2.11212 20.041 2.11212 21.2724C2.11212 23.0642 2.97969 24.2596 4.71348 24.8627V24.9119C3.04978 25.2021 2.2179 25.7719 2.2179 26.6212C2.2179 27.4559 3.04978 28.0297 4.71348 28.3438V28.3944C1.94153 29.0374 0.555542 30.0278 0.555542 31.3657C0.555542 32.1818 0.981368 32.8607 1.8357 33.3958C2.68871 33.9323 3.88954 34.1999 5.4395 34.1999C7.15478 34.1999 8.48523 33.8817 9.43213 33.2467C10.3777 32.6091 10.8512 31.837 10.8512 30.9304C10.8512 30.2289 10.5496 29.6311 9.94659 29.1399C9.34353 28.65 8.24451 28.2214 6.64693 27.8553C5.05068 27.4919 4.10245 27.2443 3.80225 27.1165C3.50336 26.9887 3.35394 26.785 3.35394 26.5054C3.35394 26.2418 3.51001 26.0129 3.82344 25.8198C4.13555 25.6255 4.8457 25.4564 5.9513 25.3113C7.05823 25.1675 7.93901 24.9679 8.59629 24.7176C9.25225 24.466 9.84476 23.9708 10.3738 23.2373C10.9028 22.5038 11.1672 21.6691 11.1672 20.7359C11.1672 19.3408 10.5734 18.3077 9.38584 17.6394V17.5902H12.7913L12.9367 16.7475H7.14158V16.7502Z" />
  <path d="M24.1686 12.8831C24.2096 12.5715 24.3035 12.2787 24.4239 11.9991L15.091 10.9541C15.0342 11.235 14.9747 11.5146 14.939 11.8021C14.8927 12.1589 14.8702 12.5117 14.8583 12.8618L24.1911 13.9068C24.1435 13.578 24.1237 13.2412 24.1686 12.8831Z" />
  <path d="M25.7041 10.3685C25.9699 10.1768 26.2556 10.029 26.5518 9.91189L20.8082 3.06274C20.5318 3.24379 20.2554 3.42349 19.983 3.6285C19.7092 3.83218 19.4593 4.04516 19.208 4.25816L24.9516 11.1087C25.1645 10.8438 25.4039 10.5908 25.7041 10.3685Z" />
  <path d="M28.6863 9.6082C29.0196 9.64814 29.3317 9.73466 29.6293 9.84781L30.7481 1.05106C30.3738 0.980509 29.9956 0.916625 29.6068 0.875357C29.3079 0.842076 29.013 0.831427 28.7181 0.818115L27.5979 9.63217C27.9457 9.58691 28.3054 9.5656 28.6863 9.6082Z" />
  <path d="M31.3669 11.0484C31.5719 11.2974 31.7293 11.5676 31.8536 11.8445L39.2966 6.34785C39.0916 6.06963 38.8827 5.79408 38.6486 5.52384C38.4462 5.28555 38.232 5.06988 38.0164 4.85156L30.5774 10.3442C30.8617 10.5439 31.1302 10.7662 31.3669 11.0484Z" />
</svg>
