<svg width="107" height="107" viewBox="0 0 107 107" fill="none" xmlns="http://www.w3.org/2000/svg">
<path d="M94 45C94 42.7909 92.2091 41 90 41H51C48.7909 41 47 42.7909 47 45V57.3774C47 59.5865 48.7909 61.3774 51 61.3774H70.4548C70.6778 61.3774 70.8944 61.4519 71.0701 61.589L81.2427 69.5286C81.9425 70.0748 82.954 69.5063 82.8513 68.6246L82.1371 62.4931C82.0679 61.8989 82.5323 61.3774 83.1304 61.3774H90C92.2091 61.3774 94 59.5865 94 57.3774V45Z" fill="black"/>
<path fill-rule="evenodd" clip-rule="evenodd" d="M51 43H90C91.1046 43 92 43.8954 92 45V57.3774C92 58.4819 91.1046 59.3774 90 59.3774H83.1304C81.336 59.3774 79.9429 60.9421 80.1505 62.7244L80.588 66.4806L72.3006 60.0124C71.7734 59.6009 71.1237 59.3774 70.4548 59.3774H51C49.8954 59.3774 49 58.4819 49 57.3774V45C49 43.8954 49.8954 43 51 43ZM90 41C92.2091 41 94 42.7909 94 45V57.3774C94 59.5865 92.2091 61.3774 90 61.3774H83.1304C82.5323 61.3774 82.0679 61.8989 82.1371 62.4931L82.8513 68.6246C82.954 69.5063 81.9425 70.0748 81.2427 69.5286L71.0701 61.589C70.8944 61.4519 70.6778 61.3774 70.4548 61.3774H51C48.7909 61.3774 47 59.5865 47 57.3774V45C47 42.7909 48.7909 41 51 41H90Z" fill="black"/>
<path fill-rule="evenodd" clip-rule="evenodd" d="M63 20H32C30.8954 20 30 20.8954 30 22V30.0377C30 31.1423 30.8954 32.0377 32 32.0377H32.5935C34.3573 32.0377 35.7405 33.552 35.5813 35.3086L35.2799 38.6324L43.0603 32.6583C43.5844 32.2559 44.2266 32.0377 44.8874 32.0377H63C64.1046 32.0377 65 31.1423 65 30.0377V22C65 20.8954 64.1046 20 63 20ZM32 18C29.7909 18 28 19.7909 28 22V30.0377C28 32.2469 29.7909 34.0377 32 34.0377H32.5935C33.1815 34.0377 33.6425 34.5425 33.5894 35.128L33.0819 40.7259C33.0032 41.594 33.9954 42.1402 34.6868 41.6094L44.2784 34.2446C44.4531 34.1104 44.6671 34.0377 44.8874 34.0377H63C65.2091 34.0377 67 32.2469 67 30.0377V22C67 19.7909 65.2091 18 63 18H32Z" fill="black"/>
<path fill-rule="evenodd" clip-rule="evenodd" d="M65 70H26C24.8954 70 24 70.8954 24 72V80.0377C24 81.1423 24.8954 82.0377 26 82.0377H26.5935C28.3573 82.0377 29.7405 83.552 29.5813 85.3086L29.2799 88.6324L37.0603 82.6583C37.5844 82.2559 38.2266 82.0377 38.8874 82.0377H65C66.1046 82.0377 67 81.1423 67 80.0377V72C67 70.8954 66.1046 70 65 70ZM26 68C23.7909 68 22 69.7909 22 72V80.0377C22 82.2469 23.7909 84.0377 26 84.0377H26.5935C27.1815 84.0377 27.6425 84.5425 27.5894 85.128L27.0819 90.7259C27.0032 91.594 27.9954 92.1402 28.6868 91.6094L38.2784 84.2446C38.4531 84.1104 38.6671 84.0377 38.8874 84.0377H65C67.2091 84.0377 69 82.2469 69 80.0377V72C69 69.7909 67.2091 68 65 68H26Z" fill="black"/>
<path fill-rule="evenodd" clip-rule="evenodd" d="M53.5 104C81.3904 104 104 81.3904 104 53.5C104 25.6096 81.3904 3 53.5 3C25.6096 3 3 25.6096 3 53.5C3 81.3904 25.6096 104 53.5 104ZM53.5 107C83.0472 107 107 83.0472 107 53.5C107 23.9528 83.0472 0 53.5 0C23.9528 0 0 23.9528 0 53.5C0 83.0472 23.9528 107 53.5 107Z" fill="#F5BB98"/>
</svg>
