<svg width="107" height="107" viewBox="0 0 107 107" fill="none" xmlns="http://www.w3.org/2000/svg">
<path fill-rule="evenodd" clip-rule="evenodd" d="M53.5 104C81.3904 104 104 81.3904 104 53.5C104 25.6096 81.3904 3 53.5 3C25.6096 3 3 25.6096 3 53.5C3 81.3904 25.6096 104 53.5 104ZM53.5 107C83.0472 107 107 83.0472 107 53.5C107 23.9528 83.0472 0 53.5 0C23.9528 0 0 23.9528 0 53.5C0 83.0472 23.9528 107 53.5 107Z" fill="#F5BB98"/>
<path fill-rule="evenodd" clip-rule="evenodd" d="M32.9297 49.0968C29.8348 53.2584 28.0039 58.414 28.0039 64.0001C28.0039 77.8072 39.1968 89.0001 53.0039 89.0001C66.811 89.0001 78.0039 77.8072 78.0039 64.0001C78.0039 59.245 76.6773 54.8029 74.3746 51.02L76.083 49.9801C78.571 54.0674 80.0039 58.8679 80.0039 64.0001C80.0039 78.9118 67.9156 91.0001 53.0039 91.0001C38.0922 91.0001 26.0039 78.9118 26.0039 64.0001C26.0039 57.9695 27.9822 52.3981 31.3248 47.9033L32.9297 49.0968Z" fill="black"/>
<path fill-rule="evenodd" clip-rule="evenodd" d="M27.1073 63.4463L79.0039 63.4463L79.0039 65.4463L27.1073 65.4463L27.1073 63.4463Z" fill="black"/>
<path fill-rule="evenodd" clip-rule="evenodd" d="M34.5197 82.8564C44.9259 76.5812 60.1232 76.1823 71.4969 82.8623L72.5098 81.1377C60.4989 74.0835 44.5166 74.4925 33.4869 81.1437L34.5197 82.8564Z" fill="black"/>
<path fill-rule="evenodd" clip-rule="evenodd" d="M68.4324 48.8336C68.6371 49.3466 68.3873 49.9284 67.8744 50.1331C59.0857 53.6413 47.9523 53.8393 39.2166 51.2216C38.6876 51.0631 38.3872 50.5057 38.5457 49.9767C38.7042 49.4476 39.2616 49.1473 39.7907 49.3058C48.1269 51.8037 58.7945 51.6041 67.1329 48.2756C67.6458 48.0709 68.2276 48.3207 68.4324 48.8336Z" fill="black"/>
<path fill-rule="evenodd" clip-rule="evenodd" d="M51.9939 40.0001C52.5462 39.9951 52.9979 40.4387 53.0029 40.991L53.4483 89.991C53.4533 90.5432 53.0096 90.995 52.4574 91C51.9051 91.005 51.4534 90.5614 51.4483 90.0092L51.003 41.0092C50.998 40.4569 51.4416 40.0051 51.9939 40.0001Z" fill="black"/>
<path fill-rule="evenodd" clip-rule="evenodd" d="M69.5131 22.3345C69.6046 21.5111 70.3462 20.9178 71.1696 21.0093L72.6966 21.179C75.1204 21.4483 77.0775 23.2816 77.5043 25.6827L80.2355 41.0455C80.7859 44.1415 79.9197 47.3212 77.8751 49.7104L77.0566 50.6668C79.2507 54.6174 80.5 59.165 80.5 64.0006C80.5 79.1884 68.1878 91.5006 53 91.5006C37.8122 91.5006 25.5 79.1884 25.5 64.0006C25.5 56.8727 28.2138 50.3752 32.662 45.4904C33.6389 44.4177 34.4857 42.8618 35.0882 41.173C35.6899 39.4866 36.0039 37.7912 36.0039 36.5001C36.0039 35.6717 36.6755 35.0001 37.5039 35.0001C38.3323 35.0001 39.0039 35.6717 39.0039 36.5001C39.0039 38.2091 38.6029 40.2495 37.9138 42.181C37.2255 44.1101 36.206 46.0544 34.8801 47.5103C30.9153 51.8643 28.5 57.6486 28.5 64.0006C28.5 77.5316 39.469 88.5006 53 88.5006C66.531 88.5006 77.5 77.5316 77.5 64.0006C77.5 59.6143 76.3486 55.501 74.3323 51.9421L72.5175 51.8164C69.1367 51.5822 66.0768 49.7307 64.3007 46.8445L56.2332 33.7348C54.9953 31.7232 55.18 29.1458 56.6921 27.3312L57.3516 26.5399C57.8819 25.9034 58.8278 25.8175 59.4642 26.3478C60.1006 26.8781 60.1866 27.824 59.6562 28.4604L58.9968 29.2518C58.3094 30.0766 58.2255 31.2481 58.7882 32.1625L66.8557 45.2723C68.1244 47.3338 70.31 48.6563 72.7248 48.8236L74.5757 48.9518L75.5958 47.7598C77.0563 46.0533 77.6749 43.782 77.2818 41.5706L74.5506 26.2078C74.3566 25.1164 73.467 24.283 72.3653 24.1606L70.8383 23.991C70.0149 23.8995 69.4216 23.1578 69.5131 22.3345Z" fill="black"/>
<path fill-rule="evenodd" clip-rule="evenodd" d="M38 34C39.6569 34 41 32.6569 41 31C41 29.3431 39.6569 28 38 28C36.3431 28 35 29.3431 35 31C35 32.6569 36.3431 34 38 34ZM38 37C41.3137 37 44 34.3137 44 31C44 27.6863 41.3137 25 38 25C34.6863 25 32 27.6863 32 31C32 34.3137 34.6863 37 38 37Z" fill="black"/>
<path fill-rule="evenodd" clip-rule="evenodd" d="M58.6861 81.8122C60.7017 77.613 62.0039 71.6714 62.0039 65C62.0039 58.3286 60.7017 52.387 58.6861 48.1878C56.6014 43.8445 54.1089 42 52.0039 42C49.8989 42 47.4064 43.8445 45.3217 48.1878C43.3061 52.387 42.0039 58.3286 42.0039 65C42.0039 71.6714 43.3061 77.613 45.3217 81.8122C47.4064 86.1555 49.8989 88 52.0039 88C54.1089 88 56.6014 86.1555 58.6861 81.8122ZM52.0039 90C58.6313 90 64.0039 78.8071 64.0039 65C64.0039 51.1929 58.6313 40 52.0039 40C45.3765 40 40.0039 51.1929 40.0039 65C40.0039 78.8071 45.3765 90 52.0039 90Z" fill="black"/>
</svg>
