<svg width="107" height="107" viewBox="0 0 107 107" fill="none" xmlns="http://www.w3.org/2000/svg">
<path fill-rule="evenodd" clip-rule="evenodd" d="M53.5 104C81.3904 104 104 81.3904 104 53.5C104 25.6096 81.3904 3 53.5 3C25.6096 3 3 25.6096 3 53.5C3 81.3904 25.6096 104 53.5 104ZM53.5 107C83.0472 107 107 83.0472 107 53.5C107 23.9528 83.0472 0 53.5 0C23.9528 0 0 23.9528 0 53.5C0 83.0472 23.9528 107 53.5 107Z" fill="#F5BB98"/>
<path fill-rule="evenodd" clip-rule="evenodd" d="M51.5161 21V28.8009C51.5161 29.6294 50.8446 30.3009 50.0161 30.3009H43V34.7712H50.0161C50.8446 34.7712 51.5161 35.4427 51.5161 36.2712V43H56.4839V36.2712C56.4839 35.4427 57.1554 34.7712 57.9839 34.7712H65V30.3009H57.9839C57.1554 30.3009 56.4839 29.6294 56.4839 28.8009V21H51.5161ZM49.5161 20.5C49.5161 19.6716 50.1877 19 51.0161 19H56.9839C57.8123 19 58.4839 19.6716 58.4839 20.5V28.3009H65.5C66.3284 28.3009 67 28.9725 67 29.8009V35.2712C67 36.0996 66.3284 36.7712 65.5 36.7712H58.4839V43.5C58.4839 44.3284 57.8123 45 56.9839 45H51.0161C50.1877 45 49.5161 44.3284 49.5161 43.5V36.7712H42.5C41.6716 36.7712 41 36.0996 41 35.2712V29.8009C41 28.9725 41.6716 28.3009 42.5 28.3009H49.5161V20.5Z" fill="black"/>
<path d="M8.46171 63.561C10.283 58.429 15.2208 55 20.6664 55V55C21.8631 55 23.0615 55.2641 24.1444 55.7733V55.7733C28.343 57.7479 31.0583 61.933 31.1504 66.5718L31.3479 76.517C31.4302 80.6621 34.2166 84.2646 38.2079 85.3862L40.4467 86.0153C44.6457 87.1953 47.5956 90.9607 47.7362 95.32L48 103.497C48 103.497 33.5057 102.919 21 92.4974C9 82.4974 6 70.4974 6 70.4974L8.46171 63.561Z" fill="black"/>
<path fill-rule="evenodd" clip-rule="evenodd" d="M45.9274 101.279L45.7373 95.3845C45.6248 91.897 43.2649 88.8847 39.9057 87.9408L37.6669 87.3116C32.8269 85.9516 29.4481 81.5831 29.3483 76.5567L29.1508 66.6115C29.0738 62.7331 26.8036 59.234 23.2932 57.5832C22.4803 57.2009 21.5729 57 20.6664 57C16.0527 57 11.8797 59.9098 10.3465 64.2299L8.09965 70.561C8.19574 70.8712 8.338 71.3044 8.5345 71.8415C8.97612 73.0486 9.69028 74.7767 10.7676 76.8116C12.9231 80.8832 16.5208 86.1613 22.2804 90.9609C28.2578 95.9422 34.729 98.5843 39.7272 99.979C42.2223 100.675 44.3363 101.057 45.8165 101.263C45.8539 101.269 45.8908 101.274 45.9274 101.279ZM48 103.497C48 103.497 47.2686 103.468 45.9927 103.305C41.5887 102.741 30.6966 100.578 21 92.4974C9 82.4974 6 70.4974 6 70.4974L8.46171 63.561C10.283 58.429 15.2208 55 20.6664 55C21.8631 55 23.0615 55.2641 24.1444 55.7733C28.343 57.7479 31.0583 61.933 31.1504 66.5718L31.3479 76.517C31.4302 80.6621 34.2166 84.2646 38.2079 85.3862L40.4467 86.0153C44.6457 87.1953 47.5956 90.9607 47.7362 95.32L48 103.497Z" fill="black"/>
<path d="M99.0867 64.6289C98.2791 60.4172 95.1635 57.022 91.0364 55.8564V55.8564C90.5019 55.7055 89.9491 55.6289 89.3936 55.6289H83.5893C82.6395 55.6289 81.6968 55.7932 80.803 56.1145V56.1145C77.8267 57.1843 75.2506 59.142 73.4229 61.723L70.952 65.2121C69.8267 66.8013 67.4868 66.8541 66.2909 65.3173L63.8476 62.1775C63.4951 61.7245 63.02 61.3822 62.4787 61.1911L55.7692 58.8225V58.8225C54.9001 58.577 54.3116 59.6914 55.0043 60.2708L58.6652 63.3328C58.8872 63.5185 59.0812 63.7353 59.2411 63.9765L67.2956 76.1286C68.3125 77.6629 70.4586 77.928 71.8183 76.6873L74.7031 74.0551C75.3209 73.4914 76.3165 73.8899 76.3747 74.7242L76.6879 79.2136C77.0358 84.1996 73.4326 88.5909 68.4746 89.2233V89.2233C63.9307 89.8028 60.4606 93.5642 60.2485 98.14L60 103.5C60 103.5 71 103.5 83.5 94.4999C96 85.4999 100.5 71.9999 100.5 71.9999L99.0867 64.6289Z" fill="black"/>
<path fill-rule="evenodd" clip-rule="evenodd" d="M55.7692 58.8225L62.4787 61.1911C63.02 61.3822 63.4951 61.7245 63.8476 62.1775L66.2909 65.3173C67.4868 66.8541 69.8267 66.8013 70.952 65.2121L73.4229 61.723C75.2506 59.142 77.8267 57.1843 80.803 56.1145C81.6968 55.7932 82.6395 55.6289 83.5893 55.6289H89.3936C89.9491 55.6289 90.5019 55.7055 91.0364 55.8564C95.1635 57.022 98.2791 60.4172 99.0867 64.6289L100.5 71.9999C100.5 71.9999 96 85.4999 83.5 94.4999C74.2049 101.192 65.7392 102.908 62.0092 103.348C60.7231 103.5 60 103.5 60 103.5L60.2485 98.14C60.4606 93.5642 63.9307 89.8028 68.4746 89.2233C73.4326 88.5909 77.0358 84.1996 76.6879 79.2136L76.3747 74.7242C76.3165 73.8899 75.3209 73.4914 74.7031 74.0551L71.8183 76.6873C70.4585 77.928 68.3125 77.6629 67.2956 76.1286L59.2411 63.9765C59.0812 63.7353 58.8872 63.5185 58.6652 63.3328L55.0043 60.2708C54.3116 59.6914 54.9001 58.577 55.7692 58.8225ZM60.8043 62.7209L61.8129 63.077C61.9933 63.1407 62.1517 63.2548 62.2692 63.4058L64.7126 66.5456C66.7322 69.1409 70.6837 69.0517 72.5842 66.368L75.055 62.8789C76.6461 60.632 78.8887 58.9278 81.4795 57.9966C82.1563 57.7533 82.8701 57.6289 83.5893 57.6289H89.3936C89.7653 57.6289 90.1352 57.6801 90.4928 57.7812C93.8916 58.741 96.4574 61.5371 97.1225 65.0056L98.4321 71.8359C98.4261 71.8519 98.4199 71.8682 98.4135 71.8849C98.2768 72.2433 98.0646 72.7753 97.7702 73.4461C97.1809 74.7887 96.265 76.6817 94.9704 78.8494C92.3754 83.1945 88.295 88.583 82.3314 92.8768C76.3104 97.2119 70.6686 99.3672 66.5577 100.44C64.739 100.914 63.2206 101.176 62.1031 101.321L62.2463 98.2327C62.4135 94.6274 65.1475 91.6638 68.7276 91.2072C74.7373 90.4407 79.1047 85.118 78.6831 79.0744L78.3699 74.585C78.1952 72.0822 75.2084 70.8866 73.355 72.5777L70.4702 75.2099C70.017 75.6235 69.3016 75.5351 68.9627 75.0237L60.9082 62.8716C60.8744 62.8207 60.8398 62.7705 60.8043 62.7209Z" fill="black"/>
<path d="M31 46C31 49.866 28.866 53 25 53C21.134 53 18 49.866 18 46C18 42.134 21.134 39 25 39C28.866 39 31 42.134 31 46Z" fill="black"/>
<path fill-rule="evenodd" clip-rule="evenodd" d="M27.89 49.6978C28.5604 48.8627 29 47.5867 29 46C29 44.4133 28.5604 43.1373 27.89 42.3022C27.2579 41.5146 26.3347 41 25 41C22.2386 41 20 43.2386 20 46C20 48.7614 22.2386 51 25 51C26.3347 51 27.2579 50.4854 27.89 49.6978ZM25 53C28.866 53 31 49.866 31 46C31 42.134 28.866 39 25 39C21.134 39 18 42.134 18 46C18 49.866 21.134 53 25 53Z" fill="black"/>
<path d="M92 46C92 49.866 88.866 53 85 53C81.134 53 79 49.866 79 46C79 42.134 81.134 39 85 39C88.866 39 92 42.134 92 46Z" fill="black"/>
<path fill-rule="evenodd" clip-rule="evenodd" d="M85 51C87.7614 51 90 48.7614 90 46C90 43.2386 87.7614 41 85 41C83.6653 41 82.7421 41.5146 82.11 42.3022C81.4396 43.1373 81 44.4133 81 46C81 47.5867 81.4396 48.8627 82.11 49.6978C82.7421 50.4854 83.6653 51 85 51ZM85 53C88.866 53 92 49.866 92 46C92 42.134 88.866 39 85 39C81.134 39 79 42.134 79 46C79 49.866 81.134 53 85 53Z" fill="black"/>
</svg>
