<svg width="107" height="107" viewBox="0 0 107 107" fill="none" xmlns="http://www.w3.org/2000/svg">
<path fill-rule="evenodd" clip-rule="evenodd" d="M53.5 104C81.3904 104 104 81.3904 104 53.5C104 25.6096 81.3904 3 53.5 3C25.6096 3 3 25.6096 3 53.5C3 81.3904 25.6096 104 53.5 104ZM53.5 107C83.0472 107 107 83.0472 107 53.5C107 23.9528 83.0472 0 53.5 0C23.9528 0 0 23.9528 0 53.5C0 83.0472 23.9528 107 53.5 107Z" fill="#F5BB98"/>
<path d="M45.0738 32.7437L42.6064 33.4007C37.0114 34.8905 32.0282 38.1057 28.3649 42.5895L19.5568 53.3704C18.1489 55.0936 18.4181 57.6346 20.1557 59.0247L31.4521 68.0618C31.8067 68.3455 32.2473 68.5 32.7015 68.5H38.4971C38.825 68.5 39.1455 68.403 39.4182 68.2211C40.5218 67.4855 40.36 65.8168 39.1358 65.3067L36.3343 64.1394C36.1131 64.0472 35.9104 63.9161 35.7356 63.7523L29.8394 58.2246C28.8994 57.3433 29.0258 55.8161 30.0979 55.1014L35.9744 51.1837C36.5029 50.8313 37.2217 51.0546 37.4576 51.6443L37.7484 52.3714C37.9003 52.7511 38.268 53 38.6769 53H39.4999H71.2838C71.593 53 71.8539 52.7699 71.8925 52.4631L72.4519 48.0109C73.3273 41.0449 68.7237 34.5684 61.8569 33.1057C59.5434 32.6129 58.0049 30.4149 58.3339 28.0725L58.9258 23.8571C59.289 21.2707 58.4682 18.6583 56.6911 16.7444C52.9684 12.7354 46.4569 13.2022 43.2483 17.6332C40.7963 21.0193 41.0274 25.7127 43.8517 28.7951L45.6534 30.7613C46.2661 31.43 45.9503 32.5103 45.0738 32.7437Z" fill="black"/>
<path fill-rule="evenodd" clip-rule="evenodd" d="M27 63C27 62.4477 27.4477 62 28 62H78C78.5523 62 79 62.4477 79 63C79 63.5523 78.5523 64 78 64H28C27.4477 64 27 63.5523 27 63Z" fill="black"/>
<path fill-rule="evenodd" clip-rule="evenodd" d="M27 83C27 82.4477 27.4477 82 28 82H78C78.5523 82 79 82.4477 79 83C79 83.5523 78.5523 84 78 84H28C27.4477 84 27 83.5523 27 83Z" fill="black"/>
<path fill-rule="evenodd" clip-rule="evenodd" d="M27 73C27 72.4477 27.4477 72 28 72H78C78.5523 72 79 72.4477 79 73C79 73.5523 78.5523 74 78 74H28C27.4477 74 27 73.5523 27 73Z" fill="black"/>
<path d="M43 63C43 65.2091 41.2091 67 39 67C36.7909 67 35 65.2091 35 63C35 60.7909 36.7909 59 39 59C41.2091 59 43 60.7909 43 63Z" fill="white"/>
<path fill-rule="evenodd" clip-rule="evenodd" d="M39 65C40.1046 65 41 64.1046 41 63C41 61.8954 40.1046 61 39 61C37.8954 61 37 61.8954 37 63C37 64.1046 37.8954 65 39 65ZM39 67C41.2091 67 43 65.2091 43 63C43 60.7909 41.2091 59 39 59C36.7909 59 35 60.7909 35 63C35 65.2091 36.7909 67 39 67Z" fill="black"/>
<path d="M66 73C66 75.2091 64.2091 77 62 77C59.7909 77 58 75.2091 58 73C58 70.7909 59.7909 69 62 69C64.2091 69 66 70.7909 66 73Z" fill="white"/>
<path fill-rule="evenodd" clip-rule="evenodd" d="M62 75C63.1046 75 64 74.1046 64 73C64 71.8954 63.1046 71 62 71C60.8954 71 60 71.8954 60 73C60 74.1046 60.8954 75 62 75ZM62 77C64.2091 77 66 75.2091 66 73C66 70.7909 64.2091 69 62 69C59.7909 69 58 70.7909 58 73C58 75.2091 59.7909 77 62 77Z" fill="black"/>
<path d="M38 83C38 85.2091 36.2091 87 34 87C31.7909 87 30 85.2091 30 83C30 80.7909 31.7909 79 34 79C36.2091 79 38 80.7909 38 83Z" fill="white"/>
<path fill-rule="evenodd" clip-rule="evenodd" d="M34 85C35.1046 85 36 84.1046 36 83C36 81.8954 35.1046 81 34 81C32.8954 81 32 81.8954 32 83C32 84.1046 32.8954 85 34 85ZM34 87C36.2091 87 38 85.2091 38 83C38 80.7909 36.2091 79 34 79C31.7909 79 30 80.7909 30 83C30 85.2091 31.7909 87 34 87Z" fill="black"/>
</svg>
