<svg width="107" height="107" viewBox="0 0 107 107" fill="none" xmlns="http://www.w3.org/2000/svg">
<path fill-rule="evenodd" clip-rule="evenodd" d="M53.5 104C81.3904 104 104 81.3904 104 53.5C104 25.6096 81.3904 3 53.5 3C25.6096 3 3 25.6096 3 53.5C3 81.3904 25.6096 104 53.5 104ZM53.5 107C83.0472 107 107 83.0472 107 53.5C107 23.9528 83.0472 0 53.5 0C23.9528 0 0 23.9528 0 53.5C0 83.0472 23.9528 107 53.5 107Z" fill="#F5BB98"/>
<path d="M43.7742 45.19V22C43.7742 21.4477 44.2219 21 44.7742 21H62.2258C62.7781 21 63.2258 21.4477 63.2258 22V45.19C63.2258 45.7423 63.6735 46.19 64.2258 46.19H86C86.5523 46.19 87 46.6378 87 47.19V62.7136C87 63.2658 86.5523 63.7136 86 63.7136H64.2258C63.6735 63.7136 63.2258 64.1613 63.2258 64.7136V85C63.2258 85.5523 62.7781 86 62.2258 86H44.7742C44.2219 86 43.7742 85.5523 43.7742 85V64.7136C43.7742 64.1613 43.3265 63.7136 42.7742 63.7136H21C20.4477 63.7136 20 63.2658 20 62.7136V47.19C20 46.6378 20.4477 46.19 21 46.19H42.7742C43.3265 46.19 43.7742 45.7423 43.7742 45.19Z" fill="white"/>
<path fill-rule="evenodd" clip-rule="evenodd" d="M42.7742 22C42.7742 20.8954 43.6696 20 44.7742 20H62.2258C63.3304 20 64.2258 20.8954 64.2258 22V45.19H86C87.1046 45.19 88 46.0855 88 47.19V62.7136C88 63.8181 87.1046 64.7136 86 64.7136H64.2258V85C64.2258 86.1046 63.3304 87 62.2258 87H44.7742C43.6696 87 42.7742 86.1046 42.7742 85L42.7742 64.7136H21C19.8954 64.7136 19 63.8181 19 62.7136V47.19C19 46.0855 19.8954 45.19 21 45.19L42.7742 45.19V22ZM62.2258 22H44.7742V45.19C44.7742 46.2946 43.8788 47.19 42.7742 47.19H21V62.7136H42.7742C43.8788 62.7136 44.7742 63.609 44.7742 64.7136V85H62.2258V64.7136C62.2258 63.609 63.1212 62.7136 64.2258 62.7136H86V47.19H64.2258C63.1212 47.19 62.2258 46.2946 62.2258 45.19V22Z" fill="black"/>
<path fill-rule="evenodd" clip-rule="evenodd" d="M67.7733 30.4633L83.6841 27.3232L80.5435 43.0261L75.9891 38.5456L71.8066 42.7281C71.3093 43.2254 70.8961 43.8 70.5829 44.4296L66.6729 52.2908C65.1429 55.3669 62.3176 57.5979 58.9706 58.3729L53.1091 59.7302C51.685 60.06 50.4135 60.8602 49.5002 62.0017L47.0792 65.0273C45.7203 66.7256 43.9077 68.0037 41.8516 68.7132L32.542 71.9261C31.2672 72.366 30.1608 73.1916 29.3761 74.2885L23.5342 82.4542L19.4677 79.545L25.3096 71.3792C26.6979 69.4387 28.6554 67.978 30.9109 67.1996L40.2204 63.9868C41.3826 63.5857 42.4071 62.8633 43.1752 61.9034L45.5962 58.8778C47.2121 56.8584 49.4615 55.4426 51.9811 54.8591L57.8426 53.5018C59.7344 53.0638 61.3313 51.8028 62.1961 50.0641L66.1061 42.203C66.6601 41.089 67.3913 40.0723 68.271 39.1926L72.4246 35.0391L67.7733 30.4633Z" fill="black"/>
</svg>
