<svg id="Layer_1" data-name="Layer 1" xmlns="http://www.w3.org/2000/svg" viewBox="0 0 52.63 43.98"><title>EKG</title><g id="Page-1"><g id="v02"><g id="noun_Ecg-screen_1304418-Copy-2" data-name="noun Ecg-screen 1304418-Copy-2"><g id="Group"><path id="Shape" d="M48.86,0H4.13A3.93,3.93,0,0,0,.19,3.92V40.08A3.94,3.94,0,0,0,4.13,44H48.87a3.94,3.94,0,0,0,4-3.91V3.92A3.94,3.94,0,0,0,48.86,0ZM2,22.68h8.39a2.24,2.24,0,0,0,1.44-.5c.52,1.54,1.26,3.66,1.87,5.19a.88.88,0,0,0,.89.55.87.87,0,0,0,.79-.69c.32-1.44,1.08-5.14,1.71-8.18.67,3.76,1.6,8.8,2,10.87a.91.91,0,0,0,.85.6H20c.67,0,1.2-.17,3.34-7.85h4.79A1.87,1.87,0,0,0,30,21.48l.14-.36c.56,1.43,1.42,3.58,2.61,6.41a.92.92,0,0,0,.86.54.87.87,0,0,0,.8-.63c.82-2.83,1.71-5.69,2.39-7.82,1.86,10.89,2.27,10.87,2.87,10.87A.9.9,0,0,0,40.75,30c.92-2.42,2.07-5.89,2.52-7.28h7.78V33H2ZM4.13,1.76H48.87a2.17,2.17,0,0,1,2.18,2.16v17H42.63a.88.88,0,0,0-.84.61s-.9,2.78-1.79,5.35c-.57-2.61-1.37-7-2-11.13a.88.88,0,0,0-.81-.73.87.87,0,0,0-.9.6c0,.05-1.39,4.23-2.81,8.93C31.77,20.5,31,18.42,31,18.4a.89.89,0,0,0-.82-.58.84.84,0,0,0-.83.55l-1,2.48a.48.48,0,0,1-.27.07H22.65a.89.89,0,0,0-.86.64c-.48,1.77-1.06,3.71-1.55,5.18C19.35,22,18,14.3,18,14.21a.88.88,0,0,0-.85-.73h0a.9.9,0,0,0-.87.7s-1.17,5.76-2,9.7c-.76-2.14-1.43-4.2-1.44-4.24A.89.89,0,0,0,12,19a.91.91,0,0,0-.85.53l-.53,1.28a.47.47,0,0,1-.28.07H2v-17A2.17,2.17,0,0,1,4.13,1.76ZM48.86,42.24H4.13A2.17,2.17,0,0,1,2,40.08V34.7h49.1v5.38A2.18,2.18,0,0,1,48.86,42.24Z" transform="translate(-0.19 -0.01)"/><path d="M36.48,36.31H33.23a2.28,2.28,0,1,0,0,4.56h3.25a2.28,2.28,0,1,0,0-4.56Zm0,3H33.23a.75.75,0,1,1,0-1.5h3.25a.75.75,0,1,1,0,1.5Z" transform="translate(-0.19 -0.01)"/><path d="M46,36.31H42.75a2.28,2.28,0,1,0,0,4.56H46a2.28,2.28,0,1,0,0-4.56Zm0,3H42.75a.75.75,0,0,1,0-1.5H46a.75.75,0,1,1,0,1.5Z" transform="translate(-0.19 -0.01)"/></g></g></g></g></svg>