<?xml version="1.0" encoding="UTF-8"?>
<svg id="Layer_1" xmlns="http://www.w3.org/2000/svg" version="1.1" viewBox="0 0 326 112">
  <!-- Generator: Adobe Illustrator 29.5.1, SVG Export Plug-In . SVG Version: 2.1.0 Build 141)  -->
  <defs>
    <style>
      .st0, .st1 {
        fill: #787473;
      }

      .st1 {
        fill-opacity: 0;
      }
    </style>
  </defs>
  <rect id="background" class="st1" width="326" height="112"/>
  <g>
    <path class="st0" d="M156.8,84l-.2-24.5v-12c0-.8.6-1.7.9-2.5h-7c.3.8,1,1.7,1.1,2.5,0,0,0,2.2,0,5.6-.1,10.6-.3,30.9-.3,30.9h0c0,.3.2.6.5.6h4.5c.3,0,.5-.2.5-.5h0Z"/>
    <path class="st0" d="M154.6,57.3l-3.1-3.9v.8l2.8,3.2h.3Z"/>
    <path class="st0" d="M171.7,57.5l2.8-3.3v-.8l-3.1,3.9.2.2Z"/>
    <path class="st0" d="M174.4,53.1c0-3.3,0-5.6,0-5.6,0-.8.7-1.7,1.1-2.5h-7c.3.8,1,1.7,1.1,2.5v12c-.1,0-.4,24.5-.4,24.5h0c0,.4.2.6.5.6h4.5c.3,0,.5-.2.5-.5h0s-.2-20.4-.3-31Z"/>
    <path class="st0" d="M131.4,31.6l-.3.3s0,0,0,.1v1.5c0,.2.2.2.3.2l12.8-5h-12.7v2.7c0,0,0,.1,0,.2Z"/>
    <path class="st0" d="M72.4,37.2h1.5s0,0,0,0v6.2c0,.2.1.2.3.2h56.7c.3.5.8.8,1.1,1.3h-59.6c-.2,0-.3.2-.3.4v1.8c0,.2.2.4.4.4h60.2c0,0-.4,36.5-.4,36.5h0c0,.3.2.6.5.6h4.5c.3,0,.5-.2.5-.6h0c0-.4-.3-36.6-.3-36.6,0-.7.2-1.3.5-2,.2-.6.9-1.3,1.3-1.9h47.4c.4.6,1,1.2,1.3,1.9.2.6.4,1.3.5,2,0,0-.3,36.2-.3,36.5h0c0,.4.2.6.5.6h4.5c.3,0,.5-.2.5-.6h0s-.4-36.4-.4-36.5h60.2c.2,0,.4-.2.4-.4v-1.8c0-.2-.2-.4-.3-.4h-59.6c.2-.5.8-.9,1.1-1.3h56.7c.2,0,.3,0,.3-.2v-6.2s0,0,0,0h1.5c.2,0,.4-.2.4-.4v-.8c0-.2-.2-.4-.4-.4h-56.5c-.2,0-.5,0-.7-.2l-32.6-13.2v-2.8c.7-.2,1.6-.4,2.3-.1,3.7,1.3,4.5.8,4.6.7h0c-.6-.9-.4-2.9-.4-2.9.2-1.8.1-2.1.1-2.2h0c-.1,0-1.2.7-3.6-.1-1.3-.5-2.3-.6-2.9-.6,0-.4-.3-.6-.6-.6-.3,0-.6.3-.6.6v7.9l-32.7,13.2c-.2,0-.5.2-.7.2h-56.6c-.2,0-.4.2-.4.4v.8c0,.3.2.5.4.5ZM238.5,38.5c0-.3.2-.5.5-.5h8.5c.3,0,.5.2.5.5v2.1c0,.3-.2.5-.5.5h-8.5c-.3,0-.5-.2-.5-.5v-2.1ZM224.5,38.5c0-.3.2-.5.5-.5h8.5c.3,0,.5.2.5.5v2.1c0,.3-.2.5-.5.5h-8.5c-.3,0-.5-.2-.5-.5v-2.1ZM210.6,38.5c0-.3.2-.5.5-.5h8.5c.3,0,.5.2.5.5v2.1c0,.3-.2.5-.5.5h-8.5c-.3,0-.5-.2-.5-.5v-2.1ZM136.2,35.6l26.7-10.7,26.8,10.7h-4.4l-11.1-4.4-11.1-4.4-11.1,4.4-11.1,4.4h-4.5ZM119.9,38.5c0-.3.2-.5.5-.5h9.9c.3,0,.5.2.5.5v1.4h64.3v-1.4c0-.3.2-.5.5-.5h9.9c.3,0,.5.2.5.5v2.1c0,.3-.2.5-.5.5h-85.1c-.3,0-.5-.2-.5-.5v-2.1h0ZM105.9,38.5c0-.3.2-.5.5-.5h8.5c.3,0,.5.2.5.5v2.1c0,.3-.2.5-.5.5h-8.5c-.3,0-.5-.2-.5-.5v-2.1h0ZM91.9,38.5c0-.3.2-.5.5-.5h8.5c.3,0,.5.2.5.5v2.1c0,.3-.2.5-.5.5h-8.5c-.3,0-.5-.2-.5-.5v-2.1h0ZM78,38.5c0-.3.2-.5.5-.5h8.5c.3,0,.5.2.5.5v2.1c0,.3-.2.5-.5.5h-8.5c-.3,0-.5-.2-.5-.5v-2.1h0Z"/>
    <path class="st0" d="M131,28h14.8l1.7-.8c.2,0,.2-.4,0-.4h-17c-.2,0-.3.2-.2.3l.7.8Z"/>
    <path class="st0" d="M200.1,32.2v2.3c0,.2.1.3.3.3h5.3c.2,0,.3-.2.3-.3v-2.3l.9-1.2c.1-.2,0-.5-.2-.5h-7.3c-.2,0-.3.2-.2.5l.9,1.2Z"/>
    <path class="st0" d="M178.5,27.2l1.7.8h14.8l.6-.8c.1-.1,0-.3-.2-.3h-17c-.1,0-.2.3,0,.3Z"/>
    <path class="st0" d="M181.9,28.7l12.8,5c.1,0,.3,0,.3-.2v-1.5s0,0,0-.1l-.3-.3s0,0,0-.1v-2.7h-12.7Z"/>
    <path class="st0" d="M120.1,32.2v2.3c0,.2.1.3.3.3h5.3c.2,0,.3-.2.3-.3v-2.3l.9-1.2c.1-.2,0-.5-.2-.5h-7.3c-.2,0-.3.2-.2.5l.9,1.2Z"/>
    <path class="st0" d="M195,95.4h-63.9c-.2,0-.4.2-.4.4v2.2c0,.2.2.4.4.4h63.9c.2,0,.4-.2.4-.4v-2.2c0-.2-.2-.4-.4-.4Z"/>
    <path class="st0" d="M253.6,87.1h-59.2c-.2-.5-.4-1-.5-1.5h-5.8c-.2,0-.3.1-.4.3-.1.5-.3.9-.5,1.3-.2.5-.4.8-.7,1.3v2h-10.4v-2c-.5-.8-.9-1.7-1.2-2.6,0-.2-.2-.3-.4-.3h-5.5c-.2,0-.3.1-.4.3-.2.9-.6,1.8-1.2,2.6v2h-9.3v-2c-.5-.8-.9-1.7-1.2-2.6,0-.2-.2-.3-.4-.3h-5.6c-.2,0-.3.1-.4.3-.2.9-.6,1.8-1.2,2.6v2h-10.4v-2c-.3-.4-.5-.8-.7-1.3-.2-.5-.4-.9-.5-1.3,0-.2-.2-.3-.4-.3h-5.8c-.1.5-.3,1-.5,1.5h-59.2c-.3,0-.5.2-.5.5v5c0,.3.2.5.5.5h58.2v.9c0,.3.2.5.5.5h63.6c.3,0,.5-.2.5-.5v-.9h58.2c.3,0,.5-.2.5-.5v-5c0-.3-.2-.5-.5-.5Z"/>
    <path class="st0" d="M141.1,61s0,.2,0,.2v2.4c0,.1.1.2.2.2h6.7c.1,0,.2-.1.2-.2v-2.3c0,0,0-.2,0-.2-.2-.2-.3-.5-.3-.8v-4.4c0-.3.1-.6.3-.8,0,0,.1-.2.1-.2v-1.1c0-.1-.1-.2-.2-.2h-6.7c-.1,0-.2.1-.2.2v1.1c0,0,0,.2.1.2.2.2.3.5.3.8v4.4c0,.3-.2.6-.4.8ZM144.7,54.3h2.3v4.2h-2.3v-4.2ZM144.7,58.8h2.3v4.2h-2.3v-4.2ZM142.1,54.3h2.3v4.2h-2.3v-4.2ZM142.1,58.8h2.3v4.2h-2.3v-4.2Z"/>
    <path class="st0" d="M148.1,71.3s.1-.2.1-.2v-1.1c0-.1-.1-.2-.2-.2h-6.7c-.1,0-.2.1-.2.2v1.1c0,0,0,.2.1.2.2.2.3.5.3.8v5.7c0,.3-.1.6-.3.8,0,0,0,.2,0,.2v2.6c0,.1.1.2.2.2h6.7c.1,0,.2-.1.2-.2v-2.6c0,0,0-.2,0-.2-.2-.2-.3-.5-.3-.8v-5.7c0-.3,0-.6.2-.8ZM144.5,80.7h-2.3v-4.9h2.3v4.9ZM144.5,75.6h-2.3v-4.9h2.3v4.9ZM147.1,80.7h-2.3v-4.9h2.3v4.9ZM147.1,75.6h-2.3v-4.9h2.3v4.9Z"/>
    <path class="st0" d="M184.9,55s.1-.2.1-.2v-1.1c0-.1-.1-.2-.2-.2h-6.7c-.1,0-.2.1-.2.2v1.1c0,0,0,.2.1.2.2.2.3.5.3.8v4.4c0,.3-.1.6-.3.8,0,0,0,.2,0,.2v2.4c0,.1.1.2.2.2h6.7c.1,0,.2-.1.2-.2v-2.3c0,0,0-.2,0-.2-.2-.2-.3-.5-.3-.8v-4.4c0-.4,0-.6.2-.8ZM181.3,63h-2.3v-4.2h2.3v4.2ZM181.3,58.5h-2.3v-4.2h2.3v4.2ZM183.9,63h-2.3v-4.2h2.3v4.2ZM183.9,58.5h-2.3v-4.2h2.3v4.2Z"/>
    <path class="st0" d="M184.9,71.3s.1-.2.1-.2v-1.1c0-.1-.1-.2-.2-.2h-6.7c-.1,0-.2.1-.2.2v1.1c0,0,0,.2.1.2.2.2.3.5.3.8v5.7c0,.3-.1.6-.3.8,0,0,0,.2,0,.2v2.6c0,.1.1.2.2.2h6.7c.1,0,.2-.1.2-.2v-2.6c0,0,0-.2,0-.2-.2-.2-.3-.5-.3-.8v-5.7c0-.3,0-.6.2-.8ZM181.3,80.7h-2.3v-4.9h2.3v4.9ZM181.3,75.6h-2.3v-4.9h2.3v4.9ZM183.9,80.7h-2.3v-4.9h2.3v4.9ZM183.9,75.6h-2.3v-4.9h2.3v4.9Z"/>
    <path class="st0" d="M160.5,72.4v-2.7c-.7.6-1.2,1.5-1.2,2.7v14.4c0,.2.2.4.3.4h6.8c.2,0,.3-.2.3-.4v-14.4c0-1.2-.5-2-1.1-2.7v2.6h-5.2ZM162.9,86.2h-2.4v-6.5h2.4v6.5ZM162.9,79.4h-2.4v-6.3h2.4v6.3ZM165.5,86.2h-2.4v-6.5h2.4v6.5ZM165.5,79.4h-2.4v-6.3h2.4v6.3Z"/>
    <path class="st0" d="M82.4,61.1s0,.2,0,.2v2.4c0,.1.1.2.2.2h6.7c.1,0,.2-.1.2-.2v-2.4c0,0,0-.2,0-.2-.2-.2-.3-.5-.3-.8v-4.4c0-.3.1-.6.3-.8,0,0,.1-.2.1-.2v-1.1c0-.1-.1-.2-.2-.2h-6.7c-.1,0-.2.1-.2.2v1.1c0,0,0,.2.1.2.2.2.3.5.3.8v4.4c0,.3-.2.6-.4.8ZM86,54.3h2.3v4.2h-2.3v-4.2ZM86,58.8h2.3v4.2h-2.3v-4.2ZM83.4,54.3h2.3v4.2h-2.3s0-4.2,0-4.2ZM83.4,58.8h2.3v4.2h-2.3v-4.2Z"/>
    <path class="st0" d="M95,61.1s0,.2,0,.2v2.4c0,.1.1.2.2.2h6.7c.1,0,.2-.1.2-.2v-2.4c0,0,0-.2,0-.2-.2-.2-.3-.5-.3-.8v-4.4c0-.3.1-.6.3-.8s.1-.2.1-.2v-1.1c0-.1-.1-.2-.2-.2h-6.7c-.1,0-.2.1-.2.2v1.1c0,0,0,.2.1.2.2.2.3.5.3.8v4.4c0,.3-.2.6-.4.8ZM98.7,54.3h2.3v4.2h-2.3s0-4.2,0-4.2ZM98.7,58.8h2.3v4.2h-2.3s0-4.2,0-4.2ZM96,54.3h2.3v4.2h-2.3s0-4.2,0-4.2ZM96,58.8h2.3v4.2h-2.3v-4.2Z"/>
    <path class="st0" d="M107.7,61.1s0,.2,0,.2v2.4c0,.1.1.2.2.2h6.7c.1,0,.2-.1.2-.2v-2.4c0,0,0-.2,0-.2-.2-.2-.3-.5-.3-.8v-4.4c0-.3.1-.6.3-.8s.1-.2.1-.2v-1.1c0-.1-.1-.2-.2-.2h-6.7c-.1,0-.2.1-.2.2v1.1c0,0,0,.2.1.2.2.2.3.5.3.8v4.4c0,.3-.2.6-.4.8ZM111.3,54.3h2.3v4.2h-2.3v-4.2ZM111.3,58.8h2.3v4.2h-2.3v-4.2ZM108.7,54.3h2.3v4.2h-2.3v-4.2ZM108.7,58.8h2.3v4.2h-2.3v-4.2Z"/>
    <path class="st0" d="M120.4,61.1s0,.2,0,.2v2.4c0,.1.1.2.2.2h6.6c.1,0,.2-.1.2-.2v-2.4c0,0,0-.2,0-.2-.2-.2-.3-.5-.3-.8v-4.4c0-.3.1-.6.3-.8,0,0,.1-.2.1-.2v-1.1c0-.1-.1-.2-.2-.2h-6.7c-.1,0-.2.1-.2.2v1.1c0,0,0,.2.1.2.2.2.3.5.3.8v4.4c0,.3-.2.6-.4.8ZM123.9,54.3h2.4v4.2h-2.3v-4.2h0ZM123.9,58.8h2.4v4.2h-2.3v-4.2h0ZM121.4,54.3h2.4v4.2h-2.3s0-4.2,0-4.2ZM121.4,58.8h2.4v4.2h-2.3s0-4.2,0-4.2Z"/>
    <path class="st0" d="M89.4,71.3s.1-.2.1-.2v-1.1c0-.1-.1-.2-.2-.2h-6.7c-.1,0-.2.1-.2.2v1.1c0,0,0,.2.1.2.2.2.3.5.3.8v5.7c0,.3-.1.6-.3.8,0,0,0,.2,0,.2v2.6c0,.1.1.2.2.2h6.7c.1,0,.2-.1.2-.2v-2.6c0,0,0-.2,0-.2-.2-.2-.3-.5-.3-.8v-5.7c0-.3,0-.6.2-.8ZM85.7,80.7h-2.3v-4.9h2.3v4.9ZM85.7,75.6h-2.3v-4.9h2.3v4.9ZM88.4,80.7h-2.4v-4.9h2.3v4.9h0ZM88.4,75.6h-2.4v-4.9h2.3v4.9h0Z"/>
    <path class="st0" d="M102,71.3s.1-.2.1-.2v-1.1c0-.1-.1-.2-.2-.2h-6.7c-.1,0-.2.1-.2.2v1.1c0,0,0,.2.1.2.2.2.3.5.3.8v5.7c0,.3-.1.6-.3.8,0,0,0,.2,0,.2v2.6c0,.1.1.2.2.2h6.7c.1,0,.2-.1.2-.2v-2.6c0,0,0-.2,0-.2-.2-.2-.3-.5-.3-.8v-5.7c0-.3,0-.6.2-.8ZM98.4,80.7h-2.3v-4.9h2.3v4.9ZM98.4,75.6h-2.3v-4.9h2.3v4.9ZM101,80.7h-2.3v-4.9h2.3v4.9ZM101,75.6h-2.3v-4.9h2.3v4.9Z"/>
    <path class="st0" d="M114.7,71.3s.1-.2.1-.2v-1.1c0-.1-.1-.2-.2-.2h-6.7c-.1,0-.2.1-.2.2v1.1c0,0,0,.2.1.2.2.2.3.5.3.8v5.7c0,.3-.1.6-.3.8,0,0,0,.2,0,.2v2.6c0,.1.1.2.2.2h6.7c.1,0,.2-.1.2-.2v-2.6c0,0,0-.2,0-.2-.2-.2-.3-.5-.3-.8v-5.7c0-.3,0-.6.2-.8ZM111.1,80.7h-2.3v-4.9h2.3v4.9ZM111.1,75.6h-2.3v-4.9h2.3v4.9ZM113.6,80.7h-2.3v-4.9h2.3v4.9ZM113.6,75.6h-2.3v-4.9h2.3v4.9Z"/>
    <path class="st0" d="M127.3,71.3s.1-.2.1-.2v-1.1c0-.1-.1-.2-.2-.2h-6.7c-.1,0-.2.1-.2.2v1.1c0,0,0,.2.1.2.2.2.3.5.3.8v5.7c0,.3-.1.6-.3.8,0,0,0,.2,0,.2v2.6c0,.1.1.2.2.2h6.7c.1,0,.2-.1.2-.2v-2.6c0,0,0-.2,0-.2-.2-.2-.3-.5-.3-.8v-5.7c0-.3,0-.6.2-.8ZM123.7,80.7h-2.3v-4.9h2.3v4.9ZM123.7,75.6h-2.3v-4.9h2.3v4.9ZM126.3,80.7h-2.3v-4.9h2.3v4.9ZM126.3,75.6h-2.3v-4.9h2.3v4.9Z"/>
    <path class="st0" d="M243.5,55s.1-.2.1-.2v-1.1c0-.1-.1-.2-.2-.2h-6.7c-.1,0-.2.1-.2.2v1.1c0,0,0,.2.1.2.2.2.3.5.3.8v4.4c0,.3-.1.6-.3.8,0,0,0,.2,0,.2v2.4c0,.1.1.2.2.2h6.7c.1,0,.2-.1.2-.2v-2.3c0,0,0-.2,0-.2-.2-.2-.3-.5-.3-.8v-4.4c0-.4,0-.6.2-.8ZM240,63h-2.3v-4.2h2.3v4.2ZM240,58.5h-2.3v-4.2h2.3v4.2ZM242.6,63h-2.3v-4.2h2.3v4.2ZM242.6,58.5h-2.3v-4.2h2.3v4.2Z"/>
    <path class="st0" d="M230.9,55s.1-.2.1-.2v-1.1c0-.1-.1-.2-.2-.2h-6.7c-.1,0-.2.1-.2.2v1.1c0,0,0,.2.1.2.2.2.3.5.3.8v4.4c0,.3-.1.6-.3.8,0,0,0,.2,0,.2v2.4c0,.1.1.2.2.2h6.7c.1,0,.2-.1.2-.2v-2.3c0,0,0-.2,0-.2-.2-.2-.3-.5-.3-.8v-4.4c0-.4,0-.6.2-.8ZM227.3,63h-2.3v-4.2h2.3v4.2ZM227.3,58.5h-2.3v-4.2h2.3v4.2ZM229.9,63h-2.3v-4.2h2.3v4.2ZM229.9,58.5h-2.3v-4.2h2.3v4.2Z"/>
    <path class="st0" d="M218.3,55s.1-.2.1-.2v-1.1c0-.1-.1-.2-.2-.2h-6.7c-.1,0-.2.1-.2.2v1.1c0,0,0,.2.1.2.2.2.3.5.3.8v4.4c0,.3-.1.6-.3.8,0,0,0,.2,0,.2v2.4c0,.1.1.2.2.2h6.6c.1,0,.2-.1.2-.2v-2.3c0,0,0-.2,0-.2-.2-.2-.3-.5-.3-.8v-4.4c0-.4,0-.6.3-.8ZM214.7,63h-2.3v-4.2h2.3v4.2ZM214.7,58.5h-2.3v-4.2h2.3v4.2ZM217.2,63h-2.3v-4.2h2.3v4.2ZM217.2,58.5h-2.3v-4.2h2.3v4.2Z"/>
    <path class="st0" d="M205.6,55s.1-.2.1-.2v-1.1c0-.1-.1-.2-.2-.2h-6.7c-.1,0-.2.1-.2.2v1.1c0,0,0,.2.1.2.2.2.3.5.3.8v4.4c0,.3-.1.6-.3.8,0,0,0,.2,0,.2v2.4c0,.1.1.2.2.2h6.7c.1,0,.2-.1.2-.2v-2.3c0,0,0-.2,0-.2-.2-.2-.3-.5-.3-.8v-4.4c0-.4,0-.6.2-.8ZM202,63h-2.3v-4.2h2.3v4.2ZM202,58.5h-2.3v-4.2h2.3v4.2ZM204.6,63h-2.3v-4.2h2.3v4.2ZM204.6,58.5h-2.3v-4.2h2.3v4.2Z"/>
    <path class="st0" d="M243.5,71.3s.1-.2.1-.2v-1.1c0-.1-.1-.2-.2-.2h-6.7c-.1,0-.2.1-.2.2v1.1c0,0,0,.2.1.2.2.2.3.5.3.8v5.7c0,.3-.1.6-.3.8s0,.2,0,.2v2.6c0,.1.1.2.2.2h6.7c.1,0,.2-.1.2-.2v-2.6c0,0,0-.2,0-.2-.2-.2-.3-.5-.3-.8v-5.7c0-.3,0-.6.2-.8ZM240,80.7h-2.3v-4.9h2.3v4.9ZM240,75.6h-2.3v-4.9h2.3v4.9ZM242.6,80.7h-2.3v-4.9h2.3v4.9ZM242.6,75.6h-2.3v-4.9h2.3v4.9Z"/>
    <path class="st0" d="M230.9,71.3s.1-.2.1-.2v-1.1c0-.1-.1-.2-.2-.2h-6.7c-.1,0-.2.1-.2.2v1.1c0,0,0,.2.1.2.2.2.3.5.3.8v5.7c0,.3-.1.6-.3.8s0,.2,0,.2v2.6c0,.1.1.2.2.2h6.7c.1,0,.2-.1.2-.2v-2.6c0,0,0-.2,0-.2-.2-.2-.3-.5-.3-.8v-5.7c0-.3,0-.6.2-.8ZM227.3,80.7h-2.3v-4.9h2.3v4.9ZM227.3,75.6h-2.3v-4.9h2.3v4.9ZM229.9,80.7h-2.3v-4.9h2.3v4.9ZM229.9,75.6h-2.3v-4.9h2.3v4.9Z"/>
    <path class="st0" d="M218.3,71.3s.1-.2.1-.2v-1.1c0-.1-.1-.2-.2-.2h-6.7c-.1,0-.2.1-.2.2v1.1c0,0,0,.2.1.2.2.2.3.5.3.8v5.7c0,.3-.1.6-.3.8s0,.2,0,.2v2.6c0,.1.1.2.2.2h6.6c.1,0,.2-.1.2-.2v-2.6c0,0,0-.2,0-.2-.2-.2-.3-.5-.3-.8v-5.7c0-.3,0-.6.3-.8ZM214.7,80.7h-2.3v-4.9h2.3v4.9ZM214.7,75.6h-2.3v-4.9h2.3v4.9ZM217.2,80.7h-2.3v-4.9h2.3v4.9ZM217.2,75.6h-2.3v-4.9h2.3v4.9Z"/>
    <path class="st0" d="M205.6,71.3s.1-.2.1-.2v-1.1c0-.1-.1-.2-.2-.2h-6.7c-.1,0-.2.1-.2.2v1.1c0,0,0,.2.1.2.2.2.3.5.3.8v5.7c0,.3-.1.6-.3.8s0,.2,0,.2v2.6c0,.1.1.2.2.2h6.7c.1,0,.2-.1.2-.2v-2.6c0,0,0-.2,0-.2-.2-.2-.3-.5-.3-.8v-5.7c0-.3,0-.6.2-.8ZM202,80.7h-2.3v-4.9h2.3v4.9ZM202,75.6h-2.3v-4.9h2.3v4.9ZM204.6,80.7h-2.3v-4.9h2.3v4.9ZM204.6,75.6h-2.3v-4.9h2.3v4.9Z"/>
    <path class="st0" d="M182.5,45l-8,9.3-2.8,3.3-.3-.2,3.1-3.9,6.6-8.5h-.3l-6.3,8.1-5,6.5-2.8,3.6v-1.8c0,0,0-.2,0-.2-.2-.2-.3-.5-.3-.8v-4.4c0-.3.1-.6.3-.8,0,0,.1-.2.1-.2v-1.3c0-.1-.1-.2-.2-.2h-6.7c-.1,0-.2.1-.2.2v1.1c0,0,0,.2.1.2.2.2.3.5.3.8v4.4c0,.3-.1.6-.3.8,0,0,0,.2,0,.2v1.9l-2.9-3.7-5-6.5-6.4-8.1h-.3l6.6,8.5,3.1,3.9-.3.2-2.8-3.2-8-9.3h-.5l8.4,9.7,5.1,5.8,5.5,6.4h.2l-2.3-2.9h6l-2.3,3h.2l2.5-3c0,0,.1,0,.2-.2l2.8-3.2,5.1-5.8,8.4-9.7h-.5ZM162.9,63h-2.3v-4.2h2.3v4.2ZM162.9,58.5h-2.3v-4.2h2.3v4.2ZM165.5,63h-2.3v-4.2h2.3v4.2ZM165.5,58.5h-2.3v-4.2h2.3v4.2Z"/>
    <path class="st0" d="M163.7,66.8h-3.3v5.5h5.2v-5.5h-1.9ZM165,71.6c0,.2-.2.3-.3.3h-.2c-.2,0-.3-.1-.3-.3v-4.1c0-.2.2-.3.3-.3h.2c.2,0,.3.1.3.3v4.1ZM160.9,67.4c0-.2.2-.3.3-.3h.2c.2,0,.3.1.3.3v4.1c0,.2-.2.3-.3.3h-.2c-.2,0-.3-.1-.3-.3v-4.1ZM164,71.6c0,.2-.2.3-.3.3h-1.4c-.2,0-.3-.1-.3-.3v-4.1c0-.2.2-.3.3-.3h1.4c.2,0,.3.1.3.3v4.1Z"/>
    <path class="st0" d="M89.7,68.5c0,0,0-.2,0-.2-1.1-.7-2.4-1.1-3.7-1.1s-2.7.4-3.7,1.1c0,0-.1.2,0,.2,0,0,.1.2.2.2h7.1c0,0,.1,0,.2-.2Z"/>
    <path class="st0" d="M102.5,68.5c0,0,0-.2-.1-.2l-3.8-1.2h-.3l-3.8,1.2c-.1,0-.2.1-.1.2,0,0,.1.1.2.1h7.6c.2,0,.3,0,.3-.1Z"/>
    <path class="st0" d="M115,68.5c0,0,0-.2,0-.2-1.1-.7-2.4-1.1-3.7-1.1s-2.7.4-3.7,1.1c0,0-.1.2,0,.2,0,0,.1.2.2.2h7.1s0,0,.2-.2Z"/>
    <path class="st0" d="M127.8,68.5c0,0,0-.2-.1-.2l-3.8-1.2h-.3l-3.8,1.2c-.1,0-.2.1-.1.2,0,0,.1.1.2.1h7.6c.2,0,.3,0,.3-.1Z"/>
    <path class="st0" d="M236.3,68.5c0,0,.1.2.2.2h7.1c.1,0,.2,0,.2-.2,0,0,0-.2,0-.2-1.1-.7-2.4-1.1-3.7-1.1s-2.7.4-3.7,1.1c-.1,0-.2.2-.1.2Z"/>
    <path class="st0" d="M223.4,68.5c0,0,.1.1.2.1h7.6c.1,0,.2,0,.2-.1s0-.2-.1-.2l-3.8-1.2h-.3l-3.8,1.2s0,.1,0,.2Z"/>
    <path class="st0" d="M211,68.5c0,0,.1.2.2.2h7.1c.1,0,.2,0,.2-.2,0,0,0-.2,0-.2-1.1-.7-2.4-1.1-3.7-1.1s-2.7.4-3.7,1.1c-.1,0-.2.2-.1.2Z"/>
    <path class="st0" d="M198.2,68.5c0,0,.1.1.2.1h7.6c.1,0,.2,0,.2-.1s0-.2-.1-.2l-3.8-1.2h-.3l-3.8,1.2s0,.1,0,.2Z"/>
    <path class="st0" d="M185.2,68.5c0,0,0-.2,0-.2-1.1-.7-2.4-1.1-3.7-1.1s-2.7.4-3.7,1.1c0,0-.1.2,0,.2,0,0,.1.2.2.2h7.1c0,0,.1,0,.2-.2Z"/>
    <path class="st0" d="M148.4,68.5c0,0,0-.2,0-.2-1.1-.7-2.4-1.1-3.7-1.1s-2.7.4-3.7,1.1c0,0-.1.2,0,.2,0,0,.1.2.2.2h7.1s.1,0,.2-.2Z"/>
    <path class="st0" d="M128.3,49.6v-.5c0-.1,0-.2-.2-.2h-53.9c-.1,0-.2,0-.2.2v36.2c0,.1,0,.2.2.2h53.9c.1,0,.2,0,.2-.2v-.5c0-.1,0-.2-.2-.2h-50.3c-.1,0-.2,0-.2-.2v-34.5c0-.1,0-.2.2-.2h50.3c.1,0,.2-.1.2-.2Z"/>
    <path class="st0" d="M251.8,49h-53.9c-.1,0-.2,0-.2.2v.5c0,.1,0,.2.2.2h50.3c.1,0,.2,0,.2.2v34.5c0,.1,0,.2-.2.2h-50.3c-.1,0-.2,0-.2.2v.5c0,.1,0,.2.2.2h53.9c.1,0,.2,0,.2-.2v-36.2c0-.1,0-.2-.2-.2Z"/>
  </g>
</svg>