<?xml version="1.0" encoding="utf-8"?>
<!-- Generator: Adobe Illustrator 16.0.0, SVG Export Plug-In . SVG Version: 6.00 Build 0)  -->
<!DOCTYPE svg PUBLIC "-//W3C//DTD SVG 1.1//EN" "http://www.w3.org/Graphics/SVG/1.1/DTD/svg11.dtd">
<svg viewBox="0 0 1024 322" xml:space="preserve" xmlns="http://www.w3.org/2000/svg">
  <style>
   .st1{fill:#929292}.st2{fill:#5f5f5f}.st3{fill:#bfbfbf}.st4{fill:#dadada}.st5{fill:silver}.st9{fill:#6d6d6d}.st14{fill:#737373}.st15{fill:#707070}.st16{fill:#faf6f4}
  </style>
  
  <path class="st1" d="M818.39 189.18c-18.84.01-34.32-13.31-35.38-30.46-1.21-19.56 12.42-35.57 31.98-37.88 5.39-.64 10.62-.46 15.76 1.1 7.17 2.16 11.8 6.85 12.76 14.41.9 7.09-2.3 12.55-7.82 16.76-8.62 6.56-18.8 8.96-29.16 10.84-.98.18-2.05.07-2.95.43-1.15.46-3.02-.21-3.35 1.47-.28 1.42 1.14 2.29 2.03 3.24 9.01 9.61 21.09 10.55 34.06 2.67 4.7-2.86 9.13-.81 10.46 4.74.47 1.95-.89 2.65-2.03 3.58-7.35 5.98-16.36 9.1-26.36 9.1z"/>
  <path class="st2" d="M566.26 190.11c-10.55.43-19.9-3.71-28.95-8.96-2.21-1.28-2.9-2.6-1.15-4.69.21-.25.39-.54.57-.82 4.4-6.98 4.37-6.92 11.7-3.08 8.16 4.27 16.68 6.67 25.97 4.48 2.94-.7 5.74-1.71 8.06-3.75 1.98-1.74 3.26-3.78 2.74-6.57-.53-2.88-2.67-4.29-5.18-4.75-6.38-1.16-12.81-2.02-19.23-3.01-2.14-.33-4.29-.59-6.4-1.06-8.51-1.91-13.14-6.33-14.2-13.4-1.14-7.64 2.32-14.81 9.53-18.82 9.61-5.34 19.75-5.22 29.97-2.07 3.16.97 6.22 2.39 9.16 3.91 7.93 4.1 8.17 6.49 1.98 13.16-1.94 2.09-3.19.62-4.69-.26-6.53-3.84-13.28-6.93-21.14-6.48-3.05.18-5.91.88-8.48 2.6-1.91 1.28-3.3 2.96-3.14 5.33.19 2.75 2.62 3.42 4.66 3.77 7.37 1.27 14.8 2.19 22.19 3.39 7.96 1.29 14.78 4.4 17.57 12.75 3.28 9.8-1.9 20.07-12.35 24.78-6.01 2.71-12.38 3.76-19.19 3.55z"/>
  <path class="st1" d="M650.63 120.8c19.11.15 34.31 15.37 34.26 34.32-.05 19.12-15.59 34.26-34.99 34.07-19.26-.19-34.03-15.27-33.82-34.55.21-19.23 15.28-33.99 34.55-33.84z"/>
  <path class="st2" d="M488.63 190.12c-10.23.38-19.48-3.56-28.4-8.68-2.64-1.52-3.15-3.2-1.17-5.55.11-.13.19-.27.28-.41 4.35-6.96 4.32-6.89 11.34-3.09 8.26 4.48 16.93 6.86 26.4 4.62 2.62-.62 5.1-1.61 7.27-3.17 2.25-1.61 3.89-3.77 3.49-6.72-.41-3.04-2.61-4.67-5.39-5.17-6.38-1.14-12.81-1.98-19.21-3.02-2.95-.48-5.92-.94-8.78-1.77-5.77-1.67-10.25-4.9-11.47-11.21-1.37-7.05.29-13.39 5.97-17.96 8.72-7.01 18.88-7.58 29.37-5.45 6.1 1.23 11.57 4.04 16.97 7.06 3.01 1.68 3.16 3.45 1.22 5.91-.21.26-.39.54-.56.82-3.81 6.08-3.79 6.05-9.84 2.67-5.59-3.12-11.46-5.41-18.01-5.03-2.13.13-4.34.45-6.33 1.18-3.03 1.11-6.07 2.78-5.78 6.6.28 3.71 3.72 3.83 6.42 4.28 6.73 1.11 13.49 1.99 20.23 3 10.59 1.58 17.18 7.21 18.31 15.58 1.28 9.46-3.84 17.85-13.48 22.13-5.91 2.62-12.12 3.52-18.85 3.38zM443.33 156.14c.03 19.09-14.63 33.89-33.69 33.99-19.55.11-34.58-14.8-34.56-34.3.02-19.12 15.12-34.37 34.11-34.44 19.24-.06 34.11 15.06 34.14 34.75z"/>
  <path class="st3" d="M83.48 139.54c10.12-41.41 56.67-59.25 89.69-42.52-7.34 3.18-13.24 7.82-18.66 13.1-5.98 5.82-11.1 12.38-15.82 19.19-2.14 3.1-4.44 4.12-7.89 3.7-11.1-1.36-22.17-1.46-33.17.98-4.69 1.05-9.47 1.74-14.15 5.55zM208.08 176c-7.12 20.84-21.37 34.73-42.03 41.72-15.83 5.35-31.61 4.08-46.88-2.81-.38-1.31.62-1.8 1.47-2.21 11.71-5.74 20.8-14.68 27.65-25.34 5.42-8.44 12.11-10.6 21.33-9.74 12.16 1.15 24.25.48 35.77-4.29 2.89-1.2 3.78-.22 2.69 2.67z"/>
  <path class="st4" d="M208.08 176c-.39-.84.93-3.12-1.94-1.76-11.07 5.24-22.89 5.4-34.81 4.84-4.15-.19-8.31-.01-12.47-.14-2.18-.07-3.12 1.22-4.29 2.77-7.28 9.66-14.54 19.32-24.36 26.71-3.47 2.61-7.3 4.44-11.05 6.49-3.61-5.1-2.38-10.57-1.18-16.02 1.06 1.38 1.89 1.17 3.11-.05 5.72-5.71 11.38-11.48 16.44-17.8 1.72-2.14 2.33-3.47-1.37-4.04-3.38-.52-6.94-.38-10.11-2.02 1.68-4.99 4.07-9.63 6.98-14.01 4.29.4 8.51 1.28 12.73 2.07 3.16.59 4.95-.5 6.48-3.13 2.08-3.58 4.08-7.19 5.84-10.93 5.52.64 10.86 2 16.06 3.94-1.78 4.07-4.9 7.43-6.56 12.16 11.08 1.76 21.82-.62 32.59-1.16 3.78 1.34 5.87 4.65 8.42 7.37 1.46 1.53 1.22 3.31-.51 4.71z"/>
  <path class="st2" d="M276.51 121.8c6.03-.19 13.04 2.57 19.6 6.84 2.8 1.82 3.66 3.67.9 6.25-.96.9-1.74 2.03-2.45 3.14-1.62 2.52-3.05 2.47-5.56.67-9.99-7.16-21.48-6.75-29.26.66-7.78 7.4-8.73 22.2-1.97 30.72 6.86 8.66 18.14 10.21 28.23 3.83 1.26-.8 2.46-1.71 3.61-2.66 5.92-4.9 6.27-4.83 11.23.76 1.41 1.59 1.3 2.62.13 4.27-8.14 11.45-24.32 16.68-38.43 12.31-13.57-4.2-22.36-16.15-22.65-30.78-.41-21.21 13.74-35.9 36.62-36.01z"/>
  <path class="st1" d="M734.52 166.8c7.07-13.79 13.9-27.09 20.71-40.4 1.86-3.64 9.53-6.06 13.15-4.14 1.68.89.7 1.84.2 2.85-3.27 6.73-6.51 13.47-9.79 20.2-6.77 13.9-13.58 27.79-20.33 41.7-1.13 2.32-2.09 4.25-5.38 4.12-3-.12-3.95-1.85-4.97-4.03-9.37-20.02-18.74-40.05-28.19-60.04-1.58-3.34-1.74-5.24 2.92-5.03 11.95.54 9.04-2.39 14.44 9.29 5.23 11.32 10.57 22.59 15.88 33.87.2.43.61.75 1.36 1.61z"/>
  <path class="st2" d="M336.92 130.64c5.88-4.58 11.58-8.28 18.63-9.02 1.65-.17 3.31-.27 4.96-.42 4.26-.38 6.22 1.4 5.56 5.78-.15.98-.14 2.01 0 2.99.58 4.06-.75 5.56-5.15 5.08-10.51-1.16-17.48 4.93-23.57 12.43-1.27 1.56-.98 3.46-.98 5.28-.01 10.48-.1 20.96.05 31.44.04 3.21-.99 4.45-4.28 4.4-11.46-.19-9.26.83-9.33-9.2-.12-17.3.07-34.61-.12-51.91-.04-3.76 1.07-5.26 4.78-4.67.32.05.66.01 1 .01 7.39-.02 7.39-.02 8.45 7.81z"/>
  <path class="st1" d="M881.89 130.17c6.37-5.45 12.99-9.01 20.95-9.65 2.86-.23 6.65-.81 7.75 1.6 1.52 3.33.91 7.53.2 11.28-.32 1.68-2.21.91-3.47.79-6.02-.57-11.56.63-16.51 4.26-6.47 4.76-10.71 10.19-9.78 19.15.89 8.56.07 17.29.25 25.94.07 3.27-1.03 4.68-4.3 4.26-.33-.04-.67-.01-1-.01-9.17-.07-8.12.68-8.14-7.94-.03-17.47.16-34.95-.12-52.42-.08-4.58 1.38-5.63 5.66-5.44 7.13.32 7.15.07 8.51 8.18z"/>
  <path class="st3" d="M187.05 105.04c16.58 13.78 24.63 31.38 24.06 54.13-8.68-10.95-20.64-14.04-32.03-18.19-1.4-1.98-.33-3.85.37-5.66 3.19-8.26 5.66-16.64 5.3-25.65-.08-1.72-.56-4.14 2.3-4.63zM113.08 172.99c-4.33 10.74-8.56 21.5-6.24 34.66-17.84-14.75-26.45-32.46-25.7-54.59 1.1-.47 1.99.06 2.66.77 7.31 7.7 16.91 11.23 26.57 14.66 2.19.78 4.16 1.58 2.71 4.5z"/>
  <path class="st4" d="M187.05 105.04c-.28.4-.84.82-.8 1.19 1.06 12.3-3.16 23.51-7.17 34.76l-16.04-3.96c6.3-8.29 8.93-17.88 10-28.03 2.7-2.44 5.83-4.07 9.29-5.23 2.02-.68 3.46-.32 4.72 1.27zM113.08 172.99c.04-1.64-.42-2.52-2.3-3.11-11.07-3.46-21.63-7.93-29.64-16.82 1.79-6.1 7.65-5.22 11.98-6.97 5.45 4.93 12.51 6.54 19.06 9.18 2.6 1.05 5.47 1.3 7.94 2.75-2.35 4.99-4.7 9.98-7.04 14.97z"/>
  <path class="st3" d="M158.08 148.97c.06 6.45-4.4 10.73-7.73 15.43-1.27 1.8-3.79-.07-5.61-.48-3.92-.9-8.38.23-11.71-2.95.14-.3.28-.6.44-.9 7.75-14.81 8.38-15.09 24.61-11.1z"/>
  <path class="st5" d="M120.12 158.02c-3.32 1.06-6.04-.92-8.87-1.92-5.08-1.8-10.1-3.83-14.96-6.15-1.32-.63-4.29-.84-3.17-3.86 5.73-.62 11.44-1.31 17.18-1.83 5.61-.51 11.18-.05 17.36 1.09-2.59 4.35-5.07 8.51-7.54 12.67zM173.03 109c3.08 1.13 1.09 3.68.82 4.98-1.49 7.11-3.91 13.96-7.01 20.56-.8 1.69-1.87 2.67-3.8 2.48-4.07-.71-8.13-1.42-12.94-2.27 6.57-10.02 14.36-18.23 22.93-25.75zM200.18 163.91c-10.64 3.36-21.55 3.46-32.52 2.57-.83-.07-2.53-.42-1.7-1.64 2.72-3.98 3.58-9.26 8.19-11.93 9.11 2.64 18.24 5.24 26.03 11z"/>
  <path class="st3" d="M126.06 174.98c5.3-.57 10.29.82 15.77 2.07-6.69 9.85-14.76 17.7-23.43 25.88-.19-1.83-.3-2.94-.41-4.04 1.36-8.42 4.54-16.23 8.07-23.91z"/>
  <path d="M775.29 218.63c0-2.66-.04-5.33.02-7.99.03-1.16.14-2.53 1.77-2.46 1.58.06 1.65 1.41 1.66 2.58.04 4.16.27 8.34-.04 12.48-.28 3.7.87 5.36 4.67 4.71.32-.06.69-.09.99.01 2.01.65 5.62-1.53 5.81 1.38.13 2.02-3.65 1.24-5.67 1.23-11.38-.07-8.96 1.01-9.21-11.94z" style="fill:#7f7f7f"/>
  <path d="M640.77 217.85c.94-2.41.33-4.94.56-7.41.1-1.01.22-2.12 1.54-2.12 1.09 0 1.21.99 1.21 1.81.02 5.98.02 11.97-.01 17.95 0 .83-.18 1.77-1.24 1.81-1.03.04-1.24-.85-1.44-1.68-.65-2.66 1.38-6.95-1.29-7.77-3.95-1.22-8.53-.39-12.85-.43-2.12 2.71.38 6.18-2.09 8.96-.69-6.67-1.05-13.35-.24-20.08h-.01c3.21 2 .66 5.23 1.65 7.69.3.76.66 1.71 1.55 1.71 4.24 0 8.49.88 12.66-.44z" style="fill:#6b6b6b"/>
  <path d="M726.69 219.8c1.54-3.12 2.99-6.29 4.63-9.35 1.59-2.97 3.52-3.67 5.28-.16 1.24 2.49 2.98 4.79 3.33 7.68-.73.59-.15 1.92-1.29 2.28-2.62-.67-2.5-3.73-4.67-5.24-1.61 1.19-2.9 2.98-2.24 4.79.64 1.77 2.94.61 4.48.91 1.37.27 2.98-.63 4.12.83-1.94 4.57-5.89 1.71-8.87 2.33-2.97.61-4.57-1.09-4.77-4.07z" style="fill:#747474"/>
  <path class="st9" d="m691.95 209.92-11.54.12c-1.46 2.61-1.53 5.22.04 7.82 3.51.02 7.02.05 10.53.07-.04 2.19-1.74 1.34-2.83 1.49-2.71.36-5.52-.63-8.16.61l.07-.06c-.98 2.65-.97 5.31 0 7.97 4.41.38 8.89-.48 13.3 1.24-5.04 1.47-10.2 1.25-15.38.73-1.05-6.39-.24-12.83-.46-19.24-.04-1.06.29-2.1 1.54-2.09 4.27.03 8.56-.6 12.79.41.1.02.07.6.1.93z"/>
  <path d="M738.81 220.21c.17-.85.24-1.74 1.12-2.24 1.26 2.65 2.68 5.23 3.69 7.97.45 1.21 2.61 2.72.85 3.77-1.68 1-2.17-1.29-2.89-2.48-2.57-4.24-14.21-3.74-16.68.71-.39.72-1 1.37-1.8.92-.76-.42-.71-1.26-.17-1.98.21-2.92 2.4-4.79 3.77-7.09 2.22 3.04 9 4.59 12.51 2.77.74-.39.34-1.11-.13-1.63l-.4-.27.13-.45z" style="fill:#636363"/>
  <path class="st9" d="M879.75 217.86c1.62-2.42.53-5.16.91-7.73.12-.81.21-1.73 1.28-1.77 1.18-.04 1.19 1 1.2 1.75.05 5.95.05 11.89.02 17.84 0 .76 0 1.81-1.09 1.87-1.45.08-1.29-1.16-1.42-2.09-.34-2.41 1.1-5.5-.86-7.11-2.17-1.78-5.41-.53-8.18-.67-1.8-.09-3.62.15-5.43.24-.15-.17-.3-.34-.46-.51 1.29-2.38 3.5-.87 5.26-1.19 2.89-.52 5.93.8 8.77-.63z"/>
  <path d="M825.28 210.09c-.08 5.59-.12 11.19-.26 16.78-.03 1.19.49 3.15-1.39 3.09-1.71-.06-1.31-1.96-1.38-3.21-.29-5.57.62-11.18-.58-16.71 3.76.12.4 3.52 2.11 4.58.17.65 1.07-.08.44.16-.24.09-.39.02-.43-.22-.55-3.14-.55-3.14 1.49-4.47z" style="fill:#676767"/>
  <path d="M825.28 210.09c-2.36.94-.69 3.3-1.73 4.84-1.44-1.36.49-3.99-1.87-4.89h-7.71c0-.42 0-.84.01-1.27h19.47c-2.56 1.83-5.4 1.25-8.17 1.32z" style="fill:#606060"/>
  <path d="M866.18 220.21c-.02 2.49-.01 4.97-.08 7.46-.03.91.16 2.24-1.31 2.14-1.35-.09-1.19-1.39-1.19-2.31-.04-5.63-.03-11.27.01-16.9.01-.93-.08-2.25 1.31-2.2 1.36.05 1.08 1.36 1.21 2.28.33 2.4-.77 4.99.96 7.21-.38.65-1.72.69-1.21 1.91.08.14.18.28.3.41z" style="fill:#6c6c6c"/>
  <path class="st14" d="M691.95 209.92c-3.92-1.96-8.08-.73-12.12-.81-2.09-.04-1.83 1.97-1.84 3.42-.03 5.79-.02 11.58-.02 17.37-2.23-6.7-.84-13.57-.77-20.35.03-2.5 3.02-1.78 4.5-1.47 3.55.75 7.7-2.36 10.7 1.64-.15.07-.3.14-.45.2z"/>
  <path class="st15" d="M624.94 208.9v19.31c2.31-2.74-.55-6.22 2.33-8.19-.07 2.65-.11 5.3-.21 7.95-.04 1-.16 2.15-1.55 2-.96-.1-1.27-1.02-1.23-1.88.3-6.39-.92-12.84.66-19.19z"/>
  <path class="st2" d="M865.87 219.79c-1.36-1.75.23-1.63 1.21-1.91 4.22-.01 8.45-.01 12.67-.02.46.15 1.11.16 1.34.48.76 1.03-.07.88-.73.85-3.27-.1-6.53-.24-9.8-.25-1.59 0-3.31-.44-4.69.85zM640.77 217.85c.46.15 1 .2 1.36.48.43.33.46 1.06-.24.89-5.25-1.22-10.77 1.05-15.91-1.26.7-.59 1.41-.58 2.15-.08l12.64-.03z"/>
  <path d="M942.78 123.8c.27-1.11.54-2.49 1.87-2.51 1.65-.03 1.39 1.57 1.37 2.58-.04 1.4 1.22 2.79-.15 4.44-1.85-.31-.52-2.68-1.84-3.22-1.06.2-1.5-.21-1.25-1.29z" style="fill:#b1b1b1"/>
  <path class="st14" d="M679.98 220.03c1.7-1.94 3.96-.77 5.96-1.07 1.7-.26 3.62.62 5.03-1.02.04 1.84.04 1.96-1.07 1.99-3.3.08-6.61.07-9.92.1z"/>
  <path class="st15" d="M628.13 217.88c-.72.03-1.43.05-2.15.08-.45-3.01 1.02-6.24-1.05-9.06 2.01.33 1.97.33 2.16 1.89.3 2.37-.82 4.95 1.04 7.09z"/>
  <path d="M929.77 121.29c4.82-.14 4.82-.14 3.78 7.04-1.72-2.28.7-5.77-3.78-7.04z" />
  <path d="M942.78 123.8c.42.43.83.86 1.25 1.29-1.12 1.38-1.67 5.2-4.13.98-.59-.76-.53-1.49.1-2.2.95.66 1.88.85 2.78-.07z" />
  <path d="M940.01 123.88c-.03.73-.07 1.46-.1 2.2h-.44l-.44.06c-2.53-.27-1.4-1.96-1.26-3.26.15-.77.13-1.86 1.31-1.51 1.2.36.79 1.59.93 2.51z" style="fill:#a5a5a5"/>
  <path d="M937.77 122.87c.29 1.14.02 2.49 1.26 3.26-.15.89.19 2.2-1.13 2.28-1.11.07-.96-1.1-.97-1.85-.01-1.28-.12-2.61.84-3.69z" style="fill:#c2c2c2"/>
  <path class="st14" d="M680.45 217.87c-2.41-2.59-2.34-5.2-.05-7.82-.75 2.61-.8 5.21.05 7.82zM680.04 227.94c-1.66-2.66-1.66-5.31 0-7.97.01 2.66.01 5.31 0 7.97z"/>
  <path d="M722.92 226.89c.07 1.46.73 1.79 1.97 1.05-.05 1.86-1.22 3.07-2.73 2.15-1.53-.93.03-2.21.76-3.2z" style="fill:#818181"/>
  <path d="M819.68 132.22c2.05-.16 3.99.39 5.82 1.15 4.14 1.7 4.98 5.39 2.04 8.78-2.95 3.4-7.02 5.1-11.11 6.37-5.53 1.72-11.25 2.8-16.89 4.18-2.73.67-3.51 0-2.82-2.97 2.13-9.29 12.5-17.34 22.96-17.51z" style="fill:#fdfdfd"/>
  <path class="st16" d="M629.71 155.12c-.05-12.19 9.01-21.99 20.41-22.1 11.76-.11 20.95 9.57 20.93 22.05-.01 12.1-9.2 21.84-20.64 21.87-11.37.03-20.65-9.75-20.7-21.82zM388.64 155.35c.22-12.21 9.43-21.59 21.03-21.43 11.32.16 20.66 10.25 20.51 22.16-.16 12.13-9.96 22.05-21.48 21.74-11.33-.3-20.29-10.33-20.06-22.47z"/>
  <path d="M738.81 220.21c-.03.29.06.53.27.73-2.66 2.5-5.88 1.13-8.84 1.13-1.89 0-1.15-1.57-.67-2.56 1.21-2.49 2.5-4.94 3.9-7.69 2.93 2.38 3.24 5.97 5.34 8.39z" style="fill:#efefef"/>
</svg>

