<?xml version="1.0" encoding="UTF-8"?>
<svg id="Layer_1" xmlns="http://www.w3.org/2000/svg" version="1.1" viewBox="0 0 326 112">
  <!-- Generator: Adobe Illustrator 29.5.1, SVG Export Plug-In . SVG Version: 2.1.0 Build 141)  -->
  <defs>
    <style>
      .st0, .st1 {
        fill: #787473;
      }

      .st1 {
        fill-opacity: 0;
      }
    </style>
  </defs>
  <rect id="background" class="st1" width="326" height="112"/>
  <path class="st0" d="M187.8,36.2c-.9-1.2-2.6-2.9-1.2-4.5.7-.6,1-1,1.1-1.8.3-2.7.2-3.9-.2-5.4,0-.1.3,0,.5-.5.3-1.3-.5-1.6-.5-1.6.6-.5.5-2.3-.4-2.3.5-.8,0-2.1-.8-1.8,0,0,.4-.2.4-.8-.1-1.2-1.8,0-1.3-.8.2-.4-.7-1.8-1.2-.7-.3-.2.2-.9-.3-1.1-.3,0-.6.2-1,.5-.1-.4.3-.7-.2-1.3-.8-.5-.8.3-1.3.5-1-.2,1.3-.8-.7-1.7-.5,1.3-.5.3-.7.2-.1-.1-.5.2-1,.8.3-.8,1-1.9,0-1.6-1.2.5-.5-.2-.5-.2,1-.5-.9-1.5-.8-.4,0,.8-1.7,1.4-1.2.5.3-1.2,1.8.6.5-1.5-.8.9-1.4,1.5-1.5,1.8-.6,2.4-.3.2-.9.2.8-.6,1.9-1.5,1.6-2.2-.9,0-3,1.4-1.7,1.5,0,.5-.9,1-1.3.2.7-.2,2-2.6.4-1.9-.2.1-.2.6-.4,1-.4-.3,0-.9-.2-1.1-1.2-1.1-.8,1.8-.8,2.5-1.6-1,0-.7-.5-2.4-1.3.2-1.7.8-1.5,2.3-.2.4-.5,1.2-.7.2.7-1,.7-2.3-.6-2.4,2.1,18.8,1.9,37.8-1,56.5l-.2,1c1.5,0,3.6-.5,5.2-.5,4.5.2,4.4.7,11.7.6,1.7-.2,2.2-.4,2.7-.4-.5-2.3-4.3-1-6.2-1.6-3.2-.3-3.8-2.2-4.8-3.7-.5-.8-1.1-1.8-1.1-3.1-.2-1.7,0-2.6,0-4.3.1-1.2,1.6-1,2.4-.9,2.8.3,7.4-.2,8.7-.5,1.8-.5,1.8-1.6.6-3.2-.1-.3-.2-.7-.2-1s.1-.7.3-1c.5-.5,1.1-.9.6-1.6,0,0-4-.8-1.3-1.3,2.8-.5,1.9-1.6,1.9-1.6,0,0-.5-1.2-.9-2-.3-.6,2.4-.8,2.7-1.9.6-.9-1.4-2.8-2.1-3.8h-.1ZM181.8,35.1c-1.7.4-4.4-.8-4-1,.9-.6,2.9-1.6,4.9-.9.3,0,.5.4.5.9,0,1-.7,1-1.3,1.1h0Z"/>
  <path class="st0" d="M168.9,10.4c2.3,14.4,1.7,31.4,1.4,36.3l-1.3,13.8c-.4,2.6-.7,4.9-1.3,7.3l-.3.2h-5.3c-1.4-.5-3.3,0-5,0s-1.3-.6-2-.2c-.5.2-4.2.3-4.6,0,1.6-2.2,9-1,10.1-3.2,2.1-1.1,2.1-2.9,2.4-4.7,1.3-.6.6-1.4.9-2.1-.2-.9-.2-1.9,0-2.9l-.8.9c-.4,0-.8.3-1.1-.2.8-1.4-.9-1.1-.9-2,1.4-.7.3-1.4.5-2.4-.9.4-.9,1.3-1.8,1.4-1-.6.3-1.9-.2-2.7-.3.2-1-.4-1.3,0,.6.4.6,1.5.4,1.9-.3,0-.7,0-1.1-.3,0,0-.2.5-.7.6-.6-.4.4-1.4,0-1.8-.4.2-.4.4-.8.4-.5-.2-.4-1.1-.4-1.7-.3,0-.3.3-.7.6-.4.2-1.1.7-2.4,0,.9-1.9,2.1-1.2,3.1-1.8.2-.5,1.2-1.3.5-1.8-1.6.3-1.6,1.9-3.5,1.7-.7-1.4,1.6-1.9.7-2.6,0,0-1.4-.8-1.4-.3,0,1.4,0,2.3-1.3,2.7-.6-.3-.5-1.1-.5-1.6.4-1-.9-.5-.7-2-.3,0-1,1.2-1.7.9-.4-.2.3-1.5.3-1.5-.5-.4-1.4-.2-1.9-.6-.3-.9,1.1-.8,1.4-1.4-.8-.8-1.4.6-2.3,0,0-.2.8-.4.7-1-.2-.4-1.5.3-1.6-.3,0-.4,1.1-1,1.5-1.2h-.6c-1.3.3-1.9-.2-.2-.9-1.4-1.4.9-1,1.5-1.4-1.9-.4-3-1.4-2.5-2s2.3.3,2.3.3c-.5-.5-.9-1-1.3-1.6-.5-.8,2.1-.8,2.5-1.9l-.6-.2c-.5,0-.3-.8-1,.3-.4.6-1.3.3-2,0,0-1.1.9-1.8,2-2.3,1.7-.3,1.3-.6,2.2-.8,0,0-.5-.5-.8-.3-.3.1-.6.1-.6.1-1.7.2-2.9.2-4-.6.2-.7,1.3-.6,1.9-.8-.6-.5-.6-1.3-.3-1.4.7-.2,1.5,1.2,1.9,1.5,0,0-.4-1,.3-1.5.9.4.6,1.9,2,1.8-1.1-1.5-.8-1.8.9-1,.2-.6-1.4-.9-1.6-1.3-.2-.4,1-.8,1-.8,0,0-2.3-.4-2.8-2.1-.1-.8,3,0,4.1,1.6.9,0,1.2-.1,2-.4-.7-.5-1.1-.6-1.5-1.8l-.3.3s-.3.2-1.1,0c-.6-.2-1.3-.8-1.2-1.5.7-.2,1.9-.5,2.4.4v.3h.4c1.1-.3,1.9.3,3-.1-.2-.5-.1-.6-.8-1-.4.2-.5.2-1,.3-1.2-.2-2.2-1-2.7-2.1.3-.2.6.2,1.2,0,1,.2,2.1.3,2.2,1.2.5-.3.5-1.1,1.9-1.2-1.1-.2-1.6,0-1.7-.8.8-.9,2.1-.3,3,.4l-.2-.4-.6-.8c-.4-.5,0-1.2.5-1.6.3,0,.7.5.8,1.1,1.1,1.3.2-1.1,1.6-1.3.9,1-.4,1.3-.3,1.8,0,.3.4.5,1,.6,0-.6.7-1,.7-1.8-.6-.8,0-2.2,1.3-2.6,1.2,1.1-1.2,2.4.3,2.6,1.4-.6-.2-2.2,1.5-2.9.6,1-.1,1.5,0,1.8.2.2.8.3,1.1.2-.7-.6-.2-1.7,0-2.3.5,0,.8,1,.7,1.5,1.4-.8.2.6,2,.5.4-.9-1.1-1.2-.5-2.5,1.7-.4,1.4.7,1.4,1.4l.5.7.5-.2s-.4-.2-.5-1.2c-.1-.9,1-1.2,1-1.2v-.6ZM157.3,45.8c0,.4,0,.8.3,1.1.2.3.5.6.8.8h.6c.9-.6-.3-1.4-.8-1.8h-.9ZM154.3,41.2c-.9.2-1.7.6-2.1,1.3l-.5.4c1.1.4,2.3-.4,2.5-1v-.7h.1ZM149.1,37.3c-1.3-.3-2.5.7-2.9,1.4l.4.3c1.4.5,1.5-.7,1.9-1.2l.6-.5ZM149.3,31.6c-1,.2-1.8.6-2.3,1.4v.6c1.3.5,2-.7,2.4-1.3l-.2-.7h.1ZM151.9,26.4c-1,.2-1.9.2-2.4,1.6l-.6.5c1.3.5,2.4-.2,2.9-1.2l.2-.9h0ZM157,18.8c-.7-.5-1.5-.7-2.3-.6l-.5.2c.1.9,2.2,1.9,2.8,1.2v-.9h0ZM161.2,15.6c-.4.6-.7,1.1-.2,2.1l.4.8c1-.9,1.9-1.8.6-2.7l-.8-.2Z"/>
  <path class="st0" d="M175.4,83.2c0-3.5,1.7-5.8,5.1-5.8s5,2.1,5,5.8-1.6,6-5,6-5.1-2.6-5.1-6ZM180.5,93.3c6.1,0,10.2-4.5,10.2-10s-4.1-9.8-10.2-9.8-10.3,3.9-10.3,9.8,4.2,10,10.3,10ZM205.4,77.5c-1.2-.2-2.3-.4-3.4-.4-2,0-3.4.5-3.4,1.5s1.9,2.1,4.1,3.2c2,1.1,4.8,2.6,4.8,5.9s-3.2,5.7-8.1,5.7-3.8-.4-5.6-.8v-4c1.4.4,3.7,1.2,5.8,1.2s2.8-.6,2.8-1.9-1.6-1.8-4-3.2c-2.2-1.1-4.9-3.3-4.9-6.1s3.3-5.1,7.8-5.1,2.9,0,4.3.3v3.8h-.2ZM119.8,92.6c0-2.1.2-3.8.2-6.8v-10.2c0-3.7-.2-6.5-.8-9.2h6.7c0,1.9-.2,4.5-.2,7.4v9.5c0,2.7.4,6.7.8,9.2h-6.7ZM136.2,83.7c0-3.8,1.6-6.3,4.9-6.3s5.2,2.6,5.2,6.3-1.7,5.5-4.9,5.5-5.1-1.9-5.1-5.5h0ZM137,100.6c-.4-2.8-.4-6-.4-7v-2.2c1.4.8,2.9,1.8,6,1.8,5.3,0,8.9-4,8.9-9.6s-3.7-10.3-9.1-10.3-5.3,1.8-6.5,3.1c-.3-1-.4-1.8-.7-2.7l-4.9.4c.6,3.2,1.2,6.2,1.2,9.5v7.7c0,2.7-.6,7.8-.8,9.6l6.4-.4h0ZM165.6,77.4c-1.2-.2-1.9-.4-3-.4-2,0-3.4.5-3.4,1.5s1.9,2.1,4.1,3.2c2,1.1,4.8,2.6,4.8,5.9s-3.2,5.7-8.1,5.7-3.8-.4-5.6-.8v-4c1.4.4,3.7,1.2,5.8,1.2s2.8-.6,2.8-1.9-1.6-1.8-4-3.2c-2.2-1.1-4.9-3.3-4.9-6.1s3.3-5.1,7.8-5.1,3.2.2,4.6.4l-.7,3.7h-.2Z"/>
</svg>