<?xml version="1.0" encoding="utf-8"?>
<!-- Generator: Adobe Illustrator 16.0.0, SVG Export Plug-In . SVG Version: 6.00 Build 0)  -->
<!DOCTYPE svg PUBLIC "-//W3C//DTD SVG 1.1//EN" "http://www.w3.org/Graphics/SVG/1.1/DTD/svg11.dtd">
<svg version="1.1" id="Layer_1" xmlns="http://www.w3.org/2000/svg" xmlns:xlink="http://www.w3.org/1999/xlink" x="0px" y="0px"
	 width="326px" height="112px" viewBox="0 0 326 112" enable-background="new 0 0 326 112" xml:space="preserve">
<rect id="background" opacity="0" fill="#787473" width="326" height="112"/>
<g>
	<path fill-rule="evenodd" clip-rule="evenodd" fill="#787473" d="M43.991,43.757c0.167-0.029,0.335-0.082,0.502-0.083
		c1.206-0.008,2.41,0.001,3.615-0.006c0.295-0.003,0.459,0.063,0.537,0.398c1.043,4.492,2.105,8.979,3.16,13.468
		c0.253,1.075,0.494,2.153,0.74,3.229c0.05-0.002,0.1-0.003,0.15-0.004c0.228-1.035,0.462-2.068,0.684-3.106
		c0.682-3.183,1.36-6.368,2.038-9.554c0.287-1.342,0.581-2.681,0.85-4.025c0.06-0.299,0.186-0.401,0.479-0.4
		c1.704,0.006,3.408,0.011,5.112-0.008c0.356-0.004,0.386,0.218,0.438,0.447c0.442,1.979,0.877,3.959,1.315,5.94
		c0.752,3.409,1.504,6.818,2.259,10.224c0.033,0.144,0.095,0.279,0.259,0.423c0.128-0.491,0.266-0.981,0.383-1.476
		c1.115-4.746,2.225-9.493,3.338-14.24c0.309-1.312,0.31-1.312,1.657-1.31c0.906,0,1.812,0,2.799,0
		c-0.173,0.7-0.316,1.313-0.475,1.924c-1.234,4.741-2.472,9.482-3.708,14.225c-0.438,1.68-0.881,3.359-1.314,5.042
		c-0.06,0.231-0.102,0.407-0.415,0.405c-1.669-0.014-3.34-0.007-5.009-0.011c-0.067,0-0.132-0.021-0.232-0.04
		c-1.282-5.664-2.563-11.33-3.845-16.994c-0.048-0.002-0.097-0.006-0.145-0.01c-0.16,0.647-0.334,1.292-0.479,1.941
		c-1.021,4.59-2.036,9.183-3.057,13.773c-0.097,0.432-0.095,1.019-0.372,1.239c-0.281,0.224-0.853,0.092-1.297,0.095
		c-1.223,0.007-2.445-0.008-3.667,0.015c-0.389,0.008-0.565-0.092-0.673-0.499c-1.412-5.385-2.846-10.766-4.272-16.148
		c-0.39-1.474-0.767-2.95-1.157-4.423c-0.034-0.124-0.131-0.231-0.198-0.347C43.991,43.826,43.991,43.792,43.991,43.757z"/>
	<path opacity="0.7" fill-rule="evenodd" clip-rule="evenodd" fill="#787473" d="M207.825,57.636
		c0.047-2.812,0.194-5.251,0.833-7.645c0.352-1.317,0.575-2.67,0.954-3.98c0.376-1.289,1.062-2.437,1.949-3.458
		c1.19-1.373,2.776-2.203,4.277-3.149c1.654-1.042,3.386-1.929,5.227-2.595c2.176-0.785,4.421-1.044,6.688-0.645
		c1.711,0.301,3.292,1.009,4.66,2.126c0.103,0.084,0.227,0.185,0.348,0.198c1.766,0.2,3.321,0.964,4.691,2.006
		c0.838,0.638,1.521,1.535,2.122,2.419c1.018,1.493,1.984,3.032,2.844,4.62c1.037,1.918,1.812,3.946,2.101,6.14
		c0.449,3.432-0.592,6.396-2.785,8.997c-0.926,1.099-1.953,2.109-3.177,2.89c-2.073,1.32-4.121,2.686-6.243,3.92
		c-0.923,0.537-1.995,0.825-3.017,1.181c-1.263,0.441-2.575,0.504-3.904,0.472c-1.551-0.037-3.026-0.423-4.38-1.114
		c-1.24-0.632-2.518-1.046-3.855-1.396c-2.646-0.694-5.057-1.912-6.925-3.96c-1.33-1.459-2.202-3.183-2.296-5.218
		C207.902,58.722,207.848,58.004,207.825,57.636z M224.855,63.175c1.115,0.052,2.229-0.244,3.301-0.704
		c1.014-0.433,1.905-1.053,2.713-1.813c0.946-0.888,1.654-1.911,1.965-3.174c0.386-1.567,0.135-3.092-0.384-4.592
		c-0.492-1.428-0.942-2.873-1.776-4.154c-0.576-0.889-1.288-1.656-2.21-2.188c-1.888-1.088-3.901-0.799-5.88-0.385
		c-0.924,0.193-1.788,0.66-2.685,0.989c-1.071,0.393-1.88,1.084-2.433,2.08c-1.123,2.027-1.149,4.183-0.596,6.341
		c0.495,1.918,1.219,3.759,2.721,5.17c0.536,0.503,1.013,1.089,1.611,1.498C222.269,62.968,223.505,63.201,224.855,63.175z"/>
	<path fill-rule="evenodd" clip-rule="evenodd" fill="#787473" d="M231.177,38.597c2.209,0.081,4.296,0.561,6.131,1.882
		c1.316,0.948,2.267,2.217,3.127,3.564c1.148,1.8,2.275,3.613,3.084,5.597c1.069,2.621,1.636,5.307,0.967,8.134
		c-0.374,1.584-1.071,3.014-2.064,4.309c-1.809,2.362-4.158,4.06-6.702,5.525c-1.353,0.778-2.694,1.585-4.094,2.276
		c-1.796,0.888-3.729,1.329-5.739,1.259c-2.054-0.072-3.966-0.688-5.734-1.741c-0.477-0.284-0.987-0.534-1.416-0.882
		c-0.775-0.63-1.511-1.309-2.244-1.991c-0.412-0.387-0.827-0.786-1.161-1.239c-0.629-0.862-1.212-1.761-1.794-2.656
		c-0.225-0.349-0.462-0.713-0.574-1.104c-0.206-0.719-0.605-1.355-0.823-2.063c-0.114-0.37-0.215-0.75-0.261-1.133
		c-0.133-1.075-0.3-2.152-0.33-3.232c-0.022-0.84,0.044-1.708,0.246-2.52c0.205-0.819,0.623-1.586,0.954-2.373
		c0.174-0.412,0.328-0.837,0.555-1.219c0.276-0.466,0.6-0.909,0.938-1.334c0.586-0.741,1.133-1.53,1.815-2.173
		c0.973-0.921,2.109-1.67,3.062-2.607c0.53-0.521,1.254-0.63,1.758-1.073c0.826-0.729,1.778-1.187,2.777-1.576
		c0.943-0.366,1.902-0.704,2.873-0.994C228.039,38.782,229.593,38.585,231.177,38.597z M229.53,42.636
		c-0.008,0.051-0.018,0.104-0.026,0.155c-0.378,0-0.763-0.049-1.132,0.009c-1.776,0.276-3.407,0.982-5.026,1.727
		c-0.776,0.358-1.459,0.955-2.374,0.998c-0.095,0.005-0.172,0.182-0.275,0.254c-0.166,0.115-0.213,0.316-0.52,0.342
		c-0.355,0.028-0.71,0.31-1.021,0.538c-0.182,0.131-0.257,0.393-0.417,0.561c-0.296,0.309-0.629,0.581-0.925,0.889
		c-0.215,0.223-0.384,0.492-0.597,0.714c-0.753,0.777-1.42,1.638-1.698,2.68c-0.368,1.385-0.575,2.808-0.216,4.246
		c0.115,0.452,0.178,0.917,0.307,1.362c0.229,0.803,0.422,1.632,0.76,2.39c0.446,0.993,1.088,1.901,1.517,2.901
		c0.513,1.188,1.236,2.177,2.27,2.925c0.535,0.385,1.124,0.733,1.738,0.965c0.738,0.281,1.53,0.423,2.3,0.62
		c0.208,0.056,0.42,0.143,0.629,0.138c0.387-0.008,0.773-0.113,1.158-0.105c1.663,0.032,4.081-0.563,5.714-1.269
		c0.501-0.216,1.025-0.403,1.477-0.699c1.431-0.938,2.957-1.757,4.066-3.124c0.228-0.28,0.552-0.484,0.771-0.771
		c0.31-0.403,0.546-0.86,0.843-1.275c0.955-1.334,1.46-2.838,1.44-4.455c-0.04-3.365-1.005-6.417-3.357-8.93
		c-0.337-0.358-0.632-0.76-0.998-1.083c-0.377-0.333-0.799-0.625-1.234-0.878c-0.768-0.447-1.523-0.957-2.353-1.243
		C231.45,42.905,230.474,42.819,229.53,42.636z"/>
	<path fill-rule="evenodd" clip-rule="evenodd" fill="#787473" d="M135.473,43.704c1.401,0,2.719,0,4.067,0
		c0,7.18,0,14.332,0,21.515c-0.119,0.014-0.233,0.037-0.348,0.037c-1.498,0.003-2.996-0.007-4.494,0.008
		c-0.28,0.003-0.419-0.087-0.548-0.339c-2.534-4.977-5.079-9.949-7.623-14.92c-0.129-0.254-0.267-0.505-0.525-0.734
		c0,5.314,0,10.628,0,15.964c-1.401,0-2.724,0-4.088,0c0-7.163,0-14.328,0-21.529c0.152-0.009,0.303-0.027,0.453-0.027
		c1.429-0.001,2.857,0.012,4.287-0.005c0.354-0.005,0.552,0.095,0.717,0.42c2.547,5.031,5.108,10.053,7.668,15.078
		c0.103,0.203,0.22,0.402,0.435,0.567C135.473,54.414,135.473,49.088,135.473,43.704z"/>
	<path fill-rule="evenodd" clip-rule="evenodd" fill="#787473" d="M247.953,65.24c0-7.186,0-14.317,0-21.509
		c0.318,0,0.604-0.001,0.893,0c2.186,0.009,4.373-0.053,6.554,0.047c2.8,0.126,5.482,0.715,7.715,2.58
		c1.437,1.201,2.296,2.77,2.736,4.562c0.582,2.378,0.586,4.775-0.003,7.147c-0.837,3.371-3.041,5.447-6.317,6.446
		c-1.688,0.514-3.426,0.721-5.188,0.725C252.227,65.244,250.113,65.24,247.953,65.24z M252.237,61.908
		c0.881,0,1.687,0.019,2.491-0.004c1.721-0.049,3.272-0.576,4.584-1.72c1.978-1.724,2.616-3.959,2.441-6.494
		c-0.214-3.111-2.317-5.68-5.357-6.354c-1.124-0.25-2.317-0.197-3.479-0.251c-0.677-0.03-0.68-0.002-0.68,0.656
		c0,4.524,0,9.048,0,13.57C252.237,61.482,252.237,61.653,252.237,61.908z"/>
	<path fill-rule="evenodd" clip-rule="evenodd" fill="#787473" d="M111.559,43.761c-0.68,1.09-1.312,2.108-1.948,3.124
		c-1.421,2.27-2.851,4.534-4.253,6.814c-0.102,0.169-0.107,0.512-0.004,0.679c2.133,3.425,4.288,6.836,6.438,10.25
		c0.107,0.17,0.209,0.347,0.361,0.599c-0.284,0.015-0.496,0.034-0.708,0.036c-1.29,0.004-2.581-0.007-3.871,0.011
		c-0.312,0.004-0.489-0.076-0.656-0.357c-1.468-2.501-2.957-4.99-4.443-7.482c-0.093-0.157-0.204-0.304-0.363-0.539
		c-0.563,0.931-1.085,1.789-1.603,2.648c-1.078,1.797-2.147,3.599-3.241,5.386c-0.096,0.157-0.333,0.32-0.507,0.323
		c-1.411,0.022-2.823,0.008-4.234,0.003c-0.063,0-0.125-0.021-0.264-0.044c0.59-0.94,1.153-1.838,1.717-2.734
		c1.695-2.688,3.387-5.379,5.093-8.062c0.17-0.267,0.178-0.458,0.005-0.734c-1.847-2.958-3.677-5.927-5.515-8.89
		c-0.204-0.329-0.422-0.653-0.696-1.077c0.287-0.019,0.464-0.039,0.64-0.039c1.292-0.002,2.583,0.009,3.873-0.009
		c0.336-0.004,0.523,0.109,0.691,0.401c1.247,2.156,2.512,4.301,3.774,6.447c0.147,0.25,0.317,0.486,0.52,0.796
		c0.152-0.211,0.287-0.374,0.395-0.553c1.345-2.238,2.682-4.479,4.038-6.711c0.1-0.164,0.321-0.356,0.488-0.358
		c1.308-0.026,2.616-0.01,3.924-0.004C111.291,43.685,111.372,43.718,111.559,43.761z"/>
	<path fill-rule="evenodd" clip-rule="evenodd" fill="#787473" d="M282.359,61.891c0,1.162,0,2.224,0,3.326
		c-4.229,0-8.451,0-12.711,0c0-7.124,0-14.258,0-21.44c4.197,0,8.4,0,12.632,0c0,1.082,0,2.158,0,3.299c-2.773,0-5.533,0-8.324,0
		c0,1.812,0,3.556,0,5.349c2.546,0,5.067,0,7.623,0c0,1.139,0,2.229,0,3.379c-2.546,0-5.066,0-7.623,0c0,2.049,0,4.036,0,6.087
		C276.746,61.891,279.526,61.891,282.359,61.891z"/>
	<path fill-rule="evenodd" clip-rule="evenodd" fill="#787473" d="M204.293,61.455c0.064,1.088,0.135,2.165,0.178,3.243
		c0.004,0.1-0.145,0.276-0.248,0.302c-3.592,0.846-7.16,0.966-10.632-0.489c-3.235-1.356-5.051-3.861-5.612-7.286
		c-0.435-2.646-0.241-5.244,0.806-7.739c1.142-2.719,3.177-4.5,5.944-5.401c3.068-0.999,6.17-1.033,9.264-0.027
		c0.321,0.104,0.479,0.224,0.437,0.597c-0.113,1.022-0.188,2.047-0.281,3.09c-0.724-0.261-1.388-0.586-2.091-0.74
		c-2.502-0.546-4.933-0.477-7.053,1.208c-1.769,1.406-2.55,3.337-2.73,5.527c-0.163,1.968,0.167,3.85,1.298,5.517
		c1.276,1.88,3.103,2.832,5.34,2.978c1.784,0.115,3.535-0.1,5.211-0.767C204.168,61.448,204.223,61.459,204.293,61.455z"/>
	<path fill-rule="evenodd" clip-rule="evenodd" fill="#787473" d="M75.636,49.352c1.287,0,2.523-0.009,3.759,0.016
		c0.105,0.002,0.286,0.216,0.296,0.342c0.038,0.462,0.021,0.929,0.022,1.394c0.003,2.548,0.001,5.096,0.015,7.643
		c0.004,0.461,0.051,0.928,0.126,1.383c0.347,2.095,2.346,2.995,4.187,1.907c1.043-0.618,1.536-1.61,1.771-2.727
		c0.175-0.833,0.268-1.698,0.28-2.553c0.035-2.305,0.017-4.611-0.004-6.918c-0.004-0.381,0.09-0.507,0.485-0.499
		c1.182,0.024,2.365,0.009,3.578,0.009c0,5.33,0,10.587,0,15.881c-1.271,0-2.521,0-3.858,0c0-0.659,0-1.314,0-2.117
		c-0.407,0.379-0.688,0.649-0.979,0.908c-1.923,1.713-4.987,2.118-7.125,0.934c-1.539-0.85-2.161-2.287-2.454-3.919
		c-0.076-0.42-0.12-0.854-0.121-1.282c-0.009-3.305-0.005-6.608-0.003-9.914C75.608,49.705,75.623,49.57,75.636,49.352z"/>
	<path fill-rule="evenodd" clip-rule="evenodd" fill="#787473" d="M145.975,58.551c-0.12,1.542,0.951,3.134,2.451,3.715
		c1.686,0.653,3.353,0.413,4.992-0.164c0.77-0.271,1.506-0.643,2.323-0.998c0,1.041,0.015,2.047-0.015,3.051
		c-0.004,0.133-0.198,0.332-0.342,0.377c-1.076,0.345-2.143,0.757-3.248,0.951c-1.745,0.31-3.504,0.2-5.2-0.36
		c-2.001-0.659-3.516-1.924-4.251-3.92c-1.125-3.058-1.019-6.098,0.612-8.963c1.201-2.11,3.15-3.083,5.541-3.212
		c1.14-0.062,2.266,0.028,3.363,0.375c1.885,0.596,3.139,1.857,3.852,3.67c0.682,1.735,0.854,3.556,0.849,5.479
		C153.238,58.551,149.604,58.551,145.975,58.551z M145.937,55.718c2.344,0,4.672,0,7,0c-0.038-2.229-1.26-3.612-3.024-3.711
		C147.627,51.878,146.042,53.325,145.937,55.718z"/>
	<path fill-rule="evenodd" clip-rule="evenodd" fill="#787473" d="M165.346,54.568c0.735-1.243,1.423-2.408,2.109-3.573
		c0.115-0.192,0.271-0.37,0.34-0.575c0.307-0.908,0.916-1.172,1.849-1.088c1,0.091,2.014,0.021,3.131,0.021
		c-0.664,1.062-1.267,2.033-1.875,3.001c-0.878,1.396-1.75,2.795-2.646,4.178c-0.184,0.288-0.185,0.489,0.003,0.779
		c1.595,2.446,3.173,4.905,4.756,7.359c0.107,0.169,0.208,0.341,0.357,0.587c-1.263,0-2.447-0.075-3.619,0.023
		c-0.974,0.083-1.498-0.26-1.954-1.108c-0.878-1.628-1.883-3.188-2.878-4.846c-0.35,0.57-0.669,1.085-0.984,1.602
		c-0.791,1.309-1.593,2.611-2.359,3.931c-0.185,0.314-0.39,0.411-0.737,0.406c-1.306-0.018-2.613-0.008-4.011-0.008
		c0.307-0.483,0.573-0.912,0.849-1.335c1.441-2.198,2.88-4.4,4.333-6.59c0.195-0.297,0.211-0.494,0.002-0.81
		c-1.469-2.222-2.909-4.462-4.355-6.696c-0.081-0.126-0.148-0.261-0.267-0.474c0.644,0,1.218,0,1.793,0
		c0.482,0,0.978,0.078,1.442-0.014c1.263-0.252,1.918,0.352,2.46,1.413C163.74,52.032,164.547,53.235,165.346,54.568z"/>
	<path fill-rule="evenodd" clip-rule="evenodd" fill="#787473" d="M174.616,52.358c0-1.045,0-1.984,0-2.986c1.009,0,1.997,0,3.033,0
		c0-1.1,0-2.142,0-3.188c1.391-0.447,2.737-0.88,4.149-1.333c0,1.528,0,2.982,0,4.485c1.231,0,2.41,0,3.626,0
		c0,1.018,0,1.988,0,3.001c-1.057,0-2.085,0.016-3.114-0.007c-0.396-0.008-0.531,0.096-0.528,0.517
		c0.021,2.392,0.005,4.785,0.016,7.176c0.001,0.324,0.045,0.654,0.12,0.97c0.273,1.141,1.135,1.639,2.469,1.424
		c0.401-0.066,0.794-0.194,1.338-0.331c0,0.996,0.008,1.954-0.011,2.913c-0.002,0.11-0.134,0.296-0.232,0.317
		c-1.699,0.352-3.408,0.552-5.075-0.122c-1.605-0.65-2.512-1.936-2.606-3.599c-0.15-2.642-0.099-5.294-0.132-7.942
		c-0.005-0.411,0-0.821,0-1.296C176.646,52.358,175.654,52.358,174.616,52.358z"/>
	<path fill-rule="evenodd" clip-rule="evenodd" fill="#787473" d="M114.28,65.221c-0.008-0.166-0.021-0.301-0.021-0.435
		c0-4.94,0.007-9.88-0.012-14.819c-0.001-0.511,0.158-0.641,0.643-0.628c1.132,0.031,2.266,0.011,3.439,0.011
		c0,5.305,0,10.563,0,15.871C116.995,65.221,115.653,65.221,114.28,65.221z"/>
	<path fill-rule="evenodd" clip-rule="evenodd" fill="#787473" d="M118.334,43.674c0,1.339,0,2.619,0,3.961
		c-1.286,0-2.554,0.005-3.821-0.013c-0.084-0.001-0.238-0.191-0.239-0.294c-0.018-1.101-0.023-2.201,0.005-3.301
		c0.004-0.122,0.242-0.335,0.375-0.338C115.856,43.663,117.06,43.674,118.334,43.674z"/>
</g>
</svg>
