<?xml version="1.0" encoding="UTF-8"?><svg id="Layer_1" xmlns="http://www.w3.org/2000/svg" viewBox="0 0 326 112"><defs><style>.cls-1{fill:none;}.cls-2{fill:rgba(120,116,115,0);}.cls-3{fill:#787473;isolation:isolate;}.cls-4{fill:#fff;}</style></defs><rect id="background" class="cls-2" width="326" height="112"/><path class="cls-3" d="M151.2,40.3l4,4.9,4-4.9h2.1v12.3h-2.4v-8.6h0l-3.6,4.3h-.3l-3.6-4.3h0v8.6h-2.4v-12.3h2.2Z"/><path class="cls-3" d="M167.4,40.3v12.3h-2.4v-12.3h2.4Z"/><path class="cls-3" d="M173.9,40.3v10.4h6v1.9h-8.4v-12.3h2.4Z"/><path class="cls-3" d="M185.3,40.3v5.7h0l4.5-5.7h2.7l-4.6,5.8,5.9,6.5h-3l-5.6-6v6h-2.4v-12.3h2.5Z"/><path class="cls-3" d="M204.5,40.3v1.9h-5.6v3.2h5.3v1.9h-5.3v3.5h5.7v1.9h-8.1v-12.3h7.9l.1-.1Z"/><path class="cls-3" d="M210.2,40.3l7.3,8.6v-8.6h2.3v12.3h-2l-7.4-8.7v8.7h-2.3v-12.3h2.1,0Z"/><path class="cls-3" d="M151.5,57.7v12.3h-2.4v-12.3h2.4Z"/><path class="cls-3" d="M157.7,57.7l7.3,8.6v-8.6h2.3v12.3h-2l-7.4-8.7v8.7h-2.3v-12.3h2.1,0Z"/><path class="cls-3" d="M175,57.5c1.2,0,2.4.3,3.5.9v2.1c-1-.7-2.2-1.1-3.4-1.1-.5,0-1,0-1.4.3-.3.2-.5.5-.5.9,0,.5.3.9.9,1.3.2.1.9.4,2,1,.8.4,1.6.9,2.2,1.6.5.6.7,1.3.7,2.1,0,1-.4,1.9-1.1,2.6-.8.7-1.9,1-3,1-.7,0-1.4,0-2-.3-.7-.2-1.3-.5-1.9-.9v-2.3c1.3,1.1,2.6,1.6,3.7,1.6.5,0,1-.1,1.4-.4.3-.2.5-.6.5-1,0-.6-.4-1.1-.9-1.4s-1.2-.6-2-1c-.8-.3-1.6-.9-2.2-1.5-.5-.6-.7-1.3-.7-2,0-1,.4-1.9,1.2-2.5.9-.7,2-1,3-1h0Z"/><path class="cls-3" d="M192.2,57.7v1.9h-4.4v10.5h-2.4v-10.5h-4.4v-1.9h11.2Z"/><path class="cls-3" d="M197.4,57.7v12.3h-2.4v-12.3h2.4Z"/><path class="cls-3" d="M211.5,57.7v1.9h-4.4v10.5h-2.4v-10.5h-4.4v-1.9h11.2Z"/><path class="cls-3" d="M216.1,57.7v7.2c0,.6,0,1.2.3,1.8.2.4.6.8,1,1.1.5.3,1,.4,1.6.4s1.2-.1,1.7-.4c.4-.2.8-.6,1-1.1.2-.6.3-1.3.3-1.9v-7h2.2v7.3c0,1.7-.5,2.9-1.4,3.8s-2.2,1.3-3.8,1.3c-.9,0-1.9-.2-2.7-.6-.7-.4-1.4-1-1.7-1.8-.4-.8-.6-1.7-.6-2.7v-7.4h2.2-.1Z"/><path class="cls-3" d="M237.7,57.7v1.9h-4.4v10.5h-2.4v-10.5h-4.4v-1.9h11.2Z"/><path class="cls-3" d="M248.5,57.7v1.9h-5.6v3.2h5.3v1.9h-5.3v3.5h5.7v1.9h-8.1v-12.3h8v-.1Z"/><circle class="cls-3" cx="96.6" cy="55" r="41.8"/><rect class="cls-1" x="93.7" y="52.4" width="5.6" height="5.6"/><rect class="cls-1" x="93.7" y="61.1" width="5.6" height="5.6"/><rect class="cls-1" x="85" y="52.4" width="5.6" height="5.6"/><rect class="cls-1" x="102.5" y="61.1" width="5.6" height="5.6"/><rect class="cls-1" x="93.7" y="43.6" width="5.6" height="5.6"/><rect class="cls-1" x="85" y="43.6" width="5.6" height="5.6"/><rect class="cls-1" x="102.5" y="43.6" width="5.6" height="5.6"/><rect class="cls-1" x="85" y="61.1" width="5.6" height="5.6"/><rect class="cls-1" x="102.5" y="52.4" width="5.6" height="5.6"/><path class="cls-1" d="M111.3,61.1v8.8h-8.8v26.5c18.3-2.6,32.7-17,35.4-35.3h-26.7.1Z"/><path class="cls-1" d="M99.4,69.9h-5.6v20.5h-3.1v-20.5h-5.7v15h-3.1v-15h-15v-3.1h15v-5.6h-20.5v-3.1h20.5v-5.6h-27v2.7c0,23.1,18.7,41.8,41.8,41.8.9,0,1.9,0,2.8-.1v-26.8h0l-.1-.2Z"/><path class="cls-1" d="M81.8,43.6v-3.1h8.8V13.7c-18.4,2.6-32.9,17.1-35.4,35.6h26.7v-5.6l-.1-.1Z"/><path class="cls-1" d="M99.4,40.5v-20.5h3.1v20.5h5.6v-15h3.1v15h15v3.1h-15v5.6h20.5v3.1h-20.5v5.6h27c0-1,.1-2,.1-3,0-23.1-18.7-41.8-41.8-41.8-1,0-1.9,0-2.8.1v27.1h5.6l.1.2Z"/><polygon class="cls-4" points="102.5 40.5 102.5 43.6 108.1 43.6 108.1 40.5 102.5 40.5 102.5 40.5 102.5 40.5"/><polygon class="cls-4" points="85 43.6 90.6 43.6 90.6 40.5 81.8 40.5 81.8 40.5 85 40.5 85 43.6"/><polygon class="cls-4" points="93.7 43.6 99.4 43.6 99.4 40.5 93.7 40.5 93.7 40.5 93.7 40.5 93.7 43.6"/><rect class="cls-4" x="111.3" y="40.5" width="15" height="3.1"/><rect class="cls-4" x="111.3" y="49.2" width="20.5" height="3.1"/><path class="cls-4" d="M111.3,61.1h26.7c.1-1,.3-2.1.3-3.1h-27v3.1Z"/><rect class="cls-4" x="81.8" y="69.9" width="3.1" height="15"/><polygon class="cls-4" points="85 61.1 85 61.1 81.8 61.1 81.8 61.1 81.8 66.8 85 66.8 85 61.1"/><polygon class="cls-4" points="85 52.4 85 52.4 81.8 52.4 81.8 52.4 81.8 58 85 58 85 52.4"/><polygon class="cls-4" points="85 40.5 81.8 40.5 81.8 43.6 81.8 49.2 85 49.2 85 43.6 85 40.5"/><polygon class="cls-4" points="90.6 69.9 90.6 90.4 93.7 90.4 93.7 69.9 93.7 69.9 90.6 69.9"/><path class="cls-4" d="M102.5,69.9h-3.1v26.8c1.1,0,2.1-.2,3.1-.3v-26.5h0Z"/><polygon class="cls-4" points="111.3 52.4 111.3 49.2 111.3 43.6 111.3 40.5 111.3 25.5 108.1 25.5 108.1 40.5 108.1 43.6 108.1 49.2 111.3 49.2 111.3 52.4 108.1 52.4 108.1 52.4 108.1 58 111.3 58 111.3 61.1 108.1 61.1 108.1 61.1 108.1 66.8 111.3 66.8 111.3 69.9 111.3 69.9 111.3 61.1 111.3 58 111.3 52.4"/><polygon class="cls-4" points="99.4 58 102.5 58 102.5 52.4 99.4 52.4 99.4 52.4 99.4 58"/><polygon class="cls-4" points="102.5 40.5 102.5 40.5 102.5 20 99.4 20 99.4 40.5 99.4 43.6 99.4 49.2 102.5 49.2 102.5 40.5"/><polygon class="cls-4" points="102.5 61.1 99.4 61.1 99.4 61.1 99.4 66.8 102.5 66.8 102.5 61.1"/><polygon class="cls-4" points="90.6 58 93.7 58 93.7 52.4 90.6 52.4 90.6 52.4 90.6 58"/><path class="cls-4" d="M90.6,43.6v5.6h3.1v-8.8h0V13.3c-1.1,0-2.1.2-3.1.3v30h0Z"/><polygon class="cls-4" points="93.7 61.1 90.6 61.1 90.6 61.1 90.6 66.8 93.7 66.8 93.7 61.1"/><polygon class="cls-4" points="108.1 66.8 102.5 66.8 102.5 66.8 99.4 66.8 93.7 66.8 93.7 66.8 90.6 66.8 85 66.8 81.8 66.8 66.9 66.8 66.9 69.9 81.8 69.9 85 69.9 90.6 69.9 90.6 69.9 93.7 69.9 93.7 69.9 99.4 69.9 99.4 69.9 102.5 69.9 102.5 69.9 108.1 69.9 111.3 69.9 111.3 66.8 108.1 66.8"/><polygon class="cls-4" points="90.6 61.1 93.7 61.1 93.7 61.1 99.4 61.1 102.5 61.1 102.5 61.1 108.1 61.1 111.3 61.1 111.3 58 108.1 58 102.5 58 102.5 58 99.4 58 93.7 58 93.7 58 90.6 58 85 58 81.8 58 61.4 58 61.4 61.1 81.8 61.1 85 61.1 90.6 61.1"/><path class="cls-4" d="M85,52.4h26.3v-3.2h-56.1c-.1,1-.3,2.1-.3,3.2,0,0,30.1,0,30.1,0Z"/></svg>