<?xml version="1.0" encoding="utf-8"?>
<!-- Generator: Adobe Illustrator 16.0.0, SVG Export Plug-In . SVG Version: 6.00 Build 0)  -->
<!DOCTYPE svg PUBLIC "-//W3C//DTD SVG 1.1//EN" "http://www.w3.org/Graphics/SVG/1.1/DTD/svg11.dtd">
<svg version="1.1" id="Layer_1" xmlns="http://www.w3.org/2000/svg" xmlns:xlink="http://www.w3.org/1999/xlink" x="0px" y="0px"
	 width="326px" height="112px" viewBox="0 0 326 112" enable-background="new 0 0 326 112" xml:space="preserve">
<rect id="background" opacity="0" fill="#4D4D4D" width="326" height="112"/>
<g transform="translate(0.000000,195.000000) scale(0.100000,-0.100000)">
	<path fill="#4D4D4D" d="M1080.098,1592.119c-7.261-3.628-32.905-27.905-32.905-30.854c0-1.138,4.092-7.036,9.082-13.389
		c11.562-14.521,14.517-25.645,12.93-49.692c-2.72-50.596-39.478-118.223-81.006-149.756c-30.859-23.369-58.994-24.053-72.153-1.816
		c-3.628,5.898-3.403,6.357,6.582,17.021c14.521,15.654,28.594,34.482,49.238,66.255c22.456,34.038,35.396,60.132,40.391,80.093
		c4.531,17.925,2.944,28.369-4.995,38.125c-5.449,6.353-7.036,6.807-20.42,6.807c-16.562,0-31.079-5-50.371-17.48
		c-47.197-29.941-90.308-108.911-95.298-174.258l-1.592-20.42l-11.338-6.338c-9.536-5.234-13.389-6.143-24.282-5.459
		c-16.108,0.898-23.149,6.582-27.905,22.91c-12.251,41.289,11.797,102.788,71.924,183.115c12.476,16.787,23.14,31.538,23.828,32.905
		c0.674,1.812-2.949,1.812-12.261-0.459c-30.4-7.031-46.509-7.935-77.822-4.316c-49.688,5.679-62.627,4.316-77.603-7.939
		c-9.292-7.715-19.058-26.313-21.323-40.84c-1.592-9.072-1.367-9.751,2.72-8.164c15.664,6.357,18.154,6.577,51.279,3.857
		c18.379-1.816,38.12-2.271,43.789-1.597c5.669,0.913,10.22,1.138,10.22,0.464c0-0.684-5.684-9.98-12.939-20.874
		c-16.558-25.645-39.253-70.571-46.064-91.904c-4.536-13.613-5.435-21.543-5.669-42.881c0-40.381,8.164-58.535,31.768-69.443
		c22.461-10.645,53.545-6.113,83.042,11.807l13.618,8.184l8.848-8.184c4.995-4.307,12.476-9.521,16.787-11.338
		c19.512-8.164,55.361-6.338,81.46,4.316c23.823,9.531,38.794,20.186,65.347,46.504c20.19,20.195,30.859,33.125,46.514,56.729
		c38.34,58.32,52.871,97.793,53.096,144.307c0,22.69-2.271,32.222-10.664,43.574
		C1105.962,1595.073,1093.027,1598.926,1080.098,1592.119z M958.931,1490.239c-6.577-25.64-33.35-67.847-59.897-93.931
		l-12.715-12.256l2.275,9.756c7.944,35.396,38.569,89.629,59.219,104.6C959.609,1506.802,962.563,1504.536,958.931,1490.239z"/>
	<path fill="#4D4D4D" d="M1452.212,1549.458c-17.017-4.536-23.145-7.485-39.487-18.379
		c-38.564-25.635-83.037-81.455-110.493-138.188c-6.812-13.838-13.389-31.074-14.976-38.105l-2.729-12.939l-14.517-5.898
		c-7.939-3.174-20.425-6.348-27.681-7.246c-12.715-1.152-13.618-0.908-20.19,5.674c-5.679,5.664-7.036,8.838-7.036,17.002
		c0,13.623,14.067,41.514,21.777,43.34c11.572,2.949,44.023,42.432,44.023,54.004c0,4.761-16.792,10.43-36.309,12.256
		c-18.833,1.812-51.274-3.857-74.419-12.71c-27.231-10.444-45.381-22.227-65.122-41.978c-28.369-28.594-45.83-62.178-48.105-93.027
		c-1.133-14.766-0.908-16.562,4.536-22.686c5.229-6.348,6.812-6.826,21.333-6.826c14.067,0,17.93,1.143,34.941,9.541
		c10.435,5.205,24.277,13.613,30.405,18.613c6.353,4.99,13.838,11.113,17.017,13.379l5.674,4.541v-17.705
		c0-19.277,2.954-25.4,14.751-29.932c19.736-7.734,68.291,4.072,95.752,23.594l6.123,4.072l10.435-11.113
		c13.389-14.297,19.746-16.787,40.161-15.879c19.741,1.133,34.717,7.715,55.596,24.727l14.062,11.348l3.403-12.031
		c4.995-17.246,9.985-20.869,27.222-20.645c10.898,0.234,17.705,2.051,31.543,8.389c9.536,4.551,20.659,10.215,24.282,12.939
		l6.577,4.766l-4.082-12.021c-10.664-30.859-36.304-73.301-51.279-84.863c-9.067-6.807-14.746-6.357-18.604,1.133
		c-2.046,4.541-1.816,7.49,1.592,17.012c2.49,6.123,4.072,11.807,3.394,12.256c-0.454,0.449-6.123-0.908-12.93-3.174
		c-29.941-9.98-51.504-49.688-36.299-67.168c8.843-10.439,52.866,1.602,84.175,23.154c39.707,26.768,74.419,73.74,118.662,160.41
		c18.164,35.85,22.021,44.932,20.889,50.381c-1.357,6.118,0.225,8.623,12.471,21.323c12.939,13.618,13.613,14.751,9.99,17.925
		c-13.848,12.026-63.53,16.338-89.175,7.715c-34.941-11.802-60.352-30.396-88.267-64.902
		c-39.028-47.871-57.627-61.934-83.496-62.158c-11.797-0.234-14.751,0.674-19.736,5.215c-3.179,3.174-5.903,7.256-5.903,9.521
		c0,2.051,6.812,9.307,15.425,15.889c56.733,44.248,127.749,135.229,133.652,170.859
		C1493.955,1547.422,1476.26,1555.81,1452.212,1549.458z M1438.823,1500c-3.179-16.338-32.446-57.412-63.535-90.078
		c-18.374-18.838-37.212-35.4-39.023-33.799c-4.082,4.072,16.333,39.468,44.014,76.226c20.879,28.14,29.961,37.891,44.023,48.33
		C1436.782,1509.526,1440.635,1509.297,1438.823,1500z M1198.315,1417.632c17.92-5.449,18.369-6.118,10.435-17.241
		c-15.43-22.695-49.463-49.248-74.873-58.77c-14.751-5.674-23.828-4.307-29.272,3.643c-3.184,4.766-3.184,7.031-0.913,14.961
		c3.408,11.357,11.118,23.828,22.007,35.859C1145.22,1417.632,1171.987,1425.581,1198.315,1417.632z M1557.041,1414.004l7.485-4.766
		l-17.476-19.287c-32.217-35.625-56.04-52.871-72.373-52.871c-7.036,0-14.751,6.133-17.476,14.297
		c-3.862,10.439,14.971,36.299,38.799,53.096C1519.599,1421.26,1540.015,1424.438,1557.041,1414.004z"/>
	<path fill="#4D4D4D" d="M2484.15,1491.147c-6.357-3.174-14.98-11.567-26.328-25.41c-33.574-41.299-97.334-99.155-124.795-112.993
		c-13.164-6.807-29.951-8.174-35.625-3.174c-14.062,12.695,7.48,56.035,45.615,91.885c14.961,14.297,16.562,19.971,7.256,27.231
		c-12.021,9.307-26.553,0.679-80.771-48.325c-21.787-19.736-41.973-37.441-44.697-39.473c-5.225-3.643-5.225-3.643-3.633,2.93
		c0.898,3.643,6.357,14.297,12.021,23.604c5.674,9.302,14.98,24.731,20.42,34.033l9.98,17.026l-7.031,6.353
		c-11.797,10.659-6.807,14.062-89.619-60.361c-29.492-26.543-60.586-47.646-93.027-63.066c-27.227-13.164-43.105-16.123-52.412-10
		l-5.908,3.877l30.41,14.961c16.553,8.389,35.391,18.828,41.523,23.604c18.379,13.379,36.982,34.482,44.248,49.917
		c8.398,17.69,8.848,28.813,1.357,37.432c-5.449,6.138-6.123,6.357-26.777,6.138c-23.594-0.234-41.299-5.449-64.658-19.297
		c-23.594-14.062-62.402-56.504-82.363-90.312c-9.082-15.205-9.766-15.645-25.654-21.553c-33.564-12.246-67.842-16.104-80.996-9.297
		c-3.867,2.041-6.797,4.307-6.797,5.225c0,0.908,12.246,8.154,27.227,16.104c41.963,22.461,68.066,46.514,81.221,74.648
		c6.133,13.618,5.898,24.961-1.133,32.681c-24.062,26.768-91.67,8.394-132.051-35.854c-21.113-23.154-39.941-55.146-44.248-75.107
		c-1.816-7.705-5.898-9.287-33.125-13.164c-13.379-1.807-25.176,3.877-27.676,13.613c-4.775,17.715,8.154,41.074,40.605,72.837
		c17.695,17.48,21.113,22.012,21.113,27.91c0,12.251-14.531,13.618-44.951,3.857c-18.584-5.903-29.941-7.485-29.941-4.077
		c0,0.903,2.051,4.99,4.775,9.297c5.664,9.307,4.98,17.021-1.826,17.925c-15.654,2.271-50.596-32.441-50.596-50.146
		c0-16.108-12.705-35.396-50.361-76.011c-14.297-15.205-27.686-31.074-29.961-34.941l-4.316-7.031l6.592,1.592
		c3.623,0.898,12.246,5.215,19.062,9.756c13.604,8.838,50.82,45.381,63.525,62.627c4.316,5.664,9.307,10.664,11.113,10.664
		c1.816,0,6.807,1.123,10.898,2.715c14.297,5.215,13.613-0.459-2.5-22.236c-16.562-22.461-21.777-34.717-21.777-51.504
		c0-24.277,12.021-34.502,39.697-34.258c12.49,0.234,20.42,2.041,37.432,8.623c11.807,4.531,26.113,10.205,31.543,12.246
		c8.857,3.408,10.215,3.408,11.123,0.459c2.5-7.041,13.838-15.664,25.41-19.062c17.461-5.225,51.064-4.775,74.893,0.898
		c10.654,2.734,30.85,9.307,44.912,14.98c14.297,5.664,26.094,9.98,26.318,9.531s1.816-3.613,3.643-7.256
		c1.807-3.643,7.48-9.307,12.246-12.49c8.398-5.43,10.879-5.889,32.91-5.889c26.553,0.225,42.637,4.307,70.781,18.379
		c14.756,7.256,61.494,37.891,76.24,49.912c11.338,9.082,10.439,2.949-1.816-14.072c-17.246-24.043-25.195-38.564-24.268-45.605
		c0.674-5.879,1.357-6.338,10.664-5.879c11.562,0.439,38.555,12.705,55.576,25.176c6.348,4.531,21.562,16.797,33.818,27.217
		c12.461,10.215,23.359,18.613,24.502,18.613c1.123,0-1.143-5.908-4.766-13.398c-17.471-34.258-6.807-56.943,26.543-56.943
		c33.125,0,59.219,16.348,143.623,90.303l31.777,27.91l2.49-6.348c3.633-9.541,0.918-29.258-6.348-43.34l-6.357-12.695
		l-17.471-4.775c-20.195-5.898-35.85-14.297-41.299-22.695c-5.459-8.164-5.459-19.297-0.234-22.9
		c5.898-4.316,24.062-3.867,47.656,1.123c17.021,3.633,23.594,4.092,38.574,2.266c9.98-1.133,31.074-2.715,46.738-3.389
		c26.787-1.367,29.502-1.143,39.258,3.389c12.939,6.357,24.727,19.746,33.359,37.666c7.705,15.889,8.379,20.654,2.715,18.164
		c-28.809-12.49-57.402-14.756-80.312-5.908l-12.5,4.766l5.01,15.43c7.031,22.002,12.246,54.683,12.246,78.511
		c0,16.558,0.908,21.997,4.531,28.13c6.133,9.99,5.908,17.7-0.449,19.517C2499.131,1496.826,2494.14,1496.137,2484.15,1491.147z
		 M2093.203,1438.052c4.99-6.123,0.225-14.287-19.287-33.804c-14.297-14.512-23.369-21.328-36.309-27.676
		c-9.297-4.531-17.695-7.725-18.604-6.816c-0.898,0.908,1.807,8.174,5.898,16.338c9.98,19.287,32.227,42.207,48.105,49.692
		C2087.304,1442.368,2089.336,1442.588,2093.203,1438.052z M1913.955,1428.071c0-6.812-18.613-28.13-35.635-40.61
		c-16.338-12.49-38.809-24.287-41.064-22.012c-2.266,2.266,9.98,23.828,22.002,38.799
		C1880.596,1430.566,1913.955,1445.088,1913.955,1428.071z"/>
</g>
</svg>
