<?xml version="1.0" encoding="UTF-8"?>
<svg id="Layer_1" xmlns="http://www.w3.org/2000/svg" version="1.1" viewBox="0 0 326 112">
  <!-- Generator: Adobe Illustrator 29.5.1, SVG Export Plug-In . SVG Version: 2.1.0 Build 141)  -->
  <defs>
    <style>
      .st0 {
        fill-rule: evenodd;
      }

      .st0, .st1 {
        fill: #787473;
      }

      .st1 {
        fill-opacity: 0;
      }

      .st2 {
        fill: #767271;
      }
    </style>
  </defs>
  <polyline id="background" class="st1" points="326 112 0 112 0 0 326 0"/>
  <g>
    <g>
      <path class="st0" d="M49.4,27.6c.3-.5.6-1,.8-1.4,1.1-2,2.8-3,5-3h65.2c.7,0,1.1.2,1.5.9,3.1,5.7,6.3,11.4,9.4,17.1,2.1,3.8,4.1,7.6,6.2,11.5.5.9,1,1.7,1.4,2.6.2.3.2.9,0,1.2-2,3.8-4.1,7.6-6.2,11.3-1.6,2.9-3.2,5.8-4.8,8.8-2.1,3.8-4.2,7.6-6.3,11.4-.4.7-.8.7-1.4.7H55.7c-2.8,0-4.8-1.2-5.9-3.8,0-.3-.3-.5-.5-.8V27.6h.1ZM64.2,49.1c.3.2.4.3.5.4,1.3,2.1,2.6,4.2,3.8,6.3,2.9,4.7,5.8,9.5,8.7,14.2.2.2.5.6.7.6h5v-29.4h-4.9v21c-.9-1.1-1.5-2.1-2.2-3.2-3.5-5.8-7.1-11.6-10.7-17.4,0-.2-.4-.5-.6-.5h-5.1v29.4h4.8v-21.4h0ZM116.4,41.3v10.4c0,.8-.2,1.2-1.1,1.2h-10.9c-.8,0-1.1-.2-1.1-1.1v-10.5h-5.2v29.3h5.2v-12.1c0-.8.2-1.2,1.1-1.2h10.9c.8,0,1.1.2,1.1,1.1v12.2h5v-29.3c-1.7,0-3.3,0-5,0ZM88,41.2v29.3h4.9v-29.3h-4.9Z"/>
      <path class="st0" d="M125.8,88.7c1.1-2.1,2.2-4.1,3.2-6,1.2-2.3,2.5-4.5,3.8-6.7,2.9-5.3,5.8-10.6,8.7-15.9.7-1.2,1.3-2.4,1.9-3.6.2-.3.2-.9,0-1.2-2.4-4.4-4.8-8.7-7.2-13.1-1.3-2.3-2.5-4.7-3.8-7-2.2-4-4.3-7.9-6.6-12,2.6.2,5-.5,7.4.6,1.7.8,3.1,1.9,4,3.5,2.8,5.2,5.6,10.3,8.4,15.4,2.3,4.3,4.7,8.5,7,12.8.1.2.1.6,0,.8-1.7,3.1-3.4,6.2-5.1,9.3-1.3,2.3-2.5,4.6-3.8,7-2.4,4.3-4.6,8.6-7.2,12.8-1.3,2.2-3.6,3.3-6.2,3.4h-4.5,0Z"/>
    </g>
    <path id="path167" class="st2" d="M224.4,25.1c-2.2,0-4,.7-5.4,2.2-1.5,1.4-2.2,3.2-2.2,5.4s.7,3.9,2.2,5.4c1.5,1.4,3.3,2.2,5.4,2.2s4-.7,5.4-2.2c1.5-1.4,2.2-3.2,2.2-5.4s-.7-3.9-2.2-5.4c-1.5-1.4-3.3-2.2-5.4-2.2ZM166.7,25.5v14.5h3.2v-9.1l6.9,9.1h3.2v-14.5h-3.2v9.4l-7.1-9.4h-3,0ZM188.1,25.5l-6.3,14.5h3.5l1.4-3.1h6.1l1.4,3.1h3.5l-6.3-14.5h-3.3ZM196.9,25.5v2.8h4.1v11.7h3.2v-11.7h4.1v-2.8h-11.5,0ZM210.8,25.5v14.5h3.2v-14.5h-3.2ZM234.8,25.5v14.5h3.2v-9.1l6.9,9.1h3.2v-14.5h-3.2v9.4l-7.1-9.4s-3,0-3,0ZM256.2,25.5l-6.3,14.5h3.5l1.4-3.1h6.1l1.4,3.1h3.5l-6.3-14.5h-3.3ZM267.3,25.5v14.5h9.4v-2.9h-6.2v-11.7h-3.2,0ZM224.4,28c1.2,0,2.2.5,3.1,1.4.8.9,1.2,2,1.2,3.3s-.4,2.4-1.2,3.3c-.8.9-1.9,1.4-3.1,1.4s-2.2-.5-3.1-1.4c-.8-.9-1.2-2-1.2-3.3s.4-2.4,1.2-3.3,1.9-1.4,3.1-1.4ZM189.7,29.8l1.8,4.2h-3.6l1.8-4.2ZM257.8,29.8l1.8,4.2h-3.6l1.8-4.2h0ZM173.5,48.5c-2.1,0-3.9.7-5.4,2.2-1.5,1.4-2.2,3.2-2.2,5.4s.7,3.9,2.2,5.4c1.4,1.4,3.3,2.1,5.5,2.1s4.2-.9,5.8-2.8l-2.1-2.1c-1,1.3-2.3,1.9-3.9,1.9s-2.2-.4-3-1.2-1.2-1.9-1.2-3.3.4-2.4,1.3-3.2c.9-.8,1.9-1.2,3.1-1.2s2.8.6,3.8,1.9l2-2.3c-1.6-1.8-3.6-2.7-6-2.7h0ZM221.1,48.5c-2.1,0-3.9.7-5.4,2.2-1.5,1.4-2.2,3.2-2.2,5.4s.7,3.9,2.2,5.4c1.4,1.4,3.3,2.1,5.5,2.1s4.2-.9,5.8-2.8l-2.1-2.1c-1,1.3-2.3,1.9-3.9,1.9s-2.2-.4-3-1.2-1.2-1.9-1.2-3.3.4-2.4,1.3-3.2c.9-.8,1.9-1.2,3.1-1.2s2.8.6,3.8,1.9l2-2.3c-1.6-1.8-3.6-2.7-6-2.7h0ZM197.3,48.9v14.5h3.2v-9.1l6.9,9.1h3.2v-14.5h-3.2v9.4l-7.1-9.4h-3,0ZM229.6,48.9v14.5h10.7v-2.9h-7.5v-3h6.5v-2.8h-6.5v-3h7.2v-2.9h-10.5.1ZM186.2,48.9l-6.3,14.5h3.5l1.4-3.1h6.1l1.4,3.1h3.5l-6.3-14.5h-3.3ZM243.2,48.9v14.5h3.2v-4.6h2.2l3.2,4.6h4l-3.7-5.2c1.8-.7,2.8-2.2,2.8-4.5s-.5-2.9-1.4-3.7c-1-.8-2.6-1.1-4.8-1.1h-5.5ZM246.4,51.6h2.4c1,0,1.8,0,2.2.4.4.3.6.8.6,1.6s-.2,1.4-.6,1.7c-.4.4-1.2.5-2.3.5h-2.4v-4.3h0ZM187.8,53.2l1.8,4.2h-3.6l1.8-4.2ZM195.3,71.9c-1.5,0-2.7.4-3.7,1.1s-1.5,1.8-1.5,3.2.4,2.4,1.2,3,2,1.2,3.7,1.6c1.1.3,1.8.5,2.1.8.4.3.5.6.5,1s-.2.8-.5,1c-.3.3-.8.4-1.4.4-1.3,0-2.8-.7-4.3-2.1l-1.9,2.4c1.8,1.7,3.9,2.6,6.2,2.6s2.9-.4,3.9-1.2c1-.8,1.5-1.9,1.5-3.2s-.4-2.3-1.1-3c-.8-.7-1.8-1.2-3.2-1.5s-2.3-.6-2.6-.9c-.4-.2-.6-.6-.6-1s.2-.8.5-1c.3-.3.7-.4,1.3-.4,1.3,0,2.6.5,3.9,1.4l1.6-2.4c-.7-.6-1.6-1.1-2.5-1.4-1-.3-1.9-.5-2.9-.5h-.2ZM166.7,72.3v14.5h3.2v-14.5h-3.2ZM173.5,72.3v14.5h3.2v-9.1l6.9,9.1h3.2v-14.5h-3.2v9.4l-7.1-9.4h-3,0ZM202.5,72.3v2.8h4.1v11.7h3.2v-11.7h4.1v-2.8h-11.5,0ZM216.3,72.3v14.5h3.2v-14.5h-3.2ZM222,72.3v2.8h4.1v11.7h3.2v-11.7h4.1v-2.8h-11.5,0ZM235.6,72.3v8.1c0,2.1.6,3.7,1.8,4.8s2.7,1.7,4.5,1.7,3.3-.6,4.5-1.7,1.7-2.7,1.7-4.9v-8.1h-3.2v8c0,1.2-.3,2.1-.8,2.8-.5.7-1.3,1-2.2,1s-1.6-.3-2.2-1c-.5-.7-.8-1.6-.8-2.8v-8h-3.3ZM250.2,72.3v2.8h4.1v11.7h3.2v-11.7h4.1v-2.8h-11.5,0ZM264.1,72.3v14.5h10.7v-2.9h-7.5v-3h6.5v-2.8h-6.5v-3h7.2v-2.9h-10.5,0Z"/>
  </g>
</svg>