<?xml version="1.0" encoding="utf-8"?>
<!-- Generator: Adobe Illustrator 16.0.0, SVG Export Plug-In . SVG Version: 6.00 Build 0)  -->
<!DOCTYPE svg PUBLIC "-//W3C//DTD SVG 1.1//EN" "http://www.w3.org/Graphics/SVG/1.1/DTD/svg11.dtd">
<svg version="1.1" id="Layer_1" xmlns="http://www.w3.org/2000/svg" xmlns:xlink="http://www.w3.org/1999/xlink" x="0px" y="0px"
	 width="326px" height="112px" viewBox="0 0 326 112" enable-background="new 0 0 326 112" xml:space="preserve">
<rect id="background" opacity="0" fill="#4D4D4D" width="326" height="112"/>
<g>
	<path fill="#4D4D4D" d="M164.229,23.014c-12.44,0.127-23.036,1.275-39.287,6.523c-0.729,0.231-0.76-0.109-0.212-0.375
		c16.74-6.136,25.646-8.078,39.499-7.985c13.847-0.093,22.758,1.85,39.501,7.985c0.541,0.267,0.509,0.606-0.215,0.375
		C187.259,24.29,176.673,23.142,164.229,23.014 M164.229,32.34c16.375-0.305,38.643,1.968,56.599,10.258
		c0.604,0.324,0.756-0.13,0.208-0.379c-18.946-9.208-42.97-12.201-56.807-11.819c-13.848-0.382-37.867,2.611-56.807,11.819
		c-0.549,0.249-0.401,0.703,0.212,0.379C125.588,34.309,147.846,32.035,164.229,32.34 M164.229,27.843
		c12.332-0.031,32.965,1.271,48.925,8.369c0.652,0.358,0.823-0.092,0.222-0.379c-16.239-7.598-35.271-10.094-49.122-9.968
		c-13.858-0.126-32.937,2.37-49.17,9.968c-0.607,0.287-0.43,0.737,0.215,0.379C131.259,29.114,151.895,27.812,164.229,27.843"/>
	<path fill="#4D4D4D" d="M92.437,85.439c0,0.929-0.009,1.022,1.142,1.075v0.364c-0.569-0.035-1.142-0.061-1.721-0.061
		c-0.593,0-1.15,0.024-1.689,0.061v-0.364c1.146-0.053,1.133-0.146,1.133-1.075v-2.778h-4.786v2.778
		c0,0.929-0.009,1.022,1.137,1.075v0.364c-0.573-0.035-1.137-0.061-1.725-0.061c-0.583,0-1.147,0.024-1.685,0.061v-0.364
		c1.15-0.053,1.138-0.146,1.138-1.075V79.95c0-0.933,0.012-1.02-1.138-1.079v-0.354c0.537,0.029,1.102,0.057,1.685,0.057
		c0.588,0,1.152-0.027,1.725-0.057v0.354c-1.146,0.06-1.137,0.146-1.137,1.079v2.216h4.786V79.95c0-0.933,0.014-1.02-1.133-1.079
		v-0.354c0.54,0.029,1.097,0.057,1.689,0.057c0.579,0,1.152-0.027,1.721-0.057v0.354c-1.15,0.06-1.142,0.146-1.142,1.079V85.439
		 M104.731,85.239v-2.31c2.701-0.1,2.792-0.169,2.792,1.181h0.388V81.35h-0.388c-0.012,1.169-0.186,1.026-2.792,0.997v-2.229
		c0-0.425,0.019-0.7,0.062-0.993c0.394-0.062,0.954-0.062,1.48-0.062c0.6,0,1.213,0.021,1.786,0.203
		c0.086,0.371,0.157,0.703,0.166,1.175h0.372c0-0.255,0.037-0.457,0.037-0.713c0.017-0.384,0.053-0.764,0.19-1.156
		c-0.407-0.055-1.236-0.042-1.984-0.055c-0.72,0.03-1.446,0.055-2.19,0.055c-0.744,0-1.467-0.024-2.192-0.055v0.357
		c1.146,0.057,1.138,0.144,1.138,1.074v5.491c0,0.806-0.429,1.057-1.029,1.077v0.364c0.729-0.038,1.438-0.066,2.165-0.066
		c0.73,0,1.449,0.028,2.155,0.066c0.741-0.02,1.545,0,1.987-0.066v-0.986c0-0.389,0.072-0.719,0.121-0.976h-0.397l-0.109,0.663
		c-0.022,0.213-0.084,0.425-0.142,0.607c-0.62,0.178-1.284,0.203-1.929,0.203c-0.572,0-1.181,0-1.623-0.055
		C104.75,85.954,104.731,85.67,104.731,85.239 M125.496,85.254l-2.884-6.812h-0.384c-0.316,0.863-0.703,1.735-1.094,2.585
		l-1.611,3.611l-0.583,1.234c-0.288,0.624-0.377,0.511-1.045,0.645v0.362c0.452-0.035,0.911-0.061,1.374-0.061
		c0.468,0,0.92,0.024,1.373,0.061v-0.362c-0.429-0.054-1.013,0-1.013-0.393c0-0.263,0.663-1.686,0.801-2.014h3.403l0.729,1.751
		c0.096,0.215,0.083,0.407-0.084,0.489c-0.259,0.146-0.589,0.155-0.898,0.167v0.361c0.528-0.035,1.05-0.06,1.596-0.06
		c0.535,0,1.068,0.024,1.589,0.06v-0.361c-0.272-0.012-0.521-0.084-0.658-0.202C125.809,86.028,125.654,85.632,125.496,85.254
		 M120.625,83.596l1.492-3.569l1.497,3.569H120.625z M137.871,85.825v-5.877c0-0.929-0.009-1.016,1.138-1.074v-0.357
		c-0.581,0.028-1.138,0.058-1.722,0.058c-0.589,0-1.149-0.029-1.692-0.058v0.357c1.147,0.059,1.139,0.146,1.139,1.074v5.172
		c0,0.957-0.085,1.298-0.648,1.396v0.364c0.7-0.038,1.368-0.064,2.059-0.064c0.698,0,1.383,0.026,2.048,0.064
		c0.706-0.02,1.474,0,1.855-0.064l0.131-1.252c0.051-0.323,0.085-0.637,0.121-0.809l-0.388-0.021l-0.268,1.004
		c-0.045,0.146-0.076,0.273-0.125,0.386c-0.622,0.18-1.275,0.202-1.927,0.202c-0.572,0-1.185,0-1.688-0.057L137.871,85.825
		 M153.058,80.32v5.118c0,0.93,0.012,1.023-1.136,1.076v0.362c0.545-0.034,1.095-0.061,1.689-0.061c0.585,0,1.146,0.026,1.724,0.061
		v-0.362c-1.151-0.053-1.139-0.146-1.139-1.076V80.32c0.014-0.46,0.014-0.838,0.05-1.195l1.863,0.056
		c0.256,0.015,0.402,0.05,0.426,0.357c0.04,0.289,0.111,0.601,0.126,0.923h0.361c0-0.229,0-0.438,0.008-0.666
		c0.013-0.426,0.021-0.843,0.064-1.277c-1.164,0.03-2.3,0.054-3.462,0.054c-1.165,0-2.308-0.023-3.441-0.054
		c0.032,0.435,0.042,0.852,0.053,1.277c0.015,0.228,0.015,0.437,0.015,0.666h0.361c0.01-0.322,0.081-0.635,0.123-0.923
		c0.027-0.308,0.174-0.343,0.426-0.357l1.841-0.056C153.044,79.482,153.044,79.86,153.058,80.32 M174.076,85.439V79.95
		c0-0.933-0.015-1.02,1.136-1.079v-0.354c-0.568,0.029-1.136,0.057-1.722,0.057c-0.588,0-1.149-0.027-1.686-0.057v0.354
		c1.143,0.06,1.135,0.146,1.135,1.079v2.216h-4.793V79.95c0-0.933-0.011-1.02,1.136-1.079v-0.354
		c-0.57,0.029-1.136,0.057-1.717,0.057c-0.587,0-1.154-0.027-1.69-0.057v0.354c1.151,0.06,1.135,0.146,1.135,1.079v5.489
		c0,0.929,0.017,1.022-1.135,1.075v0.364c0.536-0.035,1.104-0.061,1.69-0.061c0.581,0,1.146,0.024,1.717,0.061v-0.364
		c-1.146-0.053-1.136-0.146-1.136-1.075v-2.778h4.793v2.778c0,0.929,0.008,1.022-1.135,1.075v0.364
		c0.536-0.035,1.097-0.061,1.686-0.061c0.586,0,1.153,0.024,1.722,0.061v-0.364C174.062,86.462,174.076,86.368,174.076,85.439
		 M191.598,86.351l0.236-0.535l-0.105-0.119c-0.727,0.473-1.57,0.749-2.428,0.749c-2.409,0-3.963-1.653-3.963-4.047
		c0-2.167,1.36-3.566,3.34-3.566c0.855,0,1.431,0.207,1.926,0.446c0.697,0.342,0.519,0.616,0.546,1.391h0.355
		c0.067-0.604,0.135-1.202,0.26-1.795c-1.006-0.29-2.059-0.546-3.12-0.546c-2.364,0-4.595,1.559-4.595,4.333
		c0,2.84,2.202,4.395,4.836,4.395C189.649,87.057,190.849,86.779,191.598,86.351 M208.302,85.254l-2.886-6.812h-0.385
		c-0.309,0.863-0.705,1.735-1.088,2.585l-1.612,3.611l-0.586,1.234c-0.288,0.624-0.367,0.511-1.047,0.645v0.362
		c0.459-0.035,0.913-0.061,1.377-0.061c0.476,0,0.928,0.024,1.38,0.061v-0.362c-0.426-0.054-1.021,0-1.021-0.393
		c0-0.263,0.66-1.686,0.808-2.014h3.401l0.722,1.751c0.104,0.215,0.088,0.407-0.076,0.489c-0.268,0.146-0.591,0.155-0.896,0.167
		v0.361c0.524-0.035,1.041-0.06,1.593-0.06c0.533,0,1.064,0.024,1.58,0.06v-0.361c-0.265-0.012-0.516-0.084-0.655-0.202
		C208.614,86.028,208.465,85.632,208.302,85.254 M203.432,83.596l1.496-3.569l1.497,3.569H203.432z M219.546,79.948v5.49
		c0,0.93,0.004,1.023-1.146,1.079v0.363c0.541-0.037,1.105-0.062,1.692-0.062s1.146,0.024,1.725,0.062v-0.363
		c-1.147-0.056-1.138-0.149-1.138-1.079v-5.49c0-0.374,0-0.621,0.068-0.824c0.325-0.099,0.785-0.16,1.194-0.16
		c0.891,0,1.844,0.38,1.844,1.681c0,0.88-0.712,1.529-1.553,1.669c-0.36,0.062-0.73,0.077-1.103,0.048l-0.053,0.184l2.853,3.664
		c0.174,0.198,0.305,0.413,0.493,0.672c0.278-0.038,0.543-0.062,0.808-0.062c0.273,0,0.558,0.024,0.82,0.062v-0.365
		c-0.244-0.028-0.493-0.108-0.688-0.333l-2.71-3.541c1.17-0.229,2.34-1.01,2.34-2.308c0-1.007-0.773-1.905-2.427-1.816
		c-0.693,0.028-1.392,0.053-2.088,0.053c-0.709,0-1.407-0.024-2.078-0.053v0.354C219.55,78.931,219.546,79.016,219.546,79.948
		 M236.932,85.239v-2.31c2.701-0.1,2.784-0.169,2.784,1.181h0.398V81.35h-0.398c-0.006,1.169-0.183,1.026-2.784,0.997v-2.229
		c0-0.425,0.004-0.7,0.053-0.993c0.398-0.062,0.963-0.062,1.486-0.062c0.604,0,1.21,0.021,1.786,0.203
		c0.081,0.371,0.157,0.703,0.165,1.175h0.376c0-0.255,0.036-0.457,0.036-0.713c0.01-0.384,0.057-0.764,0.188-1.156
		c-0.413-0.055-1.233-0.042-1.988-0.055c-0.719,0.03-1.446,0.055-2.188,0.055c-0.735,0-1.451-0.024-2.189-0.055v0.357
		c1.155,0.057,1.145,0.144,1.145,1.074v5.491c0,0.806-0.436,1.057-1.04,1.077v0.364c0.739-0.038,1.445-0.066,2.172-0.066
		c0.73,0,1.449,0.028,2.157,0.066c0.732-0.02,1.538,0,1.982-0.066v-0.986c0-0.389,0.071-0.719,0.121-0.976h-0.395l-0.116,0.663
		c-0.026,0.213-0.076,0.425-0.14,0.607c-0.613,0.178-1.276,0.203-1.92,0.203c-0.578,0-1.191,0-1.638-0.055
		C236.936,85.954,236.932,85.67,236.932,85.239"/>
	<path fill="#4D4D4D" d="M138.426,68.988c-0.206-0.182-0.93-1.077-2.176-2.686l-4.363-5.738c-1.073-1.404-1.756-2.298-2.051-2.707
		c1.585-0.349,2.872-0.835,3.859-1.474c0.989-0.634,1.741-1.436,2.26-2.384c0.518-0.956,0.776-1.928,0.776-2.887
		c0-1.048-0.28-2.001-0.828-2.89c-0.56-0.885-1.342-1.517-2.351-1.916c-1.006-0.384-2.614-0.584-4.821-0.584
		c-0.286,0-1.328,0.037-3.13,0.105c-1.383,0.042-2.408,0.07-3.066,0.07l-3.32-0.09c-0.922-0.023-1.61-0.038-2.062-0.048v1.108
		c1.372,0.025,2.209,0.082,2.498,0.18c0.296,0.1,0.514,0.248,0.647,0.45c0.132,0.201,0.214,0.846,0.243,1.949
		c0.036,1.501,0.06,3.032,0.06,4.599v8.021c-0.037,3.033-0.064,4.672-0.066,4.913c-0.037,0.893-0.124,1.449-0.266,1.676
		c-0.112,0.178-0.325,0.312-0.618,0.41c-0.086,0.028-0.224,0.054-0.394,0.073c-0.404-0.034-0.703-0.09-0.864-0.167
		c-0.256-0.128-0.499-0.393-0.712-0.795c-0.395-0.715-1.189-2.481-2.397-5.297l-7.389-17.365h-1.12
		c-1.557,3.703-2.569,6.099-3.037,7.165l-4.331,9.769c-1.287,2.818-2.035,4.428-2.245,4.861c-0.357,0.749-0.637,1.214-0.822,1.394
		c-0.186,0.176-0.396,0.3-0.622,0.361c-0.23,0.068-0.792,0.105-1.71,0.12v1.175c1.327-0.104,2.554-0.159,3.674-0.159
		c0.966,0,2.427,0.056,4.378,0.159v-1.175c-1.074-0.015-1.826-0.07-2.247-0.159c-0.271-0.061-0.461-0.166-0.594-0.315
		c-0.094-0.098-0.133-0.236-0.133-0.402c0-0.364,0.164-0.942,0.5-1.743l1.884-4.451H111.5l2.125,5.299
		c0.16,0.401,0.242,0.73,0.242,0.992c0,0.158-0.055,0.292-0.149,0.399c-0.093,0.109-0.284,0.194-0.562,0.257
		c-0.276,0.054-1.062,0.097-2.348,0.124v1.174h0.002l-0.002,0.002h16.457l-0.002-0.002v-1.112c-1.362-0.021-2.196-0.08-2.49-0.182
		c-0.303-0.098-0.521-0.244-0.649-0.452c-0.138-0.208-0.206-0.861-0.236-1.961c-0.048-1.486-0.073-3.015-0.073-4.585v-7.689
		c0.073-3.192,0.114-4.876,0.128-5.037c0.016-0.542,0.058-1.121,0.097-1.749c1.144-0.361,2.318-0.534,3.497-0.534
		c1.903,0,3.309,0.412,4.247,1.256c0.926,0.833,1.398,1.958,1.398,3.386c0,1.625-0.544,2.934-1.626,3.925
		c-1.087,0.995-2.676,1.492-4.775,1.492c-0.315,0-0.771-0.022-1.37-0.057l-0.177,0.521c1.104,1.257,2.251,2.655,3.465,4.207
		c0.761,0.939,1.621,2.1,2.602,3.497c1.765,2.512,3.021,4.203,3.776,5.075c0.989-0.075,1.822-0.106,2.505-0.106
		c0.654,0,1.422,0.031,2.306,0.106v-1.113c-0.591,0-0.972-0.024-1.141-0.08C138.632,69.127,138.534,69.078,138.426,68.988z
		 M102.06,60.648l4.409-10.439l4.338,10.439H102.06z M179.81,45.829c1.199,0,2.292-0.022,3.268-0.071v1.086
		c-1.094,0.02-1.818,0.104-2.155,0.27c-0.148,0.062-0.246,0.182-0.319,0.332c-0.103,0.223-0.172,0.833-0.222,1.828
		c-0.064,1.52-0.092,2.833-0.092,3.923v8.324c0,1.691,0.024,4.833,0.083,9.432l-1.626-0.512l-0.385-0.08
		c-0.063-0.025-0.116-0.067-0.164-0.104c-0.078-0.058-0.279-0.289-0.604-0.692c-0.872-1.092-1.511-1.908-1.918-2.464l-2.038-2.818
		l-11.167-14.665v13.275c0,1.133,0.031,2.462,0.109,3.996c0.045,0.968,0.11,1.543,0.209,1.765c0.065,0.172,0.182,0.279,0.327,0.355
		c0.344,0.161,1.064,0.252,2.157,0.258v1.095c-0.924-0.087-1.938-0.124-3.056-0.124c-1.217,0-2.54,0.037-3.961,0.124v-1.095
		c1.092-0.006,1.817-0.101,2.17-0.276c0.145-0.073,0.249-0.18,0.312-0.337c0.103-0.227,0.18-0.83,0.216-1.81
		c0.072-1.527,0.098-2.844,0.098-3.951V48.787c0-0.384-0.021-0.626-0.059-0.742c-0.088-0.214-0.277-0.456-0.567-0.745
		c-0.194-0.187-0.413-0.31-0.659-0.351c-0.164-0.037-0.51-0.06-0.938-0.078c-0.085,1.197-0.141,2.737-0.179,4.618h-1.102
		l-0.147-1.664c-0.094-1.007-0.16-1.574-0.187-1.716c-0.037-0.141-0.09-0.239-0.15-0.291c-0.066-0.06-0.158-0.109-0.283-0.141
		c-0.164-0.039-0.738-0.078-1.734-0.135c-0.99-0.064-1.775-0.097-2.351-0.097h-2.111c-0.121,1.111-0.171,2.612-0.171,4.493v10.126
		c0,1.57,0.014,3.101,0.044,4.587c0.042,1.098,0.127,1.753,0.251,1.961c0.136,0.208,0.354,0.359,0.648,0.455
		c0.285,0.101,1.126,0.158,2.496,0.181v1.113c-2.062-0.1-3.619-0.146-4.652-0.146c-0.45,0-2.254,0.046-5.403,0.146v-1.113
		c1.375-0.022,2.207-0.08,2.511-0.181c0.3-0.096,0.502-0.235,0.609-0.414c0.145-0.227,0.233-0.784,0.275-1.672
		c0-0.241,0.017-1.883,0.07-4.917V51.972c0-0.482-0.008-1.016-0.036-1.597l-0.111-2.928h-2.575c-1.485,0-2.669,0.064-3.549,0.176
		c-0.281,0.034-0.452,0.116-0.53,0.225c-0.139,0.203-0.246,0.83-0.355,1.891l-0.19,1.75h-1.07c-0.014-2.762-0.072-4.664-0.17-5.731
		c1.252,0.05,3.229,0.101,5.918,0.169c2.181,0.05,3.633,0.071,4.366,0.071c0.78,0,2.6-0.033,5.456-0.103
		c1.552-0.036,2.789-0.067,3.708-0.102v-0.034c0.185,0.005,0.333,0.008,0.503,0.014c0.096-0.006,0.215-0.01,0.301-0.014
		c-0.001,0.006-0.001,0.014-0.003,0.021c1.277,0.033,2.126,0.049,2.51,0.049c0.758,0,1.524-0.023,2.279-0.07
		c0.889,1.279,1.555,2.227,1.975,2.838l3.258,4.415l4.759,6.297c1.521,2.006,2.748,3.598,3.671,4.743
		c0.584,0.771,1.086,1.365,1.481,1.805V53.199c0-1.134-0.037-2.457-0.11-3.98c-0.046-0.956-0.116-1.553-0.208-1.782
		c-0.069-0.15-0.183-0.26-0.328-0.322c-0.351-0.166-1.075-0.25-2.161-0.27v-1.086C177.293,45.807,178.547,45.829,179.81,45.829z
		 M201.251,64.33h1.145c-0.306,2.333-0.465,4.265-0.465,5.8c-0.982,0.149-2.203,0.231-3.614,0.231l-10.335-0.142
		c-0.145,0-1.657,0.04-4.526,0.142v-1.095c1.207-0.006,2.002-0.101,2.386-0.275c0.158-0.074,0.276-0.181,0.345-0.337
		c0.121-0.227,0.194-0.831,0.246-1.81c0.069-1.527,0.103-2.844,0.103-3.952v-8.846c0-1.568-0.019-3.094-0.056-4.597
		c-0.034-1.105-0.116-1.751-0.25-1.951c-0.133-0.202-0.345-0.349-0.642-0.452c-0.293-0.095-1.129-0.154-2.502-0.179v-1.11
		l4.938,0.101l5.218-0.086c2.512-0.032,4.323-0.049,5.46-0.049c1.144,0,2.221,0.061,3.23,0.192
		c-0.188,0.652-0.308,1.226-0.375,1.707c-0.028,0.107-0.124,1.311-0.305,3.606h-1.092c0.006-1.181-0.074-2.254-0.227-3.224
		c-0.639-0.263-1.329-0.444-2.095-0.539c-1.289-0.151-2.585-0.236-3.882-0.236c-0.276,0-0.894,0.016-1.843,0.07
		c-0.967,0.046-1.647,0.083-2.067,0.116c-0.047,1.286-0.075,2.483-0.1,3.605l-0.07,5.849c1.351,0.066,2.587,0.099,3.718,0.099
		c1.368,0,2.549-0.063,3.513-0.188c0.364-0.047,0.606-0.14,0.715-0.273c0.1-0.14,0.193-0.617,0.273-1.418l0.105-1.213h1.04v0.326
		l-0.085,3.602l0.085,4.029h-1.214l-0.055-1.17c-0.02-0.859-0.096-1.385-0.234-1.596c-0.128-0.209-0.384-0.354-0.747-0.434
		c-0.66-0.139-1.943-0.209-3.827-0.209c-0.776,0-1.881,0.029-3.287,0.087c-0.06,1.152-0.094,2.87-0.094,5.142
		c0,2.135,0.034,3.762,0.094,4.868c1.654,0.125,3.518,0.186,5.589,0.186c1.463,0,2.506-0.047,3.139-0.14
		c0.619-0.094,1.191-0.246,1.723-0.466c0.14-0.353,0.275-0.835,0.418-1.452C201,65.624,201.162,64.854,201.251,64.33z
		 M225.534,69.167c0.168,0.056,0.555,0.08,1.146,0.08v1.114c-0.887-0.075-1.648-0.106-2.305-0.106c-0.688,0-1.521,0.031-2.514,0.106
		c-0.754-0.872-2.011-2.563-3.772-5.076c-0.98-1.396-1.85-2.557-2.605-3.497c-1.209-1.552-2.358-2.949-3.457-4.206l0.175-0.521
		c0.604,0.034,1.058,0.056,1.37,0.056c2.096,0,3.696-0.496,4.771-1.491c1.087-0.991,1.636-2.3,1.636-3.926
		c0-1.427-0.473-2.553-1.406-3.386c-0.938-0.843-2.354-1.255-4.241-1.255c-1.196,0-2.362,0.173-3.496,0.533
		c-0.047,0.628-0.088,1.208-0.104,1.75c-0.013,0.161-0.05,1.845-0.122,5.036v7.69c0,1.57,0.022,3.098,0.072,4.584
		c0.029,1.101,0.101,1.754,0.236,1.962c0.131,0.208,0.342,0.354,0.647,0.451c0.291,0.102,1.124,0.161,2.489,0.183v1.114
		c-1.631-0.1-3.146-0.141-4.518-0.141c-1.104,0-2.975,0.041-5.595,0.141v-1.114c1.363-0.021,2.201-0.081,2.492-0.183
		c0.302-0.098,0.513-0.231,0.632-0.408c0.134-0.227,0.222-0.784,0.26-1.677c0.004-0.241,0.027-1.881,0.062-4.913v-8.02
		c0-1.568-0.013-3.098-0.052-4.6c-0.03-1.103-0.117-1.749-0.246-1.949c-0.142-0.202-0.352-0.351-0.651-0.451
		c-0.288-0.099-1.122-0.154-2.497-0.179V45.76c0.45,0.01,1.142,0.025,2.06,0.046l3.326,0.092c0.665,0,1.681-0.029,3.067-0.07
		c1.796-0.069,2.845-0.105,3.13-0.105c2.212,0,3.811,0.2,4.816,0.584c1.011,0.397,1.79,1.03,2.353,1.916
		c0.549,0.888,0.828,1.841,0.828,2.89c0,0.958-0.26,1.931-0.777,2.887c-0.523,0.947-1.272,1.75-2.259,2.383
		c-0.979,0.639-2.272,1.126-3.854,1.475c0.292,0.41,0.975,1.304,2.048,2.707l4.356,5.738c1.245,1.608,1.979,2.504,2.186,2.687
		C225.326,69.078,225.434,69.127,225.534,69.167z M93.504,58.434c-0.957,0.041-1.808-0.072-2.302-0.209l-0.391-1.315
		c0.531,0.14,1.384,0.284,2.266,0.32c2.9,0.108,5.128-2.086,5.128-5.093c0-3.684-2.229-5.38-5.769-5.38
		c-1.202,0-2.364,0.292-3.499,0.5c-0.208,0.599-0.208,1.341-0.208,2.44v16.239c0,2.76-0.04,3.007,3.361,3.181v1.061
		C90.387,70.071,88.73,70,86.99,70c-1.73,0-3.396,0.071-4.984,0.176v-1.061c3.395-0.174,3.356-0.421,3.356-3.181V49.696
		c0-2.756,0.039-3.006-3.356-3.181v-1.067c2.048,0.111,4.099,0.177,6.227,0.177c2.091,0,4.133-0.066,6.188-0.177
		c3.429,0,7.323,1.492,7.323,5.482C101.743,55.354,97.922,58.261,93.504,58.434z M243.657,61.978c0,6.049-5.415,8.95-10.684,8.95
		c-2.127,0-4.107-0.527-6.054-1.34c0.142-1.348,0.214-3.043,0.259-4.416v-0.999h1.189v1.664c0,0.78,0.078,1.453,0.498,1.844
		c1.418,1.229,3.678,1.624,5.492,1.624c3.179,0,6.286-1.874,6.286-5.383c0-8.557-14.006-0.56-14.006-10.856
		c0-4.843,4.104-7.925,8.672-7.925c2.397,0,4.631,0.783,6.864,1.634c-0.112,0.563-0.255,1.126-0.289,1.693
		c-0.068,1.059-0.212,2.086-0.252,3.147h-1.206c0-1.343,0-2.268-0.342-2.826c-0.964-1.489-3.471-2.06-5.138-2.06
		c-2.894,0-5.375,2.021-5.375,5.064C229.573,59.469,243.657,53.105,243.657,61.978z"/>
</g>
</svg>
