<?xml version="1.0" encoding="utf-8"?>
<!-- Generator: Adobe Illustrator 16.0.0, SVG Export Plug-In . SVG Version: 6.00 Build 0)  -->
<!DOCTYPE svg PUBLIC "-//W3C//DTD SVG 1.1//EN" "http://www.w3.org/Graphics/SVG/1.1/DTD/svg11.dtd">
<svg version="1.1" id="Layer_1" xmlns="http://www.w3.org/2000/svg" xmlns:xlink="http://www.w3.org/1999/xlink" x="0px" y="0px"
	 width="326px" height="112px" viewBox="0 0 326 112" enable-background="new 0 0 326 112" xml:space="preserve">
<rect id="background" opacity="0" fill="#787473" width="326" height="112"/>
<g transform="translate(0.000000,500.000000) scale(0.100000,-0.100000)">
	<path fill="#787473" d="M1264.199,4739.125c-3.696-2.529-36.436-50.269-87.871-128.022c-7.026-10.518-13.066-19.097-13.838-19.097
		c-0.586,0-11.699,16.182-24.556,35.659l-23.384,35.469l-7.988,0.586l-8.188,0.581l-44.624-66.836
		c-24.546-36.826-90.991-136.011-147.891-220.581c-56.704-84.756-104.248-155.879-105.615-158.408l-2.529-4.482h31.953h31.963
		l64.883,96.055c94.116,138.545,106.396,156.665,143.804,211.816c18.511,27.275,34.487,49.688,35.464,49.688
		c1.948,0,22.021-28.257,22.021-31.177c0-1.758-119.448-181.03-192.129-288.384l-24.937-37.031l31.558-0.586
		c23.774-0.381,32.349,0.195,34.097,1.953c1.177,1.367,43.262,63.33,93.34,137.568c50.278,74.043,91.782,134.839,92.559,134.839
		c1.948,0,21.436-28.247,21.436-30.977c0-1.357-20.659-33.511-46.182-71.909c-25.332-38.184-61.187-92.549-79.888-120.811
		l-33.711-51.045l32.729,0.381l32.544,0.586l63.916,95.488c35.073,52.607,64.497,95.664,65.278,95.869
		c0.776,0.381,6.431-7.021,12.461-16.367l11.118-16.758l-5.459-7.998c-3.12-4.482-26.694-40.137-52.422-79.502l-46.953-71.699
		h32.539h32.539l35.854,54.561c19.678,30,36.24,54.561,37.021,54.561c0.581-0.205,13.838-19.102,29.424-42.295
		c15.586-23.184,32.349-48.125,37.607-55.342l9.355-13.428h30.981c17.725,0,31.177,0.762,31.177,1.748
		c0,0.967-23.779,37.217-52.607,80.283c-33.13,49.492-52.222,79.688-51.646,81.641c1.758,4.287,19.292,31.172,20.459,30.977
		c0.591,0,30.791-43.643,67.422-96.836l66.45-96.846l31.562-0.586c21.24-0.381,31.377,0.195,31.377,1.562
		c0,1.162-36.245,55.332-80.474,120.42c-44.238,65.078-81.064,119.248-81.841,120.615c-0.781,1.172,3.115,9.346,8.765,18.12
		c7.988,12.666,10.522,15.195,12.476,13.247c1.362-1.362,44.619-62.93,96.255-136.982c51.646-73.848,94.893-135.039,96.255-135.82
		c2.539-1.748,60.405-2.139,61.968-0.391c0.781,0.596-5.645,10.918-13.848,22.803c-23.955,34.492-199.917,289.365-223.486,323.657
		c-11.685,17.148-33.711,49.106-48.911,71.128c-15.2,22.012-37.407,54.36-49.487,71.704c-20.269,30.005-28.652,39.556-33.716,39.556
		C1269.463,4742.05,1266.538,4740.688,1264.199,4739.125z M1282.71,4634.292l9.941-14.414l-9.741-14.419
		c-5.264-7.993-10.142-14.028-10.913-13.643c-1.948,0.776-20.073,28.062-20.073,30.01c0,2.725,18.125,28.643,19.482,27.671
		C1272.187,4649.101,1277.256,4642.285,1282.71,4634.292z M1228.154,4555.375c5.454-8.184,10.127-15.781,10.127-16.562
		c0-0.776-4.482-8.184-9.932-16.167l-9.937-14.81l-10.532,15.786c-5.835,8.569-10.518,16.362-10.518,17.139
		c0,1.758,18.315,29.814,19.482,29.814C1217.436,4570.576,1222.505,4563.759,1228.154,4555.375z M1337.661,4555.571
		c5.845-8.184,10.327-15.776,10.327-16.953c0-2.334-17.534-30.396-18.901-30.396c-0.391,0-5.845,7.017-11.89,15.786l-11.104,15.786
		l10.332,15.386c5.454,8.384,10.322,15.396,10.518,15.396S1332.012,4563.95,1337.661,4555.571z M1284.658,4473.54
		c5.459-8.374,10.142-15.981,10.142-16.953c0-3.506-20.073-32.339-21.445-30.796c-0.771,0.781-6.03,8.389-11.489,16.768
		l-10.327,15.2l10.127,15.581c5.659,8.389,10.718,15.396,11.499,15.396C1273.745,4488.544,1279.014,4481.918,1284.658,4473.54z"/>
	<path fill="#787473" d="M2350.918,4601.752c-3.711-0.972-10.918-2.339-15.977-2.92l-9.355-1.172v-20.264v-20.269l-9.15-0.581
		c-8.594-0.586-9.355-0.977-9.355-5.459c0-4.478,0.762-4.868,9.15-5.454l9.17-0.581l0.576-44.233
		c0.576-40.332,0.967-44.819,4.482-51.055c5.449-9.16,14.805-13.633,29.033-13.633c14.219,0,24.355,5.254,30.195,15.776l4.287,7.397
		l-4.092,2.148c-3.506,1.753-4.863,1.172-10.518-4.868c-7.207-7.407-10.908-8.384-15.586-3.706
		c-2.725,2.529-3.115,9.746-3.115,47.749v44.614h13.633h13.643v5.845v5.85h-13.643h-13.633v23.379
		c0,12.866-0.596,23.379-1.367,23.193C2358.31,4603.315,2354.619,4602.534,2350.918,4601.752z"/>
	<path fill="#787473" d="M1684.512,4595.517c0-5.259,0.381-5.454,9.932-5.454h9.756l-0.605-65.469l-0.576-65.479l-5.459-4.668
		c-3.115-2.734-7.988-4.683-11.289-4.683c-4.678,0-5.664-0.781-5.664-4.873v-4.863h30.205h30.195v4.863
		c0,4.092-0.967,4.873-5.244,4.873c-8.584,0-15.02,4.482-17.539,11.689c-1.572,4.678-2.354,23.97-2.354,60.41
		c0,45.4,0.4,52.607,2.549,47.734c1.357-3.115,12.471-33.706,24.736-67.612l22.217-61.958h6.826h6.816l21.25,60.01
		c31.357,88.071,28.232,86.519,27.852,13.052l-0.4-62.349l-9.736-0.977c-8.174-0.781-9.736-1.562-10.322-5.264l-0.586-4.473h40.137
		h40.146l-0.586,4.473c-0.586,3.701-1.943,4.287-10.713,4.873l-10.332,0.586v69.951v69.951l10.332,0.591
		c9.346,0.586,10.127,0.977,10.127,5.454v4.873l-30.205-0.586c-16.562-0.391-30.791-1.362-31.367-1.948
		c-0.586-0.781-9.346-23.774-19.287-51.055s-18.701-50.273-19.297-51.05c-0.576-0.771-9.355,21.631-19.492,49.688
		c-10.117,28.057-18.887,51.636-19.473,52.222c-0.596,0.781-15.01,1.753-31.758,2.144l-30.791,0.781V4595.517z"/>
	<path fill="#787473" d="M1928.662,4556.743c-28.262-8.965-43.838-38.389-37.998-72.485c5.654-32.158,30.01-50.078,65.469-47.734
		c34.102,2.334,54.961,23.184,57.285,57.28c1.182,17.148-1.943,30.981-9.541,42.28
		C1989.648,4557.519,1958.271,4566.098,1928.662,4556.743z M1962.959,4546.025c9.551-7.988,12.471-21.431,11.484-53.193
		c-0.576-23.379-1.162-27.476-5.254-34.482c-7.598-13.457-19.277-16.182-29.619-7.026c-7.793,6.826-11.494,22.217-11.494,47.158
		s3.701,40.332,11.494,47.153C1947.363,4552.646,1955.166,4552.646,1962.959,4546.025z"/>
	<path fill="#787473" d="M2238.877,4556.162c-5.459-2.539-12.285-7.407-15.205-10.728l-5.254-6.426v10.327v10.132l-15.986-1.167
		c-8.965-0.781-20.264-1.362-25.332-1.362c-8.564,0-9.346-0.391-9.346-4.678c0-3.701,1.357-4.873,6.816-5.85
		c3.701-0.776,7.598-3.115,8.779-5.063c1.357-2.339,1.748-20.063,1.553-47.158l-0.596-43.447l-8.174-0.591
		c-7.412-0.581-8.379-1.167-8.379-5.454v-4.668h34.102h34.092v4.863c0,4.482-0.771,4.873-7.793,4.873h-7.783v34.692
		c0,31.948,0.381,35.264,4.473,43.252c4.678,9.351,14.805,17.534,21.826,17.534c2.529,0,6.436-1.553,8.77-3.511
		c5.645-4.473,8.174-25.327,7.402-62.734l-0.586-28.257l-8.184-0.591c-7.402-0.581-8.379-1.167-8.379-5.454v-4.668h34.092h34.111
		v4.863c0,4.482-0.781,4.873-8.584,4.873h-8.76l-0.586,43.457l-0.586,43.643l-5.459,7.993
		C2279.599,4560.834,2258.554,4565.317,2238.877,4556.162z"/>
	<path fill="#787473" d="M2033.877,4557.519c-15.381-0.776-16.172-0.972-16.172-5.259c0-3.506,1.562-4.678,7.412-6.235l7.207-1.753
		l1.172-40.923c1.172-44.619,2.529-51.25,12.471-59.043c11.299-8.965,32.148-10.322,46.182-3.115
		c3.506,1.758,9.746,6.24,13.838,10.132l7.207,7.026v-10.332v-10.527l19.092,1.172c10.332,0.771,21.826,1.367,25.332,1.367
		c5.264,0,6.24,0.771,6.24,4.668c0,4.287-1.172,5.068-8.779,6.245l-8.75,1.157v53.584v53.589l-24.766-1.357
		c-13.828-0.786-25.713-2.144-26.689-2.93c-3.125-2.92,0.391-7.402,7.021-8.765c3.496-0.786,7.012-2.529,7.783-3.701
		c0.781-1.172,1.562-15.786,1.562-32.349c0-25.137-0.781-31.562-3.701-37.998c-7.793-17.534-27.08-24.741-34.688-13.252
		c-3.115,4.673-3.496,11.304-4.092,52.612l-0.781,47.354l-8.955-0.391C2053.955,4558.3,2042.656,4557.714,2033.877,4557.519z"/>
	<path fill="#787473" d="M1844.287,4391.894c-11.885-6.24-13.828-24.16-3.32-32.148c13.838-10.918,34.502-1.562,34.502,15.391
		C1875.469,4389.755,1858.125,4398.916,1844.287,4391.894z"/>
	<path fill="#787473" d="M2197.763,4392.089c-15.791-7.793-13.262-30.195,3.896-35.85c13.633-4.492,26.494,4.082,26.494,17.529
		c0,10.527-2.725,15.391-10.713,18.711C2209.062,4395.976,2205.351,4395.791,2197.763,4392.089z"/>
	<path fill="#787473" d="M1731.269,4377.861c-23.193-7.207-34.883-21.621-36.641-45.391c-0.762-11.504-0.186-14.629,4.297-23.975
		c6.807-13.838,15.4-19.688,43.838-29.814c12.09-4.473,24.951-10.332,28.652-13.047c13.252-10.137,13.447-31.963,0.186-39.951
		c-8.359-5.264-26.104-5.264-36.045-0.205c-12.08,6.24-23.379,20.85-30.586,39.766c-2.734,7.393-4.287,9.15-7.988,9.15h-4.678
		v-31.172c0-29.229,0.186-31.172,3.701-31.172c1.943,0,4.863,1.357,6.23,3.105c2.734,3.32,6.24,3.115,25.137-2.139
		c13.447-3.711,35.469-3.711,48.135,0c23.379,7.002,35.645,23.965,35.645,49.482c-0.186,30.596-11.885,42.295-58.057,57.49
		c-8.77,3.125-18.701,7.598-21.826,10.332c-12.852,10.713-11.299,30.781,2.734,36.631c8.965,3.896,19.482,3.701,27.676-0.195
		c8.955-4.297,21.23-18.506,25.322-29.219c2.529-6.826,4.287-8.574,7.783-8.574c4.688,0,4.688,0,4.688,24.346
		c0,24.17,0,24.355-4.482,24.355c-2.529,0-5.459-0.967-6.621-2.139c-1.562-1.562-5.459-1.367-14.619,0.967
		C1760.693,4379.804,1739.648,4380.41,1731.269,4377.861z"/>
	<path fill="#787473" d="M1968.799,4333.828c-5.068-1.562-12.471-6.24-17.139-10.713l-7.998-7.803v8.574
		c0,4.873-0.576,9.15-1.357,9.541c-0.986,0.596-12.09,0.4-24.951-0.186c-23.379-1.367-23.379-1.367-23.379-6.23
		c0-3.896,0.967-5.068,5.85-5.459c10.322-1.182,10.713-3.125,10.713-51.25v-44.434l-8.184-0.576
		c-7.412-0.586-8.379-1.172-8.379-5.273v-4.463l33.711-0.4l33.516-0.195v5.459c0,4.873-0.576,5.264-7.988,5.264h-7.988l0.771,36.631
		c0.596,34.297,0.781,36.826,5.068,43.848c5.459,8.564,13.057,13.057,22.617,13.057c12.07,0,13.633-5.664,14.404-53.008
		l0.781-40.342l-8.369-0.576c-7.607-0.586-8.584-1.172-8.584-5.273v-4.463l33.721-0.4l33.516-0.195v5.459
		c0,4.873-0.586,5.264-8.584,5.264h-8.76l-0.596,43.457l-0.576,43.643l-5.264,7.988c-3.115,4.482-8.184,9.551-11.494,11.299
		C1995.293,4336.357,1979.521,4337.333,1968.799,4333.828z"/>
	<path fill="#787473" d="M2082.597,4334.794c-19.688-4.082-31.758-14.424-31.758-27.08c0-10.127,6.816-16.367,17.734-16.367
		c13.828,0,21.631,13.057,14.414,23.379c-2.734,4.102-2.734,4.492,1.357,7.217c6.826,4.287,12.676,5.449,19.111,4.092
		c8.564-1.953,11.68-9.355,11.68-27.871v-15.391l-16.953-1.172c-19.092-1.357-35.85-5.85-43.643-11.299
		c-10.527-7.412-15.02-28.252-8.574-40.537c11.113-21.621,45.781-26.494,64.297-9.15c6.631,6.23,7.012,6.436,8.965,2.725
		c5.85-10.908,29.424-15.195,42.09-7.393c6.826,4.072,13.252,14.414,11.494,18.701c-1.553,4.082-8.379,3.311-9.551-1.172
		c-1.162-4.863-6.816-7.012-10.908-4.482c-2.725,1.758-3.125,7.207-3.125,40.723c0,37.803-0.186,38.975-4.863,47.354
		c-6.816,12.275-18.311,17.92-38.379,18.711C2097.607,4336.171,2087.08,4335.781,2082.597,4334.794z M2115.136,4260.751
		c0-20.645-8.369-33.125-22.021-33.125c-10.908,0-17.139,12.48-14.219,28.262c1.953,9.932,12.461,15.781,30.01,16.357l6.23,0.205
		V4260.751z"/>
	<path fill="#787473" d="M1840.391,4333.037c-20.264-1.162-20.459-1.162-20.459-6.025c0-4.102,0.977-4.873,6.816-5.459
		c3.711-0.391,7.402-1.758,8.184-2.93c0.791-1.357,1.562-22.607,1.562-47.539v-45.215l-8.184-0.576
		c-7.402-0.586-8.379-1.172-8.379-5.273v-4.668h34.102l34.092,0.205v4.463c0,4.102-0.967,4.688-8.174,5.273l-8.389,0.576v54.561
		v54.365l-5.254-0.381C1863.203,4334.218,1851.699,4333.632,1840.391,4333.037z"/>
	<path fill="#787473" d="M2194.062,4333.037l-19.492-1.162l-0.576-5.254c-0.596-5.068-0.205-5.459,6.426-5.459
		c5.645,0,7.207-0.977,8.76-5.068c1.172-2.725,1.953-24.16,1.953-47.539v-42.686l-8.184-0.576c-7.207-0.586-8.379-1.172-8.955-5.459
		l-0.596-4.873h34.297h34.102v5.459c0,4.873-0.586,5.264-7.793,5.264h-7.803l-0.381,54.17l-0.586,53.975l-5.85,0.195
		C2216.269,4334.023,2204.775,4333.632,2194.062,4333.037z"/>
</g>
</svg>
