<?xml version="1.0" encoding="utf-8"?>
<!-- Generator: Adobe Illustrator 16.0.0, SVG Export Plug-In . SVG Version: 6.00 Build 0)  -->
<!DOCTYPE svg PUBLIC "-//W3C//DTD SVG 1.1//EN" "http://www.w3.org/Graphics/SVG/1.1/DTD/svg11.dtd">
<svg version="1.1" id="Layer_1" xmlns="http://www.w3.org/2000/svg" xmlns:xlink="http://www.w3.org/1999/xlink" x="0px" y="0px"
	 width="326px" height="112px" viewBox="0 0 326 112" enable-background="new 0 0 326 112" xml:space="preserve">
<rect id="background" opacity="0" fill="#787473" width="326" height="112"/>
<g>
	<polygon id="_47588056" fill="#787473" points="97.272,74.865 103.87,37.644 111.33,37.644 120.079,60.925 129.259,37.789 
		136.288,37.789 143.03,74.72 135.714,74.72 131.697,51.582 122.95,74.289 117.641,74.289 108.89,51.441 104.444,74.72 	"/>
	<rect id="_47489872" x="145.326" y="37.644" fill="#787473" width="6.599" height="36.932"/>
	<polygon id="_46948704" fill="#787473" points="163.111,74.72 163.111,43.824 155.078,43.824 155.078,37.644 177.598,37.644 
		177.598,43.678 169.711,43.678 169.711,74.72 	"/>
	<polygon id="_47616504" fill="#787473" points="228.662,74.72 207.578,74.72 207.578,37.502 228.807,37.484 228.807,43.824 
		214.318,43.824 214.318,53.308 228.662,53.308 228.662,59.199 214.318,59.201 214.318,68.972 228.662,68.972 	"/>
	<path id="_47609272" fill="#787473" d="M179.75,74.865l0.143-37.364h14.989c6.454,0,10.758,2.768,10.687,10.203
		c0.573,10.777-8.83,12.057-10.241,11.371l11.068,15.341l-7.659-0.002l-10.381-14.64l-0.143-7.041h8.82
		c2.833,0.002,3.207-8.623-0.286-8.631l-10.398-0.279v30.752L179.75,74.865L179.75,74.865z"/>
</g>
</svg>
