<?xml version="1.0" encoding="UTF-8"?>
<svg id="Layer_1" xmlns="http://www.w3.org/2000/svg" version="1.1" viewBox="0 0 326 112">
  <!-- Generator: Adobe Illustrator 29.5.1, SVG Export Plug-In . SVG Version: 2.1.0 Build 141)  -->
  <defs>
    <style>
      .st0, .st1, .st2 {
        fill: #787473;
      }

      .st1 {
        fill-opacity: 0;
      }

      .st2 {
        isolation: isolate;
      }
    </style>
  </defs>
  <rect id="background" class="st1" width="326" height="112"/>
  <g>
    <path class="st2" d="M54.3,40.2l2.2,2.7v1.4h-9.3s-3.2.1-6.1,2.4c-2,1.6-3.9,4.4-3.9,7.9s1.5,6.2,3.6,7.9c3.7,3.1,7.7,2.7,7.7,2.7l2.4,2.5v1.6h-4.6s-2.7-.2-5.9-2.1c-3.4-2-7.2-6-7.2-12.5s2.9-9.1,5.7-11.5,7.6-3,7.6-3h7.9,0Z"/>
    <path class="st2" d="M53.3,69.4v-1.5s-2.6-2.7-2.6-2.7h8.7s3.2-.1,6.1-2.4c2-1.6,3.9-4.4,3.9-7.9s-1.5-6.2-3.6-7.9c-3.7-3.1-7.1-2.7-7.1-2.7v-1.3c-.1,0-2.7-2.8-2.7-2.8h4.3s3.1.3,6.3,2.2c3.4,2,6.8,5.9,6.8,12.4s-2.8,9.5-5.8,11.8c-3.4,2.6-7.5,2.7-7.5,2.7h-7Z"/>
    <path class="st2" d="M47.9,47.7h11.7c2.9,0,6.8,2.9,6.8,6.8s-3.8,7.3-5.4,7.3v-1.6l-2.1-2.4s3.4,0,3.4-3.1-2.6-3-2.6-3h-9.6v-1.6l-2.2-2.5h0Z"/>
    <path class="st2" d="M58.8,62.1h-11.7c-2.9,0-6.8-2.9-6.8-6.8s3.8-7.3,5.4-7.3l2.3,2.4v1.5s-3.5,0-3.5,3.1,2.6,3,2.6,3h9.6l2.2,2.6v1.5h0Z"/>
    <path class="st0" d="M78.6,55.1c-.2-6.6,2.9-13,11.1-14.8s15.1,1.6,16.2,9.6c-1.9,0-3.8,0-5.5,0-.8-3.8-4.1-5.2-7.1-5.1-6.2.1-9.5,4.1-9.3,10.8s4.6,9,8.9,9.3c3.1.2,6.2-1.3,7.5-5,1.6,0,3.9,0,5.6,0,0,1.2-1.5,5.5-4.4,7.6-2.2,1.8-6.5,2.7-11.1,2.2-6.7-.5-11.8-6.7-11.8-14.5Z"/>
    <path class="st0" d="M137.5,69.1c-4.1-1.6-6.2-5.9-6.2-9.4s0-5.7,1.9-8.3c.4-.6,1.1-1.6,2.4-2.4,1.4-.9,3.1-1.4,5-1.4,3.6,0,6,1.1,7.3,3.7,0-3,0-10.9,0-10.9h3.6s1.7,2.1,1.7,2.1v26.9c0,0-5.4,0-5.4,0v-1.9s-.7.8-1.3,1.1c-1,.5-2.4,1.2-3.9,1.4-2.9.2-5.2-.7-5.2-.7ZM142.2,52.1c-6.8,0-6.7,8.8-3.9,11.5,2.4,2.3,7.4,2,8.9-.9.8-1.4.9-2.8.9-4.3s0-2.5-.7-3.8c-1.3-2.2-3.3-2.5-5.1-2.5Z"/>
    <path class="st0" d="M218.8,60c.1,1.8,1.1,3.8,3.1,4.8s4.2,1.1,6.1,0,1.9-2.3,1.9-2.3c0,0,2.8,0,5.2,0,0,3.9-3.4,6.6-9,7.3-1.1.2-4-.3-5.1-.6-5.4-1.5-8.6-7.5-6.9-14.2,1.4-5.4,6.5-8.3,12.7-7.5,5.8.7,8.7,5.4,8.5,12.3-5.2,0-14.7,0-16.4,0v.2ZM230.2,56.3c-.4-2.8-2.2-4.4-5-4.5-3.3-.2-5.5,1.2-6.2,4.6M219.4,56.7s0,0,0,0Z"/>
    <path class="st0" d="M114.1,69c-2.6-.9-4.8-2.7-5.8-5.3-1.5-4-1.1-9.4,1.7-12.8,3.4-3.9,10-4.6,14.6-2.1,4,2.1,5.8,7,5.4,11.3-.7,7.8-8.9,11.4-15.8,8.9h0ZM119.3,65.1c4.5-.5,6.3-6,4.5-9.8-2.3-5.1-10.4-3.9-11.1,1.7-.9,4.1,2.1,8.5,6.5,8.1h0Z"/>
    <path class="st0" d="M159.3,69.2c-1.7-.4-4.7-2-4.7-6.3s2.2-5.8,5.8-6.2c3-.4,9-.2,9-.2,0-.7,0-1,0-1.5,0-.7-.7-2-1.8-2.6-2.1-.9-4.5-.8-6,.2s-1.3,1.9-1.3,1.9h-5.3s.6-2.2,1.4-3.3c1.5-1.9,3.4-3.7,8.7-3.7s4.3.5,5.8,1.4,3.6,2.7,3.7,6.4c0,1.5,0,4.5,0,4.5v2.9c0,0-4.3,0-4.3,0v3.2s-.8,1.5-1.8,2.3-3.5,1.7-5.1,1.7-2.4,0-4-.4ZM166.2,60.2c-1.5,0-3,0-4.5.2-2.1.4-2.8,2.9-1.3,4.3,1.1,1.2,4.1,1.3,6.1.3,1.9-1,3.1-2.4,2.9-4.8h-3.3Z"/>
    <path class="st0" d="M206.5,69.2l.2-21.8-9.2,21.9h-4.5l-9-21.9v21.8s-5.1.1-5.1.1v-28.9h7.5l9.1,21.3,8.3-19.7.7-1.8,5.8.2,1.6,2.1v26.7s-5.3,0-5.3,0Z"/>
    <path class="st0" d="M293.9,69.3l-5.6-7.3-5.4,7.3h-5.8s8.2-10.9,8.2-10.9l-7.8-10.4h5.8l5.1,6.6,5.1-6.6h4.2l.8,1-6.9,9.4,8.2,10.9h-5.8Z"/>
    <path class="st0" d="M248.8,65.2l1.6,1.9v2.3s-4.5,0-6.9,0c-2.1,0-4-1.5-4-3.7v-12.8s-3.7,0-3.7,0v-5h3.7s0-6.3,0-6.3h3.4l1.8,2.1v4.2s5,0,5,0v5h-5v12.4s4.1,0,4.1,0Z"/>
    <path class="st0" d="M254.4,69.4v-16.2s-2.6,0-2.6,0v-5.3h3.9c0,.1,1.5,1.9,1.5,1.9v2.2s1.5,0,1.5,0c0,0,.3-.6.5-.9,1.9-3.1,4.8-3.7,8.2-3.5v4.6s-.3,0-.4,0c-5.9.3-7.2,1.5-7.2,7.5,0,3.1,0,9.6,0,9.6M254.9,53.6s0,0,0,0Z"/>
    <path class="st0" d="M270.1,69.3v-21.5h3.7l1.7,2v19.4h-5.3Z"/>
    <path class="st0" d="M275.5,46.6h-5.4s0-5.2,0-5.2h3.9l1.6,2.1v3.1Z"/>
    <path class="st0" d="M174.7,64.1l2.4,2.4v2.8s-5.4,0-5.4,0c0,0,0-5.1,0-5.1,0,0,3,0,3,0Z"/>
    <path class="st0" d="M230.6,56.5c0-.1.1-.2.3-.2,0,.1-.1.2-.3.2Z"/>
    <path class="st0" d="M220.5,56.7s0,0,0,0Z"/>
    <path class="st0" d="M256.4,53.5s0,0,0,0Z"/>
  </g>
</svg>