<?xml version="1.0" encoding="utf-8"?>
<!-- Generator: Adobe Illustrator 16.0.0, SVG Export Plug-In . SVG Version: 6.00 Build 0)  -->
<!DOCTYPE svg PUBLIC "-//W3C//DTD SVG 1.1//EN" "http://www.w3.org/Graphics/SVG/1.1/DTD/svg11.dtd">
<svg version="1.1" id="Layer_1" xmlns="http://www.w3.org/2000/svg" xmlns:xlink="http://www.w3.org/1999/xlink" x="0px" y="0px"
	 width="326px" height="112px" viewBox="0 0 326 112" enable-background="new 0 0 326 112" xml:space="preserve">
<rect id="background" opacity="0" fill="#787473" width="326" height="112"/>
<g>
	<path fill-rule="evenodd" clip-rule="evenodd" fill="#787473" d="M254.625,65.575c-0.088,0.033-0.219,0.042-0.258,0.105
		c-0.422,0.689-1.125,1.089-1.764,1.478c-0.779,0.473-1.68,0.782-2.566,1.034c-1.348,0.383-2.748,0.394-4.133,0.226
		c-1.582-0.192-3.037-0.748-4.346-1.677c-0.836-0.593-1.527-1.317-2.129-2.138c-1.104-1.504-1.703-3.184-1.822-5.05
		c-0.078-1.21,0.008-2.396,0.307-3.566c0.232-0.901,0.652-1.718,1.113-2.525c0.562-0.989,1.359-1.768,2.209-2.478
		c0.688-0.576,1.498-0.986,2.348-1.326c1.631-0.65,3.324-0.814,5.035-0.683c1.357,0.104,2.703,0.406,3.902,1.102
		c0.725,0.421,1.529,0.778,1.879,1.646c0.025,0.065,0.146,0.093,0.225,0.138c0,0.422,0,0.844,0,1.267
		c-0.098,0.091-0.209,0.171-0.285,0.276c-0.086,0.118-0.111,0.286-0.209,0.388c-0.746,0.777-1.758,1.082-2.777,0.418
		c-0.441-0.287-0.891-0.574-1.363-0.802c-1.795-0.858-3.578-0.846-5.318,0.159c-1.256,0.725-2.072,1.846-2.449,3.193
		c-0.436,1.559-0.414,3.143,0.303,4.674c0.496,1.057,1.199,1.916,2.188,2.493c1.602,0.934,3.314,0.903,5.004,0.293
		c0.625-0.227,1.195-0.647,1.736-1.054c0.84-0.632,2.016-0.581,2.738,0.179c0.129,0.137,0.287,0.245,0.434,0.367
		C254.625,64.333,254.625,64.954,254.625,65.575z"/>
	<path fill-rule="evenodd" clip-rule="evenodd" fill="#787473" d="M96.532,17.945c0.24,0.15,0.468,0.322,0.721,0.446
		c0.973,0.476,1.516,1.287,1.886,2.271c0.371,0.988,0.236,1.959-0.068,2.908c-0.123,0.383-0.419,0.722-0.679,1.046
		c-0.781,0.979-1.854,1.46-3.065,1.499c-1.03,0.033-1.982-0.346-2.79-1.025c-1.063-0.896-1.54-2.071-1.424-3.414
		c0.121-1.4,0.747-2.567,2.053-3.27c0.26-0.141,0.506-0.307,0.759-0.461C94.793,17.945,95.663,17.945,96.532,17.945z"/>
	<path fill-rule="evenodd" clip-rule="evenodd" fill="#787473" d="M53.375,53.947c0.082-0.079,0.2-0.144,0.24-0.24
		c0.531-1.27,1.516-1.868,2.85-2.017c1.47-0.164,3.131,0.946,3.497,2.469c0.309,1.285,0.028,2.409-0.854,3.309
		c-0.677,0.69-1.593,0.975-2.609,0.928c-0.851-0.039-1.58-0.277-2.143-0.913c-0.283-0.32-0.5-0.7-0.756-1.046
		c-0.055-0.074-0.149-0.12-0.226-0.179C53.375,55.487,53.375,54.717,53.375,53.947z"/>
	<path fill-rule="evenodd" clip-rule="evenodd" fill="#787473" d="M156.564,58.724c0-2.533,0-5.065,0.002-7.599
		c0.002-0.89,0.869-1.793,1.756-1.805c2.295-0.029,4.59-0.06,6.885-0.061c0.691,0,1.406,0.003,2.07,0.164
		c1.857,0.45,3.443,1.335,4.084,3.279c0.219,0.664,0.383,1.385,0.123,2.142c-0.148,0.427-0.117,0.905-0.326,1.353
		c-0.293,0.63-0.738,1.104-1.246,1.542c-0.121,0.105-0.258,0.194-0.373,0.308c-0.193,0.194-0.131,0.418,0.117,0.518
		c0.934,0.377,1.734,0.902,2.279,1.795c0.568,0.929,0.709,1.921,0.686,2.98c-0.025,1.067-0.395,2.02-1.078,2.775
		c-0.492,0.545-1.168,0.965-1.834,1.299c-1.154,0.579-2.432,0.752-3.711,0.766c-2.434,0.027-4.867-0.019-7.301,0.017
		c-1.086,0.016-1.932-0.77-2.145-1.692c-0.043-0.187,0.008-0.394,0.008-0.591c0.002-2.396,0.002-4.793,0.002-7.189H156.564z
		 M163.662,64.47c0,0.021,0,0.042,0.002,0.063c1.002-0.051,2.008-0.079,3.008-0.16c1.025-0.082,1.809-0.951,1.785-1.935
		c-0.025-1.15-0.846-1.825-1.859-1.91c-1.555-0.129-3.121-0.113-4.682-0.151c-0.285-0.007-0.57,0.024-0.854,0.035
		c-0.309,0.011-0.428,0.157-0.424,0.474c0.016,0.993,0.006,1.986,0.002,2.979c0,0.511,0.061,0.595,0.562,0.602
		C162.023,64.478,162.842,64.47,163.662,64.47z M163.402,56.866c0.746-0.067,1.68,0.123,2.607-0.168
		c0.541-0.17,1.203-0.676,1.301-1.242c0.27-1.578-0.52-2.364-2.004-2.461c-1.408-0.092-2.824-0.054-4.238-0.079
		c-0.297-0.005-0.426,0.118-0.424,0.422c0.006,1.03,0.01,2.061-0.012,3.091c-0.006,0.332,0.121,0.443,0.432,0.44
		C161.783,56.861,162.502,56.866,163.402,56.866z"/>
	<path fill-rule="evenodd" clip-rule="evenodd" fill="#787473" d="M98.772,56.645c0,0.872,0.001,1.641,0,2.41
		c0,2.359-0.001,4.72,0,7.08c0,1.292-0.888,2.398-2.441,2.208c-0.98-0.12-1.734-0.97-1.81-2.002
		c-0.008-0.099-0.005-0.198-0.005-0.298c0.001-4.931,0.001-9.862,0.003-14.793c0-0.998,0.903-2.054,1.935-2.14
		c1.12-0.093,2.05,0.165,2.747,1.104c0.692,0.932,1.417,1.839,2.126,2.759c0.921,1.196,1.846,2.39,2.76,3.592
		c0.725,0.954,1.437,1.918,2.155,2.877c0.208,0.277,0.412,0.557,0.634,0.822c0.068,0.084,0.188,0.125,0.382,0.248
		c0-0.644,0-1.18,0-1.717c0-2.559,0.033-5.118-0.019-7.676c-0.02-0.97,0.834-1.839,1.572-1.993c1.064-0.222,2.026,0.228,2.414,1.187
		c0.121,0.299,0.205,0.638,0.206,0.958c0.012,5.019,0.009,10.036,0.008,15.055c0,0.912-0.688,1.617-1.353,1.884
		c-0.91,0.364-2.193,0.008-2.838-0.78c-0.769-0.938-1.483-1.921-2.225-2.881c-1.051-1.359-2.107-2.714-3.154-4.075
		c-0.543-0.705-1.069-1.422-1.606-2.132c-0.396-0.521-0.793-1.043-1.199-1.558C99.017,56.723,98.912,56.708,98.772,56.645z"/>
	<path fill-rule="evenodd" clip-rule="evenodd" fill="#787473" d="M142.845,68.517c-2.265,0.061-4.34-0.544-6.159-1.882
		c-0.707-0.52-1.354-1.157-1.912-1.835c-0.771-0.934-1.306-2.009-1.653-3.188c-0.376-1.274-0.469-2.569-0.347-3.863
		c0.081-0.862,0.321-1.725,0.603-2.548c0.587-1.718,1.661-3.128,3.105-4.202c0.753-0.56,1.626-0.981,2.489-1.366
		c1.623-0.725,3.361-0.855,5.101-0.675c1.546,0.161,3.037,0.617,4.354,1.466c1.865,1.202,3.205,2.843,3.944,4.963
		c0.49,1.406,0.543,2.841,0.475,4.309c-0.041,0.896-0.246,1.745-0.561,2.559c-0.431,1.117-1.042,2.136-1.858,3.038
		c-1.295,1.432-2.883,2.378-4.722,2.87c-0.924,0.248-1.896,0.305-2.848,0.448C142.852,68.579,142.849,68.548,142.845,68.517z
		 M142.807,64.613c0.838,0.074,1.594-0.181,2.34-0.501c1.562-0.672,2.52-1.889,3.024-3.459c0.479-1.486,0.396-2.981-0.236-4.418
		c-0.421-0.953-1.045-1.762-1.921-2.355c-0.726-0.492-1.511-0.786-2.383-0.956c-1.145-0.224-2.223-0.024-3.214,0.44
		c-1.309,0.613-2.313,1.628-2.802,3.018c-0.767,2.178-0.596,4.258,0.882,6.124C139.597,63.894,141.068,64.541,142.807,64.613z"/>
	<path fill-rule="evenodd" clip-rule="evenodd" fill="#787473" d="M212.145,56.676c0,0.743,0,1.486,0,2.229
		c0,2.148,0.006,4.297-0.002,6.445c-0.002,0.495-0.035,0.99-0.078,1.483c-0.053,0.602-0.924,1.402-1.527,1.428
		c-0.15,0.007-0.301-0.009-0.447,0.007c-1.131,0.126-2-0.731-2.068-1.88c-0.018-0.285-0.027-0.57-0.027-0.855
		c0.004-4.769,0.002-9.538,0.02-14.307c0.004-1.181,0.926-1.97,2.012-2.06c0.607-0.05,1.203,0.019,1.734,0.309
		c0.301,0.164,0.566,0.436,0.781,0.71c0.895,1.137,1.758,2.295,2.641,3.44c0.818,1.062,1.652,2.115,2.469,3.18
		c0.549,0.717,1.08,1.446,1.619,2.171c0.338,0.454,0.668,0.915,1.021,1.357c0.068,0.089,0.227,0.106,0.346,0.155
		c0.035-0.096,0.1-0.192,0.102-0.288c0.012-2.968,0.018-5.935,0.021-8.902c0.002-0.435,0-0.846,0.264-1.244
		c0.443-0.671,1.045-0.964,1.822-0.918c1.139,0.067,1.93,0.838,1.996,1.98c0.045,0.756,0.021,1.515,0.021,2.271
		c0,4.148,0,8.297,0,12.444c0,0.966-0.326,1.764-1.188,2.281c-0.043,0.025-0.084,0.056-0.129,0.071
		c-0.924,0.322-2.145,0.03-2.758-0.723c-0.773-0.949-1.502-1.935-2.25-2.904c-0.559-0.724-1.121-1.445-1.678-2.171
		c-0.434-0.565-0.865-1.135-1.299-1.701c-0.336-0.44-0.68-0.877-1.014-1.32c-0.633-0.836-1.258-1.68-1.898-2.511
		c-0.096-0.122-0.26-0.191-0.391-0.285C212.221,56.605,212.182,56.641,212.145,56.676z"/>
	<path fill-rule="evenodd" clip-rule="evenodd" fill="#787473" d="M194.143,68.487c-1.842,0.036-3.564-0.429-5.145-1.351
		c-1.83-1.07-3.18-2.579-4.008-4.565c-0.781-1.873-0.918-3.798-0.566-5.754c0.225-1.24,0.707-2.397,1.42-3.468
		c0.613-0.92,1.355-1.703,2.211-2.373c0.727-0.568,1.537-1.027,2.412-1.347c1.506-0.547,3.064-0.81,4.658-0.664
		c0.992,0.091,1.975,0.279,2.928,0.642c1.309,0.497,2.467,1.19,3.469,2.162c0.797,0.776,1.445,1.663,1.873,2.688
		c0.279,0.666,0.479,1.365,0.691,2.056c0.387,1.26,0.312,2.557,0.143,3.824c-0.191,1.416-0.742,2.739-1.572,3.915
		c-0.576,0.816-1.215,1.591-2.07,2.14c-0.723,0.463-1.443,0.936-2.199,1.341c-0.396,0.213-0.857,0.339-1.303,0.42
		c-0.971,0.175-1.949,0.295-2.924,0.438C194.154,68.556,194.148,68.521,194.143,68.487z M194.357,64.611
		c0.004,0.036,0.01,0.071,0.016,0.107c0.697-0.146,1.445-0.181,2.08-0.465c0.844-0.376,1.629-0.877,2.217-1.669
		c0.451-0.607,0.803-1.241,1.025-1.946c0.467-1.486,0.393-2.968-0.238-4.385c-0.273-0.613-0.621-1.239-1.084-1.711
		c-0.73-0.739-1.621-1.271-2.658-1.557c-1.121-0.31-2.209-0.234-3.285,0.122c-1.24,0.41-2.219,1.181-2.881,2.312
		c-0.268,0.456-0.545,0.933-0.672,1.438c-0.26,1.032-0.377,2.071-0.127,3.156c0.322,1.41,0.994,2.591,2.113,3.46
		C191.867,64.251,193.027,64.729,194.357,64.611z"/>
	<path fill-rule="evenodd" clip-rule="evenodd" fill="#787473" d="M115.86,58.771c0-2.521-0.013-5.043,0.007-7.564
		c0.007-0.823,0.749-1.959,1.873-1.964c3.154-0.012,6.31-0.017,9.464-0.025c0.41-0.001,0.82,0.003,1.229-0.001
		c0.944-0.008,1.651,0.445,1.984,1.324c0.447,1.183-0.507,2.566-1.731,2.541c-2.619-0.054-5.241-0.005-7.862,0.01
		c-0.683,0.004-0.696,0.018-0.704,0.688c-0.011,0.955,0.001,1.911,0.003,2.866c0,0.322,0.173,0.417,0.476,0.416
		c2.297-0.006,4.594,0.003,6.891-0.001c0.755-0.002,1.29,0.374,1.604,1.011c0.317,0.644,0.288,1.318-0.087,1.959
		c-0.37,0.633-0.95,0.859-1.644,0.862c-2.298,0.006-4.596,0.014-6.895,0.004c-0.381-0.002-0.352,0.251-0.353,0.471
		c-0.006,0.731,0.02,1.464,0.019,2.196c-0.001,0.981,0.018,1.964-0.033,2.942c-0.047,0.917-0.711,1.619-1.592,1.791
		c-1.532,0.301-2.646-0.614-2.647-2.184C115.859,63.666,115.861,61.219,115.86,58.771L115.86,58.771z"/>
	<path fill-rule="evenodd" clip-rule="evenodd" fill="#787473" d="M89.902,58.757c0,2.521-0.004,5.041,0.002,7.561
		c0.002,0.841-0.376,1.489-1.098,1.843c-1.245,0.609-2.947-0.038-3.088-1.573c-0.045-0.491-0.08-0.986-0.08-1.479
		c-0.004-4.593,0-9.187,0.004-13.78c0-0.629,0.186-1.216,0.626-1.658c0.24-0.241,0.593-0.436,0.926-0.506
		c1.14-0.238,2.117,0.082,2.601,1.27c0.086,0.21,0.104,0.459,0.105,0.689c0.007,2.545,0.004,5.09,0.004,7.635
		C89.903,58.757,89.903,58.757,89.902,58.757z"/>
	<path fill-rule="evenodd" clip-rule="evenodd" fill="#787473" d="M176.232,58.732c0-2.545-0.002-5.09,0-7.636
		c0-1.165,0.949-2.017,2.182-1.963c1.111,0.049,1.975,0.964,1.975,2.101c0.002,4.967-0.01,9.934,0.01,14.9
		c0.006,1.401-1.064,2.372-2.504,2.141c-1.014-0.162-1.719-1.022-1.664-2.056c0.002-0.049,0.006-0.099,0.006-0.148
		c0-2.446,0-4.893,0-7.339C176.234,58.732,176.232,58.732,176.232,58.732z"/>
	<path fill-rule="evenodd" clip-rule="evenodd" fill="#787473" d="M229.514,58.71c0-2.521-0.018-5.04,0.01-7.56
		c0.008-0.822,0.418-1.501,1.178-1.832c0.762-0.333,1.529-0.29,2.234,0.273c0.557,0.443,0.75,1.007,0.75,1.677
		c0,4.99,0,9.981,0,14.972c0,0.872-0.391,1.529-1.152,1.928c-0.928,0.486-2.303-0.008-2.768-0.944
		c-0.193-0.387-0.262-0.779-0.26-1.215c0.018-2.433,0.01-4.866,0.01-7.299C229.514,58.71,229.514,58.71,229.514,58.71z"/>
	<path fill-rule="evenodd" clip-rule="evenodd" fill="#787473" d="M113.794,32.118c-2.302-0.035-4.197-1.744-4.204-4.224
		c-0.007-2.416,1.75-4.123,4.084-4.224c2.572-0.109,4.398,1.951,4.395,4.14C118.064,30.302,116.26,32.094,113.794,32.118z"/>
	<path fill-rule="evenodd" clip-rule="evenodd" fill="#787473" d="M80.209,26.577c0.16,1.718-1.728,3.818-3.849,3.737
		c-2.237-0.087-3.883-1.815-3.818-3.877c0.068-2.146,1.609-3.798,3.944-3.769C78.458,22.693,80.272,24.174,80.209,26.577z"/>
	<path fill-rule="evenodd" clip-rule="evenodd" fill="#787473" d="M62.927,35.059c2.101-0.059,3.777,1.762,3.56,3.948
		c-0.179,1.794-1.64,3.225-3.586,3.209c-2.366-0.021-3.594-1.822-3.599-3.658C59.297,36.466,61.12,34.938,62.927,35.059z"/>
	<path fill-rule="evenodd" clip-rule="evenodd" fill="#787473" d="M102.982,32.86c-1.998,0.048-3.409-1.528-3.514-3.218
		c-0.148-2.409,1.683-3.811,3.383-3.791c2.079,0.024,3.621,1.33,3.612,3.562C106.457,31.269,105.002,32.845,102.982,32.86z"/>
	<path fill-rule="evenodd" clip-rule="evenodd" fill="#787473" d="M86.906,31.741c-1.871,0.161-3.446-1.531-3.418-3.344
		c0.03-1.953,1.332-3.287,3.109-3.462c2.46-0.243,3.718,1.789,3.794,3.344C90.479,30.057,88.75,31.98,86.906,31.741z"/>
	<path fill-rule="evenodd" clip-rule="evenodd" fill="#787473" d="M58.688,73.625c-1.996,0.11-3.396-1.534-3.298-3.374
		c0.085-1.595,1.352-3.092,3.27-3.056c1.825,0.035,3.255,1.473,3.205,3.318C61.82,72.185,60.473,73.691,58.688,73.625z"/>
	<path fill-rule="evenodd" clip-rule="evenodd" fill="#787473" d="M72.727,38.738c-1.892-0.009-3.285-1.346-3.24-3.2
		c0.046-1.905,1.353-3.163,3.315-3.133c1.8,0.028,2.964,1.398,3.055,2.837C75.995,37.396,74.396,38.752,72.727,38.738z"/>
	<path fill-rule="evenodd" clip-rule="evenodd" fill="#787473" d="M61.117,47.733c-0.131-1.521,1.447-3.056,3.054-2.964
		c1.727,0.1,2.969,1.364,2.944,3.084c-0.024,1.759-1.474,2.971-3.07,2.936C62.245,50.749,61.024,49.279,61.117,47.733z"/>
	<path fill-rule="evenodd" clip-rule="evenodd" fill="#787473" d="M64.72,61.951c0.123,0.933-0.345,1.692-1.068,2.228
		c-0.782,0.576-1.694,0.641-2.658,0.337c-0.917-0.289-1.42-0.965-1.699-1.761c-0.175-0.498-0.097-1.129,0.012-1.672
		c0.206-1.037,1.02-1.624,1.926-1.932c0.583-0.198,1.302-0.244,1.903,0.153c0.318,0.21,0.636,0.43,0.925,0.678
		C64.648,60.487,64.768,61.17,64.72,61.951z"/>
	<path fill-rule="evenodd" clip-rule="evenodd" fill="#787473" d="M96.682,33.63c-0.028,1.642-1.289,2.793-2.843,2.794
		c-1.522,0.001-2.8-1.228-2.748-2.882c0.05-1.619,1.193-2.708,2.784-2.714C95.48,30.822,96.646,31.973,96.682,33.63z"/>
	<path fill-rule="evenodd" clip-rule="evenodd" fill="#787473" d="M84.096,36.371c0.114,0.595-0.132,1.177-0.63,1.686
		c-0.571,0.584-1.224,0.917-2.068,0.926c-1.38,0.015-2.758-1.189-2.732-2.781c0.025-1.648,1.323-2.775,2.795-2.758
		C82.996,33.463,84.102,34.629,84.096,36.371z"/>
	<path fill-rule="evenodd" clip-rule="evenodd" fill="#787473" d="M68.897,73.603c0.129,1.453-1.129,2.656-2.643,2.67
		c-1.557,0.015-2.558-1.134-2.668-2.329c-0.175-1.892,1.147-3.018,2.626-3.069C67.752,70.82,68.865,71.971,68.897,73.603z"/>
	<path fill-rule="evenodd" clip-rule="evenodd" fill="#787473" d="M74.398,44.529c-0.003,1.527-1.014,2.461-2.587,2.503
		c-1.428,0.037-2.457-1.389-2.465-2.394c-0.011-1.561,1.281-2.722,2.565-2.702C73.379,41.959,74.401,43.011,74.398,44.529z"/>
	<path fill-rule="evenodd" clip-rule="evenodd" fill="#787473" d="M70.072,55.425c0.079,1.291-1.111,2.416-2.323,2.409
		c-1.481-0.008-2.464-1.073-2.497-2.307c-0.039-1.426,1.062-2.486,2.475-2.503C69.083,53.01,70.149,54.239,70.072,55.425z"/>
	<path fill-rule="evenodd" clip-rule="evenodd" fill="#787473" d="M68.529,68.668c-1.299-0.01-2.321-0.916-2.29-2.269
		c0.03-1.306,0.865-2.192,2.333-2.286c1.006-0.065,2.189,1.134,2.2,2.223C70.782,67.481,69.821,68.673,68.529,68.668z"/>
	<path fill-rule="evenodd" clip-rule="evenodd" fill="#787473" d="M73.721,76.457c-1.154,0-1.992-1.039-2.031-2.414
		c-0.028-0.997,1.024-1.987,2.069-1.976c1.11,0.013,2.217,0.81,2.187,2.212C75.917,75.606,74.93,76.339,73.721,76.457z"/>
	<path fill-rule="evenodd" clip-rule="evenodd" fill="#787473" d="M86.627,41.651c-1.451-0.078-2.114-0.893-2.151-2.145
		c-0.031-1.101,0.982-2.019,2.12-1.999c1.227,0.022,2.108,0.937,2.084,2.141C88.658,40.72,87.741,41.65,86.627,41.651z"/>
	<path fill-rule="evenodd" clip-rule="evenodd" fill="#787473" d="M80.22,44.655c0.103,1.287-1.021,2.046-2,2.052
		c-1.146,0.008-2.095-0.852-2.121-2.063c-0.024-1.076,0.907-2.048,1.744-2.052C79.492,42.582,80.217,43.21,80.22,44.655z"/>
	<path fill-rule="evenodd" clip-rule="evenodd" fill="#787473" d="M73.261,54.692c-1.179,0.095-1.922-0.983-1.926-1.872
		c-0.005-1.043,0.854-1.965,2.027-1.918c0.946,0.038,1.744,0.766,1.769,1.628C75.172,53.936,74.486,54.693,73.261,54.692z"/>
	<path fill-rule="evenodd" clip-rule="evenodd" fill="#787473" d="M72.606,63.4c-0.918,0.005-1.723-0.821-1.72-1.778
		c0.004-1.191,0.73-1.821,1.865-1.842c0.926-0.016,1.701,0.795,1.716,1.741C74.484,62.65,73.548,63.462,72.606,63.4z"/>
	<path fill-rule="evenodd" clip-rule="evenodd" fill="#787473" d="M77.072,68.982c0.063,1.149-0.675,1.698-1.639,1.715
		c-1.021,0.018-1.679-0.647-1.708-1.63c-0.028-0.922,0.845-1.793,1.759-1.739C76.219,67.37,77.167,67.95,77.072,68.982z"/>
	<path fill-rule="evenodd" clip-rule="evenodd" fill="#787473" d="M79.24,73.077c-0.122-0.782,0.678-1.513,1.438-1.547
		c1.161-0.052,1.788,0.821,1.764,1.606c-0.03,0.943-0.701,1.603-1.666,1.614C80.055,74.76,79.097,74.056,79.24,73.077z"/>
	<path fill-rule="evenodd" clip-rule="evenodd" fill="#787473" d="M77.41,50.816c0.687,0.024,1.398,0.636,1.385,1.546
		c-0.012,0.699-0.678,1.268-1.492,1.261c-0.771-0.007-1.359-0.629-1.346-1.423C75.969,51.42,76.603,50.816,77.41,50.816z"/>
	<path fill-rule="evenodd" clip-rule="evenodd" fill="#787473" d="M80.474,45.982c-0.04-0.543,0.598-1.339,1.434-1.286
		c0.685,0.044,1.286,0.514,1.303,1.292c0.02,0.901-0.719,1.459-1.355,1.45C81.112,47.428,80.47,46.751,80.474,45.982z"/>
	<path fill-rule="evenodd" clip-rule="evenodd" fill="#787473" d="M76.157,58.112c0.716-0.013,1.284,0.558,1.301,1.245
		c0.018,0.688-0.604,1.347-1.248,1.299c-0.743-0.056-1.28-0.461-1.291-1.204C74.908,58.678,75.45,58.109,76.157,58.112z"/>
	<path fill-rule="evenodd" clip-rule="evenodd" fill="#787473" d="M78.135,64.381c0.694,0.001,1.174,0.491,1.172,1.197
		c-0.002,0.711-0.475,1.195-1.166,1.198c-0.711,0.002-1.203-0.472-1.218-1.157C76.907,64.902,77.487,64.302,78.135,64.381z"/>
	<path fill-rule="evenodd" clip-rule="evenodd" fill="#787473" d="M82.842,69.764c0.008,0.537-0.55,1.099-1.093,1.099
		c-0.553,0.001-1.171-0.601-1.176-1.143c-0.005-0.569,0.576-1.155,1.147-1.156C82.333,68.561,82.832,69.097,82.842,69.764z"/>
	<path fill-rule="evenodd" clip-rule="evenodd" fill="#787473" d="M85.277,70.7c0.001-0.66,0.458-1.078,1.184-1.081
		c0.538-0.002,1.004,0.523,0.997,1.126c-0.006,0.565-0.502,1.029-1.095,1.024C85.736,71.764,85.276,71.311,85.277,70.7z"/>
	<path fill-rule="evenodd" clip-rule="evenodd" fill="#787473" d="M194.297,57.332c0.305-0.465,0.568-0.905,1.09-1.106
		c0.783-0.304,1.939-0.105,2.373,0.734c0.564,1.09,0.26,2.027-0.598,2.893c-0.824,0.834-1.68,1.635-2.512,2.461
		c-0.234,0.234-0.461,0.237-0.676,0.026c-0.92-0.899-1.852-1.786-2.729-2.724c-0.588-0.625-0.871-1.363-0.564-2.26
		c0.225-0.653,0.66-1.048,1.289-1.211c0.645-0.167,1.271-0.03,1.781,0.408C193.967,56.739,194.09,57.029,194.297,57.332z"/>
</g>
</svg>
