<?xml version="1.0" encoding="utf-8"?>
<!-- Generator: Adobe Illustrator 16.0.0, SVG Export Plug-In . SVG Version: 6.00 Build 0)  -->
<!DOCTYPE svg PUBLIC "-//W3C//DTD SVG 1.1//EN" "http://www.w3.org/Graphics/SVG/1.1/DTD/svg11.dtd">
<svg version="1.1" xmlns="http://www.w3.org/2000/svg" xmlns:xlink="http://www.w3.org/1999/xlink" x="0px" y="0px" width="326px"
	 height="112px" viewBox="0 0 326 112" enable-background="new 0 0 326 112" xml:space="preserve">
<g id="Layer_2">
	<rect opacity="0" fill="#787473" width="326" height="112"/>
</g>
<g id="Layer_1">
	<path id="Fill-1" fill="#787473" d="M131.163,56.588c0-0.399,0.271-0.611,0.611-0.611c0.576,0,1.445,0.611,1.935,1.834
		c-0.175,0-0.44,0.053-0.617,0.053C132.043,57.863,131.163,57.365,131.163,56.588z M67.735,56.588c0-0.399,0.259-0.611,0.614-0.611
		c0.561,0,1.396,0.611,1.879,1.834C68.609,57.811,67.735,57.46,67.735,56.588z M79.969,50.27c0-6.54,1.274-7.543,1.669-7.543
		c0.703,0,0.788,0.438,0.788,2.945c0,2.578-1.098,5.95-2.457,7.802V50.27z M124.501,56.718c-0.755,1.051-1.366,2.544-1.366,4.469
		c0,3.686,2.102,7.203,6.185,7.203c3.949,0,6.714-3.12,6.714-7.469c0-1.264-0.047-1.438-0.13-1.963
		c0.918-0.398,1.71-1.011,2.326-1.499c0.523-0.396,0.916-0.616,1.229-0.616c0.394,0,0.567,0.308,0.567,0.876v8.606
		c0,1.402,0.443,2.063,1.535,2.063c1.007,0,1.715-0.707,2.106-1.539c1.452-3.028,3.553-7.062,4.471-8.596
		c0.221-0.352,0.399-0.619,0.525-0.619c0.176,0,0.266,0.133,0.266,0.701v6.852c0,1.926,0.881,3.201,2.803,3.201
		c2.021,0,3.026-1.938,4.794-4.919c0.083-0.179,0.121-0.309,0.121-0.434c0-0.396-0.343-0.619-0.696-0.619
		c-0.398,0-0.618,0.397-1.932,1.839c-0.266,0.276-0.523,0.655-1.01,0.655c-0.174,0-0.308-0.21-0.308-0.479v-7.68
		c0-2.062-0.922-2.895-2.107-2.895c-0.962,0-1.756,0.394-2.588,1.624c-1.492,2.198-3.027,5.316-3.857,6.887
		c-0.095,0.183-0.22,0.445-0.306,0.445c-0.092,0-0.13-0.136-0.13-0.445v-5.616c0-1.619-0.439-2.895-2.154-2.895
		c-1.799,0-2.72,1.23-4.035,2.15c-0.833,0.622-1.578,1.054-2.146,1.318c-0.882-2.237-2.502-3.372-3.863-3.338
		c-1.364,0.048-2.328,0.886-2.328,2.291c0,1.439,0.882,2.443,2.061,2.891c0.656,0.262,1.271,0.312,2.153,0.312
		c0.265,0,0.526,0,0.696-0.05c0.093,0.438,0.052,1.061,0.052,1.541c0,2.153-1.272,4.296-3.639,4.296
		c-2.463,0-3.906-2.369-3.906-5.086c0-2.065,0.612-3.773,1.614-4.953c0.404-0.443,0.707-0.71,0.707-1.115
		c0-0.205-0.303-0.256-0.569-0.256c-1.67,0-3.507,0.748-4.776,1.403c-1.676,0.88-3.645,2.333-5.271,3.78
		c-0.788-1.76-1.753-3.295-2.239-4.484c-0.173-0.483-0.302-1.042-0.653-1.042c-0.311,0-0.447,0.307-0.661,0.911
		c-0.787,2.328-5.001,9.133-5.923,10.055c-0.087,0.125-0.215,0.264-0.256,0.264c-0.095,0-0.145-0.043-0.145-0.312v-7.68
		c0-2.062-0.833-2.895-1.965-2.895c-0.969,0-1.8,0.394-2.588,1.624c-1.445,2.198-3.208,5.402-4.039,6.979
		c-0.134,0.27-0.266,0.354-0.312,0.354c-0.043,0-0.079-0.175-0.079-0.445v-5.616c0-2.062-0.837-2.895-1.979-2.895
		c-0.968,0-1.884,0.359-2.634,1.624c-1.838,3.12-4.908,7.902-5.479,8.684c-0.088,0.136-0.177,0.225-0.264,0.267
		c-0.087,0-0.137-0.085-0.137-0.304v-7.376c0-2.062-0.832-2.895-1.966-2.895c-1.583,0-2.455,1.455-3.031,2.37
		c-0.793,1.273-1.842,2.987-2.672,4.569c-0.573,1.059-1.059,2.017-1.236,2.017c-0.084,0-0.084-0.397-0.084-1.143v-5.876
		c2.759-3.079,4.472-6.847,4.472-10.971c0-2.375-1.048-3.684-2.667-3.684c-3.034,0-5.353,4.74-5.353,10.351v4.562
		c-1.406,0.879-2.724,1.309-4.35,1.625c-0.831-2.45-2.588-3.725-3.987-3.691c-1.355,0.048-2.325,0.886-2.325,2.291
		c0,2.322,2.282,3.288,4.295,3.288h0.57c0.086,0.44,0.086,0.925,0.086,1.405c0,2.153-1.271,4.296-3.634,4.296
		c-2.454,0-3.906-2.369-3.906-5.086c0-2.065,0.608-3.773,1.618-4.953c0.398-0.443,0.708-0.838,0.708-1.115
		c0-0.205-0.31-0.256-0.576-0.256c-1.666,0-5.347,2.247-9.736,6.634c-0.389-3.512-0.831-6.937-0.831-10.273
		c0-3.727,0.736-6.894,0.912-7.806c0.088-0.566,0.144-0.922,0.144-1.181c0-0.354-0.187-0.534-0.66-0.534
		c-3.558,0-11.368,5.663-11.368,14.131c0,6.004,2.198,8.902,6.008,12.629c-2.312,3.731-4.168,8.16-4.168,12.11
		c0,2.848,0.665,5.003,2.765,5.003c4.389,0,7.676-9.121,7.676-15.882c0-2.016-0.081-4.037-0.253-6.051
		c1.618-1.72,4.119-4.038,4.729-4.257c-0.261,0.922-0.437,1.89-0.437,2.803c0,3.686,2.109,7.203,6.185,7.203
		c3.822,0,6.713-3.12,6.713-7.469c0-0.561-0.045-1.051-0.084-1.575c1.397-0.263,2.683-0.622,3.907-1.356v8.817
		c0,1.134,0.784,1.583,1.531,1.583c1.014,0,1.541-0.707,2.279-2.321c0.621-1.323,2.282-4.346,3.291-6.15
		c0.794-1.408,1.233-2.323,1.587-2.323c0.082,0,0.176,0.215,0.176,0.742v7.503c0,2.02,1.053,2.55,1.964,2.55
		c0.877,0,1.452-0.482,2.022-1.275c2.284-3.251,4.7-7.105,5.658-8.777c0.177-0.3,0.396-0.527,0.573-0.527
		c0.171,0,0.26,0.094,0.26,0.657v7.859c0,1.402,0.438,2.063,1.541,2.063c1.003,0,1.659-0.707,2.051-1.539
		c1.458-3.028,3.602-7.022,4.528-8.596c0.214-0.352,0.435-0.66,0.566-0.66c0.182,0,0.222,0.215,0.222,0.789v7.456
		c0,2.02,1.053,2.55,1.98,2.55c1.218,0,2.017-0.884,2.805-1.889c1.438-1.895,3.546-5.259,4.821-7.418
		c0.442,0.705,0.919,1.542,1.321,2.461c-1.055,1.271-2.109,2.713-2.109,4.248c0,1.627,1.14,2.598,2.326,2.598
		c2.014,0,3.854-1.938,3.854-4.609c0-1.049-0.301-2.148-0.693-3.199C120.761,58.822,122.914,57.112,124.501,56.718z M52.239,66.281
		c0.354,2.324,0.663,4.609,0.663,6.405c0,4.204-1.399,9.121-3.814,9.079c-0.932,0-1.716-0.933-1.754-2.546
		C47.244,73.959,49.744,69.482,52.239,66.281z M116.291,63.293c0.266,0.752,0.4,1.362,0.4,1.978c0,0.703-0.265,1.406-0.75,1.406
		c-0.345,0-0.697-0.396-0.697-1.011C115.244,65.007,115.812,63.952,116.291,63.293z M53.823,42.369c0,0.268-0.615,1.491-1.402,3.688
		c-0.833,2.278-1.629,5.521-1.629,9.427c0,2.327,0.576,5.402,1.062,8.514l-1.405,1.893c-2.241-2.728-3.642-5.791-3.642-11.059
		c0-7.457,4.518-12.629,6.839-12.629C53.784,42.203,53.823,42.242,53.823,42.369z"/>
	<path id="Fill-4" fill="#787473" d="M259.829,56.588c0-0.399,0.256-0.611,0.609-0.611c0.567,0,1.445,0.611,1.927,1.834
		c-0.171,0-0.435,0.053-0.619,0.053C260.703,57.863,259.829,57.365,259.829,56.588z M196.387,56.588
		c0-0.399,0.269-0.611,0.615-0.611c0.571,0,1.413,0.611,1.886,1.834C197.265,57.811,196.387,57.46,196.387,56.588z M208.629,50.27
		c0-6.54,1.267-7.543,1.666-7.543c0.701,0,0.788,0.438,0.788,2.945c0,2.578-1.1,5.95-2.454,7.802V50.27z M180.906,66.281
		c0.341,2.324,0.661,4.609,0.661,6.405c0,4.204-1.402,9.121-3.82,9.079c-0.921,0-1.711-0.933-1.755-2.546
		C175.903,73.959,178.407,69.482,180.906,66.281z M244.957,63.293c0.266,0.752,0.393,1.362,0.393,1.978
		c0,0.703-0.264,1.406-0.746,1.406c-0.347,0-0.707-0.396-0.707-1.011C243.896,65.007,244.472,63.952,244.957,63.293z
		 M182.479,42.369c0,0.268-0.607,1.491-1.403,3.688c-0.828,2.278-1.623,5.521-1.623,9.427c0,2.327,0.586,5.402,1.065,8.514
		l-1.408,1.893c-2.233-2.728-3.646-5.791-3.646-11.059c0-7.457,4.528-12.629,6.85-12.629
		C182.439,42.203,182.479,42.242,182.479,42.369L182.479,42.369z M175.164,64.304c0.784,1.055,1.752,2.062,2.891,3.157
		c-2.326,3.731-4.166,8.16-4.166,12.11c0,2.848,0.662,5.003,2.769,5.003c4.383,0,7.669-9.121,7.669-15.882
		c0-2.016-0.086-4.037-0.261-6.051c1.625-1.72,4.117-4.038,4.739-4.257c-0.264,0.922-0.445,1.89-0.445,2.803
		c0,3.686,2.106,7.203,6.191,7.203c3.812,0,6.708-3.12,6.708-7.469c0-0.561-0.041-1.051-0.09-1.575
		c1.406-0.263,2.688-0.622,3.909-1.356v8.817c0,1.134,0.785,1.583,1.524,1.583c1.023,0,1.55-0.707,2.291-2.321
		c0.612-1.323,2.282-4.346,3.294-6.15c0.786-1.408,1.226-2.323,1.585-2.323c0.081,0,0.165,0.215,0.165,0.742v7.503
		c0,2.02,1.049,2.55,1.973,2.55c0.88,0,1.444-0.482,2.026-1.275c2.274-3.251,4.691-7.105,5.653-8.777
		c0.176-0.3,0.398-0.527,0.568-0.527c0.171,0,0.267,0.094,0.267,0.657v7.859c0,1.402,0.435,2.063,1.53,2.063
		c1.009,0,1.667-0.707,2.064-1.539c1.449-3.028,3.598-7.022,4.517-8.596c0.223-0.352,0.44-0.66,0.578-0.66
		c0.17,0,0.22,0.215,0.22,0.789v7.456c0,2.02,1.043,2.55,1.962,2.55c1.237,0,2.028-0.884,2.812-1.889
		c1.446-1.895,3.559-5.259,4.829-7.418c0.434,0.705,0.922,1.542,1.32,2.461c-1.064,1.271-2.106,2.713-2.106,4.248
		c0,1.627,1.127,2.598,2.322,2.598c2.015,0,3.854-1.938,3.854-4.609c0-1.049-0.306-2.148-0.701-3.199
		c1.797-1.76,3.949-3.47,5.528-3.864c-0.746,1.051-1.36,2.544-1.36,4.469c0,3.686,2.108,7.203,6.188,7.203
		c3.948,0,6.705-3.12,6.705-7.469c0-1.264-0.041-1.438-0.122-1.963c0.91-0.398,1.706-1.011,2.326-1.499
		c0.515-0.396,0.919-0.616,1.22-0.616c0.397,0,0.582,0.308,0.582,0.876v8.606c0,1.402,0.433,2.063,1.53,2.063
		c1.004,0,1.711-0.707,2.106-1.539c1.44-3.028,3.549-7.062,4.467-8.596c0.22-0.352,0.398-0.619,0.53-0.619
		c0.179,0,0.264,0.133,0.264,0.701v6.852c0,1.926,0.87,3.201,2.806,3.201c2.024,0,3.031-1.938,4.788-4.919
		c0.083-0.179,0.125-0.309,0.125-0.434c0-0.396-0.352-0.619-0.7-0.619c-0.393,0-0.615,0.397-1.93,1.839
		c-0.259,0.276-0.526,0.655-1.008,0.655c-0.181,0-0.305-0.21-0.305-0.479v-7.68c0-2.062-0.933-2.895-2.116-2.895
		c-0.959,0-1.745,0.394-2.582,1.624c-1.495,2.198-3.024,5.316-3.853,6.887c-0.095,0.183-0.223,0.445-0.316,0.445
		c-0.093,0-0.128-0.136-0.128-0.445v-5.616c0-1.619-0.438-2.895-2.148-2.895c-1.805,0-2.72,1.23-4.035,2.15
		c-0.842,0.622-1.581,1.054-2.157,1.318c-0.869-2.237-2.499-3.372-3.852-3.338c-1.368,0.048-2.324,0.886-2.324,2.291
		c0,1.439,0.877,2.443,2.052,2.891c0.66,0.262,1.274,0.312,2.164,0.312c0.255,0,0.509,0,0.697-0.05
		c0.085,0.438,0.04,1.061,0.04,1.541c0,2.153-1.276,4.296-3.647,4.296c-2.455,0-3.896-2.369-3.896-5.086
		c0-2.065,0.61-3.773,1.615-4.953c0.399-0.443,0.71-0.71,0.71-1.115c0-0.205-0.311-0.256-0.573-0.256
		c-1.659,0-3.507,0.748-4.781,1.403c-1.668,0.88-3.644,2.333-5.261,3.78c-0.792-1.76-1.752-3.295-2.239-4.484
		c-0.182-0.483-0.302-1.042-0.665-1.042c-0.303,0-0.438,0.307-0.653,0.911c-0.792,2.328-5,9.133-5.922,10.055
		c-0.088,0.125-0.219,0.264-0.266,0.264c-0.082,0-0.13-0.043-0.13-0.312v-7.68c0-2.062-0.827-2.895-1.979-2.895
		c-0.966,0-1.787,0.394-2.584,1.624c-1.452,2.198-3.201,5.402-4.035,6.979c-0.129,0.27-0.257,0.354-0.3,0.354
		c-0.05,0-0.095-0.175-0.095-0.445v-5.616c0-2.062-0.827-2.895-1.97-2.895c-0.967,0-1.896,0.359-2.634,1.624
		c-1.849,3.12-4.915,7.902-5.488,8.684c-0.078,0.136-0.171,0.225-0.265,0.267c-0.077,0-0.13-0.085-0.13-0.304v-7.376
		c0-2.062-0.83-2.895-1.975-2.895c-1.585,0-2.455,1.455-3.03,2.37c-0.788,1.273-1.835,2.987-2.672,4.569
		c-0.566,1.059-1.05,2.017-1.226,2.017c-0.089,0-0.089-0.397-0.089-1.143v-5.876c2.768-3.079,4.472-6.847,4.472-10.971
		c0-2.375-1.049-3.684-2.679-3.684c-3.021,0-5.344,4.74-5.344,10.351v4.562c-1.408,0.879-2.725,1.309-4.351,1.625
		c-0.827-2.45-2.584-3.725-3.979-3.691c-1.369,0.048-2.331,0.886-2.331,2.291c0,2.322,2.275,3.288,4.298,3.288h0.574
		c0.08,0.44,0.08,0.925,0.08,1.405c0,2.153-1.267,4.296-3.639,4.296c-2.457,0-3.897-2.369-3.897-5.086
		c0-2.065,0.612-3.773,1.614-4.953c0.394-0.443,0.703-0.838,0.703-1.115c0-0.205-0.31-0.256-0.569-0.256
		c-1.668,0-5.352,2.247-9.743,6.634c-0.385-3.512-0.829-6.937-0.829-10.273c0-3.727,0.746-6.894,0.921-7.806
		c0.087-0.566,0.136-0.922,0.136-1.181c0-0.354-0.179-0.534-0.653-0.534c-3.555,0-11.364,5.663-11.364,14.131
		c0,3.46,0.745,5.923,2.062,8.07c-0.49-0.085-0.877-0.085-1.237-0.085c-1.397,0-2.718,0.347-3.536,0.526v-0.88
		c0-1.881-0.445-4.473-1.237-5.351c-0.095-0.091-0.225-0.13-0.348-0.13c-0.361,0-0.794,0.17-1.274,0.436
		c-0.531,0.264-1.058,0.53-1.058,0.701c0,0.085,0,0.173,0.133,0.392c0.309,0.448,1.145,1.318,1.446,3.386
		c-1.495-1.493-3.198-2.154-5.427-2.154c-2.637,0-3.431,1.18-3.431,2.371c0,2.279,3.026,3.42,6.85,3.42
		c0.7,0,1.486-0.132,2.271-0.312c0,0.705,0.09,1.327,0.09,1.85c0,0.746,0.127,1.32,0.615,1.32c0.745,0,1.186-1.499,1.27-3.645
		c1.36-0.354,2.767-0.657,3.956-0.657C173.759,64.089,174.468,64.168,175.164,64.304L175.164,64.304z M166.522,63.864
		c-0.74,0.088-1.188,0.088-1.972,0.088c-1.715,0-2.979-0.659-2.979-1.617c0-0.611,0.303-0.969,1.18-0.969
		C164.158,61.366,165.291,62.335,166.522,63.864z"/>
</g>
</svg>
