<?xml version="1.0" encoding="utf-8"?>
<!-- Generator: Adobe Illustrator 16.0.0, SVG Export Plug-In . SVG Version: 6.00 Build 0)  -->
<!DOCTYPE svg PUBLIC "-//W3C//DTD SVG 1.1//EN" "http://www.w3.org/Graphics/SVG/1.1/DTD/svg11.dtd">
<svg version="1.1" id="Layer_1" xmlns="http://www.w3.org/2000/svg" xmlns:xlink="http://www.w3.org/1999/xlink" x="0px" y="0px"
	 width="326px" height="112px" viewBox="0 0 326 112" enable-background="new 0 0 326 112" xml:space="preserve">
<rect id="background" opacity="0" fill="#787473" width="326" height="112"/>
<g transform="translate(0.000000,300.000000) scale(0.100000,-0.100000)">
	<path fill="#787473" d="M1175.537,2764.907c-102.729-22.832-185.933-86.514-231.587-177.832
		c-23.735-47.456-34.243-92.52-34.243-148.086c0-69.38,17.114-127.368,54.365-185.024c16.519-25.234,67.588-76.309,92.817-92.832
		c36.04-23.105,91.621-45.938,122.856-50.156c13.223-1.504,14.121-1.211,17.729,7.207c4.8,11.113,24.624,34.258,37.236,42.949
		l9.014,6.602l16.528-16.211c8.999-9.004,19.824-21.914,24.033-28.828c8.101-14.121,5.093-13.828,40.547-5.117
		c117.446,28.242,216.265,131.562,241.211,252.031c37.251,177.515-74.512,351.143-252.324,392.588
		C1275.571,2770.908,1208.584,2772.407,1175.537,2764.907z M1317.319,2732.759c85.913-22.222,157.993-81.094,197.344-161.299
		c60.684-124.355,29.751-272.749-75.688-364.058c-20.425-17.734-71.797-49.551-79.897-49.551c-0.898,0-1.812,47.754-1.812,106.328
		c0,92.793,0.61,107.227,4.81,111.133c5.718,5.996,14.419,6.289,19.824,0.605c2.407-2.109,6.616-17.422,9.619-33.652
		c13.511-75.996,14.712-80.195,22.822-89.199c6.309-7.227,10.215-8.73,20.723-8.73c26.147,0.332,36.05,15.645,30.635,46.27
		c-1.802,10.508-8.096,46.543-14.102,80.508c-11.724,67.876-18.032,89.209-30.947,105.127c-15.02,18.623-24.932,22.222-61.572,23.73
		c-30.947,0.903-32.749,0.601-30.337-4.507c14.409-36.05,4.795-73.882-27.935-109.644l-15.024-16.211l15.923-17.129
		c34.238-36.641,42.056-75.098,23.73-113.535c-5.405-10.82-16.221-27.051-24.629-36.348l-15.322-16.816l9.004-8.73
		c5.117-4.785,13.218-13.809,18.325-20.098l9.014-11.133l-6.904-2.695c-6.006-2.109-9.614,0.586-28.54,20.43l-21.626,22.812
		l20.127,21.328c26.431,27.656,34.844,44.766,34.844,70.293c0,26.133-10.215,47.168-36.055,72.695l-19.824,19.531l19.224,19.512
		c25.234,25.527,36.655,48.662,36.655,72.998c-0.298,11.108-2.109,21.621-5.405,27.939l-5.405,9.609h-68.486h-68.794l-3.901-9.609
		c-2.407-5.41-4.204-19.233-4.204-30.952c0-26.431,9.312-44.155,36.338-71.196l18.926-18.594l-20.425-21.328
		c-25.527-27.051-34.541-45.078-34.839-69.082c0-24.355,10.215-45.391,35.137-72.109l19.824-21.328l-11.406-9.609
		c-6.616-5.41-15.317-15.039-20.122-21.641c-5.42-7.48-10.825-12.012-15.029-12.012c-13.511,0-10.215,8.418,13.218,33.34
		l10.215,10.82l-11.113,11.719c-14.419,15-29.434,38.457-34.243,53.164c-2.1,6.602-3.008,20.43-2.397,31.836
		c1.201,24.629,11.406,46.27,31.831,69.395l14.722,16.23l-15.62,18.301c-23.726,27.939-30.034,43.267-30.034,72.095
		c0,13.218,1.201,27.944,2.7,32.744l2.71,8.418l-29.741-1.201c-26.143-0.908-31.846-2.109-44.155-9.312
		c-24.331-14.419-33.34-33.945-44.155-96.729c-3.311-19.824-9.009-51.66-12.319-70.586c-10.815-60.371-10.815-55.586,1.201-67.598
		c7.51-7.52,13.218-10.488,19.521-10.488c21.333,0,30.942,9.902,35.151,36.035c5.41,36.953,17.114,91.621,20.127,95.215
		c4.204,5.098,18.623,5.098,23.12,0c2.109-2.695,3.306-39.062,3.906-111.133c0.898-121.367,3.608-110.84-23.12-97.344
		c-56.177,28.262-111.445,86.23-138.184,144.785c-40.249,88.32-34.541,197.368,15.02,280.571
		c17.124,28.525,53.164,68.486,80.508,89.209C1131.387,2735.469,1231.118,2754.995,1317.319,2732.759z M1291.186,2459.712v-13.506
		l-48.662,0.601l-48.955,0.894l-0.903,12.925l-0.898,12.607h49.561h49.858V2459.712z M1256.948,2402.656l-14.424-13.535
		l-14.717,12.314c-8.115,6.611-14.717,12.92-14.717,13.525c0,0.596,13.218,1.191,29.434,1.191l29.141-0.283L1256.948,2402.656z
		 M1256.05,2337.773c21.323-18.34,19.521-20.723-15.933-20.723c-16.519,0-30.034,0.898-30.034,2.09
		c0,2.402,27.642,30.938,30.034,30.938C1241.03,2350.078,1247.93,2344.668,1256.05,2337.773z M1290.591,2278.886l0.898-12.91
		h-49.263c-42.358,0-49.858,0.586-51.367,4.805c-2.397,6.309-2.397,17.715,0.298,20.41c1.211,1.211,24.033,1.797,50.469,1.211
		l48.062-0.898L1290.591,2278.886z M1258.144,2222.422c-7.202-7.52-15.317-13.516-18.027-13.516
		c-2.695,0-10.811,5.996-18.018,13.516l-13.218,13.516h31.235h31.245L1258.144,2222.422z"/>
	<path fill="#787473" d="M1215.791,2715.346c-29.429-7.817-50.166-25.542-66.079-55.879c-9.917-18.926-10.215-60.977-0.601-81.709
		c9.009-19.814,28.833-39.946,48.662-49.556c13.818-6.909,20.718-8.408,39.351-8.408c28.535,0.303,43.555,4.81,62.48,18.628
		c26.724,19.814,40.85,47.754,40.547,80.493c-0.298,48.364-34.546,88.311-83.203,97.329
		C1235.312,2720.151,1233.516,2720.151,1215.791,2715.346z"/>
	<path fill="#787473" d="M2309.482,2626.421v-60.068l7.49-4.81c5.42-3.599,11.436-4.507,19.814-3.306
		c14.736,1.807,14.434,1.807,12.637,11.421c-1.201,6.304-2.695,7.5-7.51,6.304c-12.305-2.993-14.404,5.703-14.404,60.078v50.464
		h-9.014h-9.014V2626.421z"/>
	<path fill="#787473" d="M1645.644,2620.415v-63.379l9.912,0.908l9.6,0.898l0.898,21.924l0.898,21.636h21.934
		c17.715,0,23.438,1.196,30.029,6.304c20.723,16.216,22.256,43.857,3.623,62.485l-10.811,10.811l-33.057,0.894l-33.027,1.201
		V2620.415z M1706.904,2659.17c9.014-7.207,10.518-21.621,3.018-32.139c-3.916-5.718-7.217-6.616-24.033-6.616h-19.229v22.534
		v22.524h16.23C1694.599,2665.473,1700.918,2663.672,1706.904,2659.17z"/>
	<path fill="#787473" d="M1776.894,2648.955c-14.404-5.107-22.822-12.305-27.92-24.629c-13.818-32.144,8.691-66.992,43.242-66.992
		c14.414,0,26.152,5.107,35.137,15.024c4.814,5.4,5.117,6.909,1.514,9.009c-6.904,4.507-11.719,3.608-20.117-2.998
		c-11.133-8.711-23.75-7.812-34.248,2.7c-4.795,4.805-8.721,10.215-8.721,12.021c0,2.1,12.314,3.291,36.055,3.291h36.045v10.825
		C1837.881,2637.846,1806.328,2659.468,1776.894,2648.955z M1809.951,2628.833c3.301-3.311,6.895-8.418,7.793-11.709
		c1.523-5.42-0.303-5.718-25.225-5.718c-14.727,0-26.738,0.61-26.738,1.211c0,7.197,7.822,17.715,15.332,21.021
		C1792.217,2638.447,1800.937,2636.948,1809.951,2628.833z"/>
	<path fill="#787473" d="M1935.508,2648.955c-6.611-2.397-12.334-4.507-12.334-4.507c-0.293,0-2.695-4.81-5.391-10.508
		c-9.004-18.628-3.32-26.133,27.344-36.045c21.914-6.914,28.516-13.218,22.217-20.737c-5.117-6.001-26.133-6.299-36.348-0.298
		c-10.215,6.016-14.111,5.405-18.037-1.499c-2.979-5.4-1.797-6.899,9.619-12.007c23.145-10.527,54.385-6.021,62.5,8.701
		c4.492,8.711,3.594,23.135-1.826,27.637c-2.695,2.397-14.404,7.515-26.123,11.714c-17.422,6.016-21.914,9.009-22.539,14.116
		c-1.494,11.128,11.738,15.317,28.838,9.316c9.912-3.608,15.029-4.209,17.725-1.797c5.723,4.805,4.824,7.798-4.189,12.305
		C1963.427,2652.265,1948.427,2653.462,1935.508,2648.955z"/>
	<path fill="#787473" d="M2034.638,2650.454c-19.834-4.507-32.764-18.911-36.064-40.547c-2.383-15.317,7.822-36.338,22.227-45.654
		c26.738-18.027,66.084,0.298,71.504,33.032C2097.402,2629.433,2066.474,2657.969,2034.638,2650.454z M2057.158,2630.932
		c24.609-12.607,15.312-55.571-12.012-55.571c-29.736,0-35.752,45.654-7.51,57.378
		C2046.045,2636.04,2047.539,2636.04,2057.158,2630.932z"/>
	<path fill="#787473" d="M2153.281,2651.352c-4.219-0.898-12.012-4.795-17.129-8.701l-9.912-7.515v7.515
		c0,6.606-1.494,7.803-9.004,7.803h-9.023v-46.855v-46.562l9.922,0.908l9.6,0.898l0.898,30.64
		c0.898,29.136,1.201,30.933,8.721,36.938c10.811,8.418,24.941,7.217,30.029-2.998c2.402-4.507,3.916-19.224,3.916-36.65v-29.438
		h9.023h8.994v37.856c0,21.323-1.504,40.249-3.301,43.853c-2.695,4.805-21.318,15.62-24.316,14.121
		C2161.103,2652.866,2157.48,2651.963,2153.281,2651.352z"/>
	<path fill="#787473" d="M2227.158,2648.056c-15.596-5.405-18.33-8.418-14.111-15.317c2.402-3.608,4.502-3.306,15.01,0.898
		c6.924,2.7,15.039,4.81,18.037,4.81c7.803,0,17.715-9.014,19.814-18.33l1.797-7.5l-17.695,1.196
		c-28.545,2.1-45.664-9.614-45.664-30.635c0-3.911,3.887-11.421,8.701-16.528c11.416-12.012,30.049-12.905,45.967-2.1l10.518,6.909
		l2.695-6.309c1.504-3.608,5.996-6.606,11.113-7.207c7.217-0.908,8.115,0,8.115,8.105c0,4.81-1.201,9.912-2.998,10.811
		c-1.514,0.898-3.018,12.622-3.018,25.84c0,15.024-1.494,27.031-4.492,32.437
		C2273.427,2650.156,2249.707,2655.864,2227.158,2648.056z M2262.617,2600.591c7.51-2.993,5.693-15.015-2.998-21.924
		c-10.811-8.408-26.436-8.408-32.461,0.303c-5.996,8.716-5.996,10.215,1.201,17.412
		C2234.375,2602.402,2252.412,2604.502,2262.617,2600.591z"/>
	<path fill="#787473" d="M1853.496,2604.8l0.898-45.957h9.014h9.004l1.504,30.039c0.898,16.519,2.715,31.836,3.916,33.643
		c1.201,2.1,7.793,5.41,14.111,7.207c10.215,3.311,12.012,4.81,12.012,12.319c0,6.904-1.191,8.403-7.188,8.403
		c-3.926,0-11.436-3.896-16.533-8.706l-9.316-8.706v8.706c0,7.808-1.191,8.706-9.004,8.706h-9.316L1853.496,2604.8z"/>
	<path fill="#787473" d="M1675.674,2504.482c-50.161-21.636-49.565-95.537,0.596-116.865c15.039-6.016,25.84-5.703,39.951,1.504
		c6.621,3.32,12.314,6.016,12.617,6.016c0.615,0,0.898-2.695,0.898-6.016c0-4.805,2.119-5.996,9.004-5.996h9.014v31.533v31.548
		h-21.016c-20.43,0-21.035-0.298-21.035-7.515c0-6.606,1.201-7.505,12.021-7.505c10.811,0,12.012-0.913,12.012-7.212
		c0-4.814-3.301-9.619-8.994-13.818c-32.461-23.125-69.082,6.611-59.482,48.657c3.301,15.317,11.709,24.932,25.225,29.438
		c12.91,4.502,29.434-0.596,36.055-10.811c3.896-5.708,5.996-6.606,10.811-3.911c13.809,7.52,7.822,20.127-14.131,30.039
		C1704.805,2510.185,1689.785,2510.488,1675.674,2504.482z"/>
	<path fill="#787473" d="M1787.998,2473.232c-9.902-3.911-24.316-22.524-26.406-34.243c-5.127-26.724,13.506-52.563,39.639-55.259
		c18.633-1.816,34.531,3.594,42.949,13.809l6.016,8.105l-7.51,2.402c-6.025,2.109-9.619,1.211-15.635-3.594
		c-4.482-3.613-12.305-6.309-17.695-6.309c-11.436,0-25.537,9.902-25.537,18.008c0,5.43,2.988,6.016,35.449,6.621l35.127,0.898
		l-0.596,11.719c-0.898,15.02-10.518,30.039-23.135,36.04C1819.863,2476.538,1798.535,2477.441,1787.998,2473.232z
		 M1821.367,2459.414c4.18-1.797,13.496-15.918,13.496-20.723c0-0.898-12.002-1.499-27.031-1.499
		c-14.717,0-27.012,1.196-27.012,2.695c0,1.514,3.584,6.919,7.783,12.021C1796.416,2461.225,1809.053,2464.223,1821.367,2459.414z"
		/>
	<path fill="#787473" d="M1869.424,2472.632c-0.898-2.397-1.191-23.135-0.898-45.952l0.898-42.051l9.912-0.898l9.609-0.898v28.535
		c0,26.123,0.605,29.121,7.822,37.534c5.693,6.914,10.215,9.312,17.998,9.312c14.131,0,16.23-6.006,16.23-43.252v-31.836h10.811
		h10.82l-0.908,38.75c-1.191,36.641-1.494,39.351-8.711,46.851c-6.592,7.217-9.316,7.812-23.428,6.914
		c-10.801-0.908-17.725-3.306-22.812-8.11l-7.217-6.904l-1.201,7.207c-0.605,5.098-3.018,7.197-9.316,7.808
		C1874.219,2476.24,1870.312,2475.029,1869.424,2472.632z"/>
	<path fill="#787473" d="M1987.773,2469.321c-38.75-25.825-20.43-86.196,25.811-86.196c18.936,0,33.359,8.398,41.475,24.023
		c6.895,13.516,5.391,39.058-3.018,50.469C2038.535,2476.24,2006.689,2482.246,1987.773,2469.321z M2034.336,2447.7
		c7.49-11.108,5.986-29.136-2.715-38.755c-10.215-11.113-28.545-11.113-37.266,0c-6.885,8.721-8.379,27.646-2.988,37.563
		C1999.472,2461.821,2024.726,2462.422,2034.336,2447.7z"/>
	<path fill="#787473" d="M2076.386,2472.334c-0.605-2.1-0.898-22.837-0.605-45.654l0.908-42.051l9.902-0.898l9.609-0.898v30.332
		c0,28.237,0.605,30.933,7.52,37.544c9.014,9.307,24.014,10.215,28.535,1.802c1.494-3.311,2.998-20.127,2.998-37.549v-31.836h10.518
		h10.508v30.039c0,28.237,0.605,30.933,7.52,37.544c8.408,8.706,21.621,9.917,27.334,2.397c2.695-3.608,3.896-15.615,4.199-37.852
		v-32.422l9.912,0.898l9.609,0.898l0.898,25.527c1.797,48.96-5.391,66.084-27.939,66.084c-12.607,0-27.012-6.616-29.736-13.516
		c-1.494-4.209-3.291-3.311-9.609,4.204c-10.215,12.31-27.939,12.92-44.443,1.797l-10.82-7.202v7.202
		c0,6.006-1.514,7.515-7.51,7.515C2081.474,2476.24,2077.285,2474.428,2076.386,2472.334z"/>
	<path fill="#787473" d="M2252.998,2470.234c-14.102-8.711-21.621-22.827-21.621-40.566c0-27.617,18.633-46.543,45.947-46.543
		c15.332,0,23.438,3.008,34.551,12.91c8.418,7.822,8.418,9.902-1.201,12.324c-5.117,1.494-9.912,0-15.332-4.199
		c-10.801-8.418-26.416-7.822-35.43,1.484c-14.717,14.414-11.396,16.523,28.848,16.523h36.631l-1.797,13.813
		c-0.605,7.817-3.906,17.427-7.217,21.934C2303.164,2475.639,2272.226,2481.948,2252.998,2470.234z M2295.947,2453.706
		c13.828-13.516,10.508-16.514-17.998-16.514c-21.055,0-25.537,0.898-25.537,4.507c0,9.009,14.102,19.526,25.537,19.526
		C2285.439,2461.225,2291.162,2458.813,2295.947,2453.706z"/>
	<path fill="#787473" d="M1915.986,2326.054c0-12.305,0.293-12.305,9.912-11.406c8.691,0.898,9.609,1.797,9.609,11.406
		c0,9.59-0.918,10.488-9.609,11.387C1916.279,2338.34,1915.986,2338.34,1915.986,2326.054z"/>
	<path fill="#787473" d="M1645.644,2270.488v-61.582h10.498h10.518v21.016v21.035h15.938c33.623,0,49.551,11.113,52.256,37.246
		c1.797,14.707-3.896,27.949-15.938,37.559c-6.895,5.391-12.012,6.289-40.537,6.289h-32.734V2270.488z M1709.922,2307.422
		c5.996-8.418,5.996-23.125,0.283-30.938c-3.604-4.199-9.287-5.996-24.014-6.895l-19.531-1.23v22.832v22.852h19.229
		C1702.705,2314.043,1706.006,2313.144,1709.922,2307.422z"/>
	<path fill="#787473" d="M2170.703,2329.648c-7.803-0.898-8.408-2.09-8.408-14.414c0-11.113-0.898-13.223-6.016-13.223
		c-4.795,0-6.016-2.109-6.016-9.023c0-6.895,1.221-8.984,6.016-8.984c5.723,0,6.016-2.109,6.016-32.441
		c0-38.457,2.402-42.656,24.316-42.656c17.139,0,21.924,3.301,19.834,12.617c-1.797,6.309-3.301,7.207-11.416,6.016
		c-12.607-1.836-14.707,2.09-14.707,31.816v24.648h10.811c9.912,0,10.518,0.605,9.619,8.398c-0.605,6.602-2.422,8.418-10.518,9.004
		c-9.316,0.898-9.619,1.504-10.537,15.039C2178.799,2329.961,2178.496,2330.547,2170.703,2329.648z"/>
	<path fill="#787473" d="M1750.771,2255.761v-46.855h9.014h8.994l0.303,21.914c0.322,11.719,0.322,24.336,0,27.93
		c-0.576,8.125,12.637,21.055,23.74,23.457c7.51,1.484,9.014,2.988,9.014,10.781c0,6.621-1.504,9.023-5.117,9.023
		c-7.197,0-24.922-11.113-25.215-15.605c-0.303-2.109-1.201,0.293-2.422,5.098c-1.504,6.914-3.594,9.316-10.215,9.902l-8.096,0.898
		V2255.761z"/>
	<path fill="#787473" d="M1833.066,2297.812c-25.84-11.719-35.146-49.57-17.715-72.109c14.121-18.594,45.059-22.812,65.176-9.277
		c20.137,13.496,26.152,45.645,12.021,64.277C1878.73,2299.316,1852.9,2306.836,1833.066,2297.812z M1868.828,2277.988
		c16.201-12.91,12.002-43.262-6.611-51.055c-21.631-8.711-41.152,13.516-33.35,37.539
		C1835.166,2283.398,1853.799,2289.687,1868.828,2277.988z"/>
	<path fill="#787473" d="M1915.986,2253.359c0-56.172-1.826-61.562-17.422-58.574c-7.822,1.504-9.619,0.898-11.416-4.512
		c-4.219-13.809,21.328-19.824,35.732-8.105c12.012,9.316,14.434,23.105,13.535,73.281l-0.908,45.059l-9.609,0.898l-9.912,0.898
		V2253.359z"/>
	<path fill="#787473" d="M1975.459,2295.722c-13.828-7.227-23.438-24.629-23.438-42.656c0-40.859,52.568-60.371,82.314-30.645
		c6.592,6.914,5.986,9.609-3.018,11.699c-5.4,1.523-9.014,0.605-11.416-2.383c-8.711-11.719-33.33-10.82-42.344,1.797
		c-9.316,13.496-6.914,14.395,31.533,14.395h36.055v11.426C2045.146,2291.504,2006.094,2311.933,1975.459,2295.722z
		 M2016.611,2279.511c13.809-13.535,10.508-16.543-18.33-16.543c-22.217,0-25.537,0.605-24.023,4.805
		c0.898,2.715,1.807,6.016,1.807,7.207c0,4.531,15.605,11.719,24.912,12.012C2006.094,2286.992,2012.392,2284.004,2016.611,2279.511
		z"/>
	<path fill="#787473" d="M2077.881,2296.015c-12.314-6.621-23.721-26.133-23.721-40.859c0-13.223,12.012-34.844,23.428-41.152
		c13.203-7.832,36.943-7.207,49.854,0.898c9.307,5.41,15.625,14.121,12.91,16.836c-2.998,2.988-20.117,4.512-20.117,1.797
		c0-1.504-3.896-4.512-9.023-6.602c-26.123-10.82-47.441,24.922-28.213,47.754c9.307,11.113,23.721,12.617,34.531,3.594
		c5.42-4.492,8.711-5.098,15.322-2.695c10.215,3.613,10.518,5.41,1.797,13.809
		C2119.931,2302.91,2096.201,2305.625,2077.881,2296.015z"/>
</g>
</svg>
