<?xml version="1.0" encoding="utf-8"?>
<!-- Generator: Adobe Illustrator 16.0.0, SVG Export Plug-In . SVG Version: 6.00 Build 0)  -->
<!DOCTYPE svg PUBLIC "-//W3C//DTD SVG 1.1//EN" "http://www.w3.org/Graphics/SVG/1.1/DTD/svg11.dtd">
<svg version="1.1" id="Layer_1" xmlns="http://www.w3.org/2000/svg" xmlns:xlink="http://www.w3.org/1999/xlink" x="0px" y="0px"
	 width="326px" height="112px" viewBox="0 0 326 112" enable-background="new 0 0 326 112" xml:space="preserve">
<rect id="background" opacity="0" fill="#787473" width="326" height="112"/>
<g>
	<path fill-rule="evenodd" clip-rule="evenodd" fill="#787473" d="M74.2,34.022c-2.302-0.753-3.974-3.042-3.768-4.855
		c0.387-3.4,2.586-4.633,4.623-4.764c2.428-0.155,4.408,1.424,4.978,3.72c0.593,2.388-0.637,4.821-3.458,5.882
		c11.434,1.718,17.874,8.29,19.504,19.769c0.466-2.005,1.658-3.214,3.523-3.736c1.387-0.389,2.722-0.123,3.87,0.671
		c2.542,1.761,2.799,4.842,1.188,6.939c-1.24,1.614-2.977,2.3-4.915,1.859c-1.845-0.42-3.156-1.669-3.669-3.698
		c-1.664,11.38-8.026,17.88-19.306,19.655c0.074,0.067,0.16,0.201,0.279,0.244c1.536,0.574,2.442,1.742,2.961,3.225
		c0.603,1.718-0.302,4.155-1.837,5.202c-0.801,0.545-1.657,0.978-2.623,0.984c-1.606,0.013-2.96-0.602-4.006-1.86
		c-0.972-1.172-1.261-2.547-0.985-3.973c0.306-1.574,1.255-2.753,2.742-3.452c0.183-0.087,0.342-0.225,0.512-0.336
		c-0.221-0.099-0.438-0.266-0.664-0.279c-2.381-0.145-4.583-0.886-6.725-1.891c-2.445-1.148-4.519-2.771-6.342-4.743
		c-2.049-2.218-3.553-4.756-4.387-7.652c-0.402-1.395-0.6-2.846-0.901-4.268c-0.028-0.137-0.137-0.255-0.208-0.383
		c-0.084,0.102-0.196,0.189-0.248,0.305c-0.694,1.521-1.872,2.492-3.454,2.946c-1.708,0.49-3.948-0.478-4.953-1.979
		c-0.487-0.727-0.827-1.466-0.898-2.337c-0.162-1.976,0.744-3.938,2.807-4.868c0.979-0.442,1.982-0.642,3.07-0.338
		c1.465,0.409,2.561,1.227,3.25,2.592c0.113,0.222,0.306,0.404,0.462,0.604c0.079-0.229,0.184-0.453,0.232-0.689
		c0.293-1.425,0.434-2.898,0.888-4.27c0.838-2.532,2.143-4.836,3.896-6.874c2.114-2.457,4.644-4.35,7.635-5.592
		c1.015-0.422,2.078-0.758,3.146-1.021c1.079-0.265,2.193-0.39,3.291-0.582C73.827,34.162,73.934,34.11,74.2,34.022z M71.582,54.771
		c-0.309-0.174-0.504-0.267-0.682-0.387c-0.789-0.532-1.667-0.975-2.337-1.629c-1.598-1.558-2.648-3.442-2.931-5.702
		c-0.015-0.12-0.271-0.311-0.396-0.297c-0.535,0.058-1.092,0.101-1.586,0.292c-1.555,0.603-2.912,1.475-3.918,2.869
		c-1.52,2.104-2.027,4.42-1.368,6.9c0.467,1.756,1.428,3.277,2.95,4.375c1.159,0.836,2.41,1.421,3.855,1.554
		c0.349,0.033,0.441-0.048,0.482-0.398c0.182-1.571,0.801-2.979,1.731-4.245C68.438,56.662,69.794,55.572,71.582,54.771z
		 M83.34,45.018c-0.191-2.786-1.512-4.834-3.77-6.269c-2.686-1.706-6.206-1.607-8.806,0.185c-2.112,1.456-3.265,3.488-3.512,6.09
		c0.229,0.018,0.338,0.027,0.448,0.034c0.131,0.008,0.268-0.006,0.394,0.024c3.055,0.754,5.414,2.419,6.879,5.258
		c0.076,0.148,0.228,0.257,0.344,0.384c0.12-0.128,0.288-0.234,0.354-0.385c0.52-1.188,1.343-2.175,2.301-2.99
		C79.47,46.076,81.201,45.207,83.34,45.018z M85.096,62.761c0.325-0.02,0.669,0.013,0.985-0.066c1.668-0.421,3.143-1.184,4.32-2.479
		c1.114-1.225,1.829-2.654,2.037-4.275c0.281-2.178-0.164-4.22-1.506-6.012c-1.241-1.657-2.908-2.677-4.902-3.138
		c-0.917-0.211-0.981-0.107-1.098,0.854c-0.006,0.056-0.005,0.114-0.02,0.168c-0.538,2.033-1.496,3.823-3.144,5.167
		c-0.814,0.663-1.709,1.227-2.586,1.849C82.515,56.379,84.502,59.014,85.096,62.761z M75.303,58.501
		c-1.687,3.501-4.3,5.501-7.991,6.023c0.029,2.318,1.531,5.153,4.251,6.503c3.066,1.521,6.081,1.256,8.804-0.853
		c1.817-1.406,2.836-3.311,2.965-5.668C79.538,63.979,76.966,61.898,75.303,58.501z M78.593,73.23
		c0.029,0.051,0.058,0.102,0.086,0.154c5.412-1.053,9.622-3.913,12.647-8.537c1.383-2.114,2.71-5.753,2.373-6.574
		c-0.078,0.164-0.138,0.293-0.199,0.422c-1.592,3.337-4.156,5.359-7.868,5.856c-0.175,0.023-0.398,0.26-0.458,0.442
		c-0.159,0.495-0.222,1.021-0.358,1.521c-0.755,2.782-2.475,4.785-4.99,6.136C79.426,72.867,79.004,73.039,78.593,73.23z
		 M71.578,36.41c-2.127-0.06-6.777,1.895-10.077,5.384c-2.353,2.486-5.038,7.923-4.661,9.583c0.017-0.001,0.044,0.004,0.051-0.005
		c0.028-0.046,0.057-0.094,0.076-0.145c0.734-1.891,1.932-3.418,3.591-4.589c1.325-0.934,2.782-1.5,4.39-1.711
		c0.211-0.028,0.49-0.251,0.564-0.45c0.135-0.359,0.113-0.772,0.204-1.152c0.687-2.89,2.386-5.001,4.97-6.428
		C70.982,36.732,71.281,36.572,71.578,36.41z M93.801,51.316c-0.837-4.771-3.178-8.616-6.966-11.567
		c-2.301-1.792-4.885-2.967-7.789-3.537c0.015,0.138,0.007,0.196,0.025,0.205c0.294,0.159,0.599,0.298,0.887,0.465
		c2.777,1.618,4.585,3.924,5.093,7.16c0.134,0.852,0.188,0.845,0.956,0.967c0.661,0.105,1.339,0.229,1.954,0.481
		c2.619,1.072,4.526,2.894,5.627,5.525C93.635,51.126,93.729,51.216,93.801,51.316z M71.485,73.276
		c0.027-0.054,0.054-0.105,0.081-0.16c-0.095-0.072-0.181-0.167-0.288-0.215c-1.156-0.528-2.189-1.232-3.062-2.159
		c-1.507-1.601-2.494-3.456-2.67-5.678c-0.03-0.387-0.257-0.468-0.538-0.526c-0.401-0.084-0.81-0.132-1.21-0.222
		c-2.23-0.509-4.031-1.712-5.395-3.522c-0.619-0.821-1.08-1.763-1.612-2.647c0.572,3.547,2.102,6.64,4.526,9.298
		C64.087,70.479,67.472,72.438,71.485,73.276z M72.128,80.203c-0.076,1.831,1.372,3.232,3.106,3.258
		c1.921,0.029,3.212-1.28,3.302-3.133c0.085-1.777-1.374-3.257-3.067-3.319C73.623,76.94,72.022,78.508,72.128,80.203z
		 M72.127,29.213c-0.164,1.652,1.441,3.296,3.167,3.277c1.794-0.021,3.247-1.451,3.256-3.211c0.008-1.81-1.479-3.259-3.341-3.253
		C73.529,26.03,72.131,27.476,72.127,29.213z M46.67,54.749c-0.143,1.722,1.536,3.26,3.2,3.217c1.763-0.047,3.215-1.404,3.195-3.205
		c-0.022-1.893-1.367-3.242-3.208-3.242C48.104,51.52,46.61,52.85,46.67,54.749z M97.591,54.793
		c-0.137,1.465,1.386,3.213,3.249,3.168c1.72-0.043,3.195-1.489,3.19-3.198c-0.004-1.722-1.55-3.324-3.222-3.261
		C98.979,51.571,97.576,52.925,97.591,54.793z M67.617,62.842c0.147-0.029,0.297-0.051,0.441-0.092
		c1.433-0.395,2.75-1.018,3.826-2.065c1.297-1.267,2.087-2.816,2.462-4.581c0.069-0.326-0.064-0.449-0.41-0.373
		c-2.023,0.445-3.733,1.388-5.038,3.04c-0.842,1.064-1.349,2.269-1.654,3.571C67.172,62.646,67.208,62.881,67.617,62.842z
		 M83.352,46.7c-3.861,0.205-7.062,4.204-6.936,7.035C80.302,53.387,83.279,49.688,83.352,46.7z M76.204,55.684
		c0.137,0.576,0.205,0.98,0.332,1.364c0.481,1.471,1.265,2.761,2.422,3.801c1.126,1.01,2.438,1.663,3.932,1.944
		c0.407,0.077,0.61-0.05,0.475-0.47c-0.253-0.784-0.438-1.612-0.828-2.325c-1.062-1.949-2.676-3.3-4.804-3.988
		C77.265,55.857,76.767,55.801,76.204,55.684z M74.317,53.82c-0.023-0.287-0.015-0.483-0.058-0.667
		c-0.353-1.549-1.013-2.949-2.143-4.08c-1.234-1.234-2.687-2.084-4.441-2.368c-0.384-0.062-0.502,0.067-0.423,0.412
		c0.091,0.4,0.177,0.806,0.32,1.188C68.726,51.389,70.996,53.129,74.317,53.82z"/>
	<path fill-rule="evenodd" clip-rule="evenodd" fill="#787473" d="M112.236,70.21c0,3.956,0,7.751,0,11.62
		c-0.945,0-1.899,0.007-2.854-0.003c-0.419-0.006-0.323-0.338-0.324-0.586c-0.003-3.431-0.002-6.862-0.002-10.293
		c0-1.957,0-3.915,0-5.926c0.186-0.021,0.346-0.05,0.507-0.05c1.132-0.006,2.263,0.01,3.394-0.011
		c0.312-0.006,0.477,0.079,0.577,0.381c0.598,1.787,1.206,3.57,1.819,5.352c0.449,1.308,0.913,2.608,1.367,3.913
		c0.195,0.562,0.375,1.13,0.567,1.693c0.076,0.22,0.167,0.435,0.251,0.65c0.049,0,0.099,0.001,0.149,0.002
		c0.303-0.849,0.612-1.697,0.909-2.55c0.553-1.587,1.105-3.176,1.648-4.766c0.458-1.345,0.918-2.687,1.342-4.041
		c0.144-0.457,0.332-0.662,0.854-0.642c1.238,0.047,2.477,0.016,3.767,0.016c0,1.584,0,3.106,0,4.627
		c-0.002,3.884-0.014,7.767,0.007,11.65c0.003,0.496-0.161,0.608-0.611,0.591c-0.771-0.028-1.545,0.008-2.315-0.022
		c-0.134-0.006-0.369-0.199-0.371-0.308c-0.012-0.771,0.033-1.54,0.043-2.312c0.035-2.672,0.063-5.345,0.093-8.017
		c0.002-0.278,0-0.558,0-0.838c-0.053-0.015-0.104-0.031-0.157-0.046c-0.157,0.372-0.334,0.739-0.468,1.119
		c-0.722,2.06-1.436,4.12-2.146,6.183c-0.444,1.288-0.867,2.583-1.326,3.863c-0.057,0.155-0.282,0.342-0.441,0.352
		c-0.6,0.042-1.206,0.038-1.807,0.004c-0.157-0.008-0.394-0.157-0.442-0.296c-1.231-3.539-2.44-7.088-3.661-10.632
		C112.538,70.688,112.401,70.51,112.236,70.21z"/>
	<path fill-rule="evenodd" clip-rule="evenodd" fill="#787473" d="M186.525,60.787c0,1.907,0,3.702,0,5.562
		c-1.021,0-1.976-0.001-2.93,0.001c-0.398,0.002-0.317-0.284-0.317-0.521c-0.003-2.221-0.008-4.443-0.007-6.666
		c0-3.616,0.011-7.232-0.001-10.848c-0.003-0.448,0.129-0.603,0.58-0.581c0.638,0.033,1.282,0.027,1.92-0.005
		c0.499-0.026,0.828,0.059,0.72,0.665c-0.017,0.087,0.024,0.184,0.045,0.315c4.697-2.348,8.619-1.682,10.983,3.268
		c1.265,2.65,0.736,5.386-1.205,7.698c-0.776,0.923-1.737,1.607-2.892,2.054c-1.158,0.446-2.328,0.473-3.528,0.395
		C188.672,62.044,187.618,61.515,186.525,60.787z M194.731,54.754c0.045-2.4-1.964-4.119-4.239-4.081
		c-2.278,0.039-3.931,1.807-3.881,4.211c0.052,2.421,1.843,4.05,4.027,4.078C192.851,58.989,194.833,57.002,194.731,54.754z"/>
	<path fill-rule="evenodd" clip-rule="evenodd" fill="#787473" d="M211.211,49.136c0-0.425,0-0.835,0-1.298
		c0.178-0.037,0.334-0.096,0.492-0.099c0.734-0.009,1.469,0.008,2.204-0.008c0.318-0.006,0.455,0.112,0.424,0.428
		c-0.006,0.075-0.001,0.151-0.001,0.226c0,4.299-0.005,8.597,0.009,12.896c0.002,0.438-0.059,0.662-0.579,0.604
		c-0.52-0.056-1.053-0.01-1.579-0.01c-0.944,0-0.943-0.001-0.964-0.913c-0.003-0.131-0.02-0.259-0.04-0.386
		c-0.005-0.026-0.057-0.044-0.118-0.089c-0.072,0.057-0.167,0.11-0.232,0.188c-0.873,0.992-2.013,1.366-3.289,1.444
		c-1.622,0.098-3.167-0.117-4.561-1.024c-2.128-1.385-3.324-3.333-3.441-5.874c-0.133-2.93,1.01-5.263,3.515-6.831
		c1.599-1,3.372-1.148,5.205-0.793c1.045,0.203,1.945,0.643,2.624,1.484c0.032,0.039,0.089,0.064,0.14,0.08
		C211.051,49.172,211.09,49.154,211.211,49.136z M210.855,54.774c0.048-2.08-1.845-4.065-3.914-4.107
		c-2.195-0.046-4.063,1.732-4.124,3.924c-0.062,2.309,1.786,4.25,4.093,4.279C208.881,58.896,210.926,57.027,210.855,54.774z"/>
	<path fill-rule="evenodd" clip-rule="evenodd" fill="#787473" d="M132.494,49.281c0-0.365,0.02-0.648-0.004-0.927
		c-0.039-0.438,0.076-0.659,0.58-0.629c0.695,0.041,1.394,0.021,2.089,0.004c0.348-0.008,0.509,0.079,0.509,0.47
		c-0.011,4.43-0.008,8.86-0.003,13.291c0,0.275-0.062,0.408-0.383,0.396c-0.733-0.026-1.467-0.02-2.202-0.009
		c-0.381,0.006-0.546-0.145-0.527-0.534c0.015-0.283-0.021-0.569-0.034-0.854c-0.106-0.071-0.212-0.142-0.318-0.213
		c-0.142,0.252-0.24,0.544-0.433,0.747c-0.623,0.652-1.458,0.933-2.312,1.044c-2.51,0.325-4.782-0.228-6.599-2.091
		c-2.7-2.765-2.632-7.358-0.275-10.082c1.77-2.046,4.011-2.689,6.57-2.403c1.183,0.132,2.293,0.597,3.059,1.618
		C132.249,49.161,132.327,49.183,132.494,49.281z M124.118,54.678c-0.012,2.306,1.842,4.197,4.103,4.188
		c2.093-0.008,3.98-1.909,3.964-4.029c-0.02-2.348-1.976-4.168-3.969-4.172C125.982,50.66,124.129,52.469,124.118,54.678z"/>
	<path fill-rule="evenodd" clip-rule="evenodd" fill="#787473" d="M109.082,52.542c0-2.956,0.001-5.913-0.002-8.87
		c0-0.339,0.097-0.514,0.489-0.5c2.293,0.085,4.595,0.056,6.877,0.255c1.706,0.149,2.848,1.3,3.524,2.815
		c0.962,2.158,0.846,4.29-0.602,6.208c-0.981,1.3-2.393,1.949-4.006,2.114c-0.672,0.069-1.354,0.09-2.029,0.071
		c-0.463-0.012-0.626,0.124-0.621,0.599c0.021,1.941,0.008,3.882,0.011,5.821c0.002,0.761,0.007,0.767-0.737,0.784
		c-0.771,0.017-1.543,0.002-2.314,0.039c-0.449,0.022-0.585-0.128-0.583-0.582c0.019-2.918,0.01-5.837,0.01-8.755
		C109.094,52.542,109.087,52.542,109.082,52.542z M112.72,48.982c0.001,0,0.003,0,0.005,0c0,0.696-0.021,1.394,0.016,2.087
		c0.009,0.16,0.224,0.447,0.328,0.44c0.761-0.048,1.552-0.049,2.269-0.27c1.027-0.317,1.501-1.185,1.513-2.22
		c0.011-0.967-0.325-1.877-1.324-2.205c-0.73-0.239-1.542-0.23-2.314-0.343c-0.386-0.056-0.501,0.125-0.496,0.479
		C112.727,47.628,112.72,48.306,112.72,48.982z"/>
	<path fill-rule="evenodd" clip-rule="evenodd" fill="#787473" d="M153.657,70.046c0-1.783,0-3.403,0-5.048c0.987,0,1.906,0,2.87,0
		c0,5.581,0,11.166,0,16.8c-0.92,0-1.849,0-2.797,0c-0.047-0.27-0.091-0.521-0.15-0.847c-1.49,1.046-3.091,1.448-4.837,1.17
		c-1.415-0.227-2.667-0.844-3.608-1.914c-2.229-2.535-2.398-5.755-0.836-8.331c0.968-1.599,2.384-2.658,4.242-2.972
		C150.321,68.605,152.05,68.811,153.657,70.046z M146.388,75.534c0.002,2.183,1.652,3.791,3.944,3.69
		c1.798-0.08,3.26-1.545,3.254-3.722c-0.006-2.189-1.586-3.779-3.601-3.755C147.999,71.773,146.386,73.451,146.388,75.534z"/>
	<path fill-rule="evenodd" clip-rule="evenodd" fill="#787473" d="M239.06,54.73c0.185,3.995-3.087,7.497-7.355,7.476
		c-4.283-0.022-7.283-3.456-7.304-7.458c-0.021-4.205,3.274-7.376,7.315-7.406C235.949,47.311,239.213,50.845,239.06,54.73z
		 M227.754,54.746c0.001,1.953,0.949,3.694,3.245,4.17c1.391,0.287,3.135-0.327,3.932-1.518c0.828-1.236,1.048-2.579,0.636-4.024
		c-0.617-2.167-2.72-3.247-4.815-2.707C228.752,51.182,227.751,52.662,227.754,54.746z"/>
	<path fill-rule="evenodd" clip-rule="evenodd" fill="#787473" d="M199.467,76.413c0.046,1.362,0.915,2.435,2.221,2.785
		c1.215,0.326,2.416,0.228,3.475-0.567c0.104-0.079,0.242-0.15,0.295-0.258c0.304-0.631,0.846-0.618,1.428-0.593
		c0.693,0.028,1.387,0.007,2.293,0.007c-0.485,0.785-0.838,1.481-1.306,2.091c-1.417,1.842-3.945,2.68-6.311,2.158
		c-2.53-0.558-4.133-2.155-4.879-4.492c-1.128-3.531,0.61-7.286,4.323-8.526c3.599-1.202,7.347,1.189,8.188,4.442
		c0.202,0.771,0.232,1.588,0.338,2.384c0.057,0.438-0.126,0.582-0.579,0.579c-2.903-0.019-5.808-0.01-8.71-0.01
		C199.984,76.413,199.727,76.413,199.467,76.413z M199.584,73.925c0.154,0.039,0.257,0.088,0.361,0.088
		c1.956,0.003,3.913-0.001,5.871,0c0.425,0,0.467-0.167,0.295-0.531c-0.85-1.788-2.441-2.271-4.135-1.899
		C200.791,71.842,199.975,72.678,199.584,73.925z"/>
	<path fill-rule="evenodd" clip-rule="evenodd" fill="#787473" d="M131.225,76.446c0.226,1.691,1.23,2.633,2.885,2.847
		c1.416,0.182,2.591-0.177,3.479-1.335c0.06-0.078,0.17-0.166,0.259-0.167c0.973-0.01,1.948-0.006,3-0.006
		c-0.417,1.207-1.055,2.164-1.957,2.916c-2.803,2.342-7.031,1.937-9.314-1.049c-1.067-1.397-1.523-2.988-1.365-4.743
		c0.28-3.096,1.983-5.108,4.891-5.983c2.153-0.646,4.158-0.035,5.878,1.402c1.708,1.429,2.334,3.34,2.363,5.505
		c0.006,0.434-0.128,0.591-0.582,0.589c-2.96-0.016-5.921-0.009-8.88-0.007C131.664,76.416,131.444,76.437,131.225,76.446z
		 M131.427,73.937c0.12,0.023,0.243,0.068,0.367,0.068c1.94,0.009,3.88,0.012,5.82,0.012c0.41,0,0.47-0.15,0.287-0.528
		c-0.873-1.806-2.411-2.242-4.134-1.913C132.715,71.775,131.538,72.898,131.427,73.937z"/>
	<path fill-rule="evenodd" clip-rule="evenodd" fill="#787473" d="M174.928,56.65c0.118,2.216-3.095,5.222-5.583,5.48
		c-5.404,0.562-8.118-3.069-8.576-6.149c-0.731-4.906,2.84-8.008,5.955-8.506c5.03-0.805,7.827,2.575,8.282,5.238
		c-1.096,0-2.182,0.02-3.265-0.021c-0.158-0.007-0.344-0.271-0.453-0.454c-1.226-2.044-4.577-2.324-6.225-0.429
		c-1.741,2.002-1.363,5.796,1.474,6.88c1.756,0.672,4.111,0.161,4.896-1.728c0.059-0.145,0.304-0.295,0.465-0.299
		C172.894,56.637,173.89,56.65,174.928,56.65z"/>
	<path fill-rule="evenodd" clip-rule="evenodd" fill="#787473" d="M262.293,47.743c-0.389,0.969-0.729,1.831-1.077,2.689
		c-1.098,2.708-2.197,5.416-3.303,8.121c-0.831,2.03-1.675,4.057-2.51,6.087c-0.183,0.445-0.331,0.91-0.537,1.345
		c-0.074,0.153-0.271,0.346-0.419,0.349c-0.995,0.031-1.993,0.018-3.059,0.018c0.621-1.557,1.229-3.055,1.811-4.562
		c0.08-0.207,0.103-0.491,0.029-0.694c-0.667-1.831-1.363-3.653-2.048-5.479c-0.778-2.073-1.555-4.147-2.331-6.222
		c-0.149-0.4-0.295-0.801-0.439-1.202c-0.114-0.306-0.037-0.464,0.32-0.46c0.828,0.009,1.657,0.024,2.485-0.006
		c0.406-0.015,0.575,0.187,0.688,0.517c0.554,1.6,1.112,3.196,1.661,4.794c0.443,1.287,0.873,2.577,1.315,3.863
		c0.044,0.123,0.145,0.224,0.219,0.335c0.111-0.106,0.276-0.193,0.325-0.322c0.988-2.55,1.963-5.104,2.939-7.658
		c0.025-0.07,0.035-0.146,0.058-0.217c0.406-1.301,0.406-1.3,1.75-1.296C260.829,47.744,261.484,47.743,262.293,47.743z"/>
	<path fill-rule="evenodd" clip-rule="evenodd" fill="#787473" d="M186.093,69.053c0,0.453,0,0.841,0,1.31
		c0.149-0.084,0.237-0.108,0.287-0.167c1.068-1.234,2.46-1.537,3.988-1.313c1.641,0.241,2.903,1.111,3.497,2.668
		c0.341,0.89,0.504,1.891,0.535,2.848c0.071,2.317,0.011,4.638,0.026,6.957c0.003,0.388-0.138,0.491-0.491,0.481
		c-0.658-0.017-1.319-0.026-1.979,0.002c-0.392,0.018-0.529-0.099-0.525-0.505c0.021-1.527,0.054-3.057-0.005-4.582
		c-0.046-1.155-0.181-2.314-0.357-3.458c-0.139-0.912-0.826-1.394-1.677-1.51c-1.655-0.229-2.774,0.394-3.104,2.34
		c-0.391,2.309-0.109,4.627-0.203,6.939c-0.009,0.224-0.001,0.449-0.001,0.758c-0.887,0-1.746,0.015-2.603-0.021
		c-0.092-0.003-0.242-0.3-0.243-0.463c-0.017-1.753-0.01-3.505-0.01-5.258c0.001-2.091,0.003-4.185-0.003-6.276
		c-0.001-0.747-0.009-0.748,0.744-0.749C184.647,69.053,185.323,69.053,186.093,69.053z"/>
	<path fill-rule="evenodd" clip-rule="evenodd" fill="#787473" d="M176.312,77.158c-0.522,2.898-3.038,5.359-6.851,5.014
		c-3.591-0.325-5.673-3.123-5.965-5.978c-0.44-4.292,2.774-6.913,5.364-7.365c1.885-0.329,3.671-0.045,5.222,1.128
		c1.114,0.842,2.001,2.037,2.281,3.706c-0.386,0-0.749,0-1.114,0c-0.188,0-0.377-0.014-0.564,0.003
		c-0.834,0.072-1.47-0.069-2.052-0.856c-0.899-1.216-2.319-1.375-3.682-0.985c-1.343,0.384-2.068,1.423-2.368,2.807
		c-0.432,2.004,0.763,3.743,2.004,4.301c1.669,0.747,3.626,0.141,4.507-1.456c0.072-0.133,0.233-0.301,0.358-0.304
		C174.388,77.146,175.323,77.158,176.312,77.158z"/>
	<path fill-rule="evenodd" clip-rule="evenodd" fill="#787473" d="M148.346,56.262c0.001-1.695-0.005-3.389,0.004-5.083
		c0.002-0.372-0.109-0.56-0.517-0.531c-0.394,0.026-0.792-0.002-1.188,0.003c-0.309,0.004-0.444-0.145-0.442-0.447
		c0.002-0.696-0.021-1.394,0.02-2.087c0.008-0.133,0.253-0.34,0.407-0.359c0.408-0.05,0.828-0.042,1.239-0.007
		c0.392,0.032,0.486-0.129,0.48-0.488c-0.018-1.167,0.002-2.335-0.018-3.501c-0.008-0.417,0.079-0.62,0.562-0.593
		c0.751,0.042,1.507,0.018,2.26,0.005c0.358-0.006,0.5,0.125,0.494,0.5c-0.019,1.168,0.018,2.337-0.017,3.503
		c-0.014,0.503,0.192,0.628,0.631,0.585c0.225-0.022,0.452-0.015,0.678-0.017c0.847-0.007,0.849-0.006,0.849,0.806
		c0,0.546-0.021,1.092-0.007,1.638c0.007,0.348-0.15,0.472-0.477,0.466c-0.377-0.008-0.755,0.021-1.13-0.006
		c-0.437-0.032-0.547,0.171-0.545,0.567c0.012,2.335,0.008,4.671,0.008,7.007c0,1.055-0.009,2.109,0,3.164
		c0.003,0.361-0.127,0.499-0.504,0.485c-0.751-0.026-1.505-0.017-2.259-0.011c-0.36,0.005-0.543-0.09-0.538-0.517
		C148.358,59.651,148.346,57.957,148.346,56.262z"/>
	<path fill-rule="evenodd" clip-rule="evenodd" fill="#787473" d="M218.272,43.182c0.947,0,1.866,0.006,2.784-0.002
		c0.385-0.004,0.408,0.231,0.405,0.523c-0.005,1.168,0.013,2.336-0.008,3.504c-0.008,0.423,0.134,0.578,0.557,0.542
		c0.375-0.033,0.754,0.007,1.13-0.014c0.345-0.019,0.477,0.127,0.47,0.463c-0.014,0.64-0.024,1.28-0.009,1.92
		c0.011,0.38-0.11,0.565-0.514,0.542c-0.299-0.017-0.601,0.009-0.902,0.013c-0.73,0.01-0.73,0.009-0.73,0.76
		c0.001,3.278-0.01,6.556,0.013,9.835c0.003,0.479-0.14,0.634-0.605,0.621c-0.859-0.025-1.722-0.008-2.62-0.008
		c0-0.736,0-1.394,0-2.051c0-2.865-0.008-5.729,0.009-8.594c0.002-0.442-0.117-0.615-0.575-0.57c-0.391,0.039-0.79-0.008-1.185,0.01
		c-0.299,0.014-0.402-0.108-0.397-0.396c0.011-0.716,0.01-1.432,0-2.148c-0.006-0.288,0.096-0.41,0.397-0.396
		c0.411,0.02,0.83-0.023,1.241,0.009c0.406,0.032,0.522-0.124,0.517-0.515c-0.019-1.224-0.008-2.45-0.006-3.674
		C218.243,43.447,218.26,43.338,218.272,43.182z"/>
	<path fill-rule="evenodd" clip-rule="evenodd" fill="#787473" d="M141.411,47.741c0,0.524,0,0.964,0,1.403
		c1.022-0.947,2.127-1.559,3.55-1.578c0,0.97,0,1.942,0,2.94c-0.491,0.138-1.005,0.284-1.523,0.426
		c-0.963,0.264-1.456,0.954-1.621,1.882c-0.462,2.6-0.119,5.227-0.219,7.839c-0.015,0.39-0.002,0.78-0.002,1.227
		c-0.981,0-1.9,0.009-2.817-0.003c-0.46-0.007-0.399-0.372-0.4-0.664c-0.003-1.904-0.001-3.809,0-5.711
		c0-2.395,0.013-4.788-0.004-7.182c-0.003-0.44,0.114-0.608,0.575-0.589C139.734,47.766,140.523,47.741,141.411,47.741z"/>
	<path fill-rule="evenodd" clip-rule="evenodd" fill="#787473" d="M244.166,49.16c0.973-0.912,2.007-1.632,3.514-1.549
		c0,0.54,0,1.092,0,1.646c0,1.224-0.008,1.195-1.191,1.499c-1.066,0.273-1.861,0.896-2.054,2.237
		c-0.381,2.683-0.076,5.375-0.169,8.062c-0.03,0.827-0.005,0.827-0.817,0.824c-0.583-0.001-1.169-0.031-1.75,0.006
		c-0.497,0.035-0.645-0.131-0.642-0.632c0.019-4.053,0.01-8.107,0.01-12.159c0-1.353,0-1.354,1.372-1.352
		c0.47,0,1.052-0.16,1.376,0.06C244.082,47.982,244.044,48.614,244.166,49.16z"/>
	<path fill-rule="evenodd" clip-rule="evenodd" fill="#787473" d="M155.412,47.74c0.965,0,1.884-0.01,2.8,0.013
		c0.11,0.003,0.243,0.166,0.313,0.285c0.05,0.085,0.011,0.221,0.011,0.333c0,4.297-0.007,8.592,0.011,12.89
		c0.002,0.481-0.096,0.671-0.617,0.627c-0.598-0.052-1.205-0.039-1.805,0.003c-0.545,0.037-0.733-0.104-0.729-0.703
		c0.031-4.278,0.017-8.556,0.017-12.833C155.412,48.168,155.412,47.983,155.412,47.74z"/>
	<path fill-rule="evenodd" clip-rule="evenodd" fill="#787473" d="M177.4,47.744c0.989,0,1.907-0.015,2.823,0.022
		c0.103,0.003,0.277,0.303,0.278,0.467c0.02,2.018,0.012,4.036,0.012,6.053c0,2.357-0.01,4.715,0.011,7.072
		c0.004,0.426-0.106,0.554-0.537,0.526c-0.677-0.039-1.357-0.042-2.032,0.002c-0.475,0.032-0.565-0.144-0.562-0.575
		c0.015-3.094,0.009-6.187,0.009-9.279c0-1.226-0.001-2.452-0.001-3.678C177.4,48.171,177.4,47.988,177.4,47.744z"/>
	<path fill-rule="evenodd" clip-rule="evenodd" fill="#787473" d="M178.449,81.832c0-4.303,0-8.514,0-12.778
		c0.862,0,1.688,0.001,2.514-0.001c0.379-0.002,0.339,0.272,0.339,0.514c0.001,2.6,0,5.198-0.002,7.797
		c0,1.318-0.014,2.638,0.006,3.956c0.006,0.392-0.114,0.533-0.513,0.52C180.024,81.814,179.256,81.832,178.449,81.832z"/>
	<path fill-rule="evenodd" clip-rule="evenodd" fill="#787473" d="M158.597,81.826c0-1.241-0.001-2.391,0-3.539
		c0-2.887,0.009-5.771-0.008-8.656c-0.001-0.437,0.104-0.613,0.564-0.587c0.603,0.035,1.208,0.022,1.811,0.003
		c0.374-0.013,0.542,0.099,0.541,0.509c-0.013,3.922-0.009,7.846-0.008,11.769c0,0.255,0.025,0.506-0.349,0.504
		C160.322,81.822,159.497,81.826,158.597,81.826z"/>
	<path fill-rule="evenodd" clip-rule="evenodd" fill="#787473" d="M166.704,35.769c0.049-1.568,0.464-2.879,1.753-3.79
		c2.167-1.532,5.695-0.694,6.337,2.358c0.371,1.77,0.126,3.361-1.182,4.605c-1.265,1.208-2.833,1.482-4.475,0.779
		C167.385,38.969,166.76,37.495,166.704,35.769z M173.396,35.63c-0.104-0.493-0.16-1.003-0.322-1.476
		c-0.328-0.953-0.969-1.626-2.007-1.748c-1.026-0.12-1.82,0.379-2.277,1.257c-0.743,1.433-0.735,2.887,0.193,4.263
		c0.751,1.113,2.306,1.263,3.29,0.354C173.047,37.564,173.308,36.656,173.396,35.63z"/>
	<path fill-rule="evenodd" clip-rule="evenodd" fill="#787473" d="M124.38,35.572c-0.082,1.902-0.78,3.352-2.593,4.154
		c-2.318,1.027-5.125-0.349-5.561-2.921c-0.266-1.568-0.096-3.006,0.963-4.226c1.158-1.332,2.684-1.612,4.312-1.175
		c1.358,0.364,2.259,1.289,2.596,2.689C124.215,34.582,124.288,35.08,124.38,35.572z M117.589,35.534
		c0.132,0.624,0.176,1.14,0.354,1.602c0.338,0.877,0.896,1.577,1.911,1.714c1.12,0.151,1.899-0.395,2.399-1.328
		c0.676-1.262,0.635-2.56-0.001-3.835c-0.425-0.852-1.141-1.293-2.08-1.289c-0.928,0.002-1.631,0.497-2.021,1.302
		C117.865,34.292,117.756,34.971,117.589,35.534z"/>
	<path fill-rule="evenodd" clip-rule="evenodd" fill="#787473" d="M151.461,32.934c-0.101-0.28-0.209-0.519-0.264-0.771
		c-0.021-0.093,0.055-0.276,0.136-0.312c1.448-0.651,2.936-0.957,4.423-0.174c1.048,0.551,1.34,1.602,1.375,2.674
		c0.059,1.804,0.016,3.612,0.016,5.436c-0.944,0.282-1.228,0.135-1.466-0.885c-0.148,0.125-0.271,0.218-0.382,0.324
		c-0.94,0.889-2.542,1.097-3.548,0.507c-1.693-0.992-1.581-3.49,0.13-4.467c0.899-0.514,1.879-0.709,2.905-0.746
		c0.854-0.03,0.975-0.242,0.681-1.046c-0.389-1.057-1.43-1.263-2.615-1.004C152.401,32.568,151.971,32.761,151.461,32.934z
		 M155.576,36.67c0-0.263,0.025-0.529-0.011-0.789c-0.015-0.11-0.157-0.293-0.241-0.293c-0.964,0-1.927,0.049-2.718,0.706
		c-0.458,0.381-0.657,1.17-0.434,1.7c0.197,0.465,0.664,0.909,1.366,0.887C154.815,38.84,155.563,38.065,155.576,36.67z"/>
	<path fill-rule="evenodd" clip-rule="evenodd" fill="#787473" d="M143.104,39.77c-0.089,0.06-0.103,0.079-0.119,0.08
		c-1.438,0.114-1.434,0.114-1.439-1.322c-0.01-2.202-0.02-4.405-0.047-6.608c-0.005-0.377,0.084-0.595,0.496-0.524
		c0.347,0.06,0.906-0.252,0.894,0.482c-0.004,0.236-0.001,0.471-0.001,0.745c0.567-0.402,1.019-0.818,1.548-1.082
		c1.816-0.907,4.027,0.21,4.176,2.222c0.147,1.999,0.031,4.017,0.031,6.066c-0.435,0-0.896,0-1.451,0c0-0.171,0-0.349,0-0.527
		c0-1.489,0.019-2.978-0.012-4.466c-0.008-0.42-0.102-0.858-0.25-1.253c-0.273-0.733-0.879-1.051-1.631-1.057
		c-0.892-0.008-1.556,0.421-1.939,1.212c-0.157,0.324-0.239,0.714-0.245,1.076C143.09,36.469,143.104,38.125,143.104,39.77z"/>
	<path fill-rule="evenodd" clip-rule="evenodd" fill="#787473" d="M133.247,39.83c-1.129,0.11-1.129,0.11-1.413-1.024
		c-0.424,0.3-0.818,0.633-1.259,0.88c-1.761,0.984-4.106,0.067-4.256-2.248c-0.121-1.854-0.113-3.718-0.168-5.577
		c-0.01-0.333,0.118-0.489,0.463-0.473c0.335,0.017,0.672,0.004,1.099,0.004c0,0.255,0,0.472,0,0.688
		c0,1.356-0.026,2.713,0.014,4.069c0.016,0.535,0.092,1.102,0.294,1.59c0.44,1.059,1.906,1.331,2.866,0.577
		c0.527-0.414,0.837-0.951,0.833-1.644c-0.008-1.505-0.005-3.011-0.017-4.517c-0.006-0.758-0.01-0.763,0.732-0.762
		c0.243,0,0.486,0,0.812,0C133.247,34.211,133.247,37.001,133.247,39.83z"/>
	<path fill-rule="evenodd" clip-rule="evenodd" fill="#787473" d="M180.502,31.393c0,0.436,0,0.787,0,1.205
		c-0.657,0-1.287,0-1.975,0c0,1.001,0,1.934-0.001,2.867c-0.001,1.3-0.015,2.6,0.004,3.898c0.008,0.405-0.135,0.54-0.523,0.508
		c-0.318-0.027-0.636-0.005-0.991-0.005c-0.021-0.184-0.053-0.329-0.053-0.473c0.002-2.129,0-4.259,0.027-6.388
		c0.004-0.317-0.098-0.385-0.374-0.402c-0.861-0.052-0.961-0.228-0.685-1.172c0.309-0.03,0.727,0.049,0.905-0.122
		c0.175-0.168,0.09-0.592,0.145-0.9c0.199-1.128,0.509-2.189,1.643-2.778c0.79-0.409,1.871-0.448,2.694-0.02
		c-0.059,0.355-0.123,0.729-0.186,1.114c-1.418-0.526-2.465,0.128-2.558,1.643c-0.067,1.127-0.228,1.027,0.929,1.026
		C179.82,31.393,180.138,31.393,180.502,31.393z"/>
	<path fill-rule="evenodd" clip-rule="evenodd" fill="#787473" d="M161.268,27.529c0,4.135,0,8.2,0,12.335
		c-0.543,0-1.065,0.014-1.586-0.013c-0.095-0.004-0.234-0.163-0.256-0.271c-0.042-0.199-0.014-0.413-0.014-0.621
		c0-3.621,0.007-7.242-0.01-10.863c-0.002-0.441,0.102-0.619,0.562-0.575C160.375,27.559,160.792,27.529,161.268,27.529z"/>
	<path fill-rule="evenodd" clip-rule="evenodd" fill="#787473" d="M114.223,28.199c0,2.816,0.05,5.604-0.021,8.388
		c-0.035,1.337-0.48,2.564-1.865,3.163c-0.991,0.428-2.007,0.42-3.023,0.106c-0.096-0.03-0.197-0.24-0.193-0.363
		c0.011-0.279,0.086-0.555,0.143-0.882c0.468,0.038,0.931,0.102,1.393,0.104c1.202,0.004,1.889-0.567,1.947-1.916
		c0.104-2.369,0.063-4.742,0.083-7.113c0.001-0.132,0.002-0.264,0.004-0.396C112.709,27.984,112.783,27.928,114.223,28.199z"/>
	<path fill-rule="evenodd" clip-rule="evenodd" fill="#787473" d="M135.817,31.396c0.336,0,0.673-0.033,0.998,0.018
		c0.116,0.018,0.269,0.227,0.286,0.364c0.042,0.318,0.015,0.646,0.015,0.969c0.051,0.01,0.102,0.019,0.153,0.028
		c0.162-0.214,0.312-0.437,0.486-0.639c0.468-0.546,1.042-0.884,1.785-0.904c0.319-0.009,0.446,0.127,0.437,0.432
		c-0.007,0.207-0.009,0.415,0.001,0.622c0.012,0.302-0.093,0.431-0.425,0.433c-1.486,0.004-2.141,1.076-2.203,2.393
		c-0.073,1.556-0.018,3.117-0.018,4.716c-0.518,0-0.997,0-1.515,0C135.817,37.036,135.817,34.251,135.817,31.396z"/>
	<path fill-rule="evenodd" clip-rule="evenodd" fill="#787473" d="M155.442,46.278c0-1.046,0-2.035,0-3.069c0.997,0,2,0,3.089,0
		c0,0.933,0.006,1.882-0.015,2.831c-0.001,0.082-0.193,0.226-0.299,0.228C157.301,46.286,156.385,46.278,155.442,46.278z"/>
	<path fill-rule="evenodd" clip-rule="evenodd" fill="#787473" d="M180.465,46.253c-1.016,0-1.988,0-3.013,0
		c0-1.015,0-2.016,0-3.054c0.984,0,1.976,0,3.013,0C180.465,44.187,180.465,45.188,180.465,46.253z"/>
	<path fill-rule="evenodd" clip-rule="evenodd" fill="#787473" d="M178.414,64.985c0.896,0,1.72-0.013,2.544,0.015
		c0.117,0.004,0.322,0.205,0.328,0.32c0.03,0.696,0.034,1.394-0.01,2.087c-0.009,0.137-0.254,0.358-0.401,0.368
		c-0.694,0.04-1.392,0.034-2.087,0.007c-0.129-0.005-0.354-0.18-0.359-0.284C178.4,66.679,178.414,65.854,178.414,64.985z"/>
	<path fill-rule="evenodd" clip-rule="evenodd" fill="#787473" d="M160.01,67.79c-1.411,0-1.411,0-1.412-1.427
		c-0.001-1.379-0.001-1.379,1.388-1.379c1.506,0,1.506,0,1.508,1.445c0.001,1.36,0.001,1.36-1.372,1.36
		C160.086,67.79,160.048,67.79,160.01,67.79z"/>
</g>
</svg>
