<?xml version="1.0" encoding="UTF-8"?>
<svg id="Layer_1" xmlns="http://www.w3.org/2000/svg" xmlns:xlink="http://www.w3.org/1999/xlink" version="1.1" viewBox="0 0 326 112">
  <!-- Generator: Adobe Illustrator 29.2.1, SVG Export Plug-In . SVG Version: 2.1.0 Build 116)  -->
  <defs>
    <style>
      .st0 {
        fill: #767271;
      }

      .st1 {
        fill: #787473;
        fill-opacity: 0;
      }
    </style>
  </defs>
  <rect id="background" class="st1" width="326" height="112"/>
  <g>
    <path class="st0" d="M294.3,99.6c-.3,1-.9,1.6-1.9,1.8-.7.1-1.3.1-1.9-.2-.2,0-.3-.2-.2-.5,0-.3.1-.6.2-.9,0,.1.2.2.2.2.4.7.9.9,1.6.8.4,0,.7-.3.8-.7.1-.4,0-.8-.3-1-.3-.2-.7-.4-1.1-.6-.7-.4-1.3-.7-1.5-1.5-.3-1.2.6-2.4,1.8-2.5.6,0,1.3,0,1.9.4,0,.3-.2.6-.3.8-.3-.2-.7-.6-1-.7-.5-.2-1.1,0-1.3.6-.2.4,0,.9.5,1.2.2.2.5.3.8.4.8.3,1.4.8,1.7,1.7v.7Z"/>
    <path class="st0" d="M158.8,61.1v25.3c-.2,0-.3,0-.5,0-3.8,0-7.6,0-11.5,0-.4,0-.6,0-.6-.5,0-13.2,0-26.4,0-39.6,0-.4,0-.5.5-.5,7.8,0,15.7,0,23.5,0,.3,0,.5,0,.6.4,5.1,7.9,10.1,15.8,15.2,23.7,0,.1.2.3.3.5.3-.5.6-1,.8-1.5,4.3-7.5,8.7-15.1,13-22.6.2-.3.3-.4.7-.4,6.8,0,13.7,0,20.5,0s.3,0,.5,0v40.6h-19.4v-25.2s0,0-.1,0c0,.1-.2.3-.3.4-4.6,8.1-9.2,16.2-13.9,24.4-.2.4-.5.6-1,.5-3.8,0-7.7,0-11.5,0-.3,0-.5,0-.7-.4-5.3-8.2-10.6-16.4-15.9-24.6,0-.1-.2-.3-.3-.4,0,0,0,0-.1,0Z"/>
    <path class="st0" d="M280.2,50.7c-.2.1-.3.2-.4.3-2.2,1.4-4.4,2.8-6.6,4.2-.1,0-.4.1-.5,0-2.6-1.7-5.5-2.7-8.5-3.5-2.4-.6-4.9-1.1-7.4-1.1-2.5,0-5,0-7.3,1-.5.2-1.1.6-1.5,1-.9.8-.9,2.1,0,2.9.6.5,1.3.9,2.1,1.1,2.1.6,4.1,1.1,6.2,1.5,4.7,1,9.5,1.9,14.1,3.4,2.9,1,5.8,2.1,8.3,4,1.9,1.4,3.4,3.1,4,5.4,1,3.5.2,6.7-2.2,9.4-1.9,2.1-4.2,3.5-6.8,4.5-2.8,1.1-5.7,1.8-8.7,2.2-3.8.6-7.7.7-11.5.6-6.6-.2-13.1-1.5-19.1-4.5-1.7-.8-3.3-1.8-4.7-3-.1-.1-.3-.2-.5-.4.1,0,.2-.2.3-.2,2.3-1.5,4.6-3,6.9-4.5.2-.1.4-.2.7,0,3.7,2.6,7.7,4.3,12.1,5.4,2.4.6,4.9.9,7.4.8,2.1,0,4.2-.1,6.2-.8.5-.2,1-.4,1.4-.7,1-.7,1.2-1.8.6-2.8-.4-.7-1-1.1-1.7-1.5-1.6-.9-3.3-1.3-5-1.7-3.8-.9-7.6-1.6-11.4-2.5-3.3-.8-6.6-1.7-9.7-3.3-1.9-.9-3.6-2.1-4.9-3.8-1.5-1.9-2-4.2-1.7-6.6.4-3.9,2.6-6.6,5.8-8.6,2.6-1.7,5.5-2.6,8.5-3.3,3.6-.8,7.2-1.2,10.8-1.2,2.6,0,5.2,0,7.8.3,5.9.6,11.4,2.2,16.3,5.6.2.1.3.2.5.4Z"/>
    <path class="st0" d="M68.1,98.1c-1.3-.4-2.6-.8-3.9-1.2-5.5-1.7-10.8-3.8-15.9-6.5-3.8-2.1-7.3-4.5-10.2-7.7-2.2-2.4-3.9-5.1-4.6-8.3-.8-3.5-.5-6.9.8-10.2,1.4-3.6,3.7-6.7,6.3-9.5,4.3-4.5,9.3-8.1,14.5-11.3,7.3-4.5,15.1-8.1,23.1-11.2,9-3.6,18.2-6.5,27.6-9,6.8-1.8,13.6-3.4,20.4-4.7,4.5-.9,9.1-1.7,13.7-2.4,3.1-.5,6.3-1,9.4-1.4,2.5-.3,5.1-.6,7.6-.9,2.5-.3,5-.5,7.4-.8,2.3-.2,4.6-.4,7-.5,3.2-.2,6.4-.4,9.7-.6,2.3-.1,4.5-.2,6.8-.2,4.2,0,8.3-.1,12.5,0,3.3,0,6.7,0,10,.2,3.4.1,6.8.3,10.2.6,3.5.3,7.1.7,10.6,1,.9,0,1.8.2,2.7.4-1,0-2-.1-3.1-.2-1.6-.1-3.2-.2-4.7-.3-3.1-.1-6.2-.3-9.3-.4-3.8,0-7.7-.1-11.5,0-3.5,0-7,.2-10.4.3-2.1,0-4.3.2-6.4.3-2.4.1-4.7.3-7.1.5-2.2.2-4.4.3-6.5.5-2.4.2-4.8.5-7.1.8-2.5.3-4.9.6-7.4.9-3.1.4-6.2.9-9.3,1.4-3.6.6-7.2,1.2-10.7,1.9-5.7,1.2-11.4,2.4-17,3.7-7.5,1.8-15,4-22.3,6.5-8.8,3-17.3,6.4-25.6,10.6-6.5,3.3-12.8,7.1-18.4,11.8-3.3,2.8-6.3,5.9-8.7,9.6-1.5,2.4-2.7,5.1-3.1,7.9-.6,3.9.2,7.5,2.1,10.8,1.9,3.2,4.4,5.7,7.3,7.9,2.8,2.1,5.9,3.8,9,5.4.3.2.6.4.9.6,1.1,1.1,2.2,2.3,3.3,3.4,0,.1.2.2.3.3,0,0,0,0,0,0Z"/>
    <path class="st0" d="M140.9,50.2c-1.1.8-2.2,1.6-3.3,2.4-1.3.9-2.5,1.8-3.8,2.7-.2.2-.4.2-.7,0-2.9-1.8-6.1-3.1-9.5-3.7-3.1-.6-6.2-.6-9.3.1-4.6,1.1-7.5,4-8.8,8.6-.6,2.3-.8,4.7-.7,7.1.1,2,.4,3.9,1.2,5.8,1.5,3.7,4.4,6,8.2,6.9,2.5.6,5.1.7,7.6.4,4-.4,7.7-1.8,11.2-3.8.1,0,.4-.1.5,0,2.4,1.7,4.7,3.4,7.1,5.1,0,0,0,0,0,0-.1,0-.2.2-.3.2-3.7,2.2-7.6,3.6-11.7,4.5-4.3,1-8.7,1.3-13.1,1.1-6.2-.2-12.3-1.4-18-3.9-3.2-1.4-6-3.3-8.5-5.7-2.4-2.5-4.2-5.4-4.8-8.9-.8-4.5,0-8.7,2.6-12.4,2.2-3.2,5.1-5.5,8.4-7.3,3.8-2.1,7.9-3.4,12.2-4.2,4.1-.8,8.3-1,12.5-.9,7.2.3,14,1.9,20.3,5.5.1,0,.3.2.5.3Z"/>
    <path class="st0" d="M142.1,94.6c.6-.2.8,0,1,.6.5,1.2,1.1,2.4,1.7,3.6,0,.1.1.3.3.5.3-.6.6-1.2.9-1.8.4-.7.8-1.5,1.1-2.3.2-.6.5-.8,1.1-.6.3,2.2.5,4.4.8,6.6h-1.5c-.1-1.5-.3-2.9-.4-4.3,0,0,0,0,0,0,0,.1-.2.3-.3.4-.6,1.2-1.1,2.4-1.7,3.6,0,.1-.2.2-.4.4-.1-.1-.3-.2-.3-.4-.6-1.2-1.1-2.4-1.7-3.6,0-.1-.1-.3-.2-.4,0,0,0,0-.1,0-.1,1.4-.3,2.8-.4,4.3h-.8c.3-2.2.7-4.4,1-6.6Z"/>
    <path class="st0" d="M203.3,97c-.1,1.4-.2,2.8-.4,4.3h-.8c.3-2.2.7-4.4,1-6.6h.7c.7,1.5,1.5,3.1,2.3,4.7.5-.9.9-1.8,1.3-2.6.3-.6.6-1.1.8-1.7.1-.3.3-.5.7-.4,0,0,.2,0,.3,0,.3,2.2.5,4.4.8,6.7h-1.5c-.1-1.5-.3-2.9-.4-4.4,0,0,0,0-.1,0,0,.1-.1.2-.2.4-.6,1.3-1.2,2.5-1.8,3.8,0,.1-.2.3-.3.3-.1,0-.3-.2-.3-.3-.6-1.2-1.2-2.4-1.7-3.6,0-.1-.1-.3-.2-.4,0,0-.1,0-.2,0Z"/>
    <path class="st0" d="M128.2,94.5c.8,0,1.7.2,2.4.9,1,1,1.2,2.2.8,3.5-.3,1.3-1.3,2.1-2.6,2.4-1,.2-1.9.2-2.8-.2-1.2-.5-1.7-1.4-1.9-2.6-.3-2.6,1.6-4.1,4-4ZM125.7,98c0,.4,0,.8.1,1.1.2.8.6,1.5,1.4,1.7.8.2,1.5,0,2-.6.9-1,1-3.4.2-4.5-.8-1.1-2.4-1-3.2.1-.4.7-.6,1.4-.6,2.2Z"/>
    <path class="st0" d="M243.3,101.3v-6.7c.4,0,.8,0,1.1,0,.9,0,1.8,0,2.7,0,1.9.3,2.6,1.6,2.4,3.5-.3,2.1-1.6,3.1-3.7,3.1-.8,0-1.7,0-2.5,0ZM244.7,100.7c1.4.5,2.7-.2,3.1-1.6.1-.4.1-.7.2-1.1.2-1.9-1-3.1-2.9-2.9-.3,0-.4.1-.4.4,0,1.4,0,2.7,0,4.1,0,.4,0,.7,0,1.1Z"/>
    <path class="st0" d="M155.2,101.3v-6.8c1.4,0,2.9,0,4.3.3,1.2.2,1.9,1.2,2,2.5,0,1.1-.1,2.1-.9,2.9-.8.9-1.9,1.1-3,1.1-.8,0-1.5,0-2.3,0ZM156.7,97.9c0,.8,0,1.6,0,2.5,0,.1.1.4.2.4,1.3.1,2.4,0,2.9-1.7,0-.3.1-.5.2-.8.3-2.1-.8-3.3-2.9-3.2-.4,0-.5.2-.5.5,0,.8,0,1.6,0,2.3Z"/>
    <path class="st0" d="M216.2,94.7c1.2,0,2.4,0,3.6,0,1.8.2,2.6,1.2,2.6,3,0,1.7-.9,3.1-2.5,3.4-.7.2-1.4,0-2.1.1-.6,0-1.1,0-1.7,0v-6.6ZM217.6,97.9c0,.8,0,1.6,0,2.4,0,.1.1.4.2.4,1.2.2,2.3,0,2.9-1.4.1-.3.2-.6.2-1,.2-1.7-.4-3.5-2.8-3.3-.3,0-.5.1-.5.5,0,.8,0,1.6,0,2.4Z"/>
    <path class="st0" d="M268.5,101.3c-.5,0-1,0-1.5,0-.1,0-.3-.1-.3-.2-.5-.8-.9-1.6-1.4-2.4,0-.1-.2-.3-.3-.4v3h-1.5v-6.6c1.1,0,2.1,0,3.2,0,.7,0,1.2.6,1.3,1.2.1.8-.1,1.5-.8,1.9-.2.1-.4.2-.7.3.7,1.1,1.4,2.2,2,3.3ZM264.9,95.1c0,.8,0,1.5,0,2.3,0,.3.2.4.5.4.9-.1,1.3-.8,1.1-1.9,0-.7-.6-.9-1.6-.8Z"/>
    <path class="st0" d="M182,98c.7,1.1,1.4,2.2,2.1,3.3-.6,0-1.1,0-1.6,0-.1,0-.2-.2-.3-.3-.5-.8-.9-1.6-1.4-2.4,0-.1-.1-.2-.3-.5v3.1h-1.5v-6.6c1.1,0,2.1,0,3.1,0,.7,0,1.2.6,1.3,1.2.1.9-.2,1.5-.8,1.9-.2.1-.4.2-.7.3ZM180.5,95.1c0,.8,0,1.5,0,2.3,0,.4.2.4.5.4.8-.1,1.2-.8,1.1-1.8,0-.8-.6-1-1.6-.9Z"/>
    <path class="st0" d="M107.5,98.3v3h-1.5v-6.6c1.1,0,2.1,0,3.2,0,.8,0,1.2.6,1.3,1.3.1.7-.2,1.4-.8,1.8-.2.1-.4.2-.7.3.7,1.1,1.3,2.1,2.1,3.3-.6,0-1,0-1.5,0-.1,0-.2-.1-.3-.2-.5-.8-.9-1.6-1.4-2.4,0-.1-.2-.3-.2-.4h-.1ZM107.5,95.1c0,.8,0,1.5,0,2.3,0,.4.2.5.5.4.8-.1,1.2-.8,1.1-1.8,0-.8-.5-1-1.6-.9Z"/>
    <path class="st0" d="M137.8,101.2c-.6,0-1,0-1.5,0,0,0-.2-.2-.3-.3-.5-.8-.9-1.6-1.3-2.4,0-.1-.2-.3-.4-.4v3h-1.5v-6.6c1.1,0,2.1,0,3.1,0,.8,0,1.2.6,1.3,1.3.1.7-.2,1.4-.8,1.8-.2.1-.4.2-.7.3.7,1.1,1.3,2.1,2,3.2ZM134.3,96.5s0,0,0,0c0,.3,0,.7,0,1,0,.3,0,.4.4.4.8,0,1.3-.6,1.3-1.5,0-.9-.4-1.3-1.2-1.3-.3,0-.4,0-.4.3,0,.4,0,.7,0,1.1Z"/>
    <path class="st0" d="M198.2,97.5c.2.2.3.3.5.5-.5.6-.9,1.2-1.4,1.7.5.5.9,1,1.4,1.5-.6,0-1.2,0-1.7,0-.1,0-.2-.1-.3-.2-.1-.1-.2-.3-.3-.4-.7.5-1.5.8-2.4.7-.7,0-1.4-.4-1.6-1-.2-.6,0-1.4.5-1.8.3-.3.7-.5,1.1-.8-.1-.2-.3-.5-.4-.7-.6-1.2,0-2.3,1.3-2.4.2,0,.4,0,.5,0,.5,0,1,.2,1.2.7.2.5,0,1-.4,1.5-.2.2-.5.4-.8.7.5.6,1,1.2,1.6,1.9.4-.7.8-1.3,1.2-1.9ZM196,100.3c-.6-.7-1.2-1.4-1.7-2.2-.8.5-1,1.3-.5,2,.5.7,1.5.8,2.3.2ZM195.1,97.2c.5-.5.9-.9.9-1.5,0-.4-.4-.8-.8-.7-.4,0-.7.4-.6.8.1.4.3.8.6,1.3Z"/>
    <path class="st0" d="M88.8,101.3h-.8c0-2.2.1-4.4.2-6.6.6-.2.9,0,1.3.5,1.1,1.2,2.2,2.4,3.3,3.7.1.1.2.3.2.4,0,0,.1,0,.2-.1v-4.5h.8c0,2.2-.1,4.4-.2,6.6-.4.1-.8,0-1.1-.3-1.1-1.3-2.3-2.6-3.4-3.8-.1-.2-.2-.3-.4-.5,0,0,0,0-.1,0v4.6Z"/>
    <path class="st0" d="M177.9,101.3h-1.6c-.2-.6-.4-1.1-.6-1.7,0-.1-.3-.3-.4-.3-.6,0-1.1,0-1.7,0-.1,0-.3.1-.4.3-.2.4-.3.8-.4,1.2,0,.4-.2.6-.6.5,0,0-.2,0-.4,0,0-.1,0-.3.1-.4.8-2,1.6-4,2.4-5.9.1-.3.2-.4.5-.4.3,0,.4.1.5.4.8,2.1,1.6,4.2,2.5,6.3ZM175.5,98.7c-.3-.8-.6-1.5-.8-2.3,0,0,0,0-.1,0-.3.7-.6,1.5-.9,2.3h1.9Z"/>
    <path class="st0" d="M238.9,101.3h-1.6c-.2-.5-.4-1.1-.5-1.6,0-.3-.3-.4-.6-.4-.5,0-1,0-1.5,0-.3,0-.4,0-.5.3-.2.5-.4,1.1-.6,1.6h-.8c.5-1.2,1-2.3,1.5-3.5.4-1,.8-1.9,1.2-2.9,0-.1.2-.3.4-.3.2,0,.4-.1.5.2.8,2.2,1.7,4.3,2.5,6.5ZM235.6,96.5s0,0-.1,0c-.3.7-.6,1.5-.9,2.3h1.9c-.3-.8-.6-1.5-.8-2.3Z"/>
    <path class="st0" d="M153.8,97.4v.7h-2.2v2.5h2.2v.7h-3.6v-6.7h3.6v.7c-.6,0-1.1,0-1.6-.1-.4,0-.6,0-.6.5,0,.4,0,.8,0,1.2,0,.3,0,.5.4.5.6,0,1.2,0,1.8,0Z"/>
    <path class="st0" d="M83,101.3v-6.7h3.6v.7c-.6,0-1.1,0-1.6-.1-.4,0-.6,0-.6.5,0,.4,0,.9,0,1.3,0,.3,0,.4.4.4.6,0,1.2,0,1.8,0v.7h-2.2v2.5h2.2v.7h-3.6Z"/>
    <path class="st0" d="M211.2,94.6h3.6v.7c-.5,0-1,0-1.5,0-.7,0-.7,0-.7.7,0,.5,0,1,0,1.5h2.2v.7h-2.2v2.5h2.2v.7h-3.6v-6.7Z"/>
    <path class="st0" d="M258.5,94.6h3.6v.7c-.5,0-1,0-1.5,0-.7,0-.7,0-.7.7,0,.5,0,1,0,1.5h2.2v.7h-2.2v2.5h2.2v.7h-3.6v-6.7Z"/>
    <path class="st0" d="M104.7,100.5v.7h-3.7v-6.7h3.7v.7c-.7,0-1.4,0-2.2,0,0,.7,0,1.3,0,1.9,0,.3.2.3.4.3.6,0,1.2,0,1.8,0,0,.2,0,.4,0,.6-.6,0-1.2,0-1.8,0-.3,0-.4,0-.4.4,0,.6,0,1.2,0,1.8,0,.3.1.4.4.4.6,0,1.2,0,1.8,0Z"/>
    <path class="st0" d="M287.1,98.1v2.5h2.2v.7h-3.6v-6.6h3.6v.7c-.6,0-1.2,0-1.7-.1-.4,0-.5,0-.5.4,0,.6,0,1.1,0,1.7h2.2v.7h-2.1Z"/>
    <path class="st0" d="M232.4,100.2c-.2,1,0,.9-.9,1.1-.9.2-1.8.2-2.7,0-1.5-.5-2.3-1.9-2.1-3.4.3-2.8,3.3-4.2,5.7-2.9,0,0,0,0,0,0,0,.3-.1.6-.2.9-.1,0-.2-.2-.3-.2-1-1-2.5-.9-3.2.4-.7,1.2-.8,2.5-.1,3.7.6,1.2,2.2,1.5,3.4.7.1,0,.2-.1.4-.3Z"/>
    <path class="st0" d="M188.6,100.5v.8h-3.6v-6.7h3.6v.7c-.5,0-1,0-1.6,0-.6,0-.6,0-.6.6,0,.5,0,1,0,1.6h2.2v.7c-.6,0-1.2,0-1.7,0-.3,0-.4,0-.4.4,0,.6,0,1.1,0,1.7,0,.3.1.4.4.4.6,0,1.2,0,1.8,0Z"/>
    <path class="st0" d="M81.8,100.1c-.2,1-.2,1.1-1.1,1.2-.7,0-1.5.1-2.2,0-1.8-.4-2.8-2-2.4-3.9.4-2,1.8-3,4-2.9.5,0,.9.2,1.4.2.3,0,.5.2.3.6,0,.2,0,.3-.1.6-.1-.1-.3-.2-.4-.3-.9-.8-2.2-.8-3,.2-.8,1-1,2.9-.3,4.1.7,1.2,2.2,1.4,3.4.6.1,0,.2-.2.4-.3Z"/>
    <path class="st0" d="M171.5,94.9c0,.3-.1.6-.2,1-.2-.1-.3-.2-.4-.3-1-.9-2.5-.7-3.2.5-.7,1.1-.7,2.3-.2,3.5.6,1.4,2.2,1.8,3.5.9.1,0,.2-.2.4-.3-.1.9-.2,1-.9,1.1-1.3.3-2.7.2-3.8-.7-1.1-1-1.2-2.2-.9-3.6.3-1.3,1.2-2.1,2.5-2.4,1.1-.3,2.2-.2,3.2.3Z"/>
    <path class="st0" d="M284.5,94.8c0,.4-.2.7-.3,1.1-.2-.1-.3-.2-.4-.3-1-.9-2.5-.7-3.2.5-.7,1.2-.7,2.4-.1,3.7.6,1.2,2.1,1.5,3.4.8.1,0,.3-.2.4-.3,0,.8-.2,1-.9,1.1-.8,0-1.6.1-2.4,0-1.8-.4-2.7-2-2.4-3.8.3-2.2,2-3.1,4-3,.6,0,1.2.2,1.8.3Z"/>
    <path class="st0" d="M268.8,94.6c.5,0,1,0,1.5,0,0,0,.2.2.3.3.5,1.4,1,2.7,1.5,4.1,0,.1.1.2.3.4.6-1.6,1.2-3.2,1.8-4.8h.7c-.9,2.2-1.8,4.4-2.7,6.7-.2,0-.4,0-.6,0,0,0-.2,0-.3-.2-.8-2.1-1.7-4.3-2.5-6.4,0,0,0,0,0,0Z"/>
    <path class="st0" d="M115.4,94.9c0,.3-.2.6-.3.8-.3-.2-.6-.5-1-.7-.5-.2-1.1,0-1.3.5-.2.5,0,.9.5,1.3.4.2.8.4,1.2.6,1.1.6,1.4,1.3,1.2,2.4-.2.9-1.1,1.6-2.1,1.6-.5,0-1.1-.1-1.6-.2-.2,0-.3-.2-.3-.5,0-.3.2-.6.2-1,0,.2.2.2.2.3.3.7,1.1,1,1.8.7.7-.2.9-1.1.4-1.6-.2-.2-.6-.4-.8-.6-.3-.2-.7-.3-1-.5-.8-.5-.9-1.2-.8-2,.1-.8.8-1.4,1.6-1.5.8-.2,1.6,0,2.1.4Z"/>
    <path class="st0" d="M253.5,99.8c.1.2.2.3.2.4.4.6,1.2.9,1.9.5.6-.3.7-1.1.2-1.5-.3-.3-.6-.4-.9-.6-.3-.2-.6-.3-.8-.4-.8-.5-1.1-1.3-.8-2.2.2-.8.9-1.4,1.7-1.4.5,0,1,0,1.6.2.3,0,.5.3.3.6,0,.2-.1.4-.2.5-.4-.2-.7-.5-1.1-.7-.5-.2-1.1.1-1.2.6-.2.4,0,.9.4,1.2.4.2.8.4,1.2.6,1,.6,1.5,1.3,1.2,2.3-.2,1-1.1,1.7-2.2,1.7-.5,0-1,0-1.5-.2-.3,0-.4-.2-.3-.5.1-.3.1-.5.2-.9Z"/>
    <path class="st0" d="M121,95.2c0,.7,0,1.3,0,1.9,0,.3.1.3.4.3.6,0,1.2,0,1.8,0v.6c-.6,0-1.2,0-1.7,0-.3,0-.4.1-.4.4,0,.9,0,1.8,0,2.8h-1.4v-6.6h3.7v.7c-.7,0-1.4,0-2.2-.1Z"/>
    <path class="st0" d="M98.3,95.2v6h-1.4c0-1.8,0-3.6,0-5.4q0-.7-.7-.6c-.3,0-.6,0-.9,0,0,0-.1,0-.2,0v-.7h4.8v.7c-.5,0-1.1,0-1.6,0Z"/>
    <path class="st0" d="M277.4,94.6v6.6h-1.4v-6.6h1.4Z"/>
    <path class="st0" d="M162.9,94.6h1.4v6.6h-1.4v-6.6Z"/>
    <path class="st0" d="M223.9,94.6h1.4v6.6h-1.4v-6.6Z"/>
    <path class="st0" d="M240.1,94.6h1.5v6.6h-1.5v-6.6Z"/>
  </g>
  <path class="st0" d="M60.8,87.7l-1-2.1s-6.7-6.8-5.7-12.7,4.5-11.8,12-18.1,34.3-20.4,61.7-26.2,61.6-15.8,128.4-5.5v-.5s-46.3-9.3-87.7-3.5-65.3,11.7-83.7,20.7-28.5,17.5-31.7,23.3c-3.2,5.8-2.8,9.5-1,15s8.7,9.6,8.7,9.6Z"/>
</svg>