<?xml version="1.0" encoding="UTF-8"?>
<svg id="Layer_1" xmlns="http://www.w3.org/2000/svg" version="1.1" xmlns:xlink="http://www.w3.org/1999/xlink" viewBox="0 0 114.8 114.8">
  <!-- Generator: Adobe Illustrator 29.2.1, SVG Export Plug-In . SVG Version: 2.1.0 Build 116)  -->
  <defs>
    <style>
      .st0 {
        fill: #787574;
      }

      .st1 {
        fill: none;
      }

      .st2 {
        clip-path: url(#clippath-1);
      }

      .st3 {
        clip-path: url(#clippath);
      }
    </style>
    <clipPath id="clippath">
      <rect class="st1" x="12.1" y="16.1" width="90.6" height="82.6"/>
    </clipPath>
    <clipPath id="clippath-1">
      <rect class="st1" y="0" width="114.8" height="114.8"/>
    </clipPath>
  </defs>
  <g class="st3">
    <path class="st0" d="M67.5,93.5s.9-.4,2.5-1.2c.4-.2.9-.4,1.3-.7.5-.3,1-.6,1.5-.9.5-.3,1.2-.7,1.8-1.1.6-.4,1.2-.9,1.9-1.4,2.6-2.1,5.6-4.8,8.1-8.7,2.5-3.9,4.7-8.7,5.7-14.2.4-2.8.7-5.7.5-8.7,0-.7-.1-1.5-.2-2.3-.1-.8-.3-1.5-.4-2.3-.2-1.5-.7-3-1.1-4.5-.2-.7-.6-1.5-.9-2.3l-.5-1.2-.2-.6-.2-.5c-.8-1.4-1.4-2.9-2.4-4.3-1.7-2.8-4-5.3-6.5-7.6-2.5-2.3-5.4-4.2-8.5-5.7-3.1-1.5-6.5-2.6-9.9-3.3-3.5-.6-7-.7-10.5-.4l-2.6.4c-.9,0-1.7.4-2.5.6-1.6.3-3.5,1.1-5.3,1.7.2,0,0,0,0,0h0s-.1.1-.1.1h-.3c0,.1-.6.4-.6.4l-1.2.6c-.8.3-1.6.8-2.3,1.3-1.6.8-3,1.9-4.4,3-.7.5-1.3,1.2-2,1.7-.3.3-.7.6-1,.9l-.9,1c-.6.7-1.3,1.2-1.8,2l-1.6,2.1c-2,2.9-3.6,6-4.8,9.3-1.1,3.3-1.9,6.7-2.1,10-.1,3.4,0,6.8.7,9.9.2,1.6.8,3.2,1.3,4.8.2.7.6,1.5.9,2.2.3.7.6,1.5,1,2.2,2.9,5.7,7,10.3,11.6,13.6,4.6,3.3,9.5,5.2,14,6.2,4.5,1.1,8.6.9,11.9.6.8-.1,1.6-.2,2.3-.3.7-.1,1.4-.3,2-.4.6-.1,1.2-.3,1.7-.4.5-.1,1-.3,1.4-.5,1.7-.6,2.6-.9,2.6-.9M67.5,93.5s-.9.3-2.6.9c-.4.1-.9.3-1.4.5-.5.1-1.1.3-1.7.4-.6.1-1.3.3-2,.5-.7.1-1.5.2-2.3.3-3.3.4-7.4.6-12-.3-4.6-.8-9.7-2.6-14.6-5.7-4.9-3.1-9.5-7.6-13-13.4-.5-.7-.8-1.5-1.2-2.2-.4-.8-.8-1.5-1.1-2.4-.6-1.6-1.3-3.1-1.7-4.9-1.1-3.5-1.5-7.1-1.6-10.9,0-3.8.6-7.6,1.6-11.3,1.1-3.7,2.8-7.3,5-10.7,2.2-3.3,4.9-6.4,8-9,1.6-1.2,3.2-2.5,5-3.5.9-.5,1.7-1.1,2.7-1.5l1.4-.7.7-.3.3-.2h.2c0,0,0-.1,0-.1,0,0,0,0,.2,0,3.4-1.3,7.7-2.4,11.7-2.8,4-.3,8.1,0,12,.8,3.9.9,7.6,2.3,11,4.2,3.3,2,6.5,4.3,9.1,7,2.6,2.7,4.9,5.7,6.5,8.8.9,1.5,1.5,3.2,2.2,4.8,0,.2.2.3.3.7l.2.6.4,1.2c.2.8.5,1.5.7,2.4,1.6,6.7,1.4,13.1,0,18.8-1.4,5.6-3.8,10.5-6.5,14.2-2.7,3.8-5.8,6.6-8.4,8.6-.7.5-1.3,1-1.9,1.4-.6.4-1.2.7-1.8,1.1-.6.3-1.1.6-1.5.9-.5.3-.9.5-1.3.6-1.6.7-2.5,1.1-2.5,1.1"/>
    <path class="st0" d="M47.7,21.3s-.9.4-2.5,1.2c-.4.2-.9.4-1.3.7-.5.3-1,.6-1.5.9-.5.3-1.2.7-1.8,1.1-.6.4-1.2.9-1.9,1.4-2.6,2-5.7,4.8-8.2,8.7-2.5,3.8-4.8,8.6-5.8,14.2-.4,2.8-.7,5.7-.5,8.7,0,.8.1,1.5.2,2.3.1.8.3,1.5.4,2.3.2,1.6.7,3,1.1,4.5.2.7.6,1.5.8,2.3l.4,1.2.2.6.2.5c.8,1.4,1.4,2.9,2.4,4.3,1.7,2.8,4,5.3,6.4,7.7,2.5,2.3,5.4,4.2,8.4,5.8,3.1,1.6,6.4,2.7,9.9,3.4,3.5.6,7,.8,10.5.5l2.6-.4c.9,0,1.7-.4,2.5-.5.8-.2,1.6-.4,2.6-.7l2.6-.9c3.3-1.4,6.4-3.1,9.2-5.2.7-.5,1.3-1.2,2-1.7.3-.3.7-.6,1-.9l.9-1c.6-.7,1.3-1.2,1.8-1.9l1.6-2.1c2-2.9,3.7-6,4.9-9.2,1.1-3.3,1.9-6.6,2.1-10,.2-3.4,0-6.8-.6-9.9-.2-1.6-.8-3.2-1.3-4.8-.2-.7-.6-1.5-.9-2.2-.3-.7-.6-1.5-1-2.2-2.8-5.7-6.9-10.4-11.4-13.7-4.5-3.4-9.5-5.3-14-6.3-4.5-1.1-8.6-1-11.9-.7-.8,0-1.6.2-2.3.3-.7.1-1.4.3-2,.4-.6.1-1.2.3-1.7.4-.5.1-1,.3-1.4.4-1.7.6-2.6.9-2.6.9M47.7,21.3s.9-.3,2.6-.9c.4-.1.9-.3,1.4-.5.5-.1,1.1-.3,1.7-.4.6-.1,1.3-.3,2-.5.7,0,1.5-.2,2.3-.3,3.3-.4,7.4-.5,12,.4,4.6.8,9.6,2.7,14.5,5.8,4.9,3.2,9.5,7.7,12.9,13.5.5.7.8,1.5,1.2,2.3.4.8.8,1.5,1.1,2.4.6,1.6,1.3,3.1,1.7,4.9,1.1,3.5,1.4,7.1,1.5,10.9,0,3.8-.7,7.6-1.7,11.3-1.1,3.7-2.9,7.3-5,10.7-2.2,3.3-5,6.3-8.1,8.9-3.2,2.5-6.7,4.6-10.5,6.2l-2.8,1c-.9.3-1.9.6-2.9.8-2.1.6-4.1.7-6.1,1-4,.3-8.1,0-12-.9-3.9-1-7.6-2.4-11-4.3-3.3-2-6.4-4.3-9-7-2.6-2.7-4.8-5.7-6.4-8.9-.9-1.5-1.5-3.2-2.2-4.8,0-.2-.1-.3-.3-.7l-.2-.6-.4-1.2c-.2-.8-.5-1.6-.7-2.4-1.5-6.7-1.3-13.1,0-18.8,1.4-5.6,3.8-10.4,6.6-14.2,2.7-3.8,5.8-6.5,8.5-8.5.7-.5,1.3-.9,1.9-1.4.6-.4,1.2-.7,1.8-1.1.6-.3,1.1-.6,1.6-.9.5-.3.9-.4,1.4-.6,1.6-.7,2.5-1.1,2.5-1.1"/>
  </g>
  <g class="st2">
    <path class="st0" d="M36.4,68.4c.8,0,1.6.2,2.3.5v1.6c-.7-.4-1.3-.6-1.9-.6s-1.2.2-1.6.6c-.4.4-.6.9-.6,1.6s.2,1.2.6,1.6c.4.4,1,.6,1.7.6s1.2-.2,2-.5v1.5c-.7.3-1.5.5-2.3.5-1.2,0-2.1-.3-2.8-1-.7-.7-1.1-1.6-1.1-2.7s.4-2.1,1.1-2.8c.7-.7,1.6-1,2.8-1"/>
    <path class="st0" d="M43,68.4c.7,0,1.4.2,2,.5.6.3,1.1.8,1.4,1.3.3.6.5,1.2.5,1.9s-.2,1.4-.5,2c-.3.6-.8,1-1.4,1.3-.6.3-1.3.5-2.1.5s-1.4-.2-2.1-.5c-.6-.3-1.1-.8-1.4-1.3-.3-.6-.5-1.2-.5-2s.2-1.4.5-1.9c.3-.6.8-1,1.4-1.3.6-.3,1.3-.5,2-.5M41,72.1c0,.7.2,1.3.5,1.7.4.4.8.6,1.4.6s1.1-.2,1.5-.6c.4-.4.5-1,.5-1.8s-.2-1.3-.5-1.7c-.4-.4-.8-.6-1.5-.6s-1,.2-1.4.6c-.4.4-.5,1-.5,1.7"/>
    <path class="st0" d="M52,68.4c.8,0,1.4.3,1.8.8.5.5.7,1.2.7,2v4.6h-1.9v-4.4c0-.5-.1-.8-.3-1.1-.2-.3-.5-.4-.9-.4s-.6,0-.8.3c-.3.2-.5.5-.8.9v4.8h-1.9v-7.2h1.9v1c.3-.4.7-.7,1.1-.9.4-.2.8-.3,1.2-.3"/>
    <path class="st0" d="M59.7,68.4c.8,0,1.4.3,1.8.8.5.5.7,1.2.7,2v4.6h-1.9v-4.4c0-.5-.1-.8-.3-1.1-.2-.3-.5-.4-.9-.4s-.6,0-.8.3c-.3.2-.5.5-.8.9v4.8h-1.9v-7.2h1.9v1c.3-.4.7-.7,1.1-.9.4-.2.8-.3,1.2-.3"/>
    <path class="st0" d="M66.6,68.4c1.1,0,1.9.3,2.5,1,.6.7.9,1.6.9,2.8v.3h-5.1c0,.6.3,1.1.7,1.5s1,.5,1.7.5.9,0,1.3-.2c.4-.2.9-.4,1.3-.7v1.4c-.8.6-1.9.9-3.1.9s-2.1-.3-2.8-1c-.7-.7-1.1-1.6-1.1-2.7s.3-2,1-2.7c.7-.7,1.5-1,2.6-1M68.2,71.3c0-.5-.2-.9-.5-1.2-.3-.3-.6-.4-1.1-.4s-.9.1-1.2.4c-.3.3-.5.7-.5,1.2h3.3Z"/>
    <path class="st0" d="M74.4,68.4c.8,0,1.6.2,2.3.5v1.6c-.7-.4-1.3-.6-1.9-.6s-1.2.2-1.6.6c-.4.4-.6.9-.6,1.6s.2,1.2.6,1.6c.4.4,1,.6,1.7.6s1.2-.2,2-.5v1.5c-.7.3-1.5.5-2.3.5-1.2,0-2.1-.3-2.8-1-.7-.7-1.1-1.6-1.1-2.7s.4-2.1,1.1-2.8c.7-.7,1.6-1,2.8-1"/>
    <path class="st0" d="M79.8,66.6h.2v1.9h2.5v1.4h-2.5v3.3c0,.3,0,.6.3.8.2.2.5.3.8.3s.9-.2,1.5-.5v1.5c-.7.3-1.3.5-1.9.5s-1.4-.2-1.9-.7c-.5-.4-.7-1-.7-1.8v-3.4h-1.1v-.3l2.9-3Z"/>
    <path class="st0" d="M44.5,36.4h3.8v29.3h-8.1c-2.8,0-5.1-.9-6.8-2.7-1.7-1.8-2.5-4.2-2.5-7.2s.9-5.2,2.7-7c1.8-1.8,4.1-2.7,6.8-2.7s2.7.3,4.2.8v-10.4ZM44.5,62.4v-12.2c-1.2-.6-2.4-.9-3.6-.9-1.9,0-3.4.6-4.5,1.9-1.1,1.2-1.7,2.9-1.7,5s.5,3.5,1.5,4.6c.6.6,1.2,1.1,1.9,1.3.7.2,1.8.3,3.5.3h3Z"/>
    <path class="st0" d="M50.8,49.4l7.2-7v4h6.1v3.4h-6.1v9.4c0,2.2.9,3.3,2.7,3.3s2.8-.5,4.3-1.4v3.6c-1.5.8-3.1,1.2-4.8,1.2s-3.2-.5-4.4-1.5c-.4-.3-.7-.7-.9-1-.2-.4-.4-.9-.6-1.5-.2-.6-.2-1.8-.2-3.6v-8.5h-3.4v-.4Z"/>
    <path class="st0" d="M79.9,54v8.2c0,.7.2,1,.7,1s1.2-.3,2.2-1v2.3c-.9.6-1.6.9-2.1,1.1-.5.2-1.1.3-1.6.3-1.6,0-2.6-.6-2.9-1.9-1.6,1.3-3.3,1.9-5.2,1.9s-2.5-.4-3.4-1.3c-.9-.9-1.3-2-1.3-3.3s.4-2.3,1.3-3.3c.9-1,2.1-1.7,3.7-2.3l4.9-1.7v-1c0-2.3-1.2-3.5-3.5-3.5s-4.1,1.1-6.1,3.2v-4.2c1.5-1.7,3.6-2.6,6.4-2.6s3.7.5,5,1.6c.4.3.8.8,1.1,1.4.3.6.5,1.2.6,1.7,0,.6.1,1.7.1,3.3M76.2,61.8v-5.7l-2.6,1c-1.3.5-2.2,1-2.8,1.6-.5.5-.8,1.2-.8,2s.3,1.4.8,1.9c.5.5,1.2.8,2,.8,1.2,0,2.3-.5,3.4-1.5"/>
  </g>
</svg>