<?xml version="1.0" encoding="utf-8"?>
<!-- Generator: Adobe Illustrator 16.0.0, SVG Export Plug-In . SVG Version: 6.00 Build 0)  -->
<!DOCTYPE svg PUBLIC "-//W3C//DTD SVG 1.1//EN" "http://www.w3.org/Graphics/SVG/1.1/DTD/svg11.dtd">
<svg version="1.1" id="Layer_1" xmlns="http://www.w3.org/2000/svg" xmlns:xlink="http://www.w3.org/1999/xlink" x="0px" y="0px"
	 width="326px" height="112px" viewBox="0 0 326 112" enable-background="new 0 0 326 112" xml:space="preserve">
<rect id="background" opacity="0" fill="#787473" width="326" height="112"/>
<g>
	<path fill="#787473" d="M167.992,57.443h4.795c4.307,0,6.804,2.059,6.804,5.787c0,3.407-2.649,5.342-6.804,5.342h-4.795V57.443z
		 M167.992,42.237h4.722c3.624,0,5.72,1.686,5.72,4.794c0,3.131-2.583,4.683-5.72,4.683h-4.722V42.237z M181.039,54.138
		c2.062-0.982,5.079-3.587,5.079-8.098c0-5.46-4.041-9.863-12.959-9.863h-16.458v6.063h3.966v32.394h13.056
		c6.979,0,13.555-3.104,13.555-10.852c0-6.056-4.234-8.761-6.239-9.466V54.138L181.039,54.138L181.039,54.138z M218.917,55.405
		c0,8.08-4.608,13.167-12.671,13.167h-3.523V42.237h3.523C214.309,42.237,218.917,47.33,218.917,55.405z M226.721,55.405
		c0-12.008-8.396-19.228-21.995-19.228H191.43v6.062h3.97v32.395h9.326C218.326,74.634,226.721,67.416,226.721,55.405z"/>
	<path fill="#787473" d="M121.969,30.636c3.581,0.023,7.11,0.837,10.34,2.382l-8.433,12.89L121.969,30.636L121.969,30.636z
		 M127.899,47.47l12.996-7.603c-2.222-2.794-5.026-5.07-8.219-6.668L127.899,47.47L127.899,47.47z M131.103,50.69l14.516-0.918
		c-0.768-3.472-2.288-6.734-4.452-9.557C138.339,43.158,131.103,50.69,131.103,50.69L131.103,50.69z M115.618,47.484L110.863,33.2
		c-3.191,1.599-5.996,3.875-8.217,6.668L115.618,47.484L115.618,47.484z M112.418,50.72l-10.046-10.502
		c-2.163,2.822-3.682,6.084-4.449,9.557L112.418,50.72z M121.572,30.636c-3.58,0.023-7.11,0.838-10.339,2.383l8.422,12.89
		L121.572,30.636L121.572,30.636z"/>
	<path fill="#787473" d="M145.726,50.285l-23.954,9.832l-23.953-9.832c-0.308,1.544-0.467,3.137-0.467,4.77
		c0,13.488,10.935,24.421,24.421,24.421s24.42-10.933,24.42-24.421C146.193,53.422,146.031,51.828,145.726,50.285z M121.789,75.306
		c-8.725,0-15.806-6.996-15.966-15.678l5.043,2.162c0.921,4.723,4.831,8.377,9.679,8.914c-1.481-0.521-2.473-1.921-2.474-3.491
		c0-2.054,1.665-3.716,3.711-3.716s3.708,1.662,3.708,3.711c-0.001,1.572-0.993,2.973-2.475,3.496
		c4.901-0.539,8.842-4.261,9.714-9.053l0,0l5.037-2.143C137.669,68.254,130.555,75.311,121.789,75.306z"/>
</g>
</svg>
