<?xml version="1.0" encoding="utf-8"?>
<!-- Generator: Adobe Illustrator 16.0.0, SVG Export Plug-In . SVG Version: 6.00 Build 0)  -->
<!DOCTYPE svg PUBLIC "-//W3C//DTD SVG 1.1//EN" "http://www.w3.org/Graphics/SVG/1.1/DTD/svg11.dtd">
<svg version="1.1" id="Layer_1" xmlns="http://www.w3.org/2000/svg" xmlns:xlink="http://www.w3.org/1999/xlink" x="0px" y="0px"
	 width="326px" height="112px" viewBox="0 0 326 112" enable-background="new 0 0 326 112" xml:space="preserve">
<rect id="background" opacity="0" fill="#787473" width="326" height="112"/>
<path id="path3356" fill="#787473" d="M181.843,34.861l-6.251,25.435l-6.272-25.435h-18.111v9.393
	c-2.201-8.219-10.274-10.28-17.488-10.398c-8.795-0.116-18.541,3.696-18.88,15.328h12.166c0-3.511,3.214-5.522,6.25-5.472
	c3.728-0.031,5.442,1.56,5.528,4.038c-0.128,2.149-1.396,3.646-5.497,3.646h-4.092v8.439h3.714c2.11,0,5.046,1.149,5.162,4.154
	c0.142,3.582-2.349,5.154-5.414,5.186c-5.469-0.204-6.882-4.405-6.882-8.021h-12.627c0.053,2.436-0.027,18.305,19.764,18.189
	c9.481,0.084,16.381-3.9,18.328-9.394v8.422h12.179V50.928l6.733,27.443h10.881l6.759-27.412v27.435h12.427V34.861H181.843z
	 M151.248,60.237c-1.551-3.208-3.734-4.612-4.961-5.056c2.578-1.146,3.928-2.703,4.961-5.802V60.237z"/>
</svg>
