<?xml version="1.0" encoding="UTF-8"?>
<svg id="Layer_1" xmlns="http://www.w3.org/2000/svg" xmlns:xlink="http://www.w3.org/1999/xlink" version="1.1" viewBox="0 0 326 112">
  <!-- Generator: Adobe Illustrator 29.2.1, SVG Export Plug-In . SVG Version: 2.1.0 Build 116)  -->
  <defs>
    <style>
      .st0 {
        fill-rule: evenodd;
      }

      .st0, .st1 {
        fill: #787473;
      }

      .st1 {
        fill-opacity: 0;
      }
    </style>
  </defs>
  <polyline id="background" class="st1" points="326 112 0 112 0 0 326 0"/>
  <g>
    <path class="st0" d="M111.4,25.7c.3-.5.6-1,.8-1.4,1.1-2,2.8-3,5-3,21.7,0,43.4,0,65.2,0,.7,0,1.1.2,1.5.9,3.1,5.7,6.3,11.4,9.4,17.1,2.1,3.8,4.1,7.6,6.2,11.5.5.9,1,1.7,1.4,2.6.2.3.2.9,0,1.2-2,3.8-4.1,7.6-6.2,11.3-1.6,2.9-3.2,5.8-4.8,8.8-2.1,3.8-4.2,7.6-6.3,11.4-.4.7-.8.7-1.4.7-10.5,0-21.1,0-31.6,0s-21.9,0-32.9,0c-2.8,0-4.8-1.2-5.9-3.8-.1-.3-.3-.5-.5-.8,0-18.8,0-37.6,0-56.5ZM126.2,47.2c.3.2.4.3.5.4,1.3,2.1,2.6,4.2,3.8,6.3,2.9,4.7,5.8,9.5,8.7,14.2.2.2.5.6.7.6,1.7,0,3.3,0,5,0v-29.4h-4.9v21c-.9-1.1-1.5-2.1-2.2-3.2-3.5-5.8-7.1-11.6-10.7-17.4-.1-.2-.4-.5-.6-.5-1.7,0-3.4,0-5.1,0v29.4h4.8v-21.4ZM178.4,39.4v1.1c0,3.1,0,6.2,0,9.3,0,.8-.2,1.2-1.1,1.2-3.6,0-7.3,0-10.9,0-.8,0-1.1-.2-1.1-1.1,0-3.2,0-6.3,0-9.5,0-.3,0-.7,0-1h-5.2v29.3h5.2v-1.1c0-3.7,0-7.4,0-11,0-.8.2-1.2,1.1-1.2,3.6,0,7.3,0,10.9,0,.8,0,1.1.2,1.1,1.1,0,3.7,0,7.4,0,11.1v1.1h5v-29.3c-1.7,0-3.3,0-5,0ZM150,39.3v29.3h4.9v-29.3c-1.7,0-3.3,0-4.9,0Z"/>
    <path class="st0" d="M187.8,86.8c1.1-2.1,2.2-4.1,3.2-6,1.2-2.3,2.5-4.5,3.8-6.7,2.9-5.3,5.8-10.6,8.7-15.9.7-1.2,1.3-2.4,1.9-3.6.2-.3.2-.9,0-1.2-2.4-4.4-4.8-8.7-7.2-13.1-1.3-2.3-2.5-4.7-3.8-7-2.2-4-4.3-7.9-6.6-12,2.6.2,5-.5,7.4.6,1.7.8,3.1,1.9,4,3.5,2.8,5.2,5.6,10.3,8.4,15.4,2.3,4.3,4.7,8.5,7,12.8.1.2.1.6,0,.8-1.7,3.1-3.4,6.2-5.1,9.3-1.3,2.3-2.5,4.6-3.8,7-2.4,4.3-4.6,8.6-7.2,12.8-1.3,2.2-3.6,3.3-6.2,3.4-1.4,0-2.9,0-4.5,0Z"/>
  </g>
</svg>