<?xml version="1.0" encoding="utf-8"?>
<!-- Generator: Adobe Illustrator 16.0.0, SVG Export Plug-In . SVG Version: 6.00 Build 0)  -->
<!DOCTYPE svg PUBLIC "-//W3C//DTD SVG 1.1//EN" "http://www.w3.org/Graphics/SVG/1.1/DTD/svg11.dtd">
<svg version="1.1" id="Layer_1" xmlns="http://www.w3.org/2000/svg" xmlns:xlink="http://www.w3.org/1999/xlink" x="0px" y="0px"
	 width="326px" height="112px" viewBox="0 0 326 112" enable-background="new 0 0 326 112" xml:space="preserve">
<rect id="background" opacity="0" fill="#787473" width="326" height="112"/>
<g id="earthpeople">
	<g>
		<g>
			<path fill="#616264" d="M191.151,60.09c1.11-2.428,3.746-2.982,6.175-2.982c-0.014-0.613-0.014-1.156-0.068-1.804
				c-2.36,0.208-4.649-0.485-5.897-2.636c-1.249-2.567-2.083-5.481-1.804-8.604c0.208-1.874,2.081-3.4,3.676-4.302
				c-0.267-0.498-0.555-0.97-0.831-1.525c-0.703,0.329-1.388,0.833-2.222,1.041c-4.023,1.526-6.937-2.428-9.297-5.134
				c-1.317-1.526-1.456-3.955-0.693-5.829c0.277-0.485,0.539-0.977,0.832-1.596c-0.484-0.347-1.043-0.649-1.595-0.833
				c-0.486,0.902-1.041,1.804-1.735,2.428c-3.26,2.776-8.047,0.902-11.239-0.625c-1.942-1.387-2.428-3.538-2.358-5.827
				c-0.623-0.01-1.372-0.01-1.891-0.01c0.139,2.566-0.677,5.213-3.106,6.392c-2.359,0.971-4.787,1.734-7.563,1.665
				c-2.149,0-3.987-2.01-4.958-3.814c-0.492,0.208-1.578,1.009-1.578,1.009c0.417,0.624,0.985,1.487,1.194,2.25
				c1.042,2.845-0.833,5.204-2.568,7.216c-2.081,2.221-4.856,4.441-7.908,3.123c-0.695-0.209-1.404-0.609-2.083-0.902
				c-0.277,0.485-0.64,1.068-0.848,1.585c1.708,0.803,3.97,2.716,4.04,4.936c-0.208,2.359-0.763,4.648-1.804,6.73
				c-1.111,2.497-3.782,3.436-6.349,3.366c0,0.646,0,1.163,0.026,1.759c2.22-0.07,4.519,0.426,5.837,2.297
				c1.249,2.707,2.29,5.552,2.082,8.812c-0.139,2.012-1.873,3.678-3.608,4.579c-0.207,0.139-0.059,0.291,0.01,0.43
				c0.405,0.72,0.595,1.06,0.802,1.035c1.666-1.249,4.531-1.743,6.543-0.633c2.359,1.459,4.44,3.608,5.896,6.037
				c0.833,1.804,0.488,3.914-0.564,5.617c-0.2,0.324-0.285,0.543,0.079,0.747c0.284,0.159,0.636,0.371,0.902,0.504
				c0.235,0.249,0.625-0.693,0.971-1.042c1.11-1.665,2.844-2.913,4.927-2.843c2.497,0.138,4.925,0.763,7.006,1.941
				c2.012,1.319,2.567,3.608,2.498,5.899c0.555,0,1.235,0.045,1.778-0.008c-0.068-2.358,0.581-4.642,2.522-6.099
				c2.428-1.111,5.065-2.082,7.979-1.943c2.29-0.068,4.094,1.805,5.064,3.747c0.551-0.335,0.991-0.594,1.527-0.972
				c-0.348-0.624-0.625-1.249-0.902-1.943c-0.694-2.08-0.208-4.509,1.387-6.035c1.804-2.012,3.886-4.163,6.452-4.649
				c1.735-0.138,3.054,0.625,4.441,1.318c0.416-0.484,0.763-1.109,0.973-1.665c-0.834-0.625-1.804-1.109-2.499-1.941
				C188.237,67.445,190.041,63.074,191.151,60.09z M175.194,42.468c0.623-2.429,1.04-4.926,2.429-7.078
				c0.416-0.277,0.901-0.485,1.388-0.277c1.179,0.554,2.22,1.457,3.26,2.359c0.902,0.902,1.804,1.942,2.151,3.261
				c-0.348,1.388-1.942,1.665-3.053,2.151c-2.013,0.624-4.163,1.318-6.314,1.595C174.639,43.854,175.124,43.092,175.194,42.468z
				 M178.664,50.03c-0.763-1.458-1.526-2.914-2.637-4.301c0.209-0.417,0.833-0.209,1.249-0.417c1.457-0.277,3.121-0.416,4.578-0.277
				l0.277,0.277c-0.555,1.804-1.941,3.331-3.33,4.788L178.664,50.03z M182.202,66.752c-0.139,0.832-1.249,0.484-1.805,0.623
				c-1.457-0.07-2.913-0.207-4.302-0.555l-0.137-0.139c1.108-1.457,1.871-2.983,2.705-4.51
				C180.189,63.352,181.438,65.017,182.202,66.752z M174.153,37.473c0.139,1.874,0.139,4.093-0.416,5.827
				c-0.972-0.416-1.942-1.18-2.914-1.734c-0.624-0.277-1.317-0.486-1.874-0.833c0.834-0.971,1.874-1.664,2.915-2.497
				c0.694-0.347,1.318-1.249,2.15-0.971L174.153,37.473z M165.759,30.534c0.971-0.625,2.551-0.404,3.677-0.277
				c1.53,0.17,2.9,0.715,4.162,1.526c0.611,0.393,0.278,1.041,0.278,1.179c-1.111,2.498-3.26,4.441-5.272,6.452
				c-0.417,0.278-0.694,0.971-1.181,0.694c-0.971-2.358-1.664-4.856-2.081-7.423C165.272,31.922,165.203,31.089,165.759,30.534z
				 M162.775,34.697c0.971-0.486,1.11,0.97,1.666,1.457c0.555,1.25,1.18,2.429,1.458,3.678c-0.833,0.069-1.943,0-2.708-0.07
				l-2.706,0.209C161.042,38.097,161.805,36.362,162.775,34.697z M152.437,32.546c1.042-1.041,2.359-1.596,3.747-2.082
				c1.249-0.208,2.637-0.625,4.024-0.417l0.417,0.348c0.624,0.694,0.417,1.804,0.347,2.706c-0.555,2.429-0.973,4.856-2.012,7.077
				l-0.487-0.069c-2.011-1.873-4.717-3.955-6.036-6.452C152.229,33.379,152.229,32.824,152.437,32.546z M151.952,37.681
				c0.416-0.624,0.902,0.069,1.388,0.139c1.387,0.763,2.774,1.664,3.955,2.913v0.139c-1.665,0.694-3.261,1.596-4.718,2.636
				C152.021,41.704,151.813,39.624,151.952,37.681z M143.765,38.028c1.04-1.18,2.359-2.359,3.815-2.776
				c1.11-0.069,1.527,1.249,1.874,2.013c0.833,2.29,1.526,4.648,1.942,7.146c-0.416,0.625-1.249,0.14-1.873,0.069
				c-2.15-0.485-4.301-0.972-6.313-1.804c-0.485-0.277-1.11-0.625-1.249-1.18C141.961,40.179,143.002,39.068,143.765,38.028z
				 M147.512,50.447c-1.318-1.25-2.707-2.776-3.331-4.51c0.208-0.763,1.249-0.416,1.943-0.555c1.388,0,2.844,0.07,4.093,0.486
				c-1.042,1.457-1.943,2.914-2.567,4.51L147.512,50.447z M150.148,66.682l-0.278,0.207c-1.734,0.416-3.676,0.695-5.411,0.486
				c-0.694-0.762,0.416-1.596,0.624-2.358c0.834-0.972,1.32-2.22,2.43-2.914C148.274,63.698,149.108,65.225,150.148,66.682z
				 M137.59,48.295c0.486-0.902,0.694-2.22,1.804-2.567c1.805,0.069,2.984,1.596,4.302,2.636c1.109,1.041,2.429,2.082,3.191,3.399
				c0.069,0.208-0.207,0.348-0.415,0.417c-2.637,0.624-5.136,1.803-7.98,1.803c-0.555,0-1.041-0.208-1.318-0.693
				C136.757,51.625,137.104,49.822,137.59,48.295z M146.609,58.842c-1.873-0.486-3.677-1.249-5.272-2.43
				c-0.069-0.139-0.069-0.346,0.069-0.485c1.596-1.18,3.399-2.012,5.273-2.566l0.069,0.207
				C146.472,55.302,146.609,57.176,146.609,58.842z M138.77,66.889c-1.526-2.22-2.29-4.995-1.943-7.77
				c0.486-1.041,1.874-0.833,2.845-0.764c2.428,0.486,4.787,1.041,7.008,1.804c0.347,0.069,0.416,0.485,0.207,0.694
				c-1.873,2.149-3.954,4.439-6.313,6.035C140.088,67.168,139.324,67.305,138.77,66.889z M149.454,76.187
				c-0.346,0.625-0.763,1.526-1.596,1.526c-2.568-0.763-4.856-3.122-6.036-5.48c0-0.347,0-0.834,0.347-1.111
				c2.498-1.872,5.689-2.427,8.672-3.26c0.278,0,0.486,0.138,0.555,0.417C150.911,70.983,150.425,73.689,149.454,76.187z
				 M152.16,74.868c-0.277-1.873-0.069-3.885,0.347-5.689c1.527,0.971,3.052,1.874,4.718,2.636v0.209
				c-1.318,1.319-2.775,2.429-4.302,3.262C152.577,75.424,152.16,75.285,152.16,74.868z M159.999,82.293
				c-2.636,0.277-5.133-0.277-7.214-1.526c-0.348-0.348-0.348-0.834-0.348-1.25c0.625-1.734,2.082-3.053,3.331-4.509
				c0.902-0.903,1.733-1.806,2.705-2.567c0.349-0.14,0.487,0.207,0.625,0.416c0.763,2.774,1.874,5.481,1.735,8.465
				C160.763,81.807,160.347,82.154,159.999,82.293z M163.469,77.713c-0.139,0.208-0.485,0.139-0.624,0
				c-1.181-1.457-1.874-3.191-2.36-4.995l0.069-0.07c1.526,0.209,3.399,0.209,4.926,0c0.278,0.209,0,0.555,0,0.834
				C164.926,74.938,164.371,76.395,163.469,77.713z M171.726,81.391c-1.804,0.764-3.955,1.526-5.967,0.902
				c-0.902-0.764-0.486-2.083-0.417-3.123c0.486-2.29,0.972-4.579,1.874-6.729c0.139-0.14,0.416-0.14,0.624,0.068
				c2.151,2.082,4.787,4.025,5.968,6.661C174.152,80.558,172.627,80.835,171.726,81.391z M174.153,74.868
				c-0.208,0.279-0.555,0.069-0.763,0c-1.526-0.764-3.053-1.734-4.372-2.982c0.555-0.626,1.458-0.694,2.152-1.18l2.288-1.597
				c0.626,0.833,0.626,2.15,0.764,3.123C174.223,73.134,174.5,74.104,174.153,74.868z M163.18,70.04
				c-7.541,0-13.654-6.112-13.654-13.652c0-7.541,6.113-13.652,13.654-13.653c7.538,0,13.651,6.113,13.651,13.653
				C176.831,63.928,170.718,70.04,163.18,70.04z M183.449,73.481c-1.179,1.595-2.773,3.121-4.578,3.885
				c-0.485,0.139-0.902-0.069-1.248-0.416c-1.597-2.359-2.013-5.274-2.706-7.979c0-0.347-0.209-0.831,0.138-1.041
				c2.775,0.416,5.482,1.111,7.979,2.151c0.485,0.207,0.971,0.555,1.248,1.04C184.561,72.093,183.866,72.718,183.449,73.481z
				 M187.752,66.472c-0.277,0.278-0.624,0.348-1.04,0.348c-1.736-0.347-2.983-1.803-4.371-3.052
				c-1.041-0.971-2.359-2.013-3.123-3.261c0.139-0.625,0.902-0.556,1.319-0.764c2.22-0.624,4.37-1.318,6.729-1.526
				c0.764-0.139,1.388,0.208,1.806,0.832C189.625,61.687,188.932,64.323,187.752,66.472z M179.704,55.719l-0.139-2.012l0.208-0.208
				c1.734,0.555,3.537,1.18,4.995,2.429c0.069,0.902-1.04,0.971-1.525,1.458c-1.18,0.555-2.29,1.109-3.539,1.387
				C179.495,57.731,179.843,56.759,179.704,55.719z M189.141,53.569c-1.318,0.97-3.122,0.207-4.58,0
				c-1.733-0.486-3.469-0.833-5.134-1.597c-0.209-0.139-0.277-0.416-0.138-0.555c2.011-2.29,4.093-4.648,6.729-6.036
				c1.594-0.416,1.871,1.388,2.427,2.22C189.141,49.406,189.834,51.556,189.141,53.569z"/>
		</g>
	</g>
	<g>
		<path fill="#616264" d="M161.614,42.937c0,0,0.406,2.782-1.029,2.481c-1.435-0.3-1.219-1.909-1.165-2.045
			C159.422,43.373,161.397,42.855,161.614,42.937z"/>
		<path fill="#616264" d="M158.365,43.754c0,0-0.162,0.382,0.38,0.573c0.541,0.19,0.948,1.227,0,1.636c0,0-0.38-0.037-0.624-0.522
			c0,0-0.405,0.059-0.379,0.522c0,0-0.433,0.874-1.597,0.819c0,0,0.197,1.078,1.109,0.32c0,0,0.068-0.811,0.839-0.804
			c0.772,0.006,0.751-0.177,0.813,0.47c0.061,0.648,0.474,0.716,0.697,0.982c0.223,0.266,0.589,0.865-0.677,1.131
			c0,0-0.165,1.023-0.938,1.377c0,0-0.651,0.736-0.719,1.378c0,0-0.705,0.19-0.691,0.436c0.014,0.246,0.041,1.213,0.528,1.213
			c0.488,0,1.259,0,1.151,0.56c0,0-0.014,0.218-2.18,0.095c0,0-0.767,0.091-0.132-0.665c0,0-0.528-1.156-1.376-0.118
			c-0.848,1.038,0.438,0.887,0.681,0.821c0.245-0.064,0.068,0.577,0.109,0.795c0.041,0.219,0.555-0.613,0.704,0.654
			c0,0,0.285,0.301,0.677,0.423s0.094-0.682,1.259-0.559c0,0,1.11-0.6,2.207,0.191c1.097,0.791,0.664,0.125,1.814,1.003
			s1.597,0.25,2.233,0.456c0.636,0.205,1.558,0.792,0.514,2.209c0,0-0.5,1.677-1.691,2.549c0,0,0.325,0.981-0.055,1.199
			c-0.378,0.22-2.005,1.527-1.354,2.347c0.65,0.817,0.324,1.636,0,1.636s-1.224,0.6-2.29-3.326
			c-1.067-3.928-0.904-2.401-1.445-2.945c-0.542-0.546-1.895-1.582-1.191-3.709c0,0-0.806-0.083-1.089-0.308
			c-0.284-0.225-0.386-0.531-0.874-0.552c-0.487-0.02-0.284-0.245-0.344-0.287c-0.062-0.041-0.589-0.176-0.982-0.115
			c-0.393,0.061-0.176-0.356-0.447-0.305s-1.07-0.671-1.15-1.353c0,0-0.508-0.273-0.548-0.661c0,0-0.426-0.389-0.406-0.756
			c0,0-0.345-0.369-0.264-0.491C150.718,51.949,152.065,46.134,158.365,43.754z"/>
		<path fill="#616264" d="M164.28,42.746c0,0,0.65,1.323,1.503,1.438c0,0-0.108,0.543,1.029,1.257c0,0,0.392,0.731-0.704,0
			c-1.097-0.732-1.239,0.659-1.036,0.515c0.203-0.143-0.092,1.044,0.168,1.146c0.259,0.102-0.31,0.328,1.051,0.512
			c0,0,0.102,1.656,1.035,1.492c0,0,0.061,1.043,0,1.351c-0.062,0.307-0.934,1.779-0.081,3.251c0.853,1.473,2.206,2.169,2.978,1.078
			c0,0,1.205-0.272,1.313,0.177c0.107,0.45,0.326,0.491,0.582,0.518c0.257,0.027,0.812,1.2,0.785,1.555
			c-0.027,0.354-0.405,0.9,0.136,1.472c0,0,0.188,1.582,0,1.828c-0.19,0.245-0.156,1.526,0.084,1.526s1.756,0.218,2.324-0.49
			c0.569-0.709,1.029-0.628,1.165-1.664C176.612,59.707,180.321,45.446,164.28,42.746z"/>
		<path fill="#616264" d="M169.356,68.706c0,0-5.603,2.891-10.992,0.3c0,0,2.532,0.138,3.331,0.015
			c0.799-0.123,0.487-1.296,1.354-1.364l0.041,0.218c0,0,0.094,1.052,0.202,0.996c0.108-0.054,0.471,0.382,1.948-0.109
			c0,0,0.894-0.261,2.146,0C167.387,68.761,167.773,68.426,169.356,68.706z"/>
	</g>
	<path fill="#616264" d="M157.784,43.434c0,0,0.246,0.763,0.357,1.006c0.111,0.244-3.235,1.835-3.235,1.835l-4.374,5.622
		c0,0-0.208,0.208-0.476-0.12c-0.267-0.327,2.306-4.461,2.306-4.461S155.563,43.852,157.784,43.434z"/>
	<path fill="#616264" d="M163.17,68.704c0,0,0.5-0.021,0.681,0.174c0.182,0.193-4.963,1.059-5.915,0.118
		c0,0,0.672-0.086,1.383,0.069c0.713,0.156,0.984-0.122,0.984-0.122"/>
	<path fill="#616264" d="M164.516,42.746c0,0-0.222,0.18,0.29,0.477c0.514,0.298,5.846,2.374,5.957,2.384s0.524-0.265,0.524-0.265
		S167.773,42.373,164.516,42.746z"/>
	<path fill="#616264" d="M170.986,45.662c0,0,0.204-0.287,0.531-0.188c0.326,0.099-0.972-0.463-0.885-0.132"/>
	<path fill="#616264" d="M175.32,61.294c0,0,0.031,0.164,0.507-0.178c0.476-0.343,0.476-1.518,0.476-1.518l0.462-4.588l-0.848-3.682
		l-0.938-2.03l-2.744-3.346l-0.269-0.123c0,0-0.342,0.246-0.449,0.334c-0.108,0.09,1.142,0.87,1.142,0.87s0.312,0.863,0.356,0.978
		C173.061,48.127,175.678,61.057,175.32,61.294z"/>
	<path fill="#616264" d="M161.487,42.828c0,0,0.067,0.117,0.084,0.607c0.016,0.492-1.885,0.208-1.885,0.208l-0.169,0.011
		l-0.032-0.056c0,0-0.079-0.296,0.501-0.552C160.566,42.79,161.487,42.828,161.487,42.828z"/>
	<path fill="#616264" d="M176.396,56.571c0,0-0.379,2.366,0,2.109C176.775,58.423,176.863,55.522,176.396,56.571z"/>
</g>
<g id="text">
	<path fill="#616264" d="M127.454,61.329l-7.722,0.066l-0.017-2.039l2.816-1.628c0.809-0.465,1.767-0.92,2.635-1.283l-0.001-0.023
		c-1.018,0.111-2.061,0.155-3.229,0.166l-2.245,0.019l-0.014-1.604l7.722-0.066l0.016,1.834l-2.964,1.673
		c-0.833,0.466-1.813,0.99-2.715,1.364v0.047c1.031-0.067,2.119-0.1,3.379-0.109l2.326-0.021L127.454,61.329z"/>
	<path fill="#616264" d="M126.015,50.055l1.877,0.834l-0.277,1.789l-7.27-3.513l0.348-2.253l7.998-1.198l-0.286,1.856l-2.05,0.287
		L126.015,50.055z M125.023,47.919l-1.693,0.225c-0.472,0.055-1.07,0.102-1.529,0.147l-0.006,0.033
		c0.438,0.171,0.996,0.386,1.42,0.567l1.546,0.714L125.023,47.919z"/>
	<path fill="#616264" d="M124.237,39.945l-0.93,1.947l-1.212-0.554l2.644-5.54l1.213,0.553l-0.939,1.967l5.173,2.361l-0.776,1.625
		L124.237,39.945z"/>
	<path fill="#616264" d="M126.122,32.089l6.838,3.586l-0.809,1.542l-6.838-3.587L126.122,32.089z"/>
	<path fill="#616264" d="M136.023,32.488c-1.728,1.489-3.88,1.06-5.317-0.605c-1.51-1.755-1.511-4.036,0.208-5.518
		c1.796-1.548,3.936-1.047,5.328,0.567c1.66,1.927,1.5,4.076-0.21,5.548L136.023,32.488z M135.178,31.386
		c0.894-0.77,0.681-2.052-0.305-3.198c-0.905-1.051-2.177-1.528-3.09-0.743c-0.911,0.786-0.661,2.112,0.282,3.206
		c0.95,1.103,2.219,1.506,3.104,0.743L135.178,31.386z"/>
	<path fill="#616264" d="M140.396,27.841l-4.081-6.555l1.731-1.077l2.856,1.554c0.819,0.449,1.707,1.03,2.468,1.581l0.02-0.012
		c-0.626-0.811-1.206-1.678-1.824-2.669l-1.187-1.907l1.362-0.847l4.079,6.556l-1.556,0.968l-2.974-1.657
		c-0.831-0.468-1.789-1.032-2.58-1.606l-0.038,0.024c0.593,0.846,1.188,1.758,1.854,2.827l1.229,1.975L140.396,27.841z"/>
	<path fill="#616264" d="M148.96,20.602l0.064,2.053l-1.731,0.529l-0.001-8.075l2.181-0.667l4.559,6.68l-1.797,0.551l-1.149-1.722
		L148.96,20.602z M150.452,18.78l-0.939-1.426c-0.255-0.401-0.558-0.92-0.797-1.313l-0.033,0.01
		c0.035,0.467,0.086,1.063,0.107,1.524l0.031,1.704L150.452,18.78z"/>
	<path fill="#616264" d="M155.89,12.909l1.74-0.066l0.237,6.251l3.067-0.117l0.056,1.466l-4.809,0.183L155.89,12.909z"/>
	<path fill="#616264" d="M174.979,19.833c0.342,0.457,0.957,1.061,1.692,1.457c0.792,0.425,1.363,0.355,1.602-0.102
		c0.217-0.418-0.015-0.868-0.784-1.645c-1.057-1.089-1.568-2.171-1.046-3.178c0.606-1.17,2.165-1.466,3.954-0.504
		c0.871,0.469,1.415,0.957,1.767,1.394l-1.027,1.035c-0.227-0.291-0.68-0.782-1.417-1.179c-0.748-0.401-1.272-0.28-1.452,0.065
		c-0.227,0.438,0.091,0.856,0.908,1.737c1.116,1.173,1.412,2.138,0.904,3.116c-0.596,1.15-2.075,1.604-4.17,0.478
		c-0.872-0.469-1.621-1.145-1.94-1.591L174.979,19.833z"/>
	<path fill="#616264" d="M185.498,28.029c-0.335-0.08-1.018-0.403-1.736-0.992c-2.064-1.69-2.068-3.856-0.668-5.567
		c1.669-2.039,4.045-1.974,5.854-0.493c0.699,0.573,1.114,1.15,1.252,1.47l-1.154,0.832c-0.172-0.333-0.466-0.751-0.954-1.151
		c-1.063-0.871-2.426-0.906-3.521,0.432c-0.98,1.198-0.888,2.532,0.309,3.511c0.417,0.341,0.925,0.624,1.295,0.734L185.498,28.029z"
		/>
	<path fill="#616264" d="M194.187,25.995l-5.589,5.328l-1.201-1.26l5.589-5.329L194.187,25.995z"/>
	<path fill="#616264" d="M195.767,35.207l-1.573-2.366l-1.525,1.015l1.756,2.643l-1.193,0.793l-2.721-4.092l6.431-4.275l2.633,3.958
		l-1.192,0.793l-1.669-2.508l-1.336,0.887l1.573,2.367L195.767,35.207z"/>
	<path fill="#616264" d="M194.737,39.008l7.037-3.182l0.84,1.858l-1.917,2.626c-0.553,0.753-1.245,1.558-1.893,2.239l0.009,0.021
		c0.887-0.514,1.823-0.976,2.888-1.456l2.046-0.925l0.661,1.461l-7.036,3.181l-0.755-1.67l2.034-2.73
		c0.573-0.762,1.259-1.638,1.933-2.345l-0.02-0.042c-0.916,0.477-1.897,0.946-3.046,1.465l-2.12,0.959L194.737,39.008z"/>
	<path fill="#616264" d="M198.291,51.916c-0.162-0.302-0.375-1.028-0.412-1.955c-0.11-2.667,1.504-4.11,3.713-4.2
		c2.633-0.109,4.164,1.708,4.262,4.043c0.036,0.904-0.118,1.599-0.266,1.914l-1.39-0.31c0.136-0.35,0.253-0.847,0.227-1.477
		c-0.058-1.374-0.938-2.416-2.665-2.344c-1.545,0.064-2.481,1.02-2.417,2.565c0.021,0.539,0.149,1.106,0.312,1.455L198.291,51.916z"
		/>
	<path fill="#616264" d="M201.689,59.68l0.112-2.839l-1.832-0.071l-0.124,3.17l-1.432-0.056l0.193-4.913l7.715,0.305l-0.187,4.75
		l-1.431-0.057l0.119-3.01l-1.603-0.064l-0.112,2.839L201.689,59.68z"/>
	<path fill="#616264" d="M131.441,73.318l2.258,4.132l-1.257,0.688l-1.423-2.604l-1.548,0.846l1.329,2.434l-1.247,0.681
		l-1.329-2.434l-2.724,1.489l-0.835-1.528L131.441,73.318z"/>
	<path fill="#616264" d="M132.299,87.426c-1.912-1.241-2.104-3.429-0.907-5.272c1.259-1.943,3.451-2.583,5.354-1.348
		c1.989,1.29,2.108,3.484,0.949,5.271c-1.384,2.134-3.492,2.583-5.386,1.354L132.299,87.426z M133.122,86.306
		c0.99,0.644,2.162,0.078,2.985-1.19c0.754-1.163,0.855-2.517-0.154-3.173c-1.009-0.654-2.212-0.042-2.999,1.169
		c-0.791,1.221-0.823,2.553,0.158,3.188L133.122,86.306z"/>
	<path fill="#616264" d="M142.999,86.216l-2.137,3.886c-0.646,1.174-0.52,2.016,0.253,2.439c0.803,0.442,1.554,0.123,2.216-1.082
		l2.137-3.883l1.527,0.838l-2.089,3.795c-1.148,2.088-2.749,2.501-4.516,1.53c-1.706-0.938-2.174-2.439-0.993-4.588l2.077-3.774
		L142.999,86.216z"/>
	<path fill="#616264" d="M146.682,96.681l2.122-7.424l1.96,0.56l0.766,3.163c0.216,0.907,0.381,1.956,0.483,2.89l0.022,0.007
		c0.182-1.009,0.435-2.021,0.755-3.144l0.618-2.16l1.542,0.441l-2.123,7.425l-1.763-0.505l-0.767-3.316
		c-0.21-0.931-0.436-2.019-0.539-2.99l-0.044-0.012c-0.229,1.006-0.505,2.059-0.852,3.271l-0.639,2.236L146.682,96.681z"/>
	<path fill="#616264" d="M157.378,91.845c0.644-0.101,1.481-0.139,2.351-0.12c1.478,0.031,2.436,0.293,3.155,0.871
		c0.789,0.612,1.271,1.586,1.242,2.96c-0.032,1.479-0.593,2.486-1.339,3.1c-0.828,0.658-2.084,0.952-3.595,0.919
		c-0.905-0.02-1.557-0.091-1.979-0.157L157.378,91.845z M158.982,98.172c0.149,0.036,0.4,0.043,0.606,0.048
		c1.592,0.045,2.654-0.802,2.693-2.647c0.036-1.66-0.886-2.47-2.397-2.504c-0.379-0.007-0.643,0.021-0.792,0.053L158.982,98.172z"/>
	<path fill="#616264" d="M168.146,97.173l-0.322,1.974l-1.847,0.205l1.527-7.721l2.326-0.258l3.334,7.183l-1.917,0.213l-0.832-1.847
		L168.146,97.173z M169.996,95.691l-0.677-1.527c-0.181-0.429-0.389-0.978-0.556-1.396l-0.035,0.004
		c-0.052,0.454-0.114,1.033-0.181,1.477l-0.292,1.635L169.996,95.691z"/>
	<path fill="#616264" d="M183.1,85.979l3.556,6.854l-1.545,0.802l-3.557-6.854L183.1,85.979z"/>
	<path fill="#616264" d="M192.893,87.615c-1.678,1.475-3.788,1.08-5.206-0.531c-1.492-1.696-1.512-3.928,0.157-5.396
		c1.746-1.534,3.844-1.069,5.218,0.492c1.641,1.864,1.501,3.969-0.159,5.429L192.893,87.615z M192.059,86.547
		c0.868-0.764,0.648-2.016-0.326-3.124c-0.894-1.017-2.143-1.467-3.028-0.689c-0.885,0.778-0.63,2.073,0.303,3.131
		c0.938,1.066,2.184,1.445,3.043,0.69L192.059,86.547z"/>
	<path fill="#616264" d="M198.096,81.547l-5.935-3.65l1.002-1.614l2.962,0.068c0.852,0.021,1.811,0.123,2.654,0.253l0.012-0.019
		c-0.835-0.4-1.652-0.865-2.55-1.417l-1.728-1.062l0.789-1.269l5.935,3.648l-0.899,1.452l-3.103-0.103
		c-0.867-0.033-1.878-0.091-2.755-0.229l-0.021,0.037c0.82,0.44,1.668,0.938,2.637,1.533l1.788,1.1L198.096,81.547z"/>
	<path fill="#616264" d="M176.123,91.193l-1.945,0.93l-0.596-1.191l5.538-2.649l0.595,1.192l-1.967,0.939l2.542,5.087l-1.625,0.778
		L176.123,91.193z"/>
	<circle fill="#616264" cx="200.309" cy="67.842" r="2.06"/>
	<circle fill="#616264" cx="167.336" cy="16.503" r="2.06"/>
	<circle fill="#616264" cx="125.394" cy="68.455" r="2.06"/>
</g>
</svg>
