<?xml version="1.0" encoding="utf-8"?>
<!-- Generator: Adobe Illustrator 16.0.0, SVG Export Plug-In . SVG Version: 6.00 Build 0)  -->
<!DOCTYPE svg PUBLIC "-//W3C//DTD SVG 1.1//EN" "http://www.w3.org/Graphics/SVG/1.1/DTD/svg11.dtd">
<svg version="1.1" id="Layer_1" xmlns="http://www.w3.org/2000/svg" xmlns:xlink="http://www.w3.org/1999/xlink" x="0px" y="0px"
	 width="326px" height="112px" viewBox="0 0 326 112" enable-background="new 0 0 326 112" xml:space="preserve">
<rect id="background" opacity="0" fill="#4D4D4D" width="326" height="112"/>
<g>
	<path fill-rule="evenodd" clip-rule="evenodd" fill="#333333" d="M41.858,37.515c0.164-0.278,0.335-0.553,0.492-0.834
		c0.629-1.136,1.601-1.771,2.885-1.772c12.623-0.016,25.246-0.008,37.867-0.019c0.435,0,0.65,0.14,0.858,0.524
		c1.807,3.327,3.648,6.633,5.467,9.953c1.212,2.213,2.406,4.436,3.607,6.656c0.275,0.505,0.574,1,0.81,1.523
		c0.09,0.199,0.128,0.511,0.033,0.688c-1.188,2.205-2.408,4.394-3.611,6.589c-0.928,1.691-1.838,3.393-2.767,5.085
		c-1.214,2.212-2.453,4.412-3.643,6.636c-0.205,0.384-0.455,0.409-0.804,0.409c-6.124-0.006-12.249-0.004-18.372-0.004
		c-6.366,0-12.735-0.004-19.101,0.004c-1.621,0.003-2.768-0.695-3.428-2.184c-0.07-0.159-0.195-0.291-0.293-0.437
		C41.858,59.395,41.858,48.454,41.858,37.515z M50.47,50.037c0.173,0.137,0.246,0.168,0.279,0.223
		c0.746,1.218,1.489,2.44,2.232,3.662c1.68,2.756,3.357,5.514,5.045,8.269c0.088,0.143,0.263,0.324,0.402,0.329
		c0.964,0.028,1.931,0.017,2.902,0.017c0-5.744,0-11.404,0-17.065c-0.95,0-1.854,0-2.84,0c0,4.104,0,8.164,0,12.223
		c-0.501-0.613-0.897-1.238-1.284-1.869c-2.062-3.375-4.121-6.747-6.189-10.115c-0.076-0.124-0.241-0.269-0.366-0.271
		c-0.986-0.023-1.972-0.013-2.983-0.013c0,5.731,0,11.393,0,17.071c0.943,0,1.849,0,2.802,0C50.47,58.36,50.47,54.268,50.47,50.037z
		 M80.786,45.453c0,0.254,0,0.458,0,0.66c0,1.798-0.015,3.596,0.01,5.395c0.007,0.491-0.104,0.68-0.644,0.673
		c-2.117-0.033-4.233-0.028-6.349-0.002c-0.485,0.004-0.647-0.117-0.638-0.624c0.029-1.836,0.012-3.671,0.009-5.506
		c0-0.199-0.02-0.395-0.029-0.591c-1.035,0-2.001,0-2.999,0c0,5.695,0,11.36,0,17.04c1.018,0,1.997,0,3.03,0
		c0-0.242,0-0.444,0-0.645c0-2.137,0.013-4.273-0.009-6.409c-0.006-0.491,0.104-0.68,0.644-0.673
		c2.117,0.033,4.233,0.027,6.349,0.003c0.485-0.005,0.645,0.118,0.639,0.624c-0.028,2.152-0.012,4.308-0.012,6.462
		c0,0.214,0,0.431,0,0.646c1.029,0,1.958,0,2.918,0c0-5.696,0-11.357,0-17.052C82.737,45.453,81.808,45.453,80.786,45.453z
		 M64.305,45.451c0,5.718,0,11.374,0,17.044c0.982,0,1.924,0,2.874,0c0-5.7,0-11.36,0-17.044
		C66.21,45.451,65.281,45.451,64.305,45.451z"/>
	<path fill-rule="evenodd" clip-rule="evenodd" fill="#333333" d="M86.255,72.998c0.659-1.237,1.256-2.38,1.877-3.511
		c0.719-1.313,1.464-2.608,2.186-3.92c1.693-3.076,3.38-6.154,5.064-9.236c0.381-0.697,0.764-1.396,1.097-2.116
		c0.091-0.195,0.095-0.521-0.007-0.709c-1.383-2.549-2.796-5.083-4.192-7.624c-0.739-1.346-1.453-2.703-2.188-4.05
		c-1.252-2.3-2.511-4.598-3.822-6.995c1.486,0.134,2.927-0.274,4.296,0.356c0.979,0.449,1.782,1.088,2.306,2.061
		c1.616,2.993,3.249,5.977,4.88,8.96c1.355,2.481,2.72,4.956,4.069,7.441c0.069,0.128,0.072,0.36,0.002,0.487
		c-0.978,1.803-1.979,3.594-2.966,5.391c-0.737,1.347-1.453,2.702-2.194,4.047c-1.374,2.49-2.691,5.019-4.162,7.453
		c-0.773,1.275-2.07,1.929-3.609,1.959C88.054,73.01,87.212,72.998,86.255,72.998z"/>
	<path fill-rule="evenodd" clip-rule="evenodd" fill="#333333" d="M108.879,51.311c0,2.536,0,5.072,0,7.656
		c-0.588,0-1.119,0-1.702,0c0-3.526,0-7.054,0-10.682c0.571,0,1.162-0.024,1.748,0.016c0.135,0.009,0.286,0.215,0.377,0.363
		c1.238,1.979,2.465,3.965,3.696,5.949c0.298,0.479,0.604,0.955,0.907,1.431c0.049-0.012,0.098-0.026,0.146-0.038
		c0-2.541,0-5.083,0-7.678c0.628,0,1.172,0,1.755,0c0,3.545,0,7.073,0,10.681c-0.576,0-1.132,0.016-1.684-0.013
		c-0.131-0.007-0.296-0.146-0.373-0.271c-1.49-2.387-2.97-4.784-4.455-7.179c-0.07-0.113-0.167-0.207-0.252-0.311
		C108.987,51.261,108.934,51.286,108.879,51.311z"/>
	<path fill-rule="evenodd" clip-rule="evenodd" fill="#333333" d="M249.471,48.319c0,1.408,0,2.769,0,4.178c1.627,0,3.208,0,4.876,0
		c0-1.37,0-2.761,0-4.185c0.655,0,1.226,0,1.835,0c0,3.556,0,7.084,0,10.657c-0.585,0-1.153,0-1.79,0c0-1.569,0-3.133,0-4.742
		c-1.648,0-3.229,0-4.899,0c0,1.559,0,3.136,0,4.749c-0.654,0-1.222,0-1.832,0c0-3.556,0-7.084,0-10.656
		C248.246,48.319,248.813,48.319,249.471,48.319z"/>
	<path fill-rule="evenodd" clip-rule="evenodd" fill="#333333" d="M151.976,53.583c-0.553,0-1.033,0-1.572,0
		c0.069-0.79,0.353-1.424,0.98-1.857c1.265-0.868,3.434-0.892,4.646-0.098c0.632,0.414,0.929,1.002,0.943,1.727
		c0.022,1.216,0.006,2.433,0.006,3.649c0,0.764,0,0.764,0.718,0.874c0.018,0.046,0.062,0.104,0.052,0.149
		c-0.077,0.353,0.291,0.863-0.322,1.027c-0.585,0.157-1.571,0.153-1.815-0.42c-0.146-0.339-0.296-0.31-0.592-0.125
		c-1.173,0.731-2.427,0.877-3.709,0.324c-0.813-0.352-1.355-1.28-1.237-2.056c0.188-1.223,0.652-1.707,1.665-1.967
		c0.87-0.227,1.777-0.32,2.67-0.469c0.664-0.111,1.064-0.478,1.036-0.958c-0.029-0.478-0.544-0.961-1.111-0.995
		c-0.409-0.025-0.829-0.042-1.231,0.027C152.473,52.527,152.13,52.978,151.976,53.583z M155.216,55.315
		c-0.416,0.057-0.837,0.092-1.244,0.181c-0.532,0.116-1.061,0.256-1.576,0.428c-0.466,0.159-0.537,0.564-0.517,1
		c0.019,0.42,0.293,0.652,0.646,0.707c0.486,0.08,1.009,0.169,1.476,0.068C155.046,57.479,155.443,56.615,155.216,55.315z"/>
	<path fill-rule="evenodd" clip-rule="evenodd" fill="#333333" d="M272.521,57.793c0.288,0.027,0.492,0.045,0.769,0.071
		c-0.092,0.396,0.31,0.891-0.261,1.156c-0.824,0.381-1.632,0.107-2.126-0.692c-0.268,0.144-0.533,0.3-0.81,0.432
		c-0.966,0.459-1.972,0.516-2.981,0.207c-0.996-0.302-1.546-1.146-1.509-2.206c0.033-0.941,0.694-1.746,1.682-1.958
		c0.884-0.189,1.782-0.311,2.673-0.459c0.693-0.117,0.881-0.332,0.938-0.876c0.062-0.602-0.359-0.971-0.907-1.061
		c-0.42-0.069-0.87-0.072-1.287,0c-0.626,0.108-1.11,0.434-1.169,1.18c-0.513,0-1.01,0-1.556,0
		c-0.086-0.756,0.245-1.325,0.769-1.752c1.219-0.991,3.648-1.045,4.939-0.144c0.659,0.461,0.814,1.172,0.826,1.913
		c0.024,1.18,0.008,2.358,0.01,3.536C272.521,57.342,272.521,57.544,272.521,57.793z M270.757,55.206
		c-0.95,0.172-1.847,0.28-2.712,0.51c-0.519,0.135-0.8,0.597-0.794,1.157c0.009,0.548,0.384,0.8,0.857,0.867
		c0.477,0.064,0.988,0.145,1.438,0.033c0.522-0.129,1.113-0.361,1.198-1.024C270.807,56.259,270.757,55.752,270.757,55.206z"/>
	<path fill-rule="evenodd" clip-rule="evenodd" fill="#333333" d="M282.169,48.303c0.525,0,1.004,0,1.587,0c0,1.262,0,2.515,0,3.932
		c0.228-0.208,0.319-0.281,0.4-0.366c1.207-1.281,4.107-1.101,4.594,1.025c0.028,0.125,0.063,0.253,0.063,0.38
		c0.003,1.781,0.003,3.56,0,5.338c0,0.109-0.023,0.217-0.038,0.362c-0.52,0-1.014,0-1.594,0c0-0.388,0-0.754,0-1.121
		c0-1.218,0-2.434-0.001-3.652c0-1.269-0.428-1.816-1.429-1.821c-1.216-0.004-1.982,0.717-1.991,1.901
		c-0.01,1.386-0.001,2.771-0.005,4.159c0,0.162-0.019,0.326-0.033,0.53c-0.521,0-1.016,0-1.554,0
		C282.169,55.426,282.169,51.899,282.169,48.303z"/>
	<path fill-rule="evenodd" clip-rule="evenodd" fill="#333333" d="M119.053,53.592c-0.535,0-1.015,0-1.491,0
		c-0.16-0.676,0.235-1.563,0.92-1.932c1.553-0.836,3.138-0.834,4.678,0.013c0.526,0.289,0.776,0.833,0.775,1.458
		c-0.001,1.161-0.008,2.323,0.005,3.483c0.004,0.385,0.069,0.77,0.108,1.172c0.268,0.028,0.486,0.053,0.871,0.094
		c-0.111,0.403-0.098,0.95-0.337,1.105c-0.711,0.457-1.651,0.123-2.162-0.654c-0.268,0.145-0.529,0.316-0.814,0.435
		c-1.221,0.502-2.459,0.641-3.614-0.124c-1.292-0.857-1.139-2.981,0.28-3.6c0.73-0.316,1.562-0.404,2.349-0.579
		c0.288-0.064,0.59-0.064,0.879-0.124c0.439-0.09,0.897-0.169,0.914-0.774c0.017-0.631-0.271-1.08-0.893-1.152
		c-0.489-0.057-1.001,0-1.495,0.072C119.436,52.566,119.138,52.978,119.053,53.592z M122.271,55.209
		c-0.921,0.159-1.776,0.285-2.622,0.466c-0.49,0.1-0.871,0.668-0.874,1.169c-0.002,0.522,0.34,0.827,0.771,0.895
		c0.539,0.083,1.137,0.126,1.645-0.027c0.41-0.124,0.89-0.505,1.038-0.887C122.408,56.359,122.271,55.774,122.271,55.209z"/>
	<path fill-rule="evenodd" clip-rule="evenodd" fill="#333333" d="M265.034,55.526c-1.994,0-3.842,0-5.678,0
		c-0.272,1.096,0.622,2.288,1.688,2.3c0.571,0.006,1.163,0.081,1.65-0.335c0.07-0.061,0.164-0.103,0.217-0.174
		c0.174-0.231,0.293-0.626,0.504-0.681c0.419-0.107,0.888-0.031,1.391-0.031c-0.124,0.875-0.618,1.496-1.279,1.937
		c-1.457,0.973-3.849,0.812-4.989-0.593c-0.781-0.969-1.022-2.1-0.899-3.295c0.138-1.361,0.726-2.489,1.988-3.153
		c2.267-1.193,4.662,0.121,5.235,2.463C264.978,54.441,264.975,54.945,265.034,55.526z M259.311,54.404c1.295,0,2.589,0,3.878,0
		c0.11-1.044-0.626-1.947-1.599-2.012C260.202,52.301,259.384,53.009,259.311,54.404z"/>
	<path fill-rule="evenodd" clip-rule="evenodd" fill="#333333" d="M217.979,56.667c-0.387,1.467-1.84,2.458-3.395,2.492
		c-2.787,0.062-4.159-2.422-3.74-4.757c0.268-1.491,0.975-2.629,2.48-3.131c2.105-0.703,4.114,0.467,4.664,2.559
		c0.135,0.51,0.117,1.061,0.181,1.68c-1.971,0-3.849,0-5.763,0c0.053,0.888,0.23,1.653,0.979,2.077
		c0.714,0.405,1.499,0.364,2.249,0.039c0.181-0.077,0.343-0.226,0.477-0.376C216.744,56.536,216.951,56.462,217.979,56.667z
		 M212.431,54.396c1.356,0,2.684,0,4.015,0c-0.12-1.145-0.793-1.937-1.625-2.007C213.488,52.276,212.557,52.968,212.431,54.396z"/>
	<path fill-rule="evenodd" clip-rule="evenodd" fill="#333333" d="M234.038,59.125c-2.285,0.165-3.882-1.7-3.85-4.105
		c0.027-2.216,1.556-4.051,4.042-3.946c2.467,0.104,3.729,1.718,3.748,4.018C237.997,57.348,236.647,59.241,234.038,59.125z
		 M236.255,55.105c0.047-0.016,0.099-0.031,0.145-0.045c-0.194-0.588-0.328-1.201-0.595-1.753c-0.617-1.278-2.77-1.161-3.391-0.127
		c-0.591,0.979-0.721,1.98-0.408,3.035c0.434,1.474,1.981,2.13,3.163,1.362C236.053,57.003,236.318,56.117,236.255,55.105z"/>
	<path fill-rule="evenodd" clip-rule="evenodd" fill="#333333" d="M137.111,59.125c-2.46,0.117-3.91-1.781-3.886-4.048
		c0.026-2.348,1.466-4.055,4.007-4.002c2.253,0.046,3.791,1.648,3.785,4.054C141.013,57.449,139.525,59.259,137.111,59.125z
		 M137.131,57.818c0.936,0.057,1.543-0.375,1.915-1.225c0.427-0.979,0.416-1.942,0.018-2.916c-0.288-0.702-0.782-1.181-1.551-1.279
		c-0.948-0.123-1.749,0.154-2.212,1.051c-0.488,0.942-0.472,1.938-0.164,2.926C135.448,57.373,136.096,57.818,137.131,57.818z"/>
	<path fill-rule="evenodd" clip-rule="evenodd" fill="#333333" d="M218.582,56.514c0.742,0,1.278,0,1.809,0
		c0.283,1.052,0.636,1.32,1.74,1.312c0.335-0.002,0.679,0.011,1.002-0.067c0.341-0.082,0.734-0.148,0.779-0.655
		c0.047-0.532-0.098-0.943-0.629-1.099c-0.759-0.224-1.534-0.392-2.304-0.59c-0.716-0.186-1.389-0.469-1.787-1.136
		c-0.523-0.88-0.238-2,0.628-2.609c1.134-0.797,3.361-0.814,4.491-0.009c0.559,0.398,0.946,0.924,1.004,1.729
		c-0.527,0-1.008,0.017-1.487-0.011c-0.1-0.007-0.225-0.157-0.273-0.268c-0.233-0.499-0.64-0.726-1.16-0.719
		c-0.44,0.007-0.896,0.029-1.309,0.158c-0.204,0.062-0.479,0.401-0.456,0.576c0.041,0.282,0.245,0.656,0.482,0.774
		c0.475,0.227,1.021,0.302,1.536,0.446c0.587,0.168,1.197,0.279,1.752,0.521c1.475,0.647,1.668,2.501,0.345,3.524
		c-1.507,1.168-4.176,1.056-5.324-0.254C219.059,57.721,218.894,57.131,218.582,56.514z"/>
	<path fill-rule="evenodd" clip-rule="evenodd" fill="#333333" d="M148.993,58.987c-0.607,0-1.125,0-1.706,0
		c-0.013-0.216-0.034-0.414-0.034-0.61c-0.002-1.48-0.033-2.959,0.012-4.438c0.022-0.742-0.352-1.437-1.048-1.55
		c-0.997-0.167-1.879,0.239-2.154,1.057c-0.133,0.397-0.217,0.829-0.224,1.249c-0.028,1.401-0.01,2.805-0.01,4.264
		c-0.543,0-1.051,0-1.597,0c0-2.532,0-5.048,0-7.607c0.479,0,0.937,0,1.435,0c0.033,0.321,0.066,0.637,0.104,1.005
		c0.324-0.28,0.566-0.534,0.85-0.726c1.919-1.299,4.154-0.368,4.342,1.912C149.111,55.324,148.993,57.128,148.993,58.987z"/>
	<path fill-rule="evenodd" clip-rule="evenodd" fill="#333333" d="M171.253,58.977c-0.574,0-1.069,0-1.599,0c0-2.554,0-5.07,0-7.628
		c0.485,0,0.941,0,1.446,0c0.023,0.318,0.049,0.622,0.079,0.97c0.424-0.324,0.78-0.667,1.193-0.899
		c1.038-0.582,2.083-0.455,3.067,0.142c0.725,0.441,0.927,1.233,0.953,1.982c0.07,1.792,0.021,3.587,0.021,5.425
		c-0.58,0-1.111,0-1.707,0c-0.009-0.202-0.028-0.397-0.032-0.596c-0.002-1.463,0-2.922-0.002-4.382c0-0.996-0.356-1.515-1.101-1.606
		c-1.095-0.133-1.974,0.361-2.195,1.267c-0.079,0.322-0.117,0.661-0.119,0.993C171.245,56.065,171.253,57.486,171.253,58.977z"/>
	<path fill-rule="evenodd" clip-rule="evenodd" fill="#333333" d="M184.03,53.391c-0.487,0-0.936,0.02-1.381-0.011
		c-0.121-0.01-0.283-0.142-0.339-0.258c-0.246-0.52-0.655-0.753-1.202-0.733c-0.425,0.013-0.854,0.044-1.263,0.139
		c-0.322,0.077-0.616,0.318-0.481,0.69c0.102,0.28,0.316,0.625,0.563,0.719c0.638,0.24,1.32,0.346,1.979,0.523
		c0.748,0.2,1.535,0.358,2.042,1.021c0.862,1.126,0.36,2.672-1.027,3.286c-1.224,0.543-2.507,0.516-3.754,0.101
		c-0.855-0.286-1.615-1.091-1.642-2.383c0.457,0,0.915-0.027,1.369,0.015c0.123,0.013,0.279,0.211,0.33,0.355
		c0.209,0.604,0.645,0.971,1.281,0.964c0.518-0.006,1.036-0.045,1.551-0.113c0.371-0.052,0.568-0.309,0.604-0.698
		c0.032-0.404-0.038-0.772-0.459-0.914c-0.646-0.217-1.314-0.363-1.962-0.573c-0.593-0.193-1.243-0.325-1.744-0.668
		c-1.172-0.812-1.06-2.54,0.189-3.282c1.112-0.662,3.282-0.744,4.41,0.096C183.647,52.08,183.955,52.593,184.03,53.391z"/>
	<path fill-rule="evenodd" clip-rule="evenodd" fill="#333333" d="M198.173,51.338c0.562,0,1.043,0,1.592,0
		c0.013,0.205,0.032,0.402,0.036,0.597c0.001,1.385-0.009,2.771,0.007,4.155c0.003,0.333,0.036,0.676,0.137,0.986
		c0.147,0.453,0.466,0.762,0.991,0.75c0.389-0.01,0.798,0.035,1.165-0.063c0.656-0.178,1.114-0.916,1.12-1.697
		c0.01-1.347,0.003-2.694,0.003-4.042c0-0.204,0-0.407,0-0.663c0.534,0,1.029,0,1.579,0c0,2.511,0,5.041,0,7.609
		c-0.502,0-0.996,0-1.531,0c-0.033-0.284-0.064-0.562-0.105-0.931c-0.718,0.729-1.444,1.107-2.418,1.109
		c-1.219,0.002-2.462-0.702-2.55-2.25C198.09,55.074,198.173,53.238,198.173,51.338z"/>
	<path fill-rule="evenodd" clip-rule="evenodd" fill="#333333" d="M239.661,52.499c-0.453,0-0.806,0-1.206,0
		c0-0.401,0-0.759,0-1.158c0.383-0.021,0.747-0.041,1.15-0.061c0.072-0.912-0.081-1.901,0.722-2.54
		c0.757-0.605,1.654-0.547,2.59-0.292c0,0.382,0,0.781,0,1.185c-1.419-0.184-1.779,0.181-1.587,1.658c0.427,0,0.867,0,1.356,0
		c0,0.408,0,0.751,0,1.167c-0.439,0.021-0.896,0.043-1.411,0.069c0,2.156,0,4.28,0,6.446c-0.562,0-1.055,0-1.614,0
		C239.661,56.833,239.661,54.709,239.661,52.499z"/>
	<path fill-rule="evenodd" clip-rule="evenodd" fill="#333333" d="M277.854,52.502c-0.428,0-0.78,0-1.185,0c0-0.401,0-0.759,0-1.161
		c0.377-0.02,0.743-0.039,1.17-0.063c0-0.76,0-1.499,0-2.282c0.595,0,1.129,0,1.726,0c0,0.734,0,1.474,0,2.297
		c0.517,0,0.969,0,1.458,0c0,0.429,0,0.773,0,1.183c-0.462,0-0.899,0-1.423,0c0,0.637,0,1.208,0,1.782c0,0.86-0.002,1.722,0,2.582
		c0.001,0.742,0.124,0.863,0.878,0.876c0.167,0.004,0.33,0.017,0.538,0.03c0,0.405,0,0.786,0,1.228c-0.626,0-1.27,0.088-1.876-0.023
		c-0.92-0.166-1.275-0.814-1.284-2.101C277.844,55.429,277.854,54.008,277.854,52.502z"/>
	<path fill-rule="evenodd" clip-rule="evenodd" fill="#333333" d="M193.877,48.979c0.622,0,1.141,0,1.743,0c0,0.756,0,1.51,0,2.327
		c0.521,0,0.961,0,1.44,0c0,0.408,0,0.752,0,1.162c-0.446,0-0.887,0-1.418,0c0,0.41,0,0.757,0,1.102c0,1.069-0.001,2.133,0,3.199
		c0,0.836,0.099,0.935,0.92,0.947c0.147,0.003,0.296,0.014,0.492,0.026c0,0.396,0,0.779,0,1.323
		c-0.742-0.069-1.501-0.064-2.219-0.236c-0.542-0.129-0.801-0.645-0.823-1.207c-0.052-1.209-0.084-2.419-0.115-3.629
		c-0.012-0.466-0.003-0.933-0.003-1.458c-0.407-0.027-0.786-0.051-1.197-0.078c0-0.376,0-0.721,0-1.115
		c0.384-0.02,0.75-0.039,1.18-0.063C193.877,50.524,193.877,49.785,193.877,48.979z"/>
	<path fill-rule="evenodd" clip-rule="evenodd" fill="#333333" d="M126.122,52.49c-0.471,0-0.873,0-1.31,0c0-0.408,0-0.752,0-1.15
		c0.42-0.019,0.823-0.038,1.289-0.059c0-0.754,0-1.493,0-2.282c0.557,0,1.051,0,1.63,0c0,0.733,0,1.486,0,2.303
		c0.56,0,1.036,0,1.556,0c0,0.407,0,0.75,0,1.162c-0.48,0-0.956,0-1.53,0c0,0.391,0,0.718,0,1.045c0,1.065,0,2.132,0,3.198
		c0.001,0.855,0.144,0.998,1.002,1.011c0.164,0.002,0.329,0.021,0.541,0.033c0.011,0.224,0.023,0.424,0.028,0.622
		c0.005,0.185,0.002,0.367,0.002,0.614c-0.699,0-1.355,0.074-1.989-0.019c-0.792-0.113-1.213-0.714-1.217-1.551
		C126.117,55.812,126.122,54.203,126.122,52.49z"/>
	<path fill-rule="evenodd" clip-rule="evenodd" fill="#333333" d="M206.932,52.496c-0.434,0-0.784,0-1.184,0
		c0-0.388,0-0.732,0-1.151c0.357-0.021,0.738-0.043,1.18-0.069c0-0.766,0-1.504,0-2.285c0.56,0,1.054,0,1.614,0
		c0,0.748,0,1.487,0,2.292c0.541,0,1.016,0,1.545,0c0,0.421,0,0.779,0,1.202c-0.493,0-0.969,0-1.576,0
		c0.062,1.668,0.11,3.263,0.199,4.858c0.009,0.131,0.29,0.317,0.471,0.354c0.281,0.06,0.585,0.017,0.919,0.017
		c0,0.444,0,0.827,0,1.273c-0.62,0-1.253,0.105-1.835-0.023c-1.005-0.221-1.283-0.706-1.32-1.897
		c-0.045-1.29-0.013-2.584-0.013-3.875C206.932,52.988,206.932,52.785,206.932,52.496z"/>
	<path fill-rule="evenodd" clip-rule="evenodd" fill="#333333" d="M189.089,51.279c0,0.45,0,0.794,0,1.204c-0.51,0-0.985,0-1.539,0
		c0,1.108-0.007,2.148,0.005,3.191c0.006,0.48,0.063,0.961,0.083,1.442c0.019,0.492,0.29,0.64,0.739,0.602
		c0.22-0.02,0.441-0.005,0.704-0.005c0,0.441,0,0.822,0,1.318c-0.65-0.031-1.308,0.015-1.929-0.111
		c-0.859-0.181-1.229-0.769-1.233-1.735c-0.012-1.496-0.011-2.994-0.013-4.492c0-0.036-0.021-0.071-0.051-0.166
		c-0.341-0.018-0.707-0.038-1.125-0.062c0-0.366,0-0.723,0-1.125c0.383-0.02,0.747-0.041,1.177-0.062c0-0.763,0-1.502,0-2.285
		c0.559,0,1.054,0,1.614,0c0,0.742,0,1.481,0,2.287C188.059,51.279,188.538,51.279,189.089,51.279z"/>
	<path fill-rule="evenodd" clip-rule="evenodd" fill="#333333" d="M166.064,48.303c0.562,0,1.08,0,1.652,0c0,3.552,0,7.093,0,10.709
		c-0.29,0-0.562,0-0.838,0c-0.257,0-0.516,0-0.814,0C166.064,55.426,166.064,51.899,166.064,48.303z"/>
	<path fill-rule="evenodd" clip-rule="evenodd" fill="#333333" d="M160.195,58.981c-0.523,0-1.003,0-1.537,0
		c0-3.546,0-7.087,0-10.667c0.505,0,1,0,1.537,0C160.195,51.859,160.195,55.387,160.195,58.981z"/>
	<path fill-rule="evenodd" clip-rule="evenodd" fill="#333333" d="M274.186,48.304c0.524,0,1.007,0,1.54,0c0,3.551,0,7.092,0,10.671
		c-0.507,0-1.004,0-1.54,0C274.186,55.426,274.186,51.899,274.186,48.304z"/>
	<path fill-rule="evenodd" clip-rule="evenodd" fill="#333333" d="M131.981,58.977c-0.564,0-1.095,0-1.664,0c0-2.55,0-5.066,0-7.624
		c0.553,0,1.084,0,1.664,0C131.981,53.875,131.981,56.392,131.981,58.977z"/>
	<path fill-rule="evenodd" clip-rule="evenodd" fill="#333333" d="M190.23,51.339c0.52,0,1.002,0,1.537,0c0,2.536,0,5.064,0,7.635
		c-0.506,0-1,0-1.537,0C190.23,56.439,190.23,53.923,190.23,51.339z"/>
	<path fill-rule="evenodd" clip-rule="evenodd" fill="#333333" d="M130.31,49.866c0-0.524,0-1.003,0-1.538c0.55,0,1.095,0,1.678,0
		c0,0.506,0,1,0,1.538C131.44,49.866,130.909,49.866,130.31,49.866z"/>
	<path fill-rule="evenodd" clip-rule="evenodd" fill="#333333" d="M190.225,48.298c0.54,0,1.017,0,1.546,0c0,0.515,0,1.008,0,1.556
		c-0.491,0-0.996,0-1.546,0C190.225,49.349,190.225,48.856,190.225,48.298z"/>
</g>
</svg>
