<?xml version="1.0" encoding="utf-8"?>
<!-- Generator: Adobe Illustrator 16.0.0, SVG Export Plug-In . SVG Version: 6.00 Build 0)  -->
<!DOCTYPE svg PUBLIC "-//W3C//DTD SVG 1.1//EN" "http://www.w3.org/Graphics/SVG/1.1/DTD/svg11.dtd">
<svg version="1.1" id="Layer_1" xmlns="http://www.w3.org/2000/svg" xmlns:xlink="http://www.w3.org/1999/xlink" x="0px" y="0px"
	 width="326px" height="112px" viewBox="0 0 326 112" enable-background="new 0 0 326 112" xml:space="preserve">
<rect id="background" opacity="0" fill="#787473" width="326" height="112"/>
<g>
	<path fill="#787473" d="M132.2,22.48v0.149c0,33.427,0,55.505,30.731,71.675L163,94.343l0.068-0.038
		c30.732-16.102,30.732-38.214,30.732-71.683v-0.15L132.2,22.48z M163,94.001c-30.449-16.055-30.496-38.017-30.496-71.221
		l60.992-0.009C193.496,56.019,193.445,78.011,163,94.001z"/>
	<g>
		<path fill="#787473" d="M159.993,67.671l0.5,0.209c0.44-0.351,0.671-0.748,0.671-1.206c0-0.714-0.432-1.235-1.172-1.235
			c-0.625,0-1.091,0.363-1.091,1.009C158.902,67.132,159.458,67.439,159.993,67.671z"/>
		<path fill="#787473" d="M160.027,69.224l-0.693-0.309c-0.509,0.433-0.783,0.83-0.783,1.527c0,0.83,0.59,1.515,1.442,1.515
			c0.718,0,1.219-0.603,1.219-1.296C161.212,69.865,160.673,69.511,160.027,69.224z"/>
		<path fill="#787473" d="M191.499,27.435c0-0.796,0-1.592,0-2.388v-0.103l-57.074,0.009v0.103c0,0.915,0,1.831-0.004,2.742
			c-0.021,12.692-0.039,24.679,3.525,35.668c1.917,5.912,4.693,10.951,8.487,15.409c4.248,4.992,9.659,9.141,16.542,12.683
			l0.047,0.026l0.047-0.026C191.555,76.762,191.528,52.797,191.499,27.435z M163.274,28.217c1.018,0.902,2.207,2.032,2.186,3.512
			h-4.312C161.148,30.206,162.269,29.137,163.274,28.217z M161.289,31.879h4.086c2.062,0.457,3.738,1.587,4.543,3.05h-13.172
			C157.55,33.466,159.228,32.341,161.289,31.879z M154.723,35.083H172v4.38l-8.722-2.712l-8.556,2.67V35.083z M163.278,37.106
			l17.043,5.296h-34.017L163.278,37.106z M155.908,72.386c-1.035-0.014-1.515-0.035-2.015-0.035c-0.487,0-0.979,0.021-2.31,0.035
			v-0.424l0.821-0.034c0.363-0.022,0.646-0.15,0.646-0.535v-5.035c0-0.239,0.008-0.5-0.171-0.419l-1.591,0.735
			c-0.124-0.304-0.175-0.556-0.158-0.796c0.83-0.196,2.417-0.761,3.396-1.15l0.141,0.12c-0.038,0.548-0.115,1.522-0.115,2.883v3.662
			c0,0.39,0.287,0.513,0.646,0.535l0.71,0.034V72.386z M157.071,47.262l-0.723,0.06c-0.453,0.039-0.582,0.12-0.646,0.248
			c-0.094,0.192-0.111,0.65-0.12,1.36v7.102c0,0.705,0.017,1.181,0.111,1.369c0.06,0.106,0.248,0.166,0.646,0.196l0.727,0.06v0.864
			l-0.569-0.013c-0.629-0.017-1.412-0.038-2.22-0.038c-0.83,0-1.613,0.021-2.246,0.038l-0.556,0.013v-0.864l0.723-0.06
			c0.398-0.025,0.586-0.086,0.642-0.196c0.094-0.185,0.111-0.659,0.111-1.365v-6.861l-3.422,7.122
			c-0.466,0.963-0.808,1.716-1.039,2.297l-0.021,0.056h-0.714l-0.021-0.056c-0.154-0.436-0.347-0.851-0.552-1.291l-0.069-0.146
			l-3.837-7.995v6.883c0,0.706,0.017,1.181,0.111,1.369c0.068,0.128,0.201,0.214,0.646,0.248l0.727,0.06v0.812h-0.09
			c-0.214-0.004-0.428-0.013-0.642-0.021c-0.44-0.017-0.894-0.034-1.343-0.034s-0.911,0.018-1.36,0.034
			c-0.214,0.009-0.428,0.018-0.637,0.021h-0.09v-0.812l0.723-0.06c0.449-0.034,0.578-0.12,0.646-0.253
			c0.094-0.184,0.111-0.658,0.111-1.364v-7.102c0-0.723-0.021-1.176-0.111-1.373c-0.068-0.124-0.197-0.209-0.646-0.243l-0.723-0.061
			v-0.812h0.09c0.196,0.004,0.389,0.013,0.586,0.018c0.992,0.038,2.028,0.034,3.007,0c0.197-0.005,0.389-0.014,0.582-0.018h0.056
			l0.026,0.056c0.209,0.471,0.56,1.219,0.873,1.878c0.163,0.338,0.312,0.659,0.437,0.924l2.669,5.578l3.11-6.417
			c0.223-0.453,0.424-0.94,0.621-1.411c0.077-0.192,0.154-0.376,0.231-0.552l0.021-0.056h0.06c0.351,0.004,0.663,0.018,0.95,0.025
			c0.402,0.013,0.753,0.026,1.048,0.026c0.299,0,0.646-0.014,1.043-0.026c0.291-0.013,0.612-0.021,0.976-0.03h0.09V47.262z
			 M159.822,72.543c-1.596,0-2.289-1.014-2.289-1.989c0-0.829,0.603-1.522,1.331-1.844c-0.706-0.372-1.134-0.932-1.134-1.749
			c0-1.254,0.864-2.113,2.409-2.113c1.052,0,1.98,0.509,1.98,1.668c0,0.646-0.432,1.15-1.07,1.558
			c0.612,0.223,1.412,0.8,1.412,1.959C162.461,71.521,161.276,72.543,159.822,72.543z M168.75,72.386
			c-1.04-0.014-1.519-0.035-2.02-0.035c-0.488,0-0.98,0.021-2.311,0.035v-0.424l0.822-0.034c0.363-0.022,0.646-0.15,0.646-0.535
			v-5.035c0-0.239,0.009-0.5-0.171-0.419l-1.587,0.735c-0.129-0.304-0.171-0.556-0.163-0.796c0.834-0.196,2.426-0.761,3.4-1.15
			l0.137,0.12c-0.033,0.548-0.11,1.522-0.11,2.883v3.662c0,0.39,0.282,0.513,0.646,0.535l0.711,0.034V72.386z M169.93,57.703
			l-0.055,0.022c-1.814,0.701-3.486,1.044-5.112,1.044c-4.303,0-6.977-2.481-6.977-6.473c0-4.205,3.542-6.088,7.05-6.088
			c1.39,0,3.049,0.099,4.816,0.826l0.025,0.013l0.137,0.244l-0.012,0.034c-0.15,0.552-0.279,1.608-0.369,2.378l-0.038,0.347h-0.834
			l-0.005-0.077l-0.085-1.463c-0.616-0.701-2.011-1.15-3.572-1.15c-2.673,0-4.333,1.805-4.333,4.714c0,2.562,1.202,5.553,4.59,5.553
			c0.697,0,1.373-0.133,2.121-0.411v-2.232c0-0.441-0.316-0.539-0.906-0.561l-1.001-0.039v-0.886h0.09
			c0.325,0.009,0.654,0.018,0.979,0.026c0.518,0.017,1.053,0.03,1.574,0.03c0.607,0,1.297-0.018,1.955-0.035
			c0.266-0.004,0.521-0.013,0.766-0.017l0.086-0.005v0.754l-0.068,0.013c-0.612,0.124-0.822,0.184-0.822,0.539V57.703z
			 M174.747,72.386c-1.04-0.014-1.519-0.035-2.019-0.035c-0.484,0-0.977,0.021-2.307,0.035v-0.424l0.817-0.034
			c0.363-0.022,0.646-0.15,0.646-0.535v-5.035c0-0.239,0.009-0.5-0.17-0.419l-1.588,0.735c-0.129-0.304-0.176-0.556-0.162-0.796
			c0.834-0.196,2.426-0.761,3.4-1.15l0.137,0.12c-0.038,0.548-0.115,1.522-0.115,2.883v3.662c0,0.39,0.287,0.513,0.65,0.535
			l0.71,0.034V72.386z M185.355,47.312l-0.73,0.061c-0.398,0.029-0.591,0.09-0.646,0.196c-0.107,0.201-0.115,0.74-0.124,1.373v7.102
			c0,0.629,0.009,1.168,0.115,1.369c0.052,0.11,0.239,0.167,0.646,0.201l0.732,0.055v0.869l-0.402-0.014
			c-0.676-0.017-1.519-0.042-2.412-0.042c-0.907,0-1.754,0.021-2.43,0.042l-0.398,0.014v-0.869l0.727-0.055
			c0.411-0.034,0.6-0.091,0.654-0.201c0.104-0.21,0.111-0.766,0.111-1.373v-3.226c-0.252-0.018-0.594-0.03-1.334-0.03h-2.57
			c-0.74,0-1.083,0.013-1.336,0.03v3.226c0,0.633,0.01,1.172,0.111,1.373c0.057,0.11,0.244,0.167,0.655,0.201l0.727,0.055v0.869
			l-0.405-0.014c-0.677-0.017-1.52-0.042-2.404-0.042c-0.912,0-1.755,0.025-2.435,0.042l-0.394,0.014v-0.869l0.732-0.055
			c0.41-0.034,0.594-0.091,0.649-0.201c0.103-0.206,0.11-0.74,0.11-1.373v-7.102c0-0.629-0.008-1.172-0.11-1.369
			c-0.052-0.106-0.248-0.167-0.646-0.196l-0.732-0.061v-0.859h0.09c0.197,0,0.41,0.009,0.639,0.013
			c0.623,0.018,1.338,0.034,2.104,0.034c0.744,0,1.45-0.017,2.07-0.034c0.23-0.004,0.449-0.009,0.646-0.013h0.09v0.859l-0.728,0.061
			c-0.406,0.029-0.599,0.09-0.654,0.196c-0.103,0.201-0.111,0.74-0.111,1.373v2.67c0.253,0.013,0.595,0.029,1.335,0.029h2.57
			c0.74,0,1.082-0.017,1.335-0.029v-2.67c0-0.607-0.009-1.168-0.111-1.373c-0.056-0.106-0.248-0.167-0.65-0.196l-0.727-0.061v-0.859
			h0.089c0.193,0,0.407,0.009,0.638,0.013c0.63,0.018,1.335,0.034,2.101,0.034c0.753,0,1.463-0.017,2.084-0.034
			c0.23-0.004,0.444-0.009,0.641-0.013h0.09V47.312z"/>
	</g>
</g>
</svg>
