<svg id="Layer_1" data-name="Layer 1" xmlns="http://www.w3.org/2000/svg" viewBox="0 0 46.59 46.67"><title>Optional</title><path d="M21.49,31.22,35.72,16.76a1.54,1.54,0,0,0-1.17-2.64,1.57,1.57,0,0,0-1.08.48L20.37,27.92l-5.54-5.64a1.57,1.57,0,0,0-2.64.66,1.56,1.56,0,0,0,.39,1.51l6.66,6.77a1.56,1.56,0,0,0,1.13.48A1.54,1.54,0,0,0,21.49,31.22Z" transform="translate(-0.16 -0.16)"/><path d="M17.49,4.07,16.6,1.2h0a23.41,23.41,0,0,0-2.72,1H13.8L15.05,5A19.44,19.44,0,0,1,17.49,4.07Z" transform="translate(-0.16 -0.16)"/><path d="M4.54,16.13,1.75,15h0v0h0v0h0l0,0h0c-.22.59-.43,1.19-.61,1.81h0v0h0v0h0v0H1v0H1c-.07.24-.13.47-.19.72l2.91.71A21,21,0,0,1,4.54,16.13Z" transform="translate(-0.16 -0.16)"/><path d="M3.69,28.12.77,28.8l.09.39h0v0h0v0h0c.09.34.18.67.29,1h0v0h0v0h0v0h0v0h0v0h0v0h0v0h0v0h0c.1.31.21.61.32.92l2.81-1.05A22.39,22.39,0,0,1,3.69,28.12Z" transform="translate(-0.16 -0.16)"/><path d="M3.16,23.5c0-.48,0-1,.06-1.45l-3-.21c0,.38,0,.75,0,1.13h0v0h0v0h0v0h0v0h0c0,.33,0,.67,0,1l3-.17C3.18,24.28,3.16,23.89,3.16,23.5Z" transform="translate(-0.16 -0.16)"/><path d="M43.76,21.74l3-.26v-.05h0v0h0v0h0v0h0v0h0v0h0v0h0v0h0v0h0v0h0v0h0v0h0v0h-.05v0h-.09v0h0v0h0v0h0v0h0c-.05-.33-.12-.66-.19-1l-2.93.63A20.48,20.48,0,0,1,43.76,21.74Z" transform="translate(-0.16 -0.16)"/><path d="M42.34,15.83l2.78-1.13-.18-.43h0l0,0h0v0H44.8v0h0v0h0v0h0c-.19-.41-.39-.82-.6-1.22h0l0,0h0v0H44v0h0v0h0v0h0L43.81,12,41.2,13.48A21.19,21.19,0,0,1,42.34,15.83Z" transform="translate(-0.16 -0.16)"/><path d="M3.35,35.27A22.15,22.15,0,0,0,5,37.76L7.4,35.92a19.94,19.94,0,0,1-1.46-2.16Z" transform="translate(-0.16 -0.16)"/><path d="M36.37,4q-.54-.36-1.11-.69h0l0,0h0l0,0H35l0,0h-.09l0,0h0l-.56-.3H34l-.26-.13L32.45,5.23a22.18,22.18,0,0,1,2.27,1.3Z" transform="translate(-0.16 -0.16)"/><path d="M23.5,3.16v-3h-.8c-.7,0-1.39.08-2.07.16h-.12l.38,3A20.67,20.67,0,0,1,23.5,3.16Z" transform="translate(-0.16 -0.16)"/><path d="M30.05,1.1c-.49-.15-1-.27-1.47-.38h-.43l-1-.19-.46,3A18.43,18.43,0,0,1,29.21,4Z" transform="translate(-0.16 -0.16)"/><path d="M32.49,41.75l1.32,2.69a24.72,24.72,0,0,0,2.6-1.5l-1.66-2.5A21.36,21.36,0,0,1,32.49,41.75Z" transform="translate(-0.16 -0.16)"/><path d="M26.7,43.59l.47,3,.54-.09h.45l1.05-.24h.42l.46-.13L29.25,43A20.43,20.43,0,0,1,26.7,43.59Z" transform="translate(-0.16 -0.16)"/><path d="M41.55,8.71Q41,8,40.35,7.36h0v0h0v0h-.13l0,0h0l0,0h0l0,0h0l0,0h0l-.43-.43H39.5l-2,2.18a21.41,21.41,0,0,1,1.78,1.91Z" transform="translate(-0.16 -0.16)"/><path d="M4.14,10.46h0l0,0H4v0H4l-.51.81L6.08,13a21,21,0,0,1,1.49-2.14L5.22,9Q4.65,9.71,4.14,10.46Z" transform="translate(-0.16 -0.16)"/><path d="M43.76,25.23a20.58,20.58,0,0,1-.38,2.58l2.93.63a22.47,22.47,0,0,0,.44-3Z" transform="translate(-0.16 -0.16)"/><path d="M41.22,33.48,43.83,35c.13-.23.26-.46.38-.7h0l0,0h0v0h0l0,0h0v0h0v0h.07v0h0v0h0l0,0h0v0h0c.24-.48.46-1,.66-1.48h0l0,0h0v0h0v0h0l-2.78-1.13A19.6,19.6,0,0,1,41.22,33.48Z" transform="translate(-0.16 -0.16)"/><path d="M37.47,38.27l2.07,2.18a23.47,23.47,0,0,0,1.81-1.92h0l0,0h0v0h.19l-2.33-1.9A18.9,18.9,0,0,1,37.47,38.27Z" transform="translate(-0.16 -0.16)"/><path d="M10.18,4.34h-.3c-.52.37-1,.77-1.5,1.18h-.2v0h0A1.54,1.54,0,0,0,8,6.09l2,2.23A21.49,21.49,0,0,1,12,6.71L10.33,4.24Z" transform="translate(-0.16 -0.16)"/><path d="M7.73,40.7a21.64,21.64,0,0,0,1.73,1.44h0l0,0h.17l.4.29,1.73-2.45a19.94,19.94,0,0,1-2-1.64Z" transform="translate(-0.16 -0.16)"/><path d="M20.19,46.6a22.75,22.75,0,0,0,3,.23l0-3a20.7,20.7,0,0,1-2.61-.2Z" transform="translate(-0.16 -0.16)"/><path d="M13.51,44.6a24.13,24.13,0,0,0,2.79,1.1l.92-2.85a21,21,0,0,1-2.42-1Z" transform="translate(-0.16 -0.16)"/></svg>