<svg id="Layer_1" data-name="Layer 1" xmlns="http://www.w3.org/2000/svg" viewBox="0 0 55.74 51"><title>Office Visit</title><g id="Page-1"><g id="v02"><g id="noun_clinic_2024265-copy-3" data-name="noun clinic 2024265-copy-3"><g id="Group"><path id="Shape" d="M55.87,20.66,29.27.26a1.26,1.26,0,0,0-1.54,0L1.13,20.66A1.28,1.28,0,0,0,.7,22.08,1.27,1.27,0,0,0,1.9,23H8.23V49.72a1.33,1.33,0,0,0,.37.91,1.26,1.26,0,0,0,.9.37h38a1.26,1.26,0,0,0,.9-.37,1.33,1.33,0,0,0,.37-.91V23H55.1a1.27,1.27,0,0,0,1.2-.87,1.28,1.28,0,0,0-.43-1.42ZM47.5,20.4a1.26,1.26,0,0,0-.9.37,1.32,1.32,0,0,0-.37.9V48.45H10.77V21.67a1.32,1.32,0,0,0-.37-.9,1.26,1.26,0,0,0-.9-.37H5.65L28.5,2.88,51.35,20.4Z" transform="translate(-0.63 0)"/><polygon points="25.33 22.95 25.33 28.05 20.27 28.05 20.27 33.15 25.33 33.15 25.33 38.25 30.4 38.25 30.4 33.15 35.47 33.15 35.47 28.05 30.4 28.05 30.4 22.95 25.33 22.95"/></g></g></g></g></svg>