<svg width="2000" height="2128" viewBox="0 0 2000 2128" fill="none" xmlns="http://www.w3.org/2000/svg">
<rect x="464.994" y="407.143" width="806.864" height="1344.77" rx="142.468" fill="#375D99"/>
<path d="M1205.54 309.688V309.688C1306.08 309.688 1387.58 391.189 1387.58 491.727V491.727" stroke="#375D99" stroke-width="71.2342" stroke-linecap="round"/>
<path d="M1205.54 164.07V164.07C1386.51 164.07 1533.21 310.774 1533.21 491.741V491.741" stroke="#375D99" stroke-width="71.2342" stroke-linecap="round"/>
<rect x="541.849" y="483.991" width="653.175" height="1191.08" rx="71.2342" fill="#C3E0FF"/>
<path d="M1002.91 964.246C1002.91 1038.52 942.703 1098.72 868.433 1098.72C794.163 1098.72 733.956 1038.52 733.956 964.246C733.956 889.977 794.163 829.769 868.433 829.769C942.703 829.769 1002.91 889.977 1002.91 964.246Z" fill="#375D99"/>
<path d="M580.269 1279.62C580.269 1200.94 644.055 1137.15 722.738 1137.15H1014.13C1092.82 1137.15 1156.6 1200.94 1156.6 1279.62V1675.06H580.269V1279.62Z" fill="#375D99"/>
<rect x="967.94" y="524.336" width="183.956" height="245.274" rx="71.2342" fill="#375D99"/>
</svg>
