<?xml version="1.0" encoding="utf-8"?>
<!-- Generator: Adobe Illustrator 16.0.4, SVG Export Plug-In . SVG Version: 6.00 Build 0)  -->
<!DOCTYPE svg PUBLIC "-//W3C//DTD SVG 1.1//EN" "http://www.w3.org/Graphics/SVG/1.1/DTD/svg11.dtd">
<svg version="1.1" id="Layer_1" xmlns="http://www.w3.org/2000/svg" xmlns:xlink="http://www.w3.org/1999/xlink" viewBox="6 96 600 600" enable-background="new 6 96 600 600" xml:space="preserve">
<path fill="#B2E5E9" d="M191.417,222.594c24.561,0,44.472-19.911,44.472-44.473c0-24.561-19.911-44.472-44.472-44.472
	c-24.562,0-44.473,19.912-44.473,44.472C146.945,202.683,166.855,222.594,191.417,222.594z M394.719,222.594
	c24.562,0,44.474-19.911,44.474-44.473c0-24.561-19.911-44.472-44.474-44.472c-24.561,0-44.471,19.912-44.471,44.472
	C350.248,202.683,370.158,222.594,394.719,222.594z M455.402,253.326l66.724,67.845c3.727,3.952,6.011,9.313,6.011,15.22
	c0,4.517-1.339,8.731-3.647,12.223l-73.725,92.704v199.585c-0.562,14.681-12.44,26.415-27.035,26.415
	c-14.771,0-26.778-12.048-27.047-27.014V441.951h-8.909v198.388c-0.28,14.942-12.279,26.979-27.046,26.979
	c-14.594,0-26.479-11.756-27.041-26.442v-348.61h-80.652v349.14c-0.825,14.446-12.602,25.912-27.019,25.912
	c-14.943,0-27.057-12.316-27.057-27.52l-0.007-197.847h-8.909v199.278c-0.733,14.529-12.549,26.088-27.023,26.088
	c-14.892,0-26.966-12.229-27.058-27.34V442.039l-72.317-90.823C60.142,347.292,58,342.095,58,336.391
	c0-5.814,2.215-11.094,5.823-15.027l66.448-67.548c3.859-3.603,9-5.809,14.657-5.809h296.361
	C446.682,248.006,451.605,250.02,455.402,253.326z M135.962,306.259l-30.992,31.512l30.992,38.963V306.259z M450.755,306.834v69.009
	l30.348-38.16L450.755,306.834z"/>
</svg>
