<svg width="38" height="47" viewBox="0 0 38 47" fill="none" xmlns="http://www.w3.org/2000/svg">
<path d="M34.1414 18.1185C34.4231 17.3005 34.582 16.4261 34.582 15.5148C34.582 11.4972 31.6198 8.16738 27.7282 7.50062C27.3948 3.30438 23.8326 0 19.4797 0C15.1627 0 11.6214 3.24849 11.2362 7.39381C6.87914 7.63187 3.418 11.1713 3.418 15.5143C3.418 16.4261 3.57687 17.3005 3.85857 18.118C1.54252 19.5623 0 22.0981 0 24.9937C0 29.4914 3.70833 33.1382 8.28208 33.1382C10.2758 33.1382 12.1051 32.4434 13.5344 31.2896C14.211 31.9763 15.0145 32.5388 15.8997 32.959V47H22.1013V33.3423C23.1839 32.9844 24.1691 32.419 25.0016 31.6853C26.341 32.5992 27.9643 33.1392 29.7179 33.1392C34.2922 33.1392 38 29.4919 38 24.9947C38 22.0986 36.458 19.5623 34.1414 18.1185Z" fill="#87E7C8"/>
</svg>
