<svg viewBox="0 0 37 37" fill="none" xmlns="http://www.w3.org/2000/svg">
<path d="M35.5794 12.8046H24.9023V1.42054C24.9023 1.04379 24.7527 0.682467 24.4863 0.416065C24.2198 0.149663 23.8585 0 23.4818 0H14.2318C13.855 0 13.4937 0.149663 13.2273 0.416065C12.9609 0.682467 12.8113 1.04379 12.8113 1.42054V12.8046H1.42055C1.23345 12.8046 1.04818 12.8416 0.875405 12.9134C0.702625 12.9852 0.545733 13.0904 0.413737 13.223C0.281742 13.3556 0.177244 13.513 0.106245 13.6861C0.0352461 13.8592 -0.000854887 14.0447 1.53668e-05 14.2318V23.4818C1.53668e-05 23.8585 0.149678 24.2198 0.41608 24.4862C0.682482 24.7526 1.0438 24.9023 1.42055 24.9023H12.8046V35.5794C12.8046 35.7666 12.8416 35.9518 12.9134 36.1246C12.9852 36.2974 13.0904 36.4543 13.223 36.5863C13.3557 36.7183 13.513 36.8228 13.6861 36.8938C13.8593 36.9648 14.0447 37.0009 14.2318 37H23.4818C23.8585 37 24.2198 36.8503 24.4863 36.5839C24.7527 36.3175 24.9023 35.9562 24.9023 35.5794V24.9023H35.5794C35.9562 24.9023 36.3175 24.7526 36.5839 24.4862C36.8503 24.2198 37 23.8585 37 23.4818V14.2318C37.0009 14.0447 36.9648 13.8592 36.8938 13.6861C36.8228 13.513 36.7183 13.3556 36.5863 13.223C36.4543 13.0904 36.2974 12.9852 36.1246 12.9134C35.9518 12.8416 35.7666 12.8046 35.5794 12.8046V12.8046Z" fill="#F8CBC5"/>
</svg>
