<?xml version="1.0" encoding="utf-8"?>
<!-- Generator: Adobe Illustrator 16.0.4, SVG Export Plug-In . SVG Version: 6.00 Build 0)  -->
<!DOCTYPE svg PUBLIC "-//W3C//DTD SVG 1.1//EN" "http://www.w3.org/Graphics/SVG/1.1/DTD/svg11.dtd">
<svg version="1.1" id="Layer_1" xmlns="http://www.w3.org/2000/svg" xmlns:xlink="http://www.w3.org/1999/xlink" viewBox="6 96 600 600" enable-background="new 6 96 600 600" xml:space="preserve">
<path fill="#F8CBC5" d="M542.343,317.188H394.594v-157.53c0-5.213-2.071-10.213-5.756-13.899c-3.688-3.687-8.688-5.758-13.901-5.758
	H246.938c-5.214,0-10.214,2.071-13.9,5.758c-3.686,3.687-5.757,8.686-5.757,13.899v157.53H69.657c-2.589,0-5.153,0.513-7.543,1.506
	c-2.391,0.993-4.562,2.449-6.389,4.284c-1.826,1.834-3.273,4.013-4.255,6.408c-0.982,2.396-1.482,4.963-1.47,7.552v127.999
	c0,5.214,2.07,10.214,5.757,13.899c3.687,3.687,8.687,5.758,13.9,5.758h157.53v147.749c0,2.59,0.513,5.152,1.506,7.543
	c0.993,2.393,2.45,4.562,4.284,6.39c1.837,1.825,4.013,3.272,6.409,4.255c2.396,0.982,4.962,1.482,7.551,1.47h127.999
	c5.214,0,10.214-2.072,13.901-5.757c3.685-3.688,5.756-8.688,5.756-13.9V484.594h147.749c5.213,0,10.213-2.071,13.9-5.758
	c3.685-3.686,5.757-8.686,5.757-13.899V336.938c0.013-2.589-0.487-5.156-1.47-7.552c-0.982-2.395-2.427-4.574-4.255-6.408
	c-1.826-1.834-3.997-3.291-6.389-4.284C547.495,317.701,544.933,317.188,542.343,317.188L542.343,317.188z"/>
</svg>
