<svg width="42" height="43" viewBox="0 0 42 43" fill="none" xmlns="http://www.w3.org/2000/svg">
<path d="M30.9837 0C28.6731 0 26.7929 1.90409 26.7929 4.24415C26.7939 6.59873 28.6737 8.50529 30.9837 8.50524C33.3087 8.50524 35.1745 6.59878 35.1745 4.24415C35.1745 1.90403 33.3087 0 30.9837 0ZM17.5565 4.65443C17.1854 4.65443 16.8702 4.75601 16.615 4.92037L9.66389 9.21541C7.53333 10.5324 9.25714 13.3929 11.3877 12.076L17.8415 8.08649L22.4429 9.10789L16.939 17.5679C15.6749 19.8254 14.9301 21.8798 16.7575 23.1221L26.0637 29.1997L20.7163 39.5044C20.1108 40.6716 20.5739 42.1163 21.7221 42.7271C22.8746 43.3404 24.2737 42.8843 24.8792 41.717L31.1793 29.5788L31.1904 29.5561C31.8172 28.4619 31.4814 27.0751 30.4193 26.3814L23.7756 22.0382L28.7794 14.3507L30.6484 18.5099C31.0361 19.3728 31.7014 19.718 32.3275 19.6898H40.1279C42.624 19.6898 42.624 16.3398 40.1279 16.3398H33.3082L31.3413 11.9627C30.9815 11.2026 30.6715 10.8765 30.0589 10.3867L25.2033 6.72258C24.4652 6.19049 24.0866 6.05421 23.2392 5.85393L18.0957 4.71366C17.9052 4.67116 17.7252 4.65312 17.5565 4.65428L17.5565 4.65443ZM15.0867 23.5154L12.1616 27.4879H2.34962C1.0477 27.4879 -9.98996e-06 28.5737 4.46515e-10 29.8872C-2.49756e-05 31.2057 1.04774 32.247 2.34962 32.247L13.2428 32.2525C13.991 32.2854 14.74 31.9483 15.2264 31.2877L19.0484 26.1042L15.0867 23.5153V23.5154Z" fill="#F9D7A7"/>
</svg>
