<svg viewBox="0 0 64 64" fill="none" xmlns="http://www.w3.org/2000/svg">
<path d="M44.0985 5C41.1827 5 38.8101 7.39118 38.8101 10.3299C38.8114 13.2868 41.1835 15.6811 44.0985 15.681C47.0324 15.681 49.3868 13.2868 49.3868 10.3299C49.3868 7.39111 47.0324 5 44.0985 5ZM27.1546 10.8451C26.6863 10.8451 26.2885 10.9727 25.9665 11.1791L17.1949 16.5728C14.5063 18.2268 16.6816 21.819 19.3702 20.1652L27.5142 15.1551L33.3208 16.4378L26.3755 27.062C24.7802 29.897 23.8404 32.477 26.1463 34.037L37.89 41.6694L31.142 54.6102C30.378 56.076 30.9624 57.8902 32.4112 58.6573C33.8656 59.4274 35.6311 58.8546 36.3951 57.3888L44.3453 42.1455L44.3594 42.1169C45.1503 40.7429 44.7265 39.0013 43.3863 38.1301L35.0025 32.6759L41.3168 23.0218L43.6754 28.245C44.1646 29.3286 45.0041 29.7621 45.7943 29.7267H55.6376C58.7875 29.7267 58.7874 25.5197 55.6376 25.5197H47.0317L44.5498 20.0229C44.0957 19.0683 43.7045 18.6589 42.9315 18.0437L36.8041 13.4423C35.8728 12.7741 35.395 12.603 34.3256 12.3514L27.8351 10.9195C27.5947 10.8661 27.3675 10.8434 27.1546 10.8449L27.1546 10.8451ZM24.038 34.5309L20.3468 39.5196H7.965C6.3221 39.5196 4.99999 40.8833 5 42.5328C4.99997 44.1886 6.32215 45.4962 7.965 45.4962L21.7112 45.5032C22.6553 45.5445 23.6004 45.1211 24.2143 44.2915L29.0373 37.782L24.038 34.5308V34.5309Z" fill="#F9D7A7"/>
</svg>
