<svg viewBox="0 0 64 64" fill="none" xmlns="http://www.w3.org/2000/svg">
<path fill-rule="evenodd" clip-rule="evenodd" d="M21.5 14C23.9853 14 26 11.9853 26 9.5C26 7.01472 23.9853 5 21.5 5C19.0147 5 17 7.01472 17 9.5C17 11.9853 19.0147 14 21.5 14ZM42.5 14C44.9853 14 47 11.9853 47 9.5C47 7.01472 44.9853 5 42.5 5C40.0147 5 38 7.01472 38 9.5C38 11.9853 40.0147 14 42.5 14ZM48.5739 17.5329L55.3862 24.3284C55.7668 24.7243 56 25.2612 56 25.853C56 26.3054 55.8632 26.7275 55.6276 27.0773L48.1004 36.3629V56.3543C48.0432 57.8246 46.8302 59 45.3402 59C43.8321 59 42.6063 57.7932 42.5788 56.2943V36.4265H41.6693V56.2977C41.6406 57.7943 40.4154 59 38.9079 59C37.4179 59 36.2043 57.8223 36.1471 56.3514V21.4332H27.9126V56.4044C27.8284 57.8515 26.626 59 25.1541 59C23.6284 59 22.3915 57.7664 22.3915 56.2435L22.3909 36.4265H21.4814V56.387C21.4066 57.8421 20.2001 59 18.7223 59C17.2019 59 15.9691 57.7751 15.9598 56.2616V36.4352L8.57636 27.3379C8.21862 26.945 8 26.4243 8 25.853C8 25.2706 8.22622 24.7418 8.59448 24.3477L15.3787 17.5818C15.7727 17.221 16.2976 17 16.8752 17H47.133C47.6837 17 48.1864 17.2017 48.5739 17.5329ZM15.9598 22.8348L12.7956 25.9912L15.9598 29.8938V22.8348ZM48.0993 22.8925V29.8046L51.198 25.9824L48.0993 22.8925Z" fill="#B2E5E9"/>
</svg>
