<?xml version="1.0" encoding="utf-8"?>
<!-- Generator: Adobe Illustrator 22.1.0, SVG Export Plug-In . SVG Version: 6.00 Build 0)  -->
<svg version="1.1" id="Layer_1" xmlns="http://www.w3.org/2000/svg" xmlns:xlink="http://www.w3.org/1999/xlink" x="0px" y="0px"
	 viewBox="0 0 40.1 40" style="enable-background:new 0 0 40.1 40;" xml:space="preserve">
<style type="text/css">
	.st0{fill:#E8ED9D;}
</style>
<path class="st0" d="M8.9,38.6l1.4,1.4l0.3-0.2c1.4-1.3,5-4.7,4.1-12.1l1.2,0.2c3.7,0.5,7-0.4,9.2-2.5c2.2-2.1,3.1-5.3,2.7-9
	l-0.2-1.5l1.5,0.2c3.6,0.4,6.8-0.5,8.9-2.6l2.1-2.1l-1.4-1.4l-2.1,2.1c-0.1,0.1-0.2,0.2-0.3,0.3c-0.1,0.1-0.2,0.2-0.3,0.2l-7.4-7.4
	c0.2-0.2,0.3-0.4,0.5-0.6l1.4-1.4l0.7-0.7L29.8,0c-0.3,0.3-1.7,1.7-2.1,2.1c-2.1,2.1-3.1,5.3-2.6,8.9l0.2,1.5l-1.5-0.2
	c-3.7-0.4-6.9,0.5-9,2.7c-2.1,2.2-3.1,5.4-2.5,9.2l0.2,1.2c-7.3-0.9-10.1,2-11.9,3.9L0,29.7l1.4,1.4l0.4-0.4
	c0.7-0.7,1.4-1.5,2.5-2.1l7.1,7.1c-0.8,1.3-1.7,2.2-2.2,2.7L8.9,38.6z M12.3,33.7c0.2-0.8,0.4-1.6,0.5-2.6l-3.8-3.8
	c-1,0.1-1.9,0.2-2.7,0.4L12.3,33.7z M12.7,28l0,0.2l-0.8-0.8l0.4,0.1l0.3,0l0,0.3L12.7,28z M27.6,5.9l6.6,6.6
	c-0.8,0.3-1.7,0.5-2.7,0.6L27,8.5C27.1,7.6,27.3,6.7,27.6,5.9z M27.2,11.5l0.1,1.3l1.3,0.1L27.2,11.5z M16.4,25.9l-2.3-2.3
	c-0.1-0.6-0.1-1.2-0.1-1.7c0-0.4,0.1-0.9,0.1-1.3l5.3,5.3c-0.2,0-0.4,0.1-0.6,0.1c-0.3,0-0.7,0-1,0C17.3,26,16.9,26,16.4,25.9z
	 M14.8,18.4l6.8,6.8c0.7-0.3,1.3-0.7,1.9-1.2L16,16.6C15.5,17.1,15.1,17.7,14.8,18.4z M17.6,15.3c0.7-0.4,1.4-0.7,2.2-0.8l5.7,5.7
	c-0.2,0.8-0.5,1.6-0.8,2.2L17.6,15.3z M22.5,14.3l3.3,3.3c0-0.2,0-0.3,0-0.5c0-0.2,0-0.3,0-0.5l-0.2-2l-2-0.2
	C23.1,14.3,22.8,14.3,22.5,14.3z"/>
</svg>
