<svg viewBox="0 0 64 64" fill="none" xmlns="http://www.w3.org/2000/svg">
<path d="M55.0803 24.3036H40.6518V8.91964C40.6518 8.41052 40.4495 7.92225 40.0895 7.56225C39.7295 7.20225 39.2413 7 38.7321 7H26.2321C25.723 7 25.2348 7.20225 24.8748 7.56225C24.5148 7.92225 24.3125 8.41052 24.3125 8.91964V24.3036H8.91966C8.66682 24.3036 8.41646 24.3535 8.18298 24.4505C7.94949 24.5476 7.73748 24.6898 7.5591 24.869C7.38073 25.0482 7.23952 25.2608 7.14357 25.4948C7.04763 25.7287 6.99884 25.9793 7.00002 26.2321V38.7321C7.00002 39.2413 7.20227 39.7295 7.56227 40.0895C7.92227 40.4495 8.41054 40.6518 8.91966 40.6518H24.3036V55.0803C24.3036 55.3332 24.3535 55.5835 24.4506 55.817C24.5476 56.0505 24.6898 56.2625 24.869 56.4409C25.0482 56.6193 25.2609 56.7605 25.4948 56.8564C25.7287 56.9524 25.9793 57.0012 26.2321 57H38.7321C39.2413 57 39.7295 56.7977 40.0895 56.4377C40.4495 56.0777 40.6518 55.5895 40.6518 55.0803V40.6518H55.0803C55.5895 40.6518 56.0777 40.4495 56.4377 40.0895C56.7977 39.7295 57 39.2413 57 38.7321V26.2321C57.0012 25.9793 56.9524 25.7287 56.8564 25.4948C56.7605 25.2608 56.6193 25.0482 56.4409 24.869C56.2625 24.6898 56.0505 24.5476 55.817 24.4505C55.5835 24.3535 55.3332 24.3036 55.0803 24.3036V24.3036Z" fill="#F8CBC5"/>
</svg>
