<?xml version="1.0" encoding="utf-8"?>
<!-- Generator: Adobe Illustrator 16.0.4, SVG Export Plug-In . SVG Version: 6.00 Build 0)  -->
<!DOCTYPE svg PUBLIC "-//W3C//DTD SVG 1.1//EN" "http://www.w3.org/Graphics/SVG/1.1/DTD/svg11.dtd">
<svg version="1.1" id="Layer_1" xmlns="http://www.w3.org/2000/svg" xmlns:xlink="http://www.w3.org/1999/xlink" viewBox="6 96 600 600" enable-background="new 6 96 600 600" xml:space="preserve">
<path fill="#F9D7A7" d="M424.312,141.214c-27.382,0-49.662,22.564-49.662,50.295c0.012,27.902,22.287,50.497,49.662,50.496
	c27.553,0,49.664-22.593,49.664-50.496C473.976,163.778,451.864,141.214,424.312,141.214z M265.193,196.372
	c-4.398,0-8.133,1.204-11.157,3.151l-82.374,50.898c-25.248,15.607-4.82,49.505,20.428,33.899l76.481-47.278l54.529,12.104
	l-65.225,100.255c-14.979,26.752-23.806,51.098-2.15,65.821l110.283,72.021l-63.369,122.116
	c-7.176,13.832-1.688,30.952,11.919,38.19c13.657,7.268,30.237,1.862,37.412-11.97l74.66-143.844l0.131-0.27
	c7.428-12.966,3.449-29.4-9.138-37.622l-78.73-51.468l59.298-91.102l22.147,49.289c4.595,10.226,12.479,14.316,19.898,13.983h92.438
	c29.581,0,29.581-39.699,0-39.699h-80.816l-23.31-51.871c-4.263-9.008-7.937-12.873-15.196-18.676l-57.541-43.422
	c-8.747-6.305-13.233-7.92-23.275-10.293l-60.954-13.513c-2.257-0.503-4.391-0.717-6.39-0.703V196.372z M235.924,419.883
	l-34.664,47.076H84.984c-15.428,0-27.844,12.868-27.844,28.434c0,15.625,12.417,27.966,27.844,27.966l129.089,0.063
	c8.867,0.39,17.743-3.604,23.508-11.432l45.292-61.428L235.924,419.883L235.924,419.883z"/>
</svg>
