<svg viewBox="0 0 64 64" fill="none" xmlns="http://www.w3.org/2000/svg">
<path fill-rule="evenodd" clip-rule="evenodd" d="M14.116 57.4429L15.5502 58.9002L15.8119 58.6516L15.8127 58.6508C17.2193 57.3243 20.9319 53.8233 20.0068 46.3057L21.2272 46.4702C25.0297 46.9834 28.3529 46.0574 30.5853 43.8641C32.7966 41.6903 33.7747 38.4278 33.3345 34.6751L33.1509 33.106L34.7226 33.2897C38.4398 33.7249 41.6849 32.767 43.8573 30.5947C46.0296 28.4223 46.9875 25.1772 46.5515 21.4607L46.3683 19.8935L46.9346 19.9603C54.5476 20.8502 57.7667 16.979 58.8243 15.706L59 15.4985L57.4587 14.1481L57.2491 14.3968L57.2477 14.3985C56.7861 14.953 55.9641 15.9407 54.5388 16.7484L47.2248 9.43442C48.0238 8.052 48.9865 7.2339 49.5321 6.77041C49.5634 6.74352 49.5935 6.71789 49.6223 6.69341C49.7165 6.61322 49.7963 6.54522 49.8567 6.48486L48.4499 5C48.4 5.04634 48.3355 5.10146 48.2583 5.16738L48.2063 5.21181C46.9463 6.28244 43.1011 9.55072 43.9708 16.9916L44.0377 17.5646L42.4591 17.3817C38.7426 16.9458 35.4989 17.9051 33.3258 20.0767C31.1527 22.2483 30.1949 25.4935 30.6301 29.2107L30.8128 30.7738L29.2508 30.591C25.4997 30.1522 22.2357 31.1289 20.0626 33.341C17.8686 35.5726 16.944 38.8958 17.4558 42.6984L17.6208 43.9224C10.1524 42.9885 7.30867 45.9486 5.42038 47.9141L5.42037 47.9142L5.42001 47.9145L5 48.3476L6.4545 49.7847L6.89475 49.33C7.59669 48.5995 8.36543 47.8005 9.427 47.1465L16.6797 54.3992C15.9036 55.7531 14.9862 56.6185 14.4069 57.1651L14.4051 57.1667L14.116 57.4429ZM17.5587 52.3866C17.8037 51.61 17.9844 50.7291 18.0625 49.7305L14.1374 45.8054C13.0903 45.8574 12.1974 46.0172 11.4239 46.2518L17.5587 52.3866ZM18 46.7763L17.1486 45.925C17.2934 45.9417 17.4403 45.96 17.5895 45.98L17.9037 46.0224L17.946 46.336C17.9659 46.4847 17.9839 46.6314 18 46.7763ZM46.3574 11.4586L52.4982 17.5994C51.7089 17.8266 50.805 17.9839 49.7705 18.0307L45.9061 14.1664C45.9586 13.141 46.1229 12.2434 46.3574 11.4586ZM46.724 17.8759L46.0541 17.2061L46.1243 17.8064L46.724 17.8759ZM21.7575 44.4809L19.4538 42.1772C19.3243 41.072 19.3373 40.0234 19.4869 39.0533L24.8766 44.443C23.9084 44.5934 22.8614 44.608 21.7575 44.4809ZM20.1385 36.8132L27.1153 43.79C27.8278 43.4677 28.4675 43.0471 29.0201 42.5321L21.3952 34.9073C20.8805 35.4607 20.4603 36.1008 20.1385 36.8132ZM23.0112 33.6317L30.2938 40.9142C30.6859 40.2261 30.9753 39.4559 31.1572 38.6194L25.3038 32.766C24.4681 32.9488 23.6987 33.2388 23.0112 33.6317ZM31.2973 34.9195C31.3381 35.2681 31.3647 35.6112 31.3773 35.9478L27.972 32.5426C28.313 32.5548 28.6605 32.5813 29.0137 32.6224L31.0568 32.8612L31.2973 34.9195ZM32.9066 31.0188L34.9589 31.259C35.3055 31.2995 35.6465 31.3259 35.9813 31.3385L32.587 27.9443C32.5996 28.2792 32.626 28.6203 32.6665 28.967L32.9066 31.0188ZM32.8066 25.2722C32.9883 24.4356 33.2774 23.6652 33.6691 22.9767L40.9496 30.2572C40.261 30.6488 39.4904 30.9377 38.6537 31.1193L32.8066 25.2722ZM43.8277 27.0823C43.5047 27.7942 43.0837 28.4331 42.5687 28.9846L34.9419 21.3578C35.4933 20.8429 36.1322 20.4218 36.844 20.0986L43.8277 27.0823ZM39.0799 19.4428L44.4832 24.846C44.6348 23.878 44.6507 22.8313 44.5245 21.7282L42.1978 19.4016C41.0948 19.275 40.048 19.2909 39.0799 19.4428Z" fill="#E8ED9D"/>
</svg>
