<svg width="37" height="42" viewBox="0 0 37 42" fill="none" xmlns="http://www.w3.org/2000/svg">
<path fill-rule="evenodd" clip-rule="evenodd" d="M10.5 7C12.433 7 14 5.433 14 3.5C14 1.567 12.433 0 10.5 0C8.567 0 7 1.567 7 3.5C7 5.433 8.567 7 10.5 7ZM26.5 7C28.433 7 30 5.433 30 3.5C30 1.567 28.433 0 26.5 0C24.567 0 23 1.567 23 3.5C23 5.433 24.567 7 26.5 7ZM31.2757 9.41868L36.5269 14.7581C36.8202 15.0691 37 15.491 37 15.9559C37 16.3114 36.8946 16.643 36.713 16.9179L30.9108 24.2137V39.9212C30.8666 41.0765 29.9316 42 28.7831 42C27.6206 42 26.6757 41.0518 26.6545 39.8741V24.2636H25.9534V39.8768C25.9313 41.0527 24.9869 42 23.8248 42C22.6763 42 21.7409 41.0747 21.6967 39.9189V12.4832H15.3493V39.9606C15.2844 41.0976 14.3575 42 13.2229 42C12.0469 42 11.0935 41.0307 11.0935 39.8342L11.093 24.2636H10.3919V39.9469C10.3342 41.0903 9.40421 42 8.26513 42C7.09315 42 6.14286 41.0376 6.13565 39.8484V24.2705L0.444279 17.1227C0.16852 16.8139 0 16.4048 0 15.9559C0 15.4983 0.174377 15.0828 0.458248 14.7732L5.68777 9.45716C5.99146 9.17361 6.39609 9 6.84127 9H30.165C30.5895 9 30.977 9.1585 31.2757 9.41868ZM6.13565 13.5845L3.69662 16.0645L6.13565 19.1309V13.5845ZM30.9099 13.6298V19.0608L33.2984 16.0576L30.9099 13.6298Z" fill="#B2E5E9"/>
</svg>
