<svg viewBox="0 0 41 42" fill="none" xmlns="http://www.w3.org/2000/svg">
<path fill-rule="evenodd" clip-rule="evenodd" d="M9.19957 39.6432L10.6025 41.0687L10.8584 40.8255L10.8592 40.8248C12.235 39.5273 15.8661 36.1031 14.9617 28.7506L16.1566 28.9116C19.876 29.4136 23.1265 28.5078 25.3101 26.3625C27.4731 24.2362 28.4298 21.045 27.9992 17.3744L27.8195 15.8385L29.3557 16.018C32.9916 16.4437 36.1658 15.5068 38.2907 13.3819L40.3519 11.3207L38.937 9.90576L36.8757 11.967C36.6922 12.1506 36.4979 12.3228 36.2934 12.4836L28.8948 5.08505C29.0556 4.8807 29.2278 4.68646 29.4113 4.50297L29.8654 4.04955C30.4187 3.49723 31.2371 2.68024 31.4727 2.44159L30.0578 1.02669C29.8271 1.25271 29.0767 2.00578 28.5284 2.55599C28.2927 2.79251 28.0944 2.99155 27.9907 3.09512C25.8651 5.21927 24.9282 8.39347 25.3539 12.0294L25.5325 13.5573L24.0036 13.3784C20.3344 12.9492 17.1418 13.9045 15.0162 16.0682C12.8702 18.2511 11.9658 21.5017 12.4664 25.221L12.6279 26.4194C5.32367 25.5063 2.54225 28.4015 0.695343 30.324L0.694994 30.3244L0.284165 30.7479L1.70686 32.1537L2.13749 31.7089C2.82419 30.9943 3.57626 30.2126 4.61487 29.5728L11.7076 36.6656C10.9484 37.9901 10.0509 38.8368 9.48409 39.3715L9.48241 39.3731L9.19957 39.6432ZM12.5673 34.6968C12.8068 33.9373 12.9835 33.0758 13.0598 32.0992L9.22191 28.2613C8.19789 28.3122 7.32473 28.4684 6.56824 28.6978L12.5673 34.6968ZM12.9986 29.2096L12.1673 28.3783C12.3089 28.3947 12.4526 28.4126 12.5984 28.4322L12.9046 28.4734L12.9458 28.7792C12.9654 28.9245 12.983 29.068 12.9986 29.2096ZM27.8703 6.88897L34.4892 13.5079C33.6766 13.827 32.7762 14.0234 31.8087 14.0913L27.2865 9.56909C27.3545 8.60164 27.551 7.70148 27.8703 6.88897ZM27.4341 12.5451L27.5806 13.797L28.8324 13.9435L27.4341 12.5451ZM16.6747 26.9657L14.4208 24.7118C14.2939 23.6301 14.3067 22.6037 14.4533 21.6544L19.7275 26.9286C18.7799 27.0759 17.7551 27.0902 16.6747 26.9657ZM15.0909 19.4635L21.917 26.2896C22.6133 25.9744 23.2386 25.5633 23.7788 25.0599L16.3195 17.6006C15.8163 18.1416 15.4056 18.7672 15.0909 19.4635ZM17.9001 16.3527C18.5726 15.9684 19.3255 15.6846 20.1431 15.5057L25.8696 21.2322C25.6916 22.0507 25.4085 22.8042 25.0248 23.4775L17.9001 16.3527ZM22.753 15.2873L26.0848 18.619C26.0724 18.2898 26.0464 17.9543 26.0066 17.6134L25.7711 15.5991L23.7716 15.3654C23.4262 15.3252 23.0865 15.2992 22.753 15.2873Z" fill="#E8ED9D"/>
</svg>
