<?xml version="1.0" encoding="utf-8"?>
<!-- Generator: Adobe Illustrator 16.0.4, SVG Export Plug-In . SVG Version: 6.00 Build 0)  -->
<!DOCTYPE svg PUBLIC "-//W3C//DTD SVG 1.1//EN" "http://www.w3.org/Graphics/SVG/1.1/DTD/svg11.dtd">
<svg version="1.1" id="Layer_1" xmlns="http://www.w3.org/2000/svg" xmlns:xlink="http://www.w3.org/1999/xlink" viewBox="6 96 600 600" enable-background="new 6 96 600 600" xml:space="preserve">
<path fill="#90EED4" d="M476.515,335.396c3.173-9.213,4.962-19.06,4.962-29.322c0-45.244-33.358-82.742-77.185-90.251
	c-3.755-47.256-43.869-84.468-92.889-84.468c-48.616,0-88.497,36.583-92.835,83.266c-49.066,2.68-88.044,42.54-88.044,91.448
	c0,10.268,1.79,20.115,4.962,29.321c-26.082,16.265-43.454,44.823-43.454,77.431c0,50.651,41.761,91.72,93.269,91.72
	c22.452,0,43.052-7.824,59.148-20.818c7.619,7.732,16.667,14.07,26.637,18.8v158.123h69.839V506.838
	c12.19-4.03,23.285-10.398,32.661-18.658c15.084,10.29,33.364,16.372,53.113,16.372c51.513,0,93.268-41.075,93.268-91.72
	C519.968,380.217,502.604,351.655,476.515,335.396z"/>
</svg>
