<?xml version="1.0" encoding="utf-8"?>
<!-- Generator: Adobe Illustrator 16.0.4, SVG Export Plug-In . SVG Version: 6.00 Build 0)  -->
<!DOCTYPE svg PUBLIC "-//W3C//DTD SVG 1.1//EN" "http://www.w3.org/Graphics/SVG/1.1/DTD/svg11.dtd">
<svg version="1.1" id="Layer_1" xmlns="http://www.w3.org/2000/svg" xmlns:xlink="http://www.w3.org/1999/xlink" viewBox="6 96 600 600" enable-background="new 6 96 600 600" xml:space="preserve">
<path fill="#E8ED9D" d="M156.268,646.423l18.893,19.198l3.447-3.276l0.01-0.008c18.528-17.476,67.428-63.588,55.248-162.603
	l16.093,2.167c50.088,6.762,93.863-5.438,123.269-34.328c29.129-28.634,42.014-71.61,36.215-121.042l-2.421-20.685l20.688,2.418
	c48.964,5.732,91.711-6.885,120.326-35.501l27.758-27.758l-19.055-19.055l-27.758,27.758c-2.473,2.473-5.089,4.792-7.844,6.957
	l-99.636-99.635c2.166-2.751,4.484-5.367,6.956-7.838l6.115-6.107c7.451-7.438,18.472-18.441,21.646-21.654l-19.055-19.054
	c-3.106,3.043-13.212,13.185-20.596,20.595c-3.175,3.186-5.845,5.866-7.242,7.261c-28.625,28.606-41.242,71.353-35.509,120.317
	l2.404,20.576l-20.589-2.409c-49.413-5.78-92.408,7.085-121.033,36.223c-28.9,29.397-41.079,73.172-34.337,123.259l2.175,16.139
	c-98.365-12.296-135.823,26.693-160.694,52.583l-0.005,0.005l-5.533,5.703l19.16,18.933l5.799-5.99
	c9.248-9.623,19.375-20.15,33.363-28.766l95.517,95.518c-10.224,17.837-22.311,29.24-29.944,36.44l-0.022,0.021L156.268,646.423z
	 M201.621,579.811c3.226-10.228,5.605-21.829,6.633-34.981l-51.685-51.685c-13.79,0.686-25.549,2.789-35.737,5.878L201.621,579.811z
	 M207.43,505.915l-11.195-11.194c1.907,0.22,3.842,0.461,5.805,0.726l4.124,0.555l0.555,4.117
	C206.982,502.076,207.219,504.008,207.43,505.915z M407.706,205.326l89.135,89.136c-10.942,4.296-23.067,6.942-36.098,7.856
	l-60.9-60.9C400.76,228.39,403.405,216.267,407.706,205.326z M401.831,281.496l1.973,16.859l16.856,1.973L401.831,281.496z
	 M256.936,475.696l-30.354-30.354c-1.709-14.567-1.537-28.389,0.438-41.172l71.027,71.025
	C285.286,477.182,271.485,477.373,256.936,475.696z M235.606,374.665l91.926,91.927c9.377-4.245,17.799-9.782,25.074-16.56
	L252.152,349.578C245.375,356.863,239.844,365.288,235.606,374.665z M273.438,332.772c9.057-5.175,19.195-8.997,30.207-11.406
	l77.119,77.119c-2.397,11.022-6.21,21.17-11.378,30.237L273.438,332.772z M338.791,318.424l44.869,44.869
	c-0.166-4.434-0.517-8.952-1.053-13.543l-3.172-27.126l-26.926-3.147C347.857,318.935,343.282,318.585,338.791,318.424z"/>
</svg>
