<svg viewBox="0 0 64 64" fill="none" xmlns="http://www.w3.org/2000/svg">
<path d="M49.5322 25.817C49.8584 24.8771 50.0423 23.8725 50.0423 22.8255C50.0423 18.2096 46.6124 14.3838 42.1064 13.6177C41.7202 8.79653 37.5957 5 32.5554 5C27.5569 5 23.4564 8.7323 23.0103 13.495C17.9653 13.7685 13.9577 17.8351 13.9577 22.8249C13.9577 23.8725 14.1416 24.8771 14.4678 25.8164C11.7861 27.4758 10 30.3893 10 33.7162C10 38.8837 14.2939 43.0736 19.5898 43.0736C21.8983 43.0736 24.0165 42.2754 25.6715 40.9497C26.4549 41.7387 27.3852 42.385 28.4102 42.8678V59H35.591V43.3081C36.8446 42.897 37.9853 42.2473 38.9492 41.4044C40.5001 42.4543 42.3797 43.0748 44.4102 43.0748C49.7067 43.0748 54 38.8843 54 33.7173C54 30.3899 52.2145 27.4758 49.5322 25.817Z" fill="#90EED4"/>
</svg>
