<svg viewBox="0 0 94 73" fill="none" xmlns="http://www.w3.org/2000/svg">
<path d="M29.1911 40.8334L12.5244 24.1667C10.4411 26.25 5.60775 31.4167 2.94108 38.75C0.274414 46.0834 -0.114543 53.4722 0.0243456 55.8334H23.3577C23.3577 55.8334 23.3577 52.9167 25.0244 47.9167C26.6911 42.9167 29.1911 40.8334 29.1911 40.8334Z" fill="#EBEBEB"/>
<path d="M45.4703 32.3983L45.3961 8.82818C42.4499 8.83745 35.3796 9.09541 28.3189 12.4175C21.2583 15.7396 15.7741 20.7065 14.2084 22.4792L30.7594 38.9264C30.7594 38.9264 32.8153 36.8576 37.5219 34.4857C42.2285 32.1139 45.4703 32.3983 45.4703 32.3983Z" fill="#AAAAAA"/>
<path d="M63.8846 40.8334L80.5513 24.1667C82.6346 26.25 87.4679 31.4167 90.1346 38.75C92.8013 46.0834 93.1902 53.4722 93.0513 55.8334H69.718C69.718 55.8334 69.7179 52.9167 68.0513 47.9167C66.3846 42.9167 63.8846 40.8334 63.8846 40.8334Z" fill="#333333"/>
<path d="M47.6054 32.3983L47.6795 8.82818C50.6258 8.83745 57.6961 9.09541 64.7567 12.4175C71.8174 15.7396 77.3016 20.7065 78.8673 22.4792L62.3163 38.9264C62.3163 38.9264 60.2604 36.8576 55.5538 34.4857C50.8472 32.1139 47.6054 32.3983 47.6054 32.3983Z" fill="#7A7A7A"/>
<path d="M11.2728 69.1918C10.5399 69.1889 9.90918 69.0085 9.38077 68.6506C8.8552 68.2926 8.45037 67.7741 8.16628 67.0952C7.88503 66.4162 7.74583 65.5994 7.74867 64.6449C7.74867 63.6932 7.88929 62.8821 8.17054 62.2116C8.45463 61.5412 8.85946 61.0312 9.38503 60.6818C9.91344 60.3295 10.5427 60.1534 11.2728 60.1534C12.0029 60.1534 12.6308 60.3295 13.1563 60.6818C13.6847 61.0341 14.091 61.5455 14.3751 62.2159C14.6592 62.8835 14.7998 63.6932 14.797 64.6449C14.797 65.6023 14.6549 66.4205 14.3708 67.0994C14.0896 67.7784 13.6862 68.2969 13.1606 68.6548C12.635 69.0128 12.0058 69.1918 11.2728 69.1918ZM11.2728 67.6619C11.7728 67.6619 12.172 67.4105 12.4703 66.9077C12.7686 66.4048 12.9163 65.6506 12.9134 64.6449C12.9134 63.983 12.8453 63.4318 12.7089 62.9915C12.5754 62.5511 12.385 62.2202 12.1379 61.9986C11.8936 61.777 11.6052 61.6662 11.2728 61.6662C10.7757 61.6662 10.3779 61.9148 10.0796 62.4119C9.78134 62.9091 9.63077 63.6534 9.62793 64.6449C9.62793 65.3153 9.69469 65.875 9.82821 66.3239C9.96458 66.7699 10.1563 67.1051 10.4035 67.3295C10.6507 67.5511 10.9404 67.6619 11.2728 67.6619Z" fill="#333333"/>
<path d="M73.0768 69.286C72.4746 69.286 71.9376 69.1752 71.466 68.9536C70.9973 68.732 70.6251 68.4266 70.3496 68.0374C70.074 67.6482 69.9305 67.2022 69.9192 66.6994H71.7089C71.7288 67.0374 71.8709 67.3116 72.1351 67.5218C72.3993 67.732 72.7132 67.8371 73.0768 67.8371C73.3666 67.8371 73.6223 67.7732 73.8439 67.6454C74.0683 67.5147 74.243 67.3343 74.368 67.1042C74.4959 66.8712 74.5598 66.6042 74.5598 66.3031C74.5598 65.9962 74.4945 65.7263 74.3638 65.4934C74.2359 65.2604 74.0584 65.0786 73.8311 64.9479C73.6038 64.8173 73.3439 64.7505 73.0513 64.7477C72.7956 64.7477 72.547 64.8002 72.3055 64.9053C72.0669 65.0104 71.8808 65.1539 71.7473 65.3357L70.1067 65.0417L70.52 60.4394H75.8552V61.9479H72.0413L71.8155 64.134H71.8666C72.02 63.9181 72.2516 63.7391 72.5612 63.5971C72.8709 63.455 73.2175 63.384 73.601 63.384C74.1266 63.384 74.5953 63.5076 75.0072 63.7548C75.4192 64.0019 75.7445 64.3414 75.9831 64.7732C76.2217 65.2022 76.3396 65.6965 76.3368 66.2562C76.3396 66.8442 76.2033 67.367 75.9277 67.8244C75.655 68.2789 75.2729 68.6369 74.7814 68.8982C74.2927 69.1567 73.7246 69.286 73.0768 69.286ZM89.6856 69.3584C88.9526 69.3556 88.322 69.1752 87.7935 68.8173C87.268 68.4593 86.8631 67.9408 86.5791 67.2619C86.2978 66.5829 86.1586 65.7661 86.1614 64.8116C86.1614 63.8599 86.3021 63.0488 86.5833 62.3783C86.8674 61.7079 87.2722 61.1979 87.7978 60.8485C88.3262 60.4962 88.9555 60.3201 89.6856 60.3201C90.4157 60.3201 91.0435 60.4962 91.5691 60.8485C92.0975 61.2008 92.5038 61.7121 92.7879 62.3826C93.072 63.0502 93.2126 63.8599 93.2097 64.8116C93.2097 65.769 93.0677 66.5871 92.7836 67.2661C92.5024 67.9451 92.0989 68.4636 91.5734 68.8215C91.0478 69.1795 90.4185 69.3584 89.6856 69.3584ZM89.6856 67.8286C90.1856 67.8286 90.5847 67.5772 90.883 67.0744C91.1813 66.5715 91.3291 65.8173 91.3262 64.8116C91.3262 64.1496 91.258 63.5985 91.1217 63.1582C90.9881 62.7178 90.7978 62.3869 90.5506 62.1653C90.3063 61.9437 90.018 61.8329 89.6856 61.8329C89.1884 61.8329 88.7907 62.0815 88.4924 62.5786C88.1941 63.0758 88.0435 63.8201 88.0407 64.8116C88.0407 65.482 88.1075 66.0417 88.241 66.4906C88.3774 66.9366 88.5691 67.2718 88.8163 67.4962C89.0634 67.7178 89.3532 67.8286 89.6856 67.8286ZM81.4984 69.3584C80.7654 69.3556 80.1348 69.1752 79.6064 68.8173C79.0808 68.4593 78.676 67.9408 78.3919 67.2619C78.1106 66.5829 77.9714 65.7661 77.9743 64.8116C77.9743 63.8599 78.1149 63.0488 78.3961 62.3783C78.6802 61.7079 79.085 61.1979 79.6106 60.8485C80.139 60.4962 80.7683 60.3201 81.4984 60.3201C82.2285 60.3201 82.8564 60.4962 83.3819 60.8485C83.9103 61.2008 84.3166 61.7121 84.6007 62.3826C84.8848 63.0502 85.0254 63.8599 85.0226 64.8116C85.0226 65.769 84.8805 66.5871 84.5964 67.2661C84.3152 67.9451 83.9118 68.4636 83.3862 68.8215C82.8606 69.1795 82.2314 69.3584 81.4984 69.3584ZM81.4984 67.8286C81.9984 67.8286 82.3975 67.5772 82.6958 67.0744C82.9941 66.5715 83.1419 65.8173 83.139 64.8116C83.139 64.1496 83.0708 63.5985 82.9345 63.1582C82.801 62.7178 82.6106 62.3869 82.3635 62.1653C82.1191 61.9437 81.8308 61.8329 81.4984 61.8329C81.0012 61.8329 80.6035 62.0815 80.3052 62.5786C80.0069 63.0758 79.8564 63.8201 79.8535 64.8116C79.8535 65.482 79.9203 66.0417 80.0538 66.4906C80.1902 66.9366 80.3819 67.2718 80.6291 67.4962C80.8762 67.7178 81.166 67.8286 81.4984 67.8286Z" fill="#333333"/>
<circle cx="46.6911" cy="55.8334" r="4.16667" fill="#333333"/>
<path d="M60.8576 42.5L46.6909 55.8333" stroke="#333333" stroke-width="2.5" stroke-linecap="round" stroke-linejoin="round"/>
</svg>
