<svg viewBox="0 0 53 70" fill="none" xmlns="http://www.w3.org/2000/svg">
<path d="M7.03999 23.7451V48.2549M46.1309 23.7451V46.7843M46.1309 46.7843V53.1569C46.1309 60.7372 40.4327 66.8824 33.4036 66.8824H19.7673C12.7382 66.8824 7.03999 60.7372 7.03999 53.1569V48.2549M46.1309 46.7843C34.7673 47.2745 36.1309 51.6863 28.8582 51.6863C19.7673 51.6863 21.1309 48.2549 7.03999 48.2549M51.5855 14V20.7451C51.5855 22.402 50.2423 23.7451 48.5855 23.7451H4.58545C2.9286 23.7451 1.58545 22.4019 1.58545 20.7451V14C1.58545 12.3431 2.9286 11 4.58545 11H48.5855C50.2423 11 51.5855 12.3431 51.5855 14Z" stroke="#333333" stroke-width="2.5" stroke-linecap="round"/>
<path d="M41.5859 33.549L37.0405 33.549" stroke="#333333" stroke-width="2.5" stroke-linecap="round"/>
<path d="M41.5859 37.4706L37.0405 37.4706" stroke="#333333" stroke-width="2.5" stroke-linecap="round"/>
<path d="M7.94922 14.9216V19.8235" stroke="#333333" stroke-width="2.5" stroke-linecap="round"/>
<path d="M17.0396 14.9216V19.8235" stroke="#333333" stroke-width="2.5" stroke-linecap="round"/>
<path d="M36.1313 14.9216V19.8235" stroke="#333333" stroke-width="2.5" stroke-linecap="round"/>
<path d="M45.2217 14.9216V19.8235" stroke="#333333" stroke-width="2.5" stroke-linecap="round"/>
<path d="M26.1309 14.9216V19.8235" stroke="#333333" stroke-width="2.5" stroke-linecap="round"/>
<rect x="11.0977" y="70" width="11.0976" height="70" transform="rotate(-180 11.0977 70)" fill="white"/>
<rect x="11.0977" y="59.7753" width="11.0976" height="8.65169" transform="rotate(-180 11.0977 59.7753)" fill="#D9D9D9"/>
<rect x="11.0977" y="70" width="11.0976" height="8.65169" transform="rotate(-180 11.0977 70)" fill="#EBEBEB"/>
<rect x="11.0977" y="49.5506" width="11.0976" height="8.65169" transform="rotate(-180 11.0977 49.5506)" fill="#AAAAAA"/>
<rect x="11.0977" y="39.3258" width="11.0976" height="8.65169" transform="rotate(-180 11.0977 39.3258)" fill="#989898"/>
<rect x="11.0977" y="29.1011" width="11.0976" height="8.65169" transform="rotate(-180 11.0977 29.1011)" fill="#7A7A7A"/>
<rect x="11.0977" y="18.8764" width="11.0976" height="8.65169" transform="rotate(-180 11.0977 18.8764)" fill="#5D5D5D"/>
<rect x="11.0977" y="8.65169" width="11.0976" height="8.65169" transform="rotate(-180 11.0977 8.65169)" fill="#333333"/>
</svg>
