<svg viewBox="0 0 74 70" fill="none" xmlns="http://www.w3.org/2000/svg">
<path d="M42.2612 66.7974H47.2939M71.9998 66.7974H47.2939M47.2939 66.7974V26.9935C47.2939 24.7059 50.4965 19.6732 53.2416 19.6732C53.2416 17.3856 52.3266 12.353 57.3593 12.353C62.3919 12.353 61.4769 17.3856 61.4769 19.6732C64.222 19.6732 67.4246 24.7059 67.4246 26.9935V66.7974" stroke="#333333" stroke-width="2.5" stroke-linecap="round" stroke-linejoin="round"/>
<rect x="18.8057" y="37.8513" width="6.65033" height="24.951" rx="3.32516" stroke="#333333" stroke-width="2.5"/>
<path d="M22.1309 64.0523V68.6275" stroke="#333333" stroke-width="2.5" stroke-linecap="round" stroke-linejoin="round"/>
<path d="M2 34.8042C6.42266 33.5841 15.5753 31.4104 16.6405 31.144C18.4706 30.6865 19.8431 35.1092 20.7582 37.0918" stroke="#333333" stroke-width="2.5" stroke-linecap="round" stroke-linejoin="round"/>
<path d="M41.8037 34.8042C37.3811 33.5841 28.2284 31.4104 27.1632 31.144C25.3331 30.6865 23.9606 35.1092 23.0455 37.0918" stroke="#333333" stroke-width="2.5" stroke-linecap="round" stroke-linejoin="round"/>
<path d="M18.299 10.2941C19.4045 10.2941 20.3006 9.39797 20.3006 8.29247C20.3006 7.18696 19.4045 6.29083 18.299 6.29083C17.1935 6.29083 16.2974 7.18696 16.2974 8.29247C16.2974 9.39797 17.1935 10.2941 18.299 10.2941Z" fill="#333333"/>
<path d="M18.299 18.3006C19.4045 18.3006 20.3006 17.4045 20.3006 16.299C20.3006 15.1935 19.4045 14.2974 18.299 14.2974C17.1935 14.2974 16.2974 15.1935 16.2974 16.299C16.2974 17.4045 17.1935 18.3006 18.299 18.3006Z" fill="#333333"/>
<path d="M12.2943 16.299C12.2943 17.4045 11.3982 18.3006 10.2926 18.3006C9.18715 18.3006 8.29102 17.4045 8.29102 16.299C8.29102 15.1935 9.18715 14.2974 10.2926 14.2974C11.3982 14.2974 12.2943 15.1935 12.2943 16.299Z" fill="#333333"/>
<path d="M12.2943 8.40685C12.2943 9.51235 11.3982 10.4085 10.2926 10.4085C9.18715 10.4085 8.29102 9.51235 8.29102 8.40685C8.29102 7.30134 9.18715 6.40521 10.2926 6.40521C11.3982 6.40521 12.2943 7.30134 12.2943 8.40685Z" fill="#333333"/>
<path d="M26.3053 10.2941C27.4108 10.2941 28.307 9.39797 28.307 8.29247C28.307 7.18696 27.4108 6.29083 26.3053 6.29083C25.1998 6.29083 24.3037 7.18696 24.3037 8.29247C24.3037 9.39797 25.1998 10.2941 26.3053 10.2941Z" fill="#333333"/>
<path d="M34.1979 10.2941C35.3034 10.2941 36.1996 9.39797 36.1996 8.29247C36.1996 7.18696 35.3034 6.29083 34.1979 6.29083C33.0924 6.29083 32.1963 7.18696 32.1963 8.29247C32.1963 9.39797 33.0924 10.2941 34.1979 10.2941Z" fill="#333333"/>
<path d="M28.307 16.299C28.307 17.4045 27.4108 18.3006 26.3053 18.3006C25.1998 18.3006 24.3037 17.4045 24.3037 16.299C24.3037 15.1935 25.1998 14.2974 26.3053 14.2974C27.4108 14.2974 28.307 15.1935 28.307 16.299Z" fill="#333333"/>
<path d="M36.3138 16.299C36.3138 17.4045 35.4177 18.3006 34.3122 18.3006C33.2067 18.3006 32.3105 17.4045 32.3105 16.299C32.3105 15.1935 33.2067 14.2974 34.3122 14.2974C35.4177 14.2974 36.3138 15.1935 36.3138 16.299Z" fill="#333333"/>
<rect x="3.25" y="1.25" width="37.7614" height="22.2059" rx="3.75" stroke="#333333" stroke-width="2.5"/>
</svg>
