<svg viewBox="0 0 70 70" fill="none" xmlns="http://www.w3.org/2000/svg">
<path d="M56.111 22.2222C56.111 23.8889 56.111 31.6667 56.111 38.3333C56.111 45 57.7776 58.8889 48.3331 65C38.8887 71.1111 19.9998 68.5499 18.8887 60.5556" stroke="#333333" stroke-width="2.5"/>
<path d="M5.91505 17.9384C2.71545 16.3871 1.25 14.4836 1.25 12.7778C1.25 11.072 2.71545 9.16847 5.91505 7.61715C9.0285 6.1076 13.4175 5.13889 18.3333 5.13889C23.2492 5.13889 27.6382 6.1076 30.7516 7.61715C33.9512 9.16847 35.4167 11.072 35.4167 12.7778C35.4167 14.4836 33.9512 16.3871 30.7516 17.9384C27.6382 19.448 23.2492 20.4167 18.3333 20.4167C13.4175 20.4167 9.0285 19.448 5.91505 17.9384Z" stroke="#333333" stroke-width="2.5"/>
<path d="M1.25 12.7778C1.25 11.072 2.71545 9.16847 5.91505 7.61715C9.0285 6.1076 13.4175 5.13889 18.3333 5.13889C23.2492 5.13889 27.6382 6.1076 30.7516 7.61715C33.9512 9.16847 35.4167 11.072 35.4167 12.7778V52.7778C35.4167 54.4836 33.9512 56.3871 30.7516 57.9384C27.6382 59.448 23.2492 60.4167 18.3333 60.4167C13.4175 60.4167 9.0285 59.448 5.91505 57.9384C2.71545 56.3871 1.25 54.4836 1.25 52.7778V12.7778Z" stroke="#333333" stroke-width="2.5"/>
<path d="M0 12.7778C0 17.687 8.20811 21.6667 18.3333 21.6667V61.6667C8.20811 61.6667 0 57.687 0 52.7778V12.7778Z" fill="#333333"/>
<circle cx="36.6668" cy="39.4444" r="13.3333" fill="#333333"/>
<path d="M33.3335 40L36.1113 30.5556L38.8891 40L36.1113 43.8889L33.3335 40Z" fill="white"/>
<path d="M42.2222 8.88889C42.2222 0 51.1111 -2.22222 56.1111 2.22222C61.1111 -2.22222 69.9999 0 69.9999 8.88889C69.9999 16 60.7407 21.4815 56.1111 23.3333C51.4814 21.4815 42.2222 16 42.2222 8.88889Z" fill="#333333"/>
</svg>
