<svg viewBox="0 0 74 95" fill="none" xmlns="http://www.w3.org/2000/svg">
<path d="M27.3624 71.8352H24.7827C23.1259 71.8352 21.7827 70.492 21.7827 68.8352V53.5308C21.7827 51.874 23.1259 50.5308 24.7827 50.5308H30.9131M30.9131 50.5308V68.8352C30.9131 70.492 32.2563 71.8352 33.9131 71.8352H37.0001M30.9131 50.5308H41.0581M41.0581 50.5308H47.6958C49.3526 50.5308 50.6958 49.1898 50.6958 47.533C50.6958 42.3112 50.6958 34.7643 50.6958 31.7627C50.6958 27.1975 61.8552 27.1975 61.8552 31.7627C61.8552 35.4149 61.8552 50.5308 61.8552 57.6323M41.0581 50.5308V68.8352C41.0581 70.492 42.4012 71.8352 44.0581 71.8352H49.7247C51.3816 71.8352 52.7247 70.492 52.7247 68.8352V66.7192C52.7247 65.0624 51.3816 63.7192 49.7247 63.7192H48.6668M27.3624 77.9221V90.1395C27.3624 91.7964 28.7056 93.1395 30.3624 93.1395H46.6378M46.6378 93.1395H65.9566C67.6135 93.1395 68.9566 91.7999 68.9566 90.143C68.9566 83.3222 68.9566 72.948 68.9566 69.8062C68.9566 65.241 72.0001 62.7047 72.0001 59.154C72.0001 55.6033 67.4349 54.5888 65.9131 56.1105C64.5892 57.4345 60.9615 62.214 60.0409 67.4427C59.7994 68.8138 58.8579 70.0196 57.5863 70.5862C54.4638 71.9775 50.2608 75.0387 48.6668 80.4584C46.6378 87.3569 46.4687 91.7869 46.6378 93.1395Z" stroke="#333333" stroke-width="2.5" stroke-linecap="round"/>
<circle cx="56.7827" cy="34.8062" r="3.04348" fill="#333333"/>
<path d="M46.1304 13.6287C34.7598 -0.395068 14.539 1.0101 4.06699 3.87425C2.82145 4.21491 2 5.36921 2 6.6605V19.7156V34.7684C2 36.0784 2.83279 37.2493 4.09662 37.594C14.5771 40.4527 34.7706 41.8421 46.1304 27.8315M13.6667 19.7156H20.7681M13.6667 14.6431H20.7681M25.8406 12.5707V27.875C25.8406 29.5319 24.4974 30.875 22.8406 30.875H12.1014C10.4446 30.875 9.10145 29.5319 9.10145 27.875V12.5707C9.10145 10.9138 10.4446 9.57068 12.1014 9.57068H22.8406C24.4974 9.57068 25.8406 10.9138 25.8406 12.5707Z" stroke="#333333" stroke-width="2.5" stroke-linecap="round"/>
<rect x="40.7759" y="16.5456" width="15.5469" height="7.43312" rx="1" fill="#333333"/>
</svg>
