<svg viewBox="0 0 79 74" fill="none" xmlns="http://www.w3.org/2000/svg">
<path d="M35.5238 2C34.5093 8.08693 32.4803 10.6232 28.4223 10.6232C24.3643 10.6232 20.1826 14.6812 15.6181 19.2464C11.0536 23.8116 7.50287 27.3623 3.4449 32.4348C-0.613076 37.5073 4.33504 44.6087 12.5743 44.6087M20.8136 27.3623C20.8136 28.807 20.4433 30.9922 20.0543 33.4493C19.0773 39.6196 17.9821 47.5045 22.3354 49.6812C23.4794 50.2532 24.6832 50.6124 25.8861 50.8141M35.5238 49.6812C33.7127 50.4573 29.8036 51.471 25.8861 50.8141M25.8861 50.8141C25.8861 58.3044 23.8572 68.9565 22.3354 72H43.6398M47.1905 2C48.205 8.08693 50.234 10.6232 54.2919 10.6232L70.5238 2.00002M77.118 10.6232C77.118 10.6232 61.9006 22.2899 61.9006 27.3623C61.9006 32.4348 66.4657 46.6377 60.3788 49.6812C59.2348 50.2532 58.0311 50.6124 56.8281 50.8141M56.8281 50.8141C52.9106 51.471 49.0015 50.4573 47.1905 49.6812M56.8281 50.8141C56.8281 58.3044 58.857 68.9565 60.3788 72H39.0745" stroke="#333333" stroke-width="2.5" stroke-linecap="round"/>
<path d="M45.2854 29.3913L53.4203 29.3913C55.4541 29.3914 55.4541 33.4493 53.4203 33.4493L62.9111 33.4493C65.2838 33.4493 65.6227 36.4928 62.9111 36.4928C66.9785 36.4928 66.6396 40.2125 62.9111 40.2125C65.2838 40.2125 66.3006 43.5942 62.2332 43.5942C63.9279 43.5942 63.589 46.6377 62.2332 46.6377L45.2854 46.6377C43.9296 46.6377 41.218 44.6087 41.218 44.6087C41.218 44.6087 21.5586 44.2705 12.0678 44.6087L12.0678 35.1401C22.0105 35.0274 39.1842 35.1401 41.218 35.1401C41.218 31.7585 42.9127 29.3913 45.2854 29.3913Z" fill="white"/>
<path d="M62.9111 36.4928C65.6227 36.4928 65.2838 33.4493 62.9111 33.4493C61.8264 33.4493 50.3697 33.4493 50.3697 33.4493C50.3697 33.4493 50.7087 33.4493 53.4203 33.4493C55.4541 33.4493 55.4541 29.3914 53.4203 29.3913C51.0477 29.3913 46.6412 29.3913 45.2854 29.3913C42.9127 29.3913 41.218 31.7585 41.218 35.1401C39.1842 35.1401 22.0105 35.0274 12.0678 35.1401M62.9111 36.4928C66.9785 36.4928 66.6396 40.2125 62.9111 40.2125M62.9111 36.4928L54.0982 36.4928M62.9111 40.2125C65.2838 40.2125 66.3006 43.5942 62.2332 43.5942M62.9111 40.2125L54.0982 40.2125M62.2332 43.5942C63.9279 43.5942 63.589 46.6377 62.2332 46.6377C61.2163 46.6377 46.6412 46.6377 45.2854 46.6377C43.9296 46.6377 41.218 44.6087 41.218 44.6087C41.218 44.6087 21.5586 44.2705 12.0678 44.6087M62.2332 43.5942L54.0982 43.5942" stroke="#333333" stroke-width="2.5" stroke-linecap="round"/>
</svg>
