<svg viewBox="0 0 72 76" fill="none" xmlns="http://www.w3.org/2000/svg">
<path d="M58.9414 50.9115C58.9414 52.119 57.9417 53.0979 56.7085 53.0979C55.4754 53.0979 54.4756 52.119 54.4756 50.9115C54.4756 49.7041 55.4754 48.7251 56.7085 48.7251C57.9417 48.7251 58.9414 49.7041 58.9414 50.9115Z" fill="#333333"/>
<path d="M20.0933 49.9634C32.0636 46.8677 56.4455 39.6877 62.8847 34.9821C65.8809 42.6663 63.7177 47.0372 65.3835 49.9634C67.0493 52.8897 70.3809 55.3884 69.9645 56.6378C69.6313 57.6373 65.8848 59.1365 64.0531 59.5529C64.3578 61.774 63.8842 66.5494 59.5531 67.882C54.1392 69.5478 47.0595 67.882 44.9772 67.0491V70.3808C44.9772 71.6301 42.062 74.9618 36.2317 73.7124C31.5674 72.7129 29.0131 70.5196 28.319 69.5478V59.5529C25.5771 58.1574 20.0933 54.2857 20.0933 49.9634Z" stroke="#333333" stroke-width="2.5"/>
<path d="M18.855 49.0347C30.8253 45.939 56.3757 38.571 62.8149 33.8655C66.2821 31.6365 67.3553 29.4282 67.4585 28.6027C62.9181 22.5143 49.1935 12.0713 30.6189 19.0058C12.0443 25.9403 11.8378 42.4304 14.2112 50.273L18.855 49.0347Z" fill="white"/>
<path d="M27.3073 39.4991C19.46 27.4239 1.87643 24.7818 1.54124 32.9539C1.20605 41.1259 20.7624 37.2444 27.3073 39.4991ZM27.3073 39.4991C23.2722 37.5967 11.4762 32.9416 8.79027 32.9618" stroke="#333333" stroke-width="2.5" stroke-linecap="round"/>
<path d="M49.5801 32.9535C52.4333 19.1467 59.5949 4.1439 67.0857 11.8944C73.2389 18.2609 55.6805 27.1478 49.5801 32.9535ZM49.5801 32.9535C52.3245 28.4083 59.4098 18.6861 61.6678 16.7062" stroke="#333333" stroke-width="2.5" stroke-linecap="round"/>
<path d="M37.1633 38.2374C23.8825 28.1768 29.4438 -0.51978 37.2974 1.76418C45.1509 4.04814 48.3206 24.0539 37.1633 38.2374ZM37.1633 38.2374L36.5433 14.1571" stroke="#333333" stroke-width="2.5" stroke-linecap="round"/>
</svg>
