<svg viewBox="0 0 82 73" fill="none" xmlns="http://www.w3.org/2000/svg">
<path d="M16.899 71.2989C19.8788 67.5743 25.7639 61.6891 26.9559 60.4972C28.1478 59.3053 32.9155 59.0073 38.5026 59.0073C41.8549 59.0073 51.1668 57.5174 55.264 56.7725C59.3612 56.0275 58.6163 48.578 55.264 48.578C52.5822 48.578 46.9454 48.578 44.4622 48.578C51.5392 40.3835 66.0658 23.4731 67.5557 21.3873C69.418 18.7799 63.4584 12.0754 59.3612 16.1726C56.6794 18.8544 50.0493 25.4845 47.0695 28.4643M47.0695 28.4643C48.5594 25.4845 45.1326 22.2813 41.8549 24.3671M47.0695 28.4643L41.1099 34.7964M41.8549 24.3671C41.8549 22.1323 39.0985 19.5994 35.5228 21.3873M41.8549 24.3671L34.7778 31.8166M35.5228 21.3873C35.5228 18.78 32.1705 16.6942 29.1907 18.78C25.5901 22.5047 17.8675 30.5502 15.7816 32.934C13.1743 35.9139 14.6642 44.8533 12.8018 47.4606C11.3119 49.5464 4.9798 55.655 2 58.2624M35.5228 21.3873L28.4458 28.4643" stroke="#333333" stroke-width="2.5" stroke-linecap="round" stroke-linejoin="round"/>
<path d="M65.236 3.92548C62.0139 7.40303 55.6985 14.4775 52.7198 17.8216L65.4851 30.0082C65.4851 30.0082 75.8816 19.1749 78.7457 16.0837C81.6098 12.9925 80.3655 9.68523 78.8199 8.25318C77.2743 6.82113 73.8109 3.97127 72.2795 2.91142C70.7481 1.85158 68.4581 0.447934 65.236 3.92548Z" fill="white"/>
<path d="M57.8881 16.5062L66.3888 24.3825M52.7198 17.8216C55.6985 14.4775 62.0139 7.40303 65.236 3.92548C68.4581 0.447934 70.7481 1.85158 72.2795 2.91142C73.8109 3.97127 77.2743 6.82113 78.8199 8.25318C80.3655 9.68523 81.6098 12.9925 78.7457 16.0837C75.8816 19.1749 65.4851 30.0082 65.4851 30.0082L52.7198 17.8216Z" stroke="#333333" stroke-width="2.5" stroke-linecap="round" stroke-linejoin="round"/>
<rect x="67.0797" y="7.11446" width="10.9091" height="6.43941" rx="3.2197" transform="rotate(41.1961 67.0797 7.11446)" stroke="#333333" stroke-width="2.5" stroke-linejoin="round"/>
</svg>
