<svg viewBox="0 0 74 74" fill="none" xmlns="http://www.w3.org/2000/svg">
<path d="M17.6716 1.5L14.0149 5.15672M2 17.1716L6.70149 12.4702M34.3881 8.81343L30.209 12.9925M9.31343 33.8881L14.0149 29.1866M18.7164 24.4851L6.70149 12.4702M18.7164 24.4851L26.0298 17.1716M18.7164 24.4851L14.0149 29.1866M6.70149 12.4702L14.0149 5.15672M14.0149 5.15672L26.0298 17.1716M26.0298 17.1716L30.209 12.9925M14.0149 29.1866C21.2845 36.5908 33.862 49.407 40.6435 56.2899M30.209 12.9925C37.5164 20.3 50.4605 32.9399 57.299 39.6343M62.1988 55.306C61.5674 56.5451 60.7936 57.6318 59.9851 58.4403C59.0868 59.3386 57.8023 60.2369 56.3284 60.9631M62.1988 55.306C64.0151 51.7414 64.6533 46.9145 61.5522 43.8134C60.958 43.2192 59.423 41.7135 57.299 39.6343M62.1988 55.306C67.4227 60.5299 67.2985 62.097 65.209 64.1866M65.209 64.1866C63.1194 66.2761 61.5522 66.1869 56.3284 60.9631M65.209 64.1866L72 70.9776M56.3284 60.9631C52.6596 62.7705 47.8172 63.5112 44.8358 60.5299C44.1247 59.8187 42.6337 58.3098 40.6435 56.2899M57.299 39.6343L40.6435 56.2899" stroke="#333333" stroke-width="2.5" stroke-linecap="round"/>
<path d="M20.2836 40.8843H35.5672C36.5337 40.8843 37.3172 41.6678 37.3172 42.6342V54.1703C37.3172 55.0665 37.0361 56.6443 36.3675 58.5486C35.7065 60.4311 34.6949 62.5516 33.3002 64.5351C30.5122 68.5003 26.28 71.8172 20.2836 71.8172C14.2872 71.8172 10.055 68.5003 7.26694 64.5351C5.87229 62.5516 4.8607 60.4311 4.1997 58.5486C3.53108 56.6443 3.25 55.0665 3.25 54.1703V42.6343C3.25 41.6678 4.0335 40.8843 5 40.8843H20.2836Z" fill="#333333" stroke="#333333" stroke-width="2.5" stroke-linecap="round"/>
<path d="M20.2837 49.0373V60.5299" stroke="white" stroke-width="4" stroke-linecap="round"/>
<path d="M26.0298 54.7836L14.5372 54.7836" stroke="white" stroke-width="4" stroke-linecap="round"/>
</svg>
