<svg id="3552e32b-c4b7-422a-84db-eb1bd40110a6" data-name="Layer 1" xmlns="http://www.w3.org/2000/svg" xmlns:xlink="http://www.w3.org/1999/xlink" viewBox="0 0 62.02 58.75"><defs><clipPath id="37ded839-02ca-4fed-8f0e-b4f478ff2b92" transform="translate(0 -0.25)"><rect width="61.9" height="58.5" fill="none"/></clipPath></defs><title>antibody</title><g clip-path="url(#37ded839-02ca-4fed-8f0e-b4f478ff2b92)"><path d="M31.08,19.26C25,19.26,20,23.77,20,29.49s4.9,10.24,11.11,10.24,11.11-4.51,11.11-10.24S37.17,19.26,31.08,19.26Zm0,17.91c-4.63,0-8.46-3.41-8.46-7.8s3.7-7.8,8.46-7.8,8.47,3.41,8.47,7.8S35.71,37.17,31.08,37.17Z" transform="translate(0 -0.25)"/><path d="M56,47a5.48,5.48,0,0,0-3,.86l-8.07-7.44a15.49,15.49,0,0,0,3.83-6.82L56.87,35h.27a1.26,1.26,0,0,0,.85-.26,1.22,1.22,0,0,0,.47-.74,1.34,1.34,0,0,0-1.06-1.46L49.2,31.2c0-.61.13-1.1.13-1.71a18.1,18.1,0,0,0-.66-4.63l7.81-2.56a1.22,1.22,0,0,0,.43-.24,1.23,1.23,0,0,0,.3-.38,1.32,1.32,0,0,0,.13-.48,1.33,1.33,0,0,0-.07-.48,1.4,1.4,0,0,0-.72-.68,1.38,1.38,0,0,0-1,0l-7.8,2.56A24,24,0,0,0,45,18.4l8.73-8A3.65,3.65,0,0,0,56,11a5.68,5.68,0,0,0,2.2-.36,5.48,5.48,0,0,0,1.89-1.18,5.68,5.68,0,0,0,1.3-1.81,5.61,5.61,0,0,0,.51-2.17,6,6,0,0,0-11.9,0A5.08,5.08,0,0,0,51.45,9L43,16.82a20,20,0,0,0-5.29-2.93l2.38-7.31a1,1,0,0,0,.06-.49A1,1,0,0,0,40,5.62a1.1,1.1,0,0,0-.36-.35,1,1,0,0,0-.47-.15,1.31,1.31,0,0,0-1.59.73l-2.38,7.31a18.81,18.81,0,0,0-7.4-.12L25.66,5.61A1.3,1.3,0,0,0,25,4.85a1.26,1.26,0,0,0-1-.1,1.24,1.24,0,0,0-.92,1.47l2.11,7.43a19.53,19.53,0,0,0-6,3.17L10.85,9A5.11,5.11,0,0,0,11.9,5.85,5.71,5.71,0,0,0,6,.37,5.61,5.61,0,0,0,3.78.7,5.69,5.69,0,0,0,1.85,1.86,5.79,5.79,0,0,0,.53,3.67,5.64,5.64,0,0,0,0,5.85,5.64,5.64,0,0,0,.53,8,5.79,5.79,0,0,0,1.85,9.84,5.69,5.69,0,0,0,3.78,11,5.61,5.61,0,0,0,6,11.33a5.7,5.7,0,0,0,2.91-.73l8.47,7.8a15.58,15.58,0,0,0-3.84,6.83l-8.2-1.34a1.45,1.45,0,0,0-1.59,1,1.37,1.37,0,0,0,.25.94,1.33,1.33,0,0,0,.81.53L13,27.67c0,.61-.13,1.09-.13,1.7A17.69,17.69,0,0,0,13.49,34L5.82,36.68a1.42,1.42,0,0,0-.44.23,1.3,1.3,0,0,0-.31.39,1.15,1.15,0,0,0-.13.48,1.18,1.18,0,0,0,.06.49,1.46,1.46,0,0,0,.57.56,1.42,1.42,0,0,0,.78.17.55.55,0,0,0,.4-.12l7.8-2.56a23.6,23.6,0,0,0,2.78,4.14l-8.47,7.8A5.72,5.72,0,0,0,6,47.53a5.5,5.5,0,1,0,0,11,5.61,5.61,0,0,0,2.22-.33A5.69,5.69,0,0,0,10.15,57a5.79,5.79,0,0,0,1.32-1.81A5.64,5.64,0,0,0,12,53.05a5,5,0,0,0-1.15-3l8.33-7.68a20,20,0,0,0,5.29,2.93l-2.38,7.31A1,1,0,0,0,22,53a1.1,1.1,0,0,0,.16.47,1.14,1.14,0,0,0,.35.34A1.09,1.09,0,0,0,23,54h.4a1.53,1.53,0,0,0,.77-.25,1.67,1.67,0,0,0,.55-.6l2.38-7.31a20.07,20.07,0,0,0,7.41.12l2.12,7.43a1.3,1.3,0,0,0,1.32.85h.4a1.3,1.3,0,0,0,.76-.54,1.24,1.24,0,0,0,.16-.92l-2.11-7.43a19.5,19.5,0,0,0,6-3.17L51,49.49a5,5,0,0,0-1,3A6,6,0,0,0,50.82,56a6,6,0,1,0,8.57-8A6.09,6.09,0,0,0,56,47ZM56,2.4a3.17,3.17,0,0,1,1.22.18,3.06,3.06,0,0,1,1.05.64,2.87,2.87,0,0,1,.73,1,3.07,3.07,0,0,1,.3,1.19,3.32,3.32,0,0,1-6.61,0,3.16,3.16,0,0,1,3.31-3ZM6,9a3.17,3.17,0,0,1-1.22-.18,3.06,3.06,0,0,1-1.05-.64,2.87,2.87,0,0,1-.73-1A3.07,3.07,0,0,1,2.7,6,3.07,3.07,0,0,1,3,4.81a2.87,2.87,0,0,1,.73-1,3.06,3.06,0,0,1,1.05-.64A3.17,3.17,0,0,1,6,3,3.16,3.16,0,0,1,9.26,6,3.16,3.16,0,0,1,6,9ZM6,56a3.09,3.09,0,0,1-1.32,0,2.9,2.9,0,0,1-1.18-.61,2.88,2.88,0,0,1-.81-1.05,3,3,0,0,1,0-2.58,2.88,2.88,0,0,1,.81-1.05,2.9,2.9,0,0,1,1.18-.61A3.09,3.09,0,0,1,6,50a3.16,3.16,0,0,1,1.26.14,3,3,0,0,1,1.1.64,3,3,0,0,1,.74,1,3.11,3.11,0,0,1,0,2.49,3,3,0,0,1-.74,1,3,3,0,0,1-1.1.64A3.16,3.16,0,0,1,6,56.09ZM31.08,43.75c-8.59,0-15.6-6.46-15.6-14.38S22.49,15,31.08,15s15.61,6.46,15.61,14.38S39.68,43.75,31.08,43.75ZM56,55.57a3,3,0,0,1-2.64-2.06,3.05,3.05,0,1,1,5.94-.94,3.16,3.16,0,0,1-3.3,3Z" transform="translate(0 -0.25)"/></g></svg>