<svg id="cccfd8ee-90da-4e2c-829f-d8011dcf59bf" data-name="Layer 1" xmlns="http://www.w3.org/2000/svg" viewBox="0 0 58 65"><title>arthritis</title><path d="M57.66,53.85l-4.83-5.44A21,21,0,0,1,47.75,37a8.45,8.45,0,0,0-2.9-5.44,6.66,6.66,0,0,0-8.1-.27,9.33,9.33,0,0,0-2.17-4.9,7.33,7.33,0,0,0-4.35-2.45A9.07,9.07,0,0,0,30,14.82a7.16,7.16,0,0,0-2.07-2.14,7.25,7.25,0,0,0-2.76-1.12A17.06,17.06,0,0,1,15,5.85L10.16.41a1,1,0,0,0-.38-.3A1,1,0,0,0,9.31,0a1.12,1.12,0,0,0-.47.11,1.07,1.07,0,0,0-.37.3L.37,9.25a1.16,1.16,0,0,0-.3.43A1.16,1.16,0,0,0,0,10.2a1.22,1.22,0,0,0,.07.54,1.24,1.24,0,0,0,.29.46l4.84,5.39A21.09,21.09,0,0,1,10.28,28a8.43,8.43,0,0,0,2.9,5.44A7,7,0,0,0,17.41,35a6.89,6.89,0,0,0,3.87-1.23,9.2,9.2,0,0,0,2.18,4.9,7.17,7.17,0,0,0,4.35,2.45,9.09,9.09,0,0,0,.2,9.06,7.19,7.19,0,0,0,2.07,2.15,7.08,7.08,0,0,0,2.76,1.11A17.19,17.19,0,0,1,43,59.15l4.83,5.44a1.07,1.07,0,0,0,.37.3,1.06,1.06,0,0,0,.94,0,1,1,0,0,0,.38-.3l8-9C58.14,55.35,58.14,54.39,57.66,53.85Zm-36-24.21a8.91,8.91,0,0,1-1.33,1.77,4.46,4.46,0,0,1-5.68,0,5.28,5.28,0,0,1-1.33-1.64,5.18,5.18,0,0,1-.6-2,24.71,24.71,0,0,0-5.8-13l-4-4.49,6.15-7,4,4.49a19.67,19.67,0,0,0,11.61,6.53,4.65,4.65,0,0,1,1.87.72,4.58,4.58,0,0,1,1.39,1.45,6.14,6.14,0,0,1,0,6.4,3.85,3.85,0,0,1-1.45,1.49,7.76,7.76,0,0,0-4.85,5.3Zm3.63,7.08a6.09,6.09,0,0,1-1-6.8c3.15-6,7.62-2.86,8.58-1.77a6.1,6.1,0,0,1,1,6.8c-.5,1.36-4.13,6.25-8.6,1.77ZM48.84,61.87l-4-4.49a19.79,19.79,0,0,0-11.6-6.52,4.48,4.48,0,0,1-1.86-.73A4.42,4.42,0,0,1,30,48.68a6.12,6.12,0,0,1,0-6.39,4.09,4.09,0,0,1,1.45-1.5c4-2.17,4.36-4.21,4.84-5.3a9.11,9.11,0,0,1,1.33-1.77,4.46,4.46,0,0,1,5.68,0,5.37,5.37,0,0,1,1.31,1.65,5.45,5.45,0,0,1,.59,2A24.67,24.67,0,0,0,51,50.45l4,4.49Z" transform="translate(0)"/></svg>