<svg id="f54eb23d-ea70-4623-8cc3-76544314159b" data-name="Layer 1" xmlns="http://www.w3.org/2000/svg" viewBox="0 0 52.18 72.59"><title>blood-vessel</title><path d="M43.51,26.63a2.9,2.9,0,0,0,2.1-.84,3.1,3.1,0,0,0,.67-2.35,3.18,3.18,0,0,0-1-2.19,2.91,2.91,0,0,0-2.19-.75,3.15,3.15,0,0,0-2.1,1,3,3,0,0,0,.17,4.2A3.44,3.44,0,0,0,43.51,26.63Zm-1.09-3.87a.82.82,0,0,1,.76-.33h.08a1.37,1.37,0,0,1,.76.25,2,2,0,0,1,.5.92,1.22,1.22,0,0,1-.25.84,1.33,1.33,0,0,1-1.77-.16A1.08,1.08,0,0,1,42.42,22.76Z" transform="translate(-13.08 -6.37)"/><path d="M63.17,10.16a1.49,1.49,0,0,0-2.86.84c4.29,14.45,1.51,33.77-7.56,51.58A96.86,96.86,0,0,1,44.1,76.52a1.49,1.49,0,0,0,.34,2.1,1.72,1.72,0,0,0,.92.34,1.38,1.38,0,0,0,1.18-.59A93,93,0,0,0,55.44,64C64.76,45.44,67.7,25.28,63.17,10.16Z" transform="translate(-13.08 -6.37)"/><path d="M33.6,7.64a1.48,1.48,0,1,0-2.94.42A75.86,75.86,0,0,1,28.14,39,75.16,75.16,0,0,1,13.44,67a1.47,1.47,0,0,0,1.18,2.44A1.34,1.34,0,0,0,15.71,69,76.25,76.25,0,0,0,31,39.82,79,79,0,0,0,33.6,7.64Z" transform="translate(-13.08 -6.37)"/><path d="M47.29,35.78a7.61,7.61,0,0,0,1.6,2.94,3,3,0,0,0,2,.93,1.35,1.35,0,0,0,.59-.09A2.28,2.28,0,0,0,53,37.21,8.09,8.09,0,0,0,52.5,34c-.34-1.09-1.26-4.45-3.7-3.78C47.21,30.83,46.54,33.1,47.29,35.78Zm2.19-3.61c.25,0,.75.51,1.34,2.52a7.68,7.68,0,0,1,.42,2.52c0,.34-.08.59-.17.59s-.5-.08-.75-.42a4.55,4.55,0,0,1-1.1-2.1C48.64,33.43,49.06,32.26,49.48,32.17Z" transform="translate(-13.08 -6.37)"/><path d="M49.06,62.83a4.92,4.92,0,0,0,.08-4.45c-1.34-2.6-5.21-2.86-9.32-.67a10.87,10.87,0,0,0-4.37,3.78A4.21,4.21,0,0,0,35,65.77c.75,1.51,2.69,2.52,5.12,2.52a10.49,10.49,0,0,0,4.71-1.17A9.41,9.41,0,0,0,49.06,62.83Zm-12.18,2a2.52,2.52,0,0,1,.33-2.44,8.87,8.87,0,0,1,3.61-3,10,10,0,0,1,4.29-1.26,2.65,2.65,0,0,1,2.52,1.17,3,3,0,0,1-.17,2.78,7.44,7.44,0,0,1-3.36,3.27C40.49,67.12,37.55,66.19,36.88,64.85Z" transform="translate(-13.08 -6.37)"/><path d="M43.6,59.3a7.29,7.29,0,0,0-2.27.76c-3.19,1.68-2.77,3.19-2.52,3.78A2.27,2.27,0,0,0,41,64.93a5.62,5.62,0,0,0,2.44-.67,5,5,0,0,0,2-1.68,2.39,2.39,0,0,0,.26-2.35A2.22,2.22,0,0,0,43.6,59.3Zm-1.1,3.28a2.51,2.51,0,0,1-1.93.42,4,4,0,0,1,1.68-1.26A4.16,4.16,0,0,1,44,61.15,3.35,3.35,0,0,1,42.5,62.58Z" transform="translate(-13.08 -6.37)"/><path d="M43.51,29.65h.76a3.37,3.37,0,0,0-.25.59,10.34,10.34,0,0,0-.59,3.7c-1.35-.42-3.11-.34-5.21,1.42a18.32,18.32,0,0,0-4.79,7.06,18.59,18.59,0,0,0-1.85,8.23,5.44,5.44,0,0,0,3.11,5c.76,0,1.6.17,2.35.17a8.63,8.63,0,0,0,4.29-1.26A14.41,14.41,0,0,0,47,47.8a17.13,17.13,0,0,0,1.26-4.71,5.83,5.83,0,0,0,3.19.93,6.81,6.81,0,0,0,1.26-.17,4.7,4.7,0,0,0,3.19-3.7,12.93,12.93,0,0,0-.33-6.63,12.43,12.43,0,0,0-3.28-5.8A5.68,5.68,0,0,0,49,26.12a6.07,6.07,0,0,0,.34-3.27A8,8,0,0,0,47,18.23a6.42,6.42,0,0,0-8.74,9.41A7.77,7.77,0,0,0,43.51,29.65ZM45.28,47a13.59,13.59,0,0,1-5,6,5.89,5.89,0,0,1-4.87.76,3.76,3.76,0,0,1-1.85-3.45,18.66,18.66,0,0,1,1.68-7.39,17.41,17.41,0,0,1,4.2-6.3,4.42,4.42,0,0,1,2.69-1.18,2.91,2.91,0,0,1,1.17.26,5.58,5.58,0,0,1,2.86,3.86A11.45,11.45,0,0,1,45.28,47ZM48.8,28a3.21,3.21,0,0,1,2.27,1.09,9.29,9.29,0,0,1,2.77,4.88,11,11,0,0,1,.34,5.62,3,3,0,0,1-1.93,2.36c-1,.33-2.52-.09-4-1.26-.08-.59-.17-1.18-.25-1.6a8.15,8.15,0,0,0-2.52-4.28,9.35,9.35,0,0,1,.33-4.12,3.9,3.9,0,0,1,2.36-2.6A1.31,1.31,0,0,1,48.8,28Zm-9.4-8.31a4.48,4.48,0,0,1,6.3-.26,5.88,5.88,0,0,1,1.68,3.45,4.34,4.34,0,0,1-.93,3.44c-1.59,1.93-5,1.43-6.8-.25A4.51,4.51,0,0,1,39.4,19.66Z" transform="translate(-13.08 -6.37)"/><path d="M41.83,39.14c-1.85-.84-3.61.68-5.21,4.37a13.36,13.36,0,0,0-1.09,3.87A2.59,2.59,0,0,0,37,50.15a2.34,2.34,0,0,0,1.1.25c1.76,0,3.61-1.6,4.7-4.28A7.84,7.84,0,0,0,43.6,42,3.24,3.24,0,0,0,41.83,39.14Zm-.75,6.14c-1.1,2.43-2.61,3.36-3.28,3-.08.08-.34-.08-.34-.92a9,9,0,0,1,.93-3.2c1.17-2.6,2.18-3.61,2.69-3.36a1.56,1.56,0,0,1,.67,1.26A7,7,0,0,1,41.08,45.28Z" transform="translate(-13.08 -6.37)"/><path d="M30.66,60.48A4.75,4.75,0,0,0,26,60.31,8.38,8.38,0,0,0,21.34,68a4.54,4.54,0,0,0,2.18,3.94l1,.51a4.82,4.82,0,0,0,3.53-.34,8.38,8.38,0,0,0,4.7-7.56A4.23,4.23,0,0,0,30.66,60.48ZM30.07,68a5.77,5.77,0,0,1-2.6,2.35,2.93,2.93,0,0,1-2.77,0,2.74,2.74,0,0,1-1.26-2.44,5.89,5.89,0,0,1,.92-3.44A6.65,6.65,0,0,1,27,62a3.41,3.41,0,0,1,2.19-.25,2.36,2.36,0,0,1,.67.34,3,3,0,0,1,1.34,2.43A9.11,9.11,0,0,1,30.07,68Z" transform="translate(-13.08 -6.37)"/><path d="M28.39,64.18c-.75-.51-1.93,0-2.6,1.09s-.67,2.69.08,3.11,2-.34,2.69-1.43S29.15,64.6,28.39,64.18Z" transform="translate(-13.08 -6.37)"/><path d="M54.77,21.34h.33a4.08,4.08,0,0,0,2.36-.84c1.42-1.18,2.6-3.28,0-6.47a5.55,5.55,0,0,0-3.78-2.27A3.52,3.52,0,0,0,51,12.85c-1.6,1.6-1.6,4.37.08,6.47A6.55,6.55,0,0,0,54.77,21.34ZM52.42,14.2a1.73,1.73,0,0,1,1.17-.59h.09a3.63,3.63,0,0,1,2.43,1.59c1.68,1.94,1.26,2.94.25,3.78A1.82,1.82,0,0,1,55,19.4a3.73,3.73,0,0,1-2.35-1.34C51.74,17,51.32,15.29,52.42,14.2Z" transform="translate(-13.08 -6.37)"/><path d="M55.61,17.72c.67-.67-.09-1.34-.51-1.84s-1.26-1.1-1.76-.68-.25,1.43.17,1.94S55,18.31,55.61,17.72Z" transform="translate(-13.08 -6.37)"/><path d="M28,53.34a1.28,1.28,0,0,0,.6,1.69,1.48,1.48,0,0,0,.89-2.71A1.3,1.3,0,0,0,28,53.34Z" transform="translate(-13.08 -6.37)"/><path d="M57.39,28.69a1.91,1.91,0,0,0-1.08,2.41,1.66,1.66,0,1,0,3.11-.72C59.16,29.25,58.25,28.49,57.39,28.69Z" transform="translate(-13.08 -6.37)"/><path d="M51.22,22.82A.93.93,0,1,0,53,22.55a.93.93,0,1,0-1.82.27Z" transform="translate(-13.08 -6.37)"/><path d="M39.44,13.11c.46.22,1.07-.11,1.37-.74a1.13,1.13,0,0,0-.29-1.53,1.12,1.12,0,0,0-1.37.74A1.13,1.13,0,0,0,39.44,13.11Z" transform="translate(-13.08 -6.37)"/><path d="M35.32,69.36a2.33,2.33,0,0,0-1.71,4.19,2.33,2.33,0,0,0,1.71-4.19Z" transform="translate(-13.08 -6.37)"/><path d="M50.35,51.34a2.34,2.34,0,0,0-.2,4.53,2.34,2.34,0,0,0,.2-4.53Z" transform="translate(-13.08 -6.37)"/></svg>