<svg id="d2507352-e100-41f6-986f-8918422c5a64" data-name="Layer 1" xmlns="http://www.w3.org/2000/svg" viewBox="0 0 60 62.5"><title>bloodpressure</title><path d="M42.41,0A17,17,0,0,0,29.94,5.6a16.89,16.89,0,0,0-5.65-4.11A17.13,17.13,0,0,0,17.46,0C7.86,0,0,8.33,0,18.49A33.59,33.59,0,0,0,3.87,33.2H1.25a1.31,1.31,0,0,0-.85.42,1.29,1.29,0,0,0,0,1.77,1.31,1.31,0,0,0,.85.42h4c8,14.32,22.33,25.78,23.2,26.43a1.82,1.82,0,0,0,.75.26,1.82,1.82,0,0,0,.75-.26C31.19,61.33,60,39.58,60,18.49,59.88,8.33,52,0,42.41,0ZM29.19,59.51c-3-2.35-14.1-12.11-21.08-23.7H18a1.2,1.2,0,0,0,.81-.27,1.19,1.19,0,0,0,.44-.73l2-8.73,3.61,16.28a1.35,1.35,0,0,0,1.13,1,1.55,1.55,0,0,0,1.24-.91l3.62-12.37,1.37,4.82a1.27,1.27,0,0,0,.47.67,1.29,1.29,0,0,0,.78.24h5.24A4.72,4.72,0,0,0,47.89,34a4.72,4.72,0,0,0-4.29-4.46,4.78,4.78,0,0,0-3.19.87,4.73,4.73,0,0,0-1.83,2.75H34.3L32.06,25a1.27,1.27,0,0,0-.47-.67,1.29,1.29,0,0,0-.78-.24,1.47,1.47,0,0,0-.75.28,1.54,1.54,0,0,0-.5.63L26.2,37,22.45,20.05a1.22,1.22,0,0,0-.43-.73,1.26,1.26,0,0,0-.81-.27,1.2,1.2,0,0,0-.81.27,1.19,1.19,0,0,0-.44.73L17,33.2H6.74A31,31,0,0,1,2.49,18.49c0-8.72,6.74-15.89,15-15.89A14.37,14.37,0,0,1,28.94,8.33a1.26,1.26,0,0,0,2,0A14.52,14.52,0,0,1,42.41,2.6c8.23,0,15,7.17,15,15.89C57.38,36.46,33.68,56,29.19,59.51Zm11.72-25a2.24,2.24,0,0,1,1.45-2,2.22,2.22,0,0,1,2.42.54,2.23,2.23,0,0,1,.59,1.15,2.28,2.28,0,0,1-.14,1.29,2.25,2.25,0,0,1-.83,1,2.28,2.28,0,0,1-1.24.37,2.48,2.48,0,0,1-2.25-2.34Z"/></svg>