<svg id="cab45a06-dca2-46f1-b233-d81eca6b13d2" data-name="Layer 1" xmlns="http://www.w3.org/2000/svg" viewBox="0 0 55.28 56.11"><title>cancer</title><path d="M22.66,19a.91.91,0,1,0,0,1.81.91.91,0,0,0,0-1.81Z" transform="translate(-0.91 -0.91)"/><path d="M20.84,23.56a.91.91,0,1,0,.91.91A.9.9,0,0,0,20.84,23.56Z" transform="translate(-0.91 -0.91)"/><path d="M25.38,21.75a.91.91,0,1,0,0,1.81.91.91,0,0,0,0-1.81Z" transform="translate(-0.91 -0.91)"/><path d="M21.75,31.72a4.26,4.26,0,0,0-.86.09,4.47,4.47,0,0,0-3.67-1.9,4.53,4.53,0,0,0,0,9.06,4.09,4.09,0,0,0,.85-.09,4.53,4.53,0,1,0,3.68-7.16Zm0,7.25a2.69,2.69,0,0,1-2.44-1.55.9.9,0,0,0-.81-.51,1,1,0,0,0-.33.06,2.69,2.69,0,0,1-3.67-2.53,2.71,2.71,0,0,1,5.16-1.18.9.9,0,0,0,1.13.46,2.71,2.71,0,1,1,1,5.25Z" transform="translate(-0.91 -0.91)"/><path d="M55.44,50.76a31.17,31.17,0,0,1-11.65-5.07,31,31,0,0,0,6-12.88l.08-.36L45.18,24.9l-.13-.16a6.12,6.12,0,0,0-.7-.55c0-.51.06-1,.06-1.53a21.77,21.77,0,1,0-12.55,19.7,31.82,31.82,0,0,0,2.2,3.2,21.91,21.91,0,0,1-7.34,3.9S23,50.63,22.26,50.83s-.65.84-.39,1.28,2.29,3.79,2.6,4.33a1.3,1.3,0,0,0,1.42.54L28.82,56A30.84,30.84,0,0,0,39,50.55,31,31,0,0,0,49.12,56s1.91.65,2.55.82a1.46,1.46,0,0,0,2-.72c.41-.68,2.26-3.73,2.48-4.14A1,1,0,0,0,55.44,50.76ZM45.19,28.34,48,32.79a29.37,29.37,0,0,1-5.62,11.8,24.32,24.32,0,0,1-2.17-2C43,39,44.73,34,45.19,28.34Zm-2.37,2.47.22.12v0A23.11,23.11,0,0,1,39,41.16a17.89,17.89,0,0,1-1.59-2.51A22,22,0,0,0,42.82,30.81Zm-6.25,6.13a27.42,27.42,0,0,1-1.69-6l0,0a7.9,7.9,0,0,1,4.07-1,8.49,8.49,0,0,1,2.15.26A20.1,20.1,0,0,1,36.57,36.94ZM43.31,29a10.49,10.49,0,0,0-8.68,0c-.11-1.06-.18-2.13-.19-3.23A7.46,7.46,0,0,1,39,24.47a7.47,7.47,0,0,1,4.52,1.32C43.48,26.89,43.42,28,43.31,29ZM22.66,42.59A19.91,19.91,0,0,1,7.52,9.71a7.33,7.33,0,0,1,2,3.12,9.16,9.16,0,0,0,2.38,3.78A10,10,0,0,0,13.52,18v0a.85.85,0,0,0,.54.2.9.9,0,0,0,.9-.91.89.89,0,0,0-.47-.78h0a8.33,8.33,0,0,1-1.37-1.13,7.31,7.31,0,0,1-2-3.13A9.27,9.27,0,0,0,8.8,8.42l-.05,0A19.92,19.92,0,0,1,42.59,22.66c0,.2,0,.41,0,.62A10.16,10.16,0,0,0,39,22.66a8.87,8.87,0,0,0-6.08,2.07L29.8,29.65a9.76,9.76,0,0,0-2.3-1.12L27,28.35a3.66,3.66,0,0,0,.74-.57,3.58,3.58,0,0,0,1.06-2.56,3.6,3.6,0,0,0,0-5.12,3.6,3.6,0,0,0-3.6-3.62h0a3.59,3.59,0,0,0-4.67-.38,9.9,9.9,0,0,0-2.11-1,7.29,7.29,0,0,1-3.12-2,7.23,7.23,0,0,1-2-3.12,12,12,0,0,0-.51-1.23A.89.89,0,0,0,12,8.16a.9.9,0,0,0-.91.9.77.77,0,0,0,.11.4h0a10.74,10.74,0,0,1,.49,1.17A9.18,9.18,0,0,0,14,14.41a9.14,9.14,0,0,0,3.77,2.38l.48.18a3.39,3.39,0,0,0-.76.56,3.55,3.55,0,0,0-1.05,2.57,3.6,3.6,0,0,0,0,5.12,3.6,3.6,0,0,0,3.62,3.62,3.58,3.58,0,0,0,2.56,1.07,3.49,3.49,0,0,0,2.1-.7,9.9,9.9,0,0,0,2.11,1,7.92,7.92,0,0,1,2,1L28,32.45l.07.36a30.75,30.75,0,0,0,2.87,8A19.67,19.67,0,0,1,22.66,42.59ZM27,25a1.78,1.78,0,0,1-2,2l-.54-.07-.32.43a1.85,1.85,0,0,1-2.89,0l-.32-.43-.54.07a1.78,1.78,0,0,1-2-2l.08-.53L18,24.1a1.8,1.8,0,0,1-.73-1.44A1.82,1.82,0,0,1,18,21.21l.44-.32-.08-.54a1.78,1.78,0,0,1,2-2l.54.08.32-.44a1.85,1.85,0,0,1,2.89,0l.32.44.54-.08a1.78,1.78,0,0,1,2,2l-.07.54.43.32a1.79,1.79,0,0,1,.73,1.45,1.77,1.77,0,0,1-.73,1.44l-.43.33Zm1.27,29.36-2.49.79L24,52.18l3.22-1a23.74,23.74,0,0,0,8-4.24,31.42,31.42,0,0,0,2.36,2.4A29.24,29.24,0,0,1,28.27,54.32Zm23.88.79-2.48-.79A29.37,29.37,0,0,1,30,32.79l2.78-4.44c.49,6,2.45,11.32,5.55,14.84,5.26,6,12.63,8.34,15.57,9.08Z" transform="translate(-0.91 -0.91)"/><path d="M23.56,8.16a.91.91,0,1,0-.9-.91A.91.91,0,0,0,23.56,8.16Z" transform="translate(-0.91 -0.91)"/><path d="M37.1,19.94a.91.91,0,1,0-.91-.91A.9.9,0,0,0,37.1,19.94Z" transform="translate(-0.91 -0.91)"/><path d="M5.44,23.56a.91.91,0,1,0,.9.91A.91.91,0,0,0,5.44,23.56Z" transform="translate(-0.91 -0.91)"/><path d="M21.75,35.34a.91.91,0,1,0,.91.91A.91.91,0,0,0,21.75,35.34Z" transform="translate(-0.91 -0.91)"/><path d="M11.82,26.73h0a3.63,3.63,0,0,0-3.62,3.63h0a.91.91,0,1,0,1.81,0h0a1.81,1.81,0,0,1,1.81-1.8h0a.91.91,0,0,0,0-1.82Z" transform="translate(-0.91 -0.91)"/><path d="M5.05,18.81a3.61,3.61,0,0,0,4.72,2,.9.9,0,1,0-.68-1.67,1.83,1.83,0,0,1-2.37-1h0a.9.9,0,1,0-1.67.69Z" transform="translate(-0.91 -0.91)"/><path d="M16.31,9.06h0a3.63,3.63,0,0,0,3.63-3.62.91.91,0,1,0-1.82,0,1.81,1.81,0,0,1-1.81,1.81h0a.91.91,0,0,0,0,1.81Z" transform="translate(-0.91 -0.91)"/><path d="M29.14,12.87l0,.05a1.8,1.8,0,0,1,2.56,0h0a.9.9,0,0,0,1.23,0,.91.91,0,0,0,0-1.24h0l0,0h0s0,0,0,0a3.62,3.62,0,0,0-4.73-.18,1,1,0,0,0-.36.21.91.91,0,1,0,1.29,1.28Z" transform="translate(-0.91 -0.91)"/></svg>