<svg id="5a1f4d92-b603-41df-9015-5a085d74324d" data-name="Layer 1" xmlns="http://www.w3.org/2000/svg" viewBox="0 0 52.68 49.94"><title>descreased-cognition</title><path d="M26.82,7.94c-9.38,0-17,5.91-17,13.18V22.7a5.83,5.83,0,0,0,5.78,5.87h2.22a5.72,5.72,0,0,0,4.06,1.71h2a5.76,5.76,0,0,0,4.69,2.59c.94,0,3.23.07,4.94,0h2.19a5.78,5.78,0,0,0,1.3-.16.31.31,0,0,0,.13,0l.06,0a4.59,4.59,0,0,0,.84-.3c3.72-1.53,5.77-5.53,5.77-11.24C43.82,13.85,36.19,7.94,26.82,7.94ZM40,26.83a1.89,1.89,0,0,1-1.5-.54,3.3,3.3,0,0,0-3.06-1,3.93,3.93,0,0,0-2.34,2.41.89.89,0,0,0,.53,1.15.65.65,0,0,0,.3.06.9.9,0,0,0,.84-.59c.1-.29.54-1.13,1.12-1.28s1,.27,1.43.62a3.66,3.66,0,0,0,2.72,1,6.31,6.31,0,0,1-2.64,2.06,3.47,3.47,0,0,1-.62.22h0a4.1,4.1,0,0,1-1,.13h-7A4,4,0,0,1,26,30a.76.76,0,0,0,.08-.11,2.36,2.36,0,0,1,2.85-1.32,2.46,2.46,0,0,0,2.57-.49,4,4,0,0,0-1.93-6.67.9.9,0,0,0-1.09.64.91.91,0,0,0,.64,1.11,2.18,2.18,0,0,1,1.19,3.57.68.68,0,0,1-.77.14,4,4,0,0,0-4.76,1.71.78.78,0,0,0-.37-.09H21.87a3.94,3.94,0,0,1-3-1.4.93.93,0,0,0-.68-.31h-2.6a4,4,0,0,1-4-4.06V21.12c0-5.35,5-9.83,11.65-11a6.84,6.84,0,0,0-2,2.74A.91.91,0,0,0,21.83,14a.93.93,0,0,0,.29,0,.91.91,0,0,0,.84-.61,5.19,5.19,0,0,1,2.65-2.73c1.87-.84,4.33-.65,7.29.57-.91,1.35-3.09,1-3.19,1a.89.89,0,0,0-1,.74.88.88,0,0,0,.72,1,5.3,5.3,0,0,0,1,.09,4.33,4.33,0,0,0,4.35-2.64C39.13,13.46,42,17,42,21.12a15.22,15.22,0,0,1-.8,5.19A2.83,2.83,0,0,1,40,26.83Z" transform="translate(-0.2 0)" fill="#2b2a2a"/><path d="M37.85,23a3,3,0,0,1-2.65-.83,4.28,4.28,0,0,1-.48-3.07A1,1,0,0,0,34.05,18a.92.92,0,0,0-1.1.71c0,.12-.62,2.88.86,4.73a4.41,4.41,0,0,0,3.66,1.54l.49,0a.93.93,0,0,0,.85-1A.92.92,0,0,0,37.85,23Z" transform="translate(-0.2 0)" fill="#2b2a2a"/><path d="M30.16,16.12a5.28,5.28,0,0,1-3.9,1.14,4.32,4.32,0,0,1-2.89-1.53.89.89,0,0,0-1.2-.19.81.81,0,0,0-.2,1.15A6.07,6.07,0,0,0,26,18.89a7.89,7.89,0,0,0,.84.05,7,7,0,0,0,4.38-1.56.81.81,0,0,0,.11-1.16A.9.9,0,0,0,30.16,16.12Z" transform="translate(-0.2 0)" fill="#2b2a2a"/><path d="M23.59,20.41a5.48,5.48,0,0,0-4.24-.06.83.83,0,0,0-.47,1.11.92.92,0,0,0,1.17.46,3.6,3.6,0,0,1,2.68,0A3,3,0,0,1,24,24.22a.88.88,0,0,0,.88.72h.14a.85.85,0,0,0,.74-1A4.56,4.56,0,0,0,23.59,20.41Z" transform="translate(-0.2 0)" fill="#2b2a2a"/><path d="M14.48,19.92l.17,0a.83.83,0,0,0,.81-.68A3.37,3.37,0,0,1,16.76,17a2.89,2.89,0,0,1,2-.32.83.83,0,0,0,1-.6.85.85,0,0,0-.6-1,4.53,4.53,0,0,0-3.3.51,4.94,4.94,0,0,0-2.06,3.36A.85.85,0,0,0,14.48,19.92Z" transform="translate(-0.2 0)" fill="#2b2a2a"/><path d="M38,15.78a5.66,5.66,0,0,0-4.47-.64.93.93,0,0,0-.65,1.15,1,1,0,0,0,1.17.65,3.75,3.75,0,0,1,2.83.35A3.27,3.27,0,0,1,37.92,20a1,1,0,0,0,.95.92h0a1,1,0,0,0,.92-1A5,5,0,0,0,38,15.78Z" transform="translate(-0.2 0)" fill="#2b2a2a"/><path d="M17.84,23.13c-2.6.42-3.32-1.39-3.4-1.61A.83.83,0,0,0,13.38,21a.89.89,0,0,0-.52,1.11,4.37,4.37,0,0,0,4.23,2.85,6.22,6.22,0,0,0,1-.09.87.87,0,0,0,.69-1A.84.84,0,0,0,17.84,23.13Z" transform="translate(-0.2 0)" fill="#2b2a2a"/><path d="M32.73,42.49l-1.11-3h-.69a20.29,20.29,0,0,1-2.36-.21,1,1,0,0,0-1.13.85,1,1,0,0,0,.85,1.13c.81.11,1.47.17,1.93.2l.64,1.72a1,1,0,0,0,.93.65,1,1,0,0,0,.35-.06A1,1,0,0,0,32.73,42.49Z" transform="translate(-0.2 0)" fill="#2b2a2a"/><path d="M23.55,2.18h.12a24.69,24.69,0,0,1,4.71-.1,1,1,0,0,0,1.08-.92A1,1,0,0,0,28.54.07a27,27,0,0,0-5.09.12,1,1,0,0,0,.1,2Z" transform="translate(-0.2 0)" fill="#2b2a2a"/><path d="M13.26,5.27a1,1,0,0,0,.46-.11A28.77,28.77,0,0,1,18.1,3.35a1,1,0,1,0-.61-1.9A29.83,29.83,0,0,0,12.8,3.39a1,1,0,0,0,.46,1.88Z" transform="translate(-0.2 0)" fill="#2b2a2a"/><path d="M47.79,35.58a9.53,9.53,0,0,1-3.45,2.76,1,1,0,0,0,.44,1.89,1,1,0,0,0,.44-.1,11.4,11.4,0,0,0,4.15-3.32,1,1,0,0,0-1.58-1.23Z" transform="translate(-0.2 0)" fill="#2b2a2a"/><path d="M46.56,11.17a1,1,0,0,0,.77.35,1,1,0,0,0,.64-.23,1,1,0,0,0,.12-1.41,25.26,25.26,0,0,0-3.68-3.54A1,1,0,0,0,43,6.51a1,1,0,0,0,.17,1.4A23.88,23.88,0,0,1,46.56,11.17Z" transform="translate(-0.2 0)" fill="#2b2a2a"/><path d="M50.81,20.34a1,1,0,0,0,1,.86H52a1,1,0,0,0,.84-1.14,19.66,19.66,0,0,0-1.42-5,1,1,0,0,0-1.84.81A17,17,0,0,1,50.81,20.34Z" transform="translate(-0.2 0)" fill="#2b2a2a"/><path d="M2.21,26.83A1,1,0,0,0,1.06,26a1,1,0,0,0-.82,1.16,12,12,0,0,0,1.94,4.94,1,1,0,0,0,.82.42,1,1,0,0,0,.58-.18A1,1,0,0,0,3.82,31,9.81,9.81,0,0,1,2.21,26.83Z" transform="translate(-0.2 0)" fill="#2b2a2a"/><path d="M34,3.14a29.33,29.33,0,0,1,4.41,1.75,1,1,0,0,0,.44.1,1,1,0,0,0,.45-1.89,31.31,31.31,0,0,0-4.72-1.87A1,1,0,1,0,34,3.14Z" transform="translate(-0.2 0)" fill="#2b2a2a"/><path d="M1.07,22.12H1.2a1,1,0,0,0,1-.87,21.59,21.59,0,0,1,1.08-4.55A1,1,0,0,0,1.39,16,23.11,23.11,0,0,0,.21,21,1,1,0,0,0,1.07,22.12Z" transform="translate(-0.2 0)" fill="#2b2a2a"/><path d="M52,25.08a1,1,0,0,0-1.08.91,25.77,25.77,0,0,1-.76,4.66,1,1,0,0,0,.7,1.22.82.82,0,0,0,.26,0,1,1,0,0,0,1-.74,28.73,28.73,0,0,0,.83-5A1,1,0,0,0,52,25.08Z" transform="translate(-0.2 0)" fill="#2b2a2a"/><path d="M9,8.32a1,1,0,1,0-1.31-1.5,22.83,22.83,0,0,0-3.47,3.77,1,1,0,0,0,.81,1.59,1,1,0,0,0,.81-.41A21.38,21.38,0,0,1,9,8.32Z" transform="translate(-0.2 0)" fill="#2b2a2a"/><path d="M23.07,37.91c-.62-.23-1.22-.48-1.78-.75-.94-.45-1.85-.85-2.71-1.18a1,1,0,1,0-.73,1.86c.81.32,1.68.7,2.58,1.12.62.3,1.27.58,1.94.83a1.12,1.12,0,0,0,.35.06,1,1,0,0,0,.35-1.94Z" transform="translate(-0.2 0)" fill="#2b2a2a"/><path d="M12.5,34.7h-.23A13,13,0,0,1,8,34a1,1,0,0,0-1.28.62,1,1,0,0,0,.61,1.27,15.22,15.22,0,0,0,4.93.8h.25a1,1,0,1,0,0-2Z" transform="translate(-0.2 0)" fill="#2b2a2a"/><path d="M38.9,39.41c-1.36.08-2.44.09-2.45.09H35.18l.92,3.66a1,1,0,0,0,1,.75l.25,0A1,1,0,0,0,38,42.68l-.31-1.21L39,41.4a1,1,0,0,0,.94-1A1,1,0,0,0,38.9,39.41Z" transform="translate(-0.2 0)" fill="#2b2a2a"/><path d="M36.64,47.42a1.4,1.4,0,0,1-.57.41c-.6.25-1,.07-1.49-.61a1,1,0,0,0-1.38-.29,1,1,0,0,0-.29,1.39,3.12,3.12,0,0,0,2.66,1.62,3.5,3.5,0,0,0,2.66-1.32,1,1,0,1,0-1.59-1.2Z" transform="translate(-0.2 0)" fill="#2b2a2a"/></svg>