<svg id="1ff59e9c-8b30-4638-8f4e-70fa5d61c3f3" data-name="Layer 1" xmlns="http://www.w3.org/2000/svg" viewBox="0 0 57 49"><title>dementia</title><path d="M50.2,7.84A33.5,33.5,0,0,0,30,1.5C14.29,1.5,1.5,11.13,1.5,23v2.64a9.33,9.33,0,0,0,9.36,9.28h4L15,35a9.46,9.46,0,0,0,6.58,2.69h3.7l.15.22a9.42,9.42,0,0,0,7.6,4.1h.33l2.39,6.17A3.39,3.39,0,0,0,40,50.32,3.42,3.42,0,0,0,42,48.62a3.32,3.32,0,0,0,.16-2.55l-1.39-4h4.44a9.64,9.64,0,0,0,2.11-.25l.17,0,.09,0a9.81,9.81,0,0,0,1.4-.48c6.17-2.5,9.55-9,9.55-18.3C58.5,17.27,55.56,11.9,50.2,7.84ZM55,32l-.13.09a5.57,5.57,0,0,1-2.42,1,3.77,3.77,0,0,1-2.93-1c-1.65-1.44-3.25-2-4.77-1.59-2.37.6-3.46,3.2-3.66,3.71a1,1,0,0,0,0,.76A1,1,0,0,0,43,34.76c.22-.57,1-2.14,2.26-2.44.81-.21,1.79.18,2.89,1.14A5.79,5.79,0,0,0,52.45,35l1.11-.07-.68.88a11.41,11.41,0,0,1-4.72,3.59,7,7,0,0,1-1.12.38,7.28,7.28,0,0,1-1.85.25H39.32a1,1,0,0,0-.83.43,1,1,0,0,0-.14.91l1.85,5.35a1.29,1.29,0,0,1-.07,1,1.27,1.27,0,0,1-.76.67,1.33,1.33,0,0,1-.43.07,1.38,1.38,0,0,1-1.29-.95L35,40.68a1,1,0,0,0-1-.65h-.86a7.27,7.27,0,0,1-4.94-1.93l-.33-.3.26-.36.09-.12c.2-.38,2-3.66,5.48-2.44a3.76,3.76,0,0,0,3.88-.72,6,6,0,0,0,1.57-5.75,6.15,6.15,0,0,0-4.65-4.5,1,1,0,0,0-1.25.72,1,1,0,0,0,.1.75,1,1,0,0,0,.63.48,4,4,0,0,1,3.18,3,4,4,0,0,1-1,3.78,1.66,1.66,0,0,1-1.81.33,6.4,6.4,0,0,0-7.54,2.66l-.24.35-.38-.18a1,1,0,0,0-.42-.11h-4.3a7.3,7.3,0,0,1-5.5-2.49,1,1,0,0,0-.77-.35H10.86a7.29,7.29,0,0,1-7.32-7.26V23c0-9,8.34-16.78,20.27-18.89A32.24,32.24,0,0,1,34,4.07a17,17,0,0,1,5.35,1.48l1.83.74-.36.51c-1.69,2.46-5.5,1.91-5.93,1.84a1,1,0,0,0-1.19.81,1,1,0,0,0,.16.75,1.07,1.07,0,0,0,.66.42,10.08,10.08,0,0,0,1.7.14c1.63,0,5.57-.4,7-4.08l.19-.5.48.22C51.74,10,56.47,16.17,56.47,23a25.45,25.45,0,0,1-1.4,8.83Z" transform="translate(-1.5 -1.5)" fill="#2c2b2a"/><path d="M22.92,9.56a1.24,1.24,0,0,0,1.32-1.17c0-.35,0-.67,0-1a1.25,1.25,0,0,0-2.5,0c0,.23,0,.5,0,.8A1.24,1.24,0,0,0,22.92,9.56Z" transform="translate(-1.5 -1.5)" fill="#2c2b2a"/><path d="M14.41,21.11a15.49,15.49,0,0,1-1.82.4,1.25,1.25,0,0,0-1,1.43A1.23,1.23,0,0,0,13,24a16.88,16.88,0,0,0,2.11-.46,1.25,1.25,0,1,0-.68-2.4Z" transform="translate(-1.5 -1.5)" fill="#2c2b2a"/><path d="M7.88,21.7,7,21.61a1.25,1.25,0,1,0-.32,2.47c.32.05.68.08,1.07.11a1.25,1.25,0,0,0,.18-2.49Z" transform="translate(-1.5 -1.5)" fill="#2c2b2a"/><path d="M20.79,17.28a1.25,1.25,0,0,0-1.71.44c-.14.24-.28.46-.43.68a3.79,3.79,0,0,1-.49.63A1.25,1.25,0,1,0,20,20.74a6.81,6.81,0,0,0,.75-.95q.27-.39.51-.81A1.25,1.25,0,0,0,20.79,17.28Z" transform="translate(-1.5 -1.5)" fill="#2c2b2a"/><path d="M21.52,15.53a1.24,1.24,0,0,0,1.56-.82c.19-.6.35-1.2.48-1.78a1.25,1.25,0,1,0-2.43-.57c-.12.53-.27,1.07-.44,1.61A1.25,1.25,0,0,0,21.52,15.53Z" transform="translate(-1.5 -1.5)" fill="#2c2b2a"/><path d="M49.43,26.47c-2.27.13-3.88-.37-4.83-1.48-1.65-1.94-.91-5.23-.9-5.26a1,1,0,0,0-.12-.75,1,1,0,0,0-.64-.45.91.91,0,0,0-.23,0,1,1,0,0,0-1,.77c0,.18-1,4.27,1.32,7,1.38,1.64,3.61,2.38,6.5,2.21a1,1,0,0,0,1-1A1,1,0,0,0,49.43,26.47Z" transform="translate(-1.5 -1.5)" fill="#2c2b2a"/><path d="M38.86,14.69a1.2,1.2,0,0,0-.75.5c-1.63,1.92-3.26,2.6-5.28,2.25A5.38,5.38,0,0,1,29,14.29c-.11-.22-.34-.65-.63-.76a.76.76,0,0,0-.85.24,1.66,1.66,0,0,0,.16,1.57,7.38,7.38,0,0,0,5.07,4.07,6.12,6.12,0,0,0,1,.09,7.25,7.25,0,0,0,5.46-2.9,1.49,1.49,0,0,0,.36-1.38A.63.63,0,0,0,38.86,14.69Z" transform="translate(-1.5 -1.5)" fill="#2c2b2a"/><path d="M49.55,13.81h0c-2.92-2.07-6.81-1.11-7.24-1a1.11,1.11,0,0,0-.68.53,1,1,0,0,0-.09.78,1.14,1.14,0,0,0,1.39.73,9,9,0,0,1,2-.24,5.59,5.59,0,0,1,3.24.9c1.3.92,2,2.59,2,5a1.09,1.09,0,0,0,1.12,1,1.15,1.15,0,0,0,.83-.35,1,1,0,0,0,.29-.73C52.42,17.36,51.43,15.14,49.55,13.81Z" transform="translate(-1.5 -1.5)" fill="#2c2b2a"/><path d="M27.11,23.84a.89.89,0,0,0-.32-.05,1.16,1.16,0,0,0-.48.11,12.05,12.05,0,0,0-1.54.92c-3.67,2.6-3.86,6.14-3.39,7.83a.83.83,0,0,0,.43.54,1,1,0,0,0,.79.07A1.06,1.06,0,0,0,23.33,32c-.1-.41-.85-4,3.8-6.36a1,1,0,0,0,.51-1.34A.88.88,0,0,0,27.11,23.84Z" transform="translate(-1.5 -1.5)" fill="#2c2b2a"/></svg>