<svg id="1821c7c2-eee6-41ea-b97c-e03f2cf5e9e8" data-name="Layer 1" xmlns="http://www.w3.org/2000/svg" viewBox="0 0 49 74"><title>depression</title><path d="M38,14.79h-.3a7.69,7.69,0,0,1-10.11.61,5.11,5.11,0,0,1-7.9-.55A4.15,4.15,0,0,1,18.5,15,4.5,4.5,0,0,1,17,6.25,4.49,4.49,0,0,1,21.46,2a7.22,7.22,0,0,1,10.11.13,6.28,6.28,0,0,1,3.08-.8,6.11,6.11,0,0,1,6,4.46A4.83,4.83,0,0,1,43,9.93,4.94,4.94,0,0,1,38,14.79ZM1.58,58.68c2.09-1.29,5.14-3.47,5.14-3.47,6-4,6.15-7.25,6.39-11.48a25.72,25.72,0,0,1,3.46-12.64c5.76-10.2,14.24-11.22,23.25-6,9.77,5.64,11.07,15.2,7,22.32l-2.45,4.34c-.65,1.15-.54,3.09-.44,4.93.09,1.66.18,3.25-.3,4.09s-1.41.52-2.43.2a3.45,3.45,0,0,0-2.46-.18c-.82.95-1.51,1.8-2.13,2.57a33.73,33.73,0,0,1-2.73,3.11c-1.74,1.68-3.46,1.71-5.74.39s-3.34-1.6-4.32-.72c-2.66,2.4-2.91,4.09-3.1,5.32a2.27,2.27,0,0,1-1.46,2.21c-2.74,1.22-11.08-.83-15.23-5C-1.27,63.22-.51,60,1.58,58.68Z" transform="translate(0)"/></svg>