<svg id="d722f5a2-1e07-4b90-8028-c27a7605a870" data-name="Layer 1" xmlns="http://www.w3.org/2000/svg" viewBox="0 0 80.19 41.77"><title>diabetes</title><path d="M85.62,56.51a1.34,1.34,0,0,0-.34,0v0H72l-.34.52a8,8,0,0,1-6.75,3.67H48.05a4.91,4.91,0,0,0-2.31-7.22,4.92,4.92,0,0,0-2.43-7.71,4.86,4.86,0,0,0,.93-2.88,4.93,4.93,0,0,0-4.92-4.92H15.21l-2.7-4.7L10,37.63A2.61,2.61,0,0,1,8.5,35.27a2.65,2.65,0,0,1,2.65-2.65h37.9c.36,3,2.72,10.72,17.29,15.1v0a1.14,1.14,0,0,0,1.33-.77A1.12,1.12,0,0,0,67,45.55h0l0,0h0c-16-4.85-15.64-13.58-15.62-13.94l.1-1.23H37.56c-8.12-1.16-10-5-10.45-6.91h37.8A8,8,0,0,1,72.3,28.3l.3.68H85.28a1.12,1.12,0,0,0,1.09-.79,1.14,1.14,0,0,0-.75-1.42,1.34,1.34,0,0,0-.34,0v0H74.07a10.32,10.32,0,0,0-9.16-5.55H25.42c-.88,0-.71,1.07-.71,1.07s-.19,5,5.37,8.11H11.15a4.92,4.92,0,0,0-2.31,9.27l-.44.77a5.46,5.46,0,0,0-1,3,5.11,5.11,0,1,0,10.21,0,5.61,5.61,0,0,0-1-3l-.11-.19h5.8a4.86,4.86,0,0,0-.79,2.66A4.93,4.93,0,0,0,25,47.55a4.85,4.85,0,0,0-.93,2.87A4.94,4.94,0,0,0,27.15,55a4.93,4.93,0,0,0,3.9,7.94H64.91a10.3,10.3,0,0,0,8.3-4.19H85.28v0a1.12,1.12,0,0,0,1.09-.79A1.14,1.14,0,0,0,85.62,56.51ZM12.51,46.22a2.83,2.83,0,0,1-2.83-2.83c0-.6.13-.88.7-1.88l2.13-3.72,2.16,3.75a3.52,3.52,0,0,1,.68,1.85A2.84,2.84,0,0,1,12.51,46.22Zm11.3-3.37a2.66,2.66,0,0,1,2.65-2.66H39.32a2.66,2.66,0,0,1,0,5.31H26.46A2.65,2.65,0,0,1,23.81,42.85Zm2.53,7.57A2.65,2.65,0,0,1,29,47.77H41.85a2.65,2.65,0,0,1,0,5.3H29A2.65,2.65,0,0,1,26.34,50.42ZM43.9,60.65H31a2.65,2.65,0,0,1,0-5.3H43.9a2.65,2.65,0,0,1,0,5.3Z" transform="translate(-6.23 -21.16)"/></svg>