<svg id="f83c4869-6338-4614-b0b8-4b73c8639ee3" data-name="Layer 1" xmlns="http://www.w3.org/2000/svg" viewBox="0 0 117.64 110.69"><title>family</title><path d="M48.61,54h.47a2,2,0,0,0,.66-.33,1.93,1.93,0,0,0,.67-1,1.9,1.9,0,0,0-1-2.14,13.51,13.51,0,0,0-6.1-1.5h-.47l-.3-.37A13.86,13.86,0,0,1,40,43.75l-.14-.35a1.72,1.72,0,0,0-.26-.42l-.46-.61.46-.61a13.49,13.49,0,0,0,1.29-2l.11-.23a17.29,17.29,0,0,1,1.72-2.93l1.61-2.22.24,2.68L45,42.7a1.9,1.9,0,0,0,1.9,1.77h0l.13,0a1.87,1.87,0,0,0,1.31-.64,1.94,1.94,0,0,0,.47-1.38L47.36,22.19v-.42c0-9.43-7.53-17.38-16.4-17.38S14.41,12.06,14,21.15l0,.25L10.22,33.51a14.27,14.27,0,0,0,3.89,14.84l1.3,1.21L13.7,50a12.24,12.24,0,0,0-3,1.29,13.92,13.92,0,0,0-4.47,5.06A14.06,14.06,0,0,0,4.66,63V108.9a1.9,1.9,0,0,0,2,1.9,2,2,0,0,0,.71-.12,1.91,1.91,0,0,0,.63-.41,1.81,1.81,0,0,0,.43-.63,1.85,1.85,0,0,0,.15-.74v-46a10.2,10.2,0,0,1,4.37-8.56L13,54.3a9.71,9.71,0,0,1,3.23-1c.52-.09,1.11-.23,1.84-.43l.55-.15,11,10.48a1.77,1.77,0,0,0,1.3.47,1.87,1.87,0,0,0,1.37-.49l5-5a1.87,1.87,0,0,0,.49-1.28,1.93,1.93,0,0,0-.54-1.31A1.9,1.9,0,0,0,36,55a1.87,1.87,0,0,0-1.33.47l-3.76,3.68L22,50.65l.62-.72A9.68,9.68,0,0,0,24.37,47c.11-.25.18-.46.25-.67L25,45.26l1,.42a12.08,12.08,0,0,0,4.67,1.16,9.69,9.69,0,0,0,4.69-1.35l1-.56.43,1c1.28,3.15,3.15,6.75,6.27,6.75h.1a9.46,9.46,0,0,1,4.57,1A2,2,0,0,0,48.61,54ZM20.86,45.63a6,6,0,0,1-.61,1.22l-.5.78-.82-.43a10.51,10.51,0,0,1-5.11-12.46l1.28-4.12,1.07,2.45a26.5,26.5,0,0,0,3.19,5.39c.32.42.6.84.88,1.27l.12.27s0,.09.05.13a6.77,6.77,0,0,0,.35.6l.22.41a5.73,5.73,0,0,1-.12,4.49ZM30.69,43H30.6a8.52,8.52,0,0,1-4-1.46,8.72,8.72,0,0,1-2.11-2.13L24.25,39a20.45,20.45,0,0,0-1.74-2.72,22.38,22.38,0,0,1-4.35-9.68l-.23-1.25,1.27.07,1.13,0A28.87,28.87,0,0,0,36,20.19,1.92,1.92,0,0,0,36.81,19a1.86,1.86,0,0,0-.28-1.43A1.89,1.89,0,0,0,33.9,17c-5.11,3.37-10.64,5-15.14,4.55l-1-.11.11-1a13.87,13.87,0,0,1,3.75-8.06,13.7,13.7,0,0,1,9.27-4.2h0c6.8,0,12.57,6.18,12.64,13.49v.17l0,.58a20.4,20.4,0,0,1-4,12.22,20.77,20.77,0,0,0-2,3.46C35.92,41,33.06,43,30.69,43Z" transform="translate(-4.66 -4.39)"/><path d="M120.83,56.71a13.84,13.84,0,0,0-4.21-5.09,10.9,10.9,0,0,0-4.26-1.6,17.42,17.42,0,0,1-2.34-.6l-.2-.1a6.33,6.33,0,0,1-2.66-3.44,6,6,0,0,1-.45-2.33,6.16,6.16,0,0,1,.48-2.4,18.68,18.68,0,0,1,1.39-2.3c.4-.55.77-1.12,1.15-1.76l1.61-2.65.36,4.46a1.35,1.35,0,0,0,.51.9,2.07,2.07,0,0,0,1.28.42h.14a2,2,0,0,0,1.27-.53,1.21,1.21,0,0,0,.39-1L114,22.13l0-.2a.3.3,0,0,0,0-.1c0-9.45-7.25-17.44-15.82-17.44-8.21,0-15.52,7.15-16.3,16l0,.26-.21.32L78,29a6.21,6.21,0,0,0,.61,6.37A12.84,12.84,0,0,0,85.84,40a3,3,0,0,0,.8.11,2.5,2.5,0,0,0,.81-.17l.81-.27.4.75a14.56,14.56,0,0,0,.8,1.35l.37.55-.37.56a2.08,2.08,0,0,0-.22.41l-.16.44a14.12,14.12,0,0,1-2.31,4.78l-.3.41H86a11.34,11.34,0,0,0-5.56,1.5,1.84,1.84,0,0,0-.78.91,2.2,2.2,0,0,0-.11,1.32,2,2,0,0,0,.62,1.08,1.62,1.62,0,0,0,.59.32h.36a1.43,1.43,0,0,0,.73-.2,8.18,8.18,0,0,1,4.32-1c2.8.1,4.54-3.52,5.71-6.67L92.29,45l1,.67a8.54,8.54,0,0,0,4.53,1.47,10.12,10.12,0,0,0,4.44-1.28l1.08-.6.36,1.19a8.1,8.1,0,0,0,.3.87,10.27,10.27,0,0,0,1.34,2.62l.48.66-8.18,8.9-3.56-3.94a1.46,1.46,0,0,0-1.07-.43,1.55,1.55,0,0,0-1.08.56,2.28,2.28,0,0,0,0,2.85l4.58,5.16a1.45,1.45,0,0,0,1.07.44,1.41,1.41,0,0,0,1.14-.47l10-10.85.61.2a19.48,19.48,0,0,0,2.27.61,8.64,8.64,0,0,1,3,1l.11.07a10.06,10.06,0,0,1,3,3.74,11,11,0,0,1,1,4.82v45.94a2.28,2.28,0,0,0,.14.77,1.94,1.94,0,0,0,.4.62,1.67,1.67,0,0,0,.56.39,1.42,1.42,0,0,0,.65.12,1.63,1.63,0,0,0,1.21-.53,2,2,0,0,0,.53-1.37V63.38A15,15,0,0,0,120.83,56.71ZM84.91,37.44A8.39,8.39,0,0,1,82,34.93a5.52,5.52,0,0,1-.55-5.57l1.21-2.65.72,2.67A25.58,25.58,0,0,0,86.24,36l2,3.19Zm20.87-.83c-.2.28-.39.6-.58.91a30,30,0,0,1-3.49,4.29,7.63,7.63,0,0,1-3.79,1.5h0c-2.32,0-5-2.07-6.46-4.91a22.71,22.71,0,0,0-1.9-3.56A21.48,21.48,0,0,1,86.2,26.6L86,25.36l1.26.06.91,0a28.92,28.92,0,0,0,15.64-5.25,2,2,0,0,0,.84-1.23,1.9,1.9,0,0,0-2.92-2c-5.2,3.43-10.78,5.09-15.35,4.52l-1-.12.11-1a14,14,0,0,1,3.62-8,13,13,0,0,1,9-4.22h0c6.44,0,11.9,5.81,12.23,13,0,0,0,1,0,1.11A24.15,24.15,0,0,1,105.78,36.61Z" transform="translate(-4.66 -4.39)"/><path d="M72.86,84.71l-.18,0-.14-.12a15.2,15.2,0,0,1-2.41-2.4l-.47-.58.43-.62a7.18,7.18,0,0,0,.56-.91l.12-.25a20.76,20.76,0,0,1,1-2,23.84,23.84,0,0,0,3.6-12.21,2,2,0,0,0-.06-.55l0-.18a12.28,12.28,0,0,0-24.5.71.78.78,0,0,1,0,.09l0,.23a20.94,20.94,0,0,0,3.78,12.33q.48.72.87,1.44a3.55,3.55,0,0,1,.33,1.48,3.43,3.43,0,0,1-.3,1.41,4.23,4.23,0,0,1-1.49,2l-.15.11-.18.05a12.6,12.6,0,0,0-9.17,12.09v16.44a1.89,1.89,0,0,0,1.91,1.9,2.06,2.06,0,0,0,.73-.14,1.93,1.93,0,0,0,.61-.41,1.85,1.85,0,0,0,.56-1.35V96.75a8.94,8.94,0,0,1,1.83-5.36,8.85,8.85,0,0,1,3.67-2.76l.74-.3.46.65a10.11,10.11,0,0,0,3.13,2.92,10.29,10.29,0,0,0,5,1.43A10.18,10.18,0,0,0,68,91.91,10.35,10.35,0,0,0,71.22,89l.45-.65.74.3a8.81,8.81,0,0,1,5.48,8.13v16.42a1.9,1.9,0,0,0,.56,1.35,2,2,0,0,0,2.68,0,1.9,1.9,0,0,0,.56-1.35V96.77a12.62,12.62,0,0,0-8.83-12.06ZM56.19,60.87a8.49,8.49,0,0,1,15.24,3.37l.23,1.22-1.24,0c-9.36-.26-12.43-1.85-14.06-3.21l-.71-.6Zm-1.47,6.8-.16-1.82,1.62.84c3,1.53,7.33,2.33,13.79,2.53l1.27,0-.33,1.23a19.87,19.87,0,0,1-2.42,5.45,24.54,24.54,0,0,0-1.2,2.34,4.16,4.16,0,0,1-1.83,1.79,4,4,0,0,1-1.82.43,3.52,3.52,0,0,1-.64,0,5.46,5.46,0,0,1-2.6-1,5.56,5.56,0,0,1-1.82-2.17,1.61,1.61,0,0,0-.28-.37l-.11-.15L58,76.47a1.35,1.35,0,0,0-.15-.26A17.63,17.63,0,0,1,54.72,67.67ZM68.17,86.8a6,6,0,0,1-1.91,1.89,5.95,5.95,0,0,1-6.26,0,5.94,5.94,0,0,1-1.87-1.83l-.37-.57.39-.55A7.67,7.67,0,0,0,59,84.2l.36-.91.92.34a9.18,9.18,0,0,0,2.88.61,7.74,7.74,0,0,0,2.8-.31l.69-.2.41.58a14.31,14.31,0,0,0,1,1.29l.49.56Z" transform="translate(-4.66 -4.39)"/></svg>