<svg id="2bef68e6-b57e-4eaa-b420-d10c00f85d4b" data-name="Layer 1" xmlns="http://www.w3.org/2000/svg" viewBox="0 0 226.74 170.05"><title>health-behavior</title><path d="M94.46,163.6a4,4,0,0,1-4.55-.62,1.72,1.72,0,0,0-2.52,0,1.85,1.85,0,0,0,.1,2.6,7.56,7.56,0,0,0,8.89,1.38,2,2,0,0,0,.65-2.74A1.91,1.91,0,0,0,94.46,163.6Z" transform="translate(-5.26 -3.95)"/><path d="M132.7,114c-.33-.56-1.11-.86-2.27-.19s-1.52,1.63-1.2,2.19l1.35,2.34L84,145.19A15.59,15.59,0,0,0,76.53,161l-.21.13a5.57,5.57,0,1,0,5.57,9.64l.42-.24a15.25,15.25,0,0,0,17.42,1.41l46.35-26.76,1.36,2.34c.4.7,1.57.59,2.49.05s1.38-1.35,1-2.05ZM97.79,168.56A11.77,11.77,0,0,1,83.63,167a1.81,1.81,0,0,0-2.08-.19l-1.48.85a1.94,1.94,0,1,1-1.94-3.36l1.48-.85a1.76,1.76,0,0,0,.75-2.11,12.06,12.06,0,0,1,5.69-13.07l46.35-26.76,11.75,20.34Z" transform="translate(-5.26 -3.95)"/><path d="M65.16,84H40.36a2,2,0,1,0,0,4h24.8a1.94,1.94,0,0,0,2.1-2A2.06,2.06,0,0,0,65.16,84Z" transform="translate(-5.26 -3.95)"/><path d="M54.26,77a1.9,1.9,0,0,0-2-2H22.29a2,2,0,1,0,0,4h30A1.9,1.9,0,0,0,54.26,77Z" transform="translate(-5.26 -3.95)"/><path d="M34.26,68a1.94,1.94,0,0,0-2.1-2H15.36a2,2,0,1,0,0,4h16.8A2.21,2.21,0,0,0,34.26,68Z" transform="translate(-5.26 -3.95)"/><path d="M8.66,66.55a1.93,1.93,0,0,0-2.8,0c-.2.2-.4.4-.4.6s-.2.4-.2.8a1.82,1.82,0,0,0,.6,1.4,1.82,1.82,0,0,0,1.4.6,1.82,1.82,0,0,0,1.4-.6,1.82,1.82,0,0,0,.6-1.4,1.2,1.2,0,0,0-.2-.8C9.06,67,8.86,66.75,8.66,66.55Z" transform="translate(-5.26 -3.95)"/><path d="M15.09,45.22,30.9,55.36l.2.21C46.5,65.72,67.64,79.39,78.93,86.63A20.65,20.65,0,0,0,90.42,90h12.52c7.8,0,18.27-2.28,22.58-8.49A9.67,9.67,0,0,0,128,72.55a5.88,5.88,0,0,0-3.69-3.93c-3.29-1.24-20.53-7.87-20.53-7.87A7.93,7.93,0,0,1,99.25,57L94.32,49h.41a2.08,2.08,0,0,0,0-4.15H91.86L89.6,41.28h.2a2.07,2.07,0,0,0,0-4.14H86.93l-1.85-2.9h.21a2.07,2.07,0,0,0,0-4.14H82.42L80,26a.2.2,0,0,0-.2-.21,9.68,9.68,0,0,0-9-3.73,7.94,7.94,0,0,0-6.37,4.56,2,2,0,0,0,.21,1.86L79.34,53.92a10.42,10.42,0,0,0,5.13,4.34l17.65,6.42c.21,0,17.24,6.63,20.53,7.87A1.83,1.83,0,0,1,123.88,74c.41,1,0,2.69-.62,4.14H91.86a8.94,8.94,0,0,1-5.54-1.86L33.77,36.93a4.87,4.87,0,0,0,1.64-4.34l-2-19.88A29.06,29.06,0,0,1,35.62,9a1.5,1.5,0,0,1,2.26-.42c.61.42,2.87,2.7,8.62,11.6a21.15,21.15,0,0,0,12.93,8.49h.41a2,2,0,0,0,2-1.66,2.27,2.27,0,0,0-1.64-2.48A15.55,15.55,0,0,1,50,17.88C43.21,7.11,41.16,5.67,40.34,5a5.74,5.74,0,0,0-7.8,1l-12.11,19a6,6,0,0,0-.82,4.35,6,6,0,0,0-3.7,2.69l-2.67,4.35a6.47,6.47,0,0,0-.82,4.76A6.8,6.8,0,0,0,15.09,45.22Zm71,8.9A7.18,7.18,0,0,1,83,51.64L68.87,27.2A5.35,5.35,0,0,1,71.54,26,5.75,5.75,0,0,1,76.67,28l1,1.66h-.41a2.07,2.07,0,0,0,0,4.14h3.08l1.85,2.9H81.8a2.07,2.07,0,0,0,0,4.14h3.08l2.26,3.52h-.41a2.07,2.07,0,0,0,0,4.14H89.6L94.73,57Zm-62-26.92,5.75-9.11,1.44,14.7a1.3,1.3,0,0,1-.62,1,.89.89,0,0,1-1,0L24.74,30.1A2.65,2.65,0,0,1,24.12,27.2ZM16.73,39l2.67-4.35a1.72,1.72,0,0,1,1.44-.83,1.58,1.58,0,0,1,1.64.41l1.44,1L83.24,79.59a13.75,13.75,0,0,0,8,2.7h27.51c-4.11,2.27-10.06,3.52-15.4,3.52H90.83a19.13,19.13,0,0,1-9.44-2.7C71.33,76.69,53.47,64.89,38.7,55.36L17.35,41.9a1.68,1.68,0,0,1-.82-1.24A2.34,2.34,0,0,1,16.73,39Z" transform="translate(-5.26 -3.95)"/><path d="M229.85,63.8a30.67,30.67,0,0,0-2.67-5.23,1.37,1.37,0,0,0-.13-.2A28.36,28.36,0,0,0,216,48.29a24.32,24.32,0,0,0-3.69-1.44A32.76,32.76,0,0,0,201,45.61a8.66,8.66,0,0,0-.26-1.67c-.91-3.49-.79-3.63,1.06-6,.79-1,1.77-2.28,3-4.15,3.94-6.16,1.07-9.12-1.23-11.5a17.33,17.33,0,0,1-2.33-2.79c-.9-1.47-.82-3.28-.72-5.2.13-2.78.3-6.24-3.18-8.21a6.3,6.3,0,0,0-3.17-.88A6.44,6.44,0,0,0,191,6c-3.09,1.66-5.52,5.78-6.2,10.49a8.33,8.33,0,0,1-2.56,4.82,9.54,9.54,0,0,0-4.42-2.12,18.66,18.66,0,0,1-6.5-2.94,13.77,13.77,0,0,1-3.42-4.13c-1.6-2.53-3.59-5.68-8-5.18a7.91,7.91,0,0,0-6.34,5.16A12.33,12.33,0,0,0,155.08,24c3.11,4.23,3.7,7.71,4.33,11.4a27.48,27.48,0,0,0,2.48,8.52c-.52.25-1,.53-1.46.8a7.73,7.73,0,0,1-4.35,1.44c-4.06,0-7.87,1.65-9.71,4.3a6.61,6.61,0,0,0-1.15,2.9,6.53,6.53,0,0,0,.28,3.1c1.17,3.61,4.26,4,6.51,4.22,1.56.17,3,.35,4.06,1.33A13.7,13.7,0,0,1,158,64.44c1,1.5,2.27,3.36,4.52,3.8a8,8,0,0,0,5.1-1,38.15,38.15,0,0,0,3.85-2.15c1.21-.74,1.73-1.06,2.34-1A28.58,28.58,0,0,0,184,100.36c11.68,7.38,24.39,6.56,30.92,5.42a7.64,7.64,0,0,1,7.36,2.71c4.77,6.06,4.54,15.41,4.54,15.5a2,2,0,0,0,1.57,2.08h.25a2,2,0,0,0,1.45-.49,2,2,0,0,0,.68-1.37c1.81-14.44-1.32-19.78-3.39-23.31-1.61-2.75-2.21-3.78.14-8.27a38.92,38.92,0,0,0,4.3-13.71,2.36,2.36,0,0,0,.07-.65A31.34,31.34,0,0,0,229.85,63.8ZM184.76,24.65a13,13,0,0,0,4-7.6c.47-3.3,2.12-6.31,4-7.32a2.56,2.56,0,0,1,2.65,0c1.21.68,1.27,1.68,1.14,4.39-.11,2.25-.25,5.07,1.35,7.65a20.23,20.23,0,0,0,2.86,3.47c2.19,2.27,2.85,3,.75,6.23a45,45,0,0,1-2.74,3.82c-2.48,3.18-3.17,4.64-1.83,9.77a4.82,4.82,0,0,1,.14,1c-.73.14-1.41.3-2.06.47a61.78,61.78,0,0,1-1.56-20.32,2.12,2.12,0,0,0-.06-.79,2,2,0,0,0-.36-.7,1.84,1.84,0,0,0-.6-.51,2,2,0,0,0-.76-.24,2.07,2.07,0,0,0-1.48.52,2.05,2.05,0,0,0-.69,1.4,65.19,65.19,0,0,0,1.72,22c-.45.19-.85.37-1.19.53a4.78,4.78,0,0,1-.59-1,23,23,0,0,0-1.92-3.76c-1-1.66-1.44-2.41-1.2-4.4.37-2.92-1-4.87-2-6.44a7.12,7.12,0,0,1-1.69-4.17C182.62,27.05,183.3,26.23,184.76,24.65Zm-26.52-3.29a8.14,8.14,0,0,1-1-7.64,4,4,0,0,1,3.11-2.63c1.82-.21,2.58.71,4.28,3.4a17.19,17.19,0,0,0,4.47,5.24,22.53,22.53,0,0,0,7.64,3.48c1.58.44,2.37.68,2.92,1.32a8,8,0,0,0-1,4.16A11,11,0,0,0,181,35.21c1,1.45,1.5,2.27,1.34,3.51a9.74,9.74,0,0,0,1.77,7.13A19.67,19.67,0,0,1,185.77,49a8.84,8.84,0,0,0,.68,1.38,27.24,27.24,0,0,0-2.88,2,7.08,7.08,0,0,0-1-.81l-.13-.09a5.6,5.6,0,0,1-1.93-2.35c-.76-1.39-1.79-3.31-4.87-3.4H174a11.22,11.22,0,0,1-6.74-1.59c-.24-.14-.47-.23-.7-.34-2.19-3.1-2.7-5.94-3.25-9.21C162.67,30.71,161.93,26.38,158.24,21.36Zm11.29,40.18a37,37,0,0,1-3.52,2c-2.81,1.37-3.18.82-4.74-1.48a17.55,17.55,0,0,0-2.49-3.14c-2-1.87-4.34-2.15-6.26-2.37-2.3-.26-2.93-.46-3.26-1.49a2.32,2.32,0,0,1-.13-1.14,2.29,2.29,0,0,1,.43-1.06c1.06-1.52,3.69-2.57,6.4-2.54a11.51,11.51,0,0,0,6.37-2c1.56-.93,2-1.12,3-.54a15,15,0,0,0,8.6,2.1h1.55c.88,0,1,.18,1.61,1.36a9.51,9.51,0,0,0,3.31,3.83,14,14,0,0,0-1,1.06A42,42,0,0,0,158,52,2.1,2.1,0,0,0,156,54.21a2.15,2.15,0,0,0,.16.8,2,2,0,0,0,1.17,1.09,2,2,0,0,0,.8.11,39.07,39.07,0,0,1,18.5,3.27l-.65.91C173.21,59.44,171.79,60.21,169.53,61.54Zm42.93,15.34a2,2,0,0,0,.41.67,1.88,1.88,0,0,0,.64.44A1.91,1.91,0,0,0,215,78c5.1-2.25,10.89-2.78,12.79.85A34.13,34.13,0,0,1,224,90.68c-.26.5-.49,1-.69,1.42a6.34,6.34,0,0,1,.3-.83,2.13,2.13,0,0,0,.09-1.57,2.15,2.15,0,0,0-1-1.19,2,2,0,0,0-.76-.18,2.22,2.22,0,0,0-.77.13,2,2,0,0,0-.67.42,2,2,0,0,0-.45.63c-1.83,4.08-.31,6.56,2,10.32.55.9,1.17,1.92,1.85,3.11a.18.18,0,0,0,.08.14,25.52,25.52,0,0,1,1.5,2.83l-.14-.11a11.35,11.35,0,0,0-4.93-3.58,11.52,11.52,0,0,0-6.07-.56,42.82,42.82,0,0,1-21.48-1.59c.72-2.47,3.71-4.31,3.74-4.33a2.15,2.15,0,0,0,.81-2.84,2,2,0,0,0-.48-.61,2.1,2.1,0,0,0-.69-.37,2.06,2.06,0,0,0-.78-.06,2,2,0,0,0-.74.25c-.21.12-4.15,2.48-5.53,6.4-1-.52-2.08-1.08-3.12-1.73a23.52,23.52,0,0,1-7.36-7.43c-1.19-5.14,6.35-10.72,6.45-10.78a2.16,2.16,0,0,0,.58-2.89,2,2,0,0,0-.54-.57,1.86,1.86,0,0,0-.71-.3,1.91,1.91,0,0,0-.79,0,2.07,2.07,0,0,0-.71.32,24.9,24.9,0,0,0-7,8,24.62,24.62,0,0,1-.9-7.92c.45-9.25,6.09-17.42,15.48-22.42h.09a25.79,25.79,0,0,1,9.7-2.83,29,29,0,0,0-5,3.25,2.15,2.15,0,0,0-.72,1.41,2.18,2.18,0,0,0,.43,1.52,1.93,1.93,0,0,0,.59.51,1.82,1.82,0,0,0,.75.23,2.06,2.06,0,0,0,.78-.09,1.9,1.9,0,0,0,.67-.4c.09-.07,8.7-7.39,16.57-4.17a22.89,22.89,0,0,1,6.47,4.88,13.52,13.52,0,0,0-6.37,2.26,2.19,2.19,0,0,0-.88,1.3,2.15,2.15,0,0,0,.23,1.55,2,2,0,0,0,.52.59,2,2,0,0,0,.71.32,1.86,1.86,0,0,0,.78,0,1.9,1.9,0,0,0,.72-.3,9.53,9.53,0,0,1,3.65-1.51,9.4,9.4,0,0,1,3.95.12A26.54,26.54,0,0,1,228,73.31c-3.46-1.93-8.58-1.72-14.4.84a2.15,2.15,0,0,0-1.11,2.73Z" transform="translate(-5.26 -3.95)"/><path d="M176.19,42.46a1.94,1.94,0,0,0,.56.79,2,2,0,0,0,.87.43,1.85,1.85,0,0,0,1.16-.13,2.17,2.17,0,0,0,1.09-2.74,34.55,34.55,0,0,0-7.4-10.66,32.71,32.71,0,0,1-6.74-10.42,1.8,1.8,0,0,0-.4-.68,1.92,1.92,0,0,0-1.41-.64,2.09,2.09,0,0,0-.78.16A2.19,2.19,0,0,0,162,19.7a2.16,2.16,0,0,0,0,1.58,35.86,35.86,0,0,0,7.71,11.93A31.13,31.13,0,0,1,176.19,42.46Z" transform="translate(-5.26 -3.95)"/><path d="M210.29,77.22a1.94,1.94,0,0,0-1.53-.3,1.91,1.91,0,0,0-.72.34,27.61,27.61,0,0,0-3,2.5,2.16,2.16,0,0,0-.18,2.94,1.89,1.89,0,0,0,2,.59,2,2,0,0,0,.8-.47,25.18,25.18,0,0,1,2.59-2.12,2.16,2.16,0,0,0,.57-2.9A1.87,1.87,0,0,0,210.29,77.22Z" transform="translate(-5.26 -3.95)"/></svg>