<svg id="737c396d-f671-4595-a3a3-38d5528e1c8c" data-name="Layer 1" xmlns="http://www.w3.org/2000/svg" viewBox="0 0 145.14 128.04"><title>heart-break-loss</title><path d="M109.19.5c18.64-.07,36.45,14.09,36.45,36.12,0,9.8-2.17,17.67-5.93,24.47s-9,12.37-14.87,17.74c-3.39,3.06-7,6-10.69,9.12-9.43,7.81-19.62,16.26-29.12,28.39l-2.81,3.58-7.43-21,17.41-27L68.76,43.67l9.36-26.29.21-.29C86.53,5.69,98,.54,109.19.5Zm31.45,36.12c0-18.94-15.22-31.18-31.43-31.12-9.51,0-19.37,4.33-26.62,14.23L74.42,42.66l24,28.84-18.07,28,3.61,10.22C93,99,102.7,90.93,111.34,83.77c3.6-3,7-5.83,10.14-8.65,5.75-5.2,10.51-10.37,13.86-16.44S140.64,45.62,140.64,36.62ZM.5,37.63C.5,15.6,18.31,1.44,37,1.51c10.61.05,21.48,4.68,29.58,14.9l.86,1.09L57.5,45.25,80.65,73.1l-17,26.44,8.57,24.23-.7,1-.2.3-.2.28L69,128.54l-2.08-3.15c-11-16.55-23.59-27-35-36.52-2.7-2.24-5.33-4.42-7.86-6.62C17.44,76.53,11.53,70.7,7.29,63.61S.5,48.18.5,37.63ZM36.93,6.51C20.72,6.45,5.5,18.7,5.5,37.63,5.5,47.3,7.79,54.71,11.58,61S20.83,72.86,27.3,78.47c2.41,2.09,5,4.2,7.6,6.4C43.54,92,53.22,100,62.33,110.92l-4.25-12L74.46,73.48,51.84,46.26l9.9-27.8C54.71,10.19,45.67,6.55,36.93,6.51Z" transform="translate(-0.5 -0.5)"/></svg>