<svg id="a5b3b335-3cf5-4b16-a309-015664028c4d" data-name="Layer 1" xmlns="http://www.w3.org/2000/svg" xmlns:xlink="http://www.w3.org/1999/xlink" viewBox="0 0 120.6 123"><defs><clipPath id="258a4dbc-bc24-492a-89b4-1b8b10f12aa6" transform="translate(0.03 0)"><rect width="120.56" height="123" fill="none"/></clipPath></defs><title>home</title><g clip-path="url(#258a4dbc-bc24-492a-89b4-1b8b10f12aa6)"><path d="M120.47,49.58a8,8,0,0,0-3-5.27L64.53,1.6A7,7,0,0,0,60.28,0,6.19,6.19,0,0,0,56,1.6L45.69,9.92V7.52c0-3.52-2.55-6.4-5.66-6.4H30.25c-3.11,0-5.66,2.88-5.66,6.4V26.87L3.06,44.31a8.4,8.4,0,0,0-3,5.27,9,9,0,0,0,1.28,6.08,7.32,7.32,0,0,0,2.54,2.5,7.44,7.44,0,0,0,3.41,1,6.21,6.21,0,0,0,4.25-1.6l.42-.32v62.86a3.69,3.69,0,0,0,.71,2.08,2.61,2.61,0,0,0,.84.59,2.46,2.46,0,0,0,1,.21h91.64a2.82,2.82,0,0,0,1.84-.8,3.28,3.28,0,0,0,.71-2.08V57.26l.42.32a7,7,0,0,0,4.25,1.6,6.94,6.94,0,0,0,3.47-1,7.06,7.06,0,0,0,2.53-2.56A10,10,0,0,0,120.47,49.58ZM29.69,7.52a.77.77,0,0,1,0-.3A.6.6,0,0,1,29.86,7a1.08,1.08,0,0,1,.24-.18.72.72,0,0,1,.29-.06h9.78a.72.72,0,0,1,.29.06A.89.89,0,0,1,40.7,7a.72.72,0,0,1,.18.56v6.4l-11.05,9V7.52ZM70.9,117.4H49.66V80a.77.77,0,0,1,0-.3.72.72,0,0,1,.14-.26.64.64,0,0,1,.25-.18.72.72,0,0,1,.29-.06H70.19a.72.72,0,0,1,.29.06.64.64,0,0,1,.25.18.72.72,0,0,1,.14.26.77.77,0,0,1,0,.3Zm32.72,0H75.86V80c0-3.51-2.55-6.39-5.67-6.39H50.37c-3.12,0-5.67,2.88-5.67,6.39v37.4H16.94V53.26L60.28,18.39l43.34,34.87Zm11.47-64.94a2.33,2.33,0,0,1-.78.78,2.36,2.36,0,0,1-1.06.34A2.1,2.1,0,0,1,112,53.1L60.28,11.52,8.58,53.1a2,2,0,0,1-1.27.48,2,2,0,0,1-1.08-.29,2,2,0,0,1-.76-.83,2.82,2.82,0,0,1-.38-1.86A2.78,2.78,0,0,1,6,48.94L59,6.4a1.93,1.93,0,0,1,2.55,0l53,42.38a3,3,0,0,1,.91,1.75A3,3,0,0,1,115.09,52.46ZM54.9,96.13a3.85,3.85,0,0,0-2.42,1.28,3.86,3.86,0,0,0,0,5.12,3.85,3.85,0,0,0,2.42,1.28,3.85,3.85,0,0,0,2.42-1.28,3.86,3.86,0,0,0,0-5.12A3.85,3.85,0,0,0,54.9,96.13ZM47.25,48.78c0,8.16,5.81,14.72,13,14.72s13-6.56,13-14.72-5.81-14.71-13-14.71S47.25,40.63,47.25,48.78Zm21.81,0c0,5.44-4,9.92-8.78,9.92s-8.78-4.48-8.78-9.92,4-9.91,8.78-9.91C65.09,38.71,69.06,43.19,69.06,48.78Z" transform="translate(0.03 0)"/></g></svg>