<svg id="2a80fe1f-1171-47df-bca2-5e6935a2997b" data-name="Layer 1" xmlns="http://www.w3.org/2000/svg" viewBox="0 0 228.03 206.9"><title>long-term-couple</title><path d="M103,61.7a1.82,1.82,0,0,0,2,0c7.6-4.6,16.2-10.5,23-17.2S140,30.1,140,22c0-14.6-10.7-22-19-22a20.4,20.4,0,0,0-17,8.7A20.4,20.4,0,0,0,87,0C78.7,0,68,7.4,68,22c0,8.2,5.2,15.8,12,22.5S95.4,57.2,103,61.7ZM87,4c8.1,0,12.5,4.4,15.3,9a2.34,2.34,0,0,0,.7.7,1.82,1.82,0,0,0,2,0,1.58,1.58,0,0,0,.7-.7c2.4-4,6-7.8,12-8.8a26.14,26.14,0,0,1,3.9-.2h.6c5.9.7,13.8,6.2,13.8,18,0,6.4-4.3,13.3-10.8,19.7C119,47.8,111.1,53.2,104,57.6c-7.2-4.4-15.1-9.8-21.2-15.9C76.3,35.3,72,28.4,72,22,72,9.3,81.1,4,87,4Z" transform="translate(0.21)"/><path d="M221,131.6a9.62,9.62,0,0,0,2.1-4,9.47,9.47,0,0,0-7-11.5l-15.5-3.8L184.4,93.9a7.57,7.57,0,0,0-2.2-1.8,6.18,6.18,0,0,0-4.2-1.5h-4.3A20.5,20.5,0,0,0,172,54.7v-.8a10,10,0,0,0-20,0,9,9,0,0,0,.2,1.8,20.58,20.58,0,0,0,.1,35h-2.5a9.8,9.8,0,0,0-4.5.2,4.87,4.87,0,0,0-1.1.4,9.25,9.25,0,0,0-1,.5l-30.6,17.7a9.5,9.5,0,0,0-3.9,4.3,4.51,4.51,0,0,0-1.4-1l-35-21.4a9.48,9.48,0,0,0-7.2-1.1l-3.5.8a20.67,20.67,0,0,0,3.3-13.9l1.4-.3a9.49,9.49,0,0,0,2.1-.9A8.08,8.08,0,0,0,70,74.4a7,7,0,0,0,.8-2,5,5,0,0,0-.1-2.1,5.44,5.44,0,0,0-2-3.1A5.71,5.71,0,0,0,65.2,66a29.31,29.31,0,0,0-2.9.5c-1.6-4.9-4.2-8-8.3-9.9-5.7-2.5-20.4-1-26.7,5.6-.6.5-4.8,4.3-3.8,12.8l-1,.2a9.49,9.49,0,0,0-2.1.9,5.72,5.72,0,0,0-1.5,1.6,7,7,0,0,0-.8,2,5,5,0,0,0,.1,2.1,5.44,5.44,0,0,0,2,3.1,5.71,5.71,0,0,0,3.5,1.2,18.46,18.46,0,0,0,2.3-.4A21.33,21.33,0,0,0,35.6,97a10.46,10.46,0,0,0-4.7,4.6l-8,16.9L5.3,125.9A9,9,0,0,0,2,128.4a8.72,8.72,0,0,0-1.9,3.7A9.92,9.92,0,0,0,2,140.6a15.21,15.21,0,0,0-2.2,8.3,6,6,0,0,0,1.9,4.4,6.27,6.27,0,0,0,4.5,1.8,6.37,6.37,0,0,0,2.4-.4,7.43,7.43,0,0,0,2.1-1.3,6.61,6.61,0,0,0,1.4-2,6.87,6.87,0,0,0,.5-2.4,1.8,1.8,0,0,1,.2-1,2.92,2.92,0,0,1,.2.9v51.4a6.43,6.43,0,0,0,2,4.3,6.66,6.66,0,0,0,4.4,1.8,6.2,6.2,0,0,0,4.4-1.8,6.43,6.43,0,0,0,2-4.3V148.9c0-3.8-.9-6.9-2.7-9.1,5.7-2.5,11.6-5.2,11.7-5.3a10.34,10.34,0,0,0,3.1-2.4L41.5,147v48.9c0,6.2,6.2,10.5,11.8,10.5A12.63,12.63,0,0,0,59,205a11.85,11.85,0,0,0,4.4-3.9,12.79,12.79,0,0,0,4.4,3.9,12.22,12.22,0,0,0,5.6,1.4c5.7,0,11.8-4.2,11.8-10.5V143.2c0-.5-4.1-18.2-5.7-24.6l17.4,10.6a10,10,0,0,0,7.2.9,10.2,10.2,0,0,0,5.9-4.3l.6-1.2a9.37,9.37,0,0,0,11.5,1.5l18.3-10.6V170a6.49,6.49,0,0,0,2.5,5.1v21.1A10.93,10.93,0,0,0,154,206.9a11.37,11.37,0,0,0,8.8-4.1,10.62,10.62,0,0,0,8.5,4.1,10.42,10.42,0,0,0,10.6-10.3V175a6.49,6.49,0,0,0,2.5-5.1V122.8l1.7,2a9.33,9.33,0,0,0,6.3,5.1l13.2,3.2a13.64,13.64,0,0,0-4.8,10.3v50a6.5,6.5,0,1,0,13,0v-50a.5.5,0,0,1,1,0v1a6.5,6.5,0,1,0,13,0v-1A12.77,12.77,0,0,0,221,131.6ZM32.1,63.6c5.7-3.5,13.7-4.3,15.3-4.3,5.5,0,8.7,2.2,10.6,7.7L28,73.6C27.7,70.2,28.3,66.1,32.1,63.6ZM23.9,81.4a1.33,1.33,0,0,1-.8-.3,1,1,0,0,1-.4-.7v-.5a.52.52,0,0,1,.2-.4,1.56,1.56,0,0,1,.8-.6c16-3.6,40.1-8.9,41.7-9.1a1.14,1.14,0,0,1,.8.3,1,1,0,0,1,.4.7v.5a.52.52,0,0,1-.2.4h0c-.1.1-.2.3-.4.4a.76.76,0,0,1-.5.2C57.3,74.1,44.4,77,35.1,79,29.1,80.3,24.6,81.3,23.9,81.4Zm6.7,3,30.2-6.6c.4,6.8-2.5,14.3-12,16.4C37.3,96.7,32.3,88.4,30.6,84.4Zm25.7,12-4.1,9.2L45,99.1a20.9,20.9,0,0,0,10.1-2.4ZM4.9,132.2a3.77,3.77,0,0,1,.9-1.5,4.51,4.51,0,0,1,1.4-1l4.2-1.8,7.9,8.4-.4.2c-3.8-1.4-9.3-1.6-13.6.9a8.79,8.79,0,0,1-.6-1A7.48,7.48,0,0,1,4.9,132.2Zm15.9,68.7a2,2,0,0,1-1.3.4,2.84,2.84,0,0,1-1.3-.4,1.9,1.9,0,0,1-.7-1.1V148.4c0-2.4-1.3-5.2-4.7-5.2a4.15,4.15,0,0,0-1.6.3,4.19,4.19,0,0,0-1.4.9,6.36,6.36,0,0,0-1.5,4.2,1.7,1.7,0,0,1-.1.7,2.09,2.09,0,0,1-.4.6,2,2,0,0,1-1.4.6A2.39,2.39,0,0,1,5,150a1.76,1.76,0,0,1-.6-1.3c0-3.7,1.1-6.2,3.2-7.7,0,0,2.6-2,8-1.1,2.5.5,5.8,1.9,5.8,8.7V200A1.07,1.07,0,0,1,20.8,200.9Zm40.1-5.4c0,3.5-4,6.2-7.4,6.2s-7.4-2.7-7.4-6.2v-2.6H60.9Zm20.1,0c0,3.5-4,6.2-7.4,6.2s-7.4-2.7-7.4-6.2v-2.6H81Zm-.1-7H66.2V149.3l-5.3,1.2v38H46.1V148.4L81,144.7v43.8Zm12.6-67L72.9,108.8l.6,2.3c0,.1.9,3.9,2.1,8.9,1.7,6.9,3.8,15.9,4.8,20.2l-34.8,3.7-5.9-25.3-4.3,9.1A5.89,5.89,0,0,1,33,130s-4.4,2-9.3,4.2l-7.9-8.3,10.7-4.5L35.2,103a4.2,4.2,0,0,1,1.4-1.8,4.35,4.35,0,0,1,2.1-.9c.1,0,.2-.1.3-.1a6.37,6.37,0,0,1,.7-.2l14.1,13,7.8-17.7,4.8-1a5,5,0,0,1,3.8.6l28.4,17.3Zm12.9,1.6c-.7,1.1-3.6,3.8-7,1.9l-2-1.2,5-9.4,2.9,1.8a3.45,3.45,0,0,1,1.2,1.2,4.42,4.42,0,0,1,.6,1.6A5.37,5.37,0,0,1,106.4,123.1Zm105.8-2.8,2.7.7a4.54,4.54,0,1,1-2.2,8.8l-2.4-.6ZM176.6,65.5c-1.1,0-2.5-.1-3.9-.2a17.17,17.17,0,0,1-3.4-.6,10.16,10.16,0,0,1-2.4-.9,9.33,9.33,0,0,1-4.1-6.2h.3A15,15,0,0,1,176.6,65.5Zm-2.5,7a3.5,3.5,0,1,1-3.5-3.5A3.54,3.54,0,0,1,174.1,72.5Zm-12-25.1a6.63,6.63,0,0,1,6.6,5.9,20.48,20.48,0,0,0-5.6-.8,18.82,18.82,0,0,0-5.3.7h-.1c-.2,0-.5.1-.7.1h0a10.4,10.4,0,0,1-1.5.2A6.44,6.44,0,0,1,162.1,47.4ZM159.3,58a7,7,0,0,1-.7,2.2,5.5,5.5,0,0,1-3.1,3.4,15,15,0,0,1-4.2.9,4.12,4.12,0,0,1-1.2-.1A15.9,15.9,0,0,1,159.3,58ZM147.6,73a15.75,15.75,0,0,1,1.1-5.8.35.35,0,0,1,.2.1,6.88,6.88,0,0,0,2.5.2,18.56,18.56,0,0,0,5.2-1.1,9,9,0,0,0,4.6-4.6,12,12,0,0,0,4.1,4.4,10.11,10.11,0,0,0,3,1.3,5.34,5.34,0,0,0-3.1,4H161a5.47,5.47,0,0,0-5.4-4.5,5.5,5.5,0,0,0,0,11,5.47,5.47,0,0,0,5.4-4.5h4.2a5.47,5.47,0,0,0,5.4,4.5,5.55,5.55,0,0,0,5.5-5.5,5.33,5.33,0,0,0-1.9-4.1c1.5.1,2.8.1,3.7.1a16.3,16.3,0,0,1,.7,4.5,15.5,15.5,0,0,1-31,0Zm11.5-.5a3.5,3.5,0,1,1-3.5-3.5A3.54,3.54,0,0,1,159.1,72.5Zm-39.3,48.9a4.55,4.55,0,1,1-4.5-7.9l2.5-1.4,4.2,8Zm41,74.9a6.6,6.6,0,0,1-13.2,0V176.5h13.3Zm16.8.4a6.2,6.2,0,0,1-12.4,0V176.5h12.4Zm16.2-71.6a4.76,4.76,0,0,1-3.1-2.6l-.2-.4-11-12.5V170a1.54,1.54,0,0,1-1.5,1.5H147a1.54,1.54,0,0,1-1.5-1.5V106.5l-21,12.1-4.2-8,25.5-14.7c.2-.1.3-.2.5-.2h0c.1,0,.2-.1.3-.1h.2a4.54,4.54,0,0,1,2.3-.1l.3.1h28.7a1.28,1.28,0,0,1,1,.4l.2.2.2.1a9.38,9.38,0,0,1,1.2.9l17.2,19.6,11.4,2.8-1.8,8.9Zm30.3,19.4a2.5,2.5,0,0,1-5,0v-1a4.5,4.5,0,0,0-9,0v50a2.5,2.5,0,0,1-5,0v-50a9.54,9.54,0,0,1,6.3-9l.2.1a9,9,0,0,0,5.4-.3,9.57,9.57,0,0,1,7,9.2v1Z" transform="translate(0.21)"/></svg>