<svg id="bd2966e6-8890-42aa-91bb-c0639f198b61" data-name="Layer 1" xmlns="http://www.w3.org/2000/svg" viewBox="0 0 68.71 105.62"><title>mom-cuddle-baby</title><path d="M61.57,57.49a12.08,12.08,0,0,0-8.41,2.15h0c-2.85,2-4.8,5.18-5.79,9.37-.06.27-.1.52-.15.77a17.34,17.34,0,0,0-2.09.72,30.76,30.76,0,0,0-7.08,4.31,36.75,36.75,0,0,0-3.4,3c-.41.39-.8.77-1.22,1.14-2.84,2.55-6.55,6.53-8.43,10-1.66,3.11-2.87,8-1.29,12.17a9.91,9.91,0,0,0,1.58,2.76,26.13,26.13,0,0,1-13.9-9.36C7.64,89.75,6.58,83.7,6.48,77.61c0,0,0-.07,0-.11V66.71a10.88,10.88,0,0,1,1.19-5.18,11,11,0,0,1,3.51-4l.1-.07a10.65,10.65,0,0,1,3.48-1.11,20.53,20.53,0,0,0,2-.46l.54-.15L29.14,67a2.08,2.08,0,0,0,1.47.54A2.12,2.12,0,0,0,32.14,67l5.45-5.4a2.17,2.17,0,0,0,.55-1.46,2.19,2.19,0,0,0-.61-1.47A2.16,2.16,0,0,0,36.07,58a2.1,2.1,0,0,0-1.49.54l-4,3.92-9.45-9.07.61-.72a10.57,10.57,0,0,0,1.9-3.22c.12-.3.22-.54.31-.79l.36-1.06,1,.48a13.17,13.17,0,0,0,5.08,1.27,10.7,10.7,0,0,0,5.12-1.48l1-.55.43,1c1.4,3.43,3.44,7.35,6.87,7.35h.1a10.14,10.14,0,0,1,4.92,1.08,2.08,2.08,0,0,0,1,.24h.53a2.15,2.15,0,0,0,1.37-2.95,2.13,2.13,0,0,0-1-1,14.64,14.64,0,0,0-6.64-1.63h-.48l-.29-.37a14.88,14.88,0,0,1-2.75-5.18l-.16-.38a2,2,0,0,0-.27-.49l-.46-.61.46-.6a15.87,15.87,0,0,0,1.39-2.16l.12-.26a19.33,19.33,0,0,1,1.85-3.16l1.62-2.22.23,2.68.43,6.09a2.15,2.15,0,0,0,.68,1.42,2.1,2.1,0,0,0,1.45.57h.16a2.15,2.15,0,0,0,1.47-.73A2.1,2.1,0,0,0,50,44.52L48.52,22.18c0-10.27-8.2-18.93-17.84-18.93S12.59,11.64,12.22,21.57l0,.26-4,13A15.6,15.6,0,0,0,12.35,51l1.29,1.21-1.7.49a13.13,13.13,0,0,0-3.24,1.4A15.16,15.16,0,0,0,2.12,66.82V77.36c0,6.32.7,12.61,5.93,19.72a30.21,30.21,0,0,0,29.58,11.23c10.11-2.07,23.42-11.47,26.11-26A2,2,0,0,0,63.55,81c.81-.59,1.66-1.25,2.55-2a12.21,12.21,0,0,0,3-3.58,16.32,16.32,0,0,0,1.77-8C70.82,62.6,66.67,58.12,61.57,57.49Zm-45-36.75a14.81,14.81,0,0,1,14-13.21h0c7.31,0,13.38,6.4,13.6,14.27v.13a2.29,2.29,0,0,0,0,.37l.05.8A22,22,0,0,1,39.89,36a22.92,22.92,0,0,0-2.18,3.77c-1.73,3.1-4.8,5.3-7.33,5.3A9.09,9.09,0,0,1,26,43.53a9.21,9.21,0,0,1-2.2-2.16l-.1-.19c-.06-.14-.13-.28-.19-.41a23.55,23.55,0,0,0-1.89-3,24,24,0,0,1-4.72-10.44l-.23-1.26,1.27.08q.63,0,1.26,0a31.39,31.39,0,0,0,17-5.7,2.15,2.15,0,0,0,.63-3,2.22,2.22,0,0,0-1.36-.92,2.13,2.13,0,0,0-1.61.32c-5.52,3.65-11.48,5.44-16.35,4.92l-1-.11ZM12.76,44.48a11.3,11.3,0,0,1-.57-8.26L13.5,32l1.08,2.44a27.79,27.79,0,0,0,3.47,5.84c.32.42.61.84.89,1.28l.1.21c0,.1.08.2.13.3.21.41.42.78.64,1.15l.11.22a6.32,6.32,0,0,1-.24,4.48A7.76,7.76,0,0,1,19,49.28l-.5.78-.82-.43A11.45,11.45,0,0,1,12.76,44.48ZM35.33,86.71c0-1.5.39-3.76.48-4.49.29-.27,1.45-1.4,1.76-1.7l.6-.57c.31.88.67,1.83,1.08,2.77a28.51,28.51,0,0,0,4,7,15.32,15.32,0,0,0,9.89,4.93A33.39,33.39,0,0,1,43.5,102l-.65-.44-.22-.14c-.57-.36-1.28-.82-2-1.36a11.65,11.65,0,0,1-4-4.92A21.91,21.91,0,0,1,35.33,86.71Zm-6.8,4.13a27.43,27.43,0,0,1,3.33-4.63c0,.24-.05.47-.08.69a19.33,19.33,0,0,0,1.14,9.77,15.71,15.71,0,0,0,5.3,6.58l.5.37a18.3,18.3,0,0,1-2.53.28A11.54,11.54,0,0,1,30,102.75a5.69,5.69,0,0,1-2.57-3C26.54,97.27,27,93.79,28.53,90.84Zm27.52,0c-3.53-.11-7.08-.76-9.79-3.81a23.74,23.74,0,0,1-3.34-5.87C42.47,80.07,42,79,41.73,78q-.15-.43-.24-.78a25.64,25.64,0,0,1,5.19-3l.1,0c.07,4.52,1.88,7.28,3.24,8.34a8.29,8.29,0,0,0,5.29,2.08,6.85,6.85,0,0,0,1.4-.14,12.12,12.12,0,0,0,2.62-.89A26.23,26.23,0,0,1,56.05,90.82Zm7.49-14.89c-3.2,2.67-5.76,4.21-7.61,4.58a4,4,0,0,1-3.3-1.05l-.11-.09c-.77-.57-2.64-3.54-1.25-9.44a13.62,13.62,0,0,1,2.16-5A18.68,18.68,0,0,0,57,69.75a56.5,56.5,0,0,0,4.58,3.82,21.42,21.42,0,0,0,2.66,1.67A6.87,6.87,0,0,1,63.54,75.93Zm2.72-4.16A18.43,18.43,0,0,1,64,70.37a45.46,45.46,0,0,1-5.19-4.7,10.87,10.87,0,0,1-1.95-2.77c-.09-.22-.18-.45-.26-.68a7.87,7.87,0,0,1,4.45-.76c3.12.38,5.75,3.14,5.75,6A14.61,14.61,0,0,1,66.26,71.77Z" transform="translate(-2.11 -3.25)"/></svg>