<svg id="7460bc0e-37c3-4525-951f-e39e29d23765" data-name="Layer 1" xmlns="http://www.w3.org/2000/svg" xmlns:xlink="http://www.w3.org/1999/xlink" viewBox="0 0 129.24 119.66"><defs><clipPath id="2b6faa80-fe79-469c-bfa1-453f9b525b93" transform="translate(0 0)"><rect width="129.24" height="119.69" fill="none"/></clipPath></defs><title>piggy-bank</title><g clip-path="url(#2b6faa80-fe79-469c-bfa1-453f9b525b93)"><path d="M129.24,48.6c0-5.38-5.07-9.75-11.29-9.75a12.7,12.7,0,0,0-2.68.28,2.45,2.45,0,0,0-1,.33,2.56,2.56,0,0,0-.74.69,2.61,2.61,0,0,0-.4.92,2.64,2.64,0,0,0,0,1,2.85,2.85,0,0,0,3.42,1.8,6.7,6.7,0,0,1,1.34-.14c3.1,0,5.62,2.18,5.62,4.86s-2.52,4.86-5.62,4.86c-2,0-3-.31-3.71-1.13a2.59,2.59,0,0,0-.41-.4c-7.21-8-18.26-14.14-31.3-17a13,13,0,0,0,.31-2.64c0-8.13-7.65-14.74-17.06-14.74S48.73,24.16,48.73,32.29A12.34,12.34,0,0,0,49,35a72.62,72.62,0,0,0-11,3.33L27,35.4a7.83,7.83,0,0,0-3-.2,7.66,7.66,0,0,0-2.85,1A5.87,5.87,0,0,0,19.09,38a5.73,5.73,0,0,0-.95,2.59l-1,12a36.71,36.71,0,0,0-4.78,7l-3.57.81C4.28,61.43,1,64.7.44,68.74A39.58,39.58,0,0,0,0,73.83a39.58,39.58,0,0,0,.44,5.1C1,83,4.28,86.24,8.8,87.27l3.57.82a43.1,43.1,0,0,0,14.88,15.73l-1.51,4.65c-1,3.18.88,6.46,4.44,7.64a70.28,70.28,0,0,0,7.1,2c2.24.49,4.7,1,7.31,1.43a8.17,8.17,0,0,0,1.31.1A7.24,7.24,0,0,0,53,115l.48-1.5a77.4,77.4,0,0,0,24.68,0l.49,1.5c1,3.18,4.63,5.14,8.37,4.56,2.6-.41,5.06-.89,7.31-1.43s4.63-1.23,7.1-2c3.55-1.18,5.46-4.46,4.43-7.64l-1.5-4.65c11.8-7.71,18.52-18.55,18.52-30a30.65,30.65,0,0,0-4.31-15.5C124.48,58.07,129.24,53.81,129.24,48.6ZM54.39,32.29c0-5.43,5.11-9.85,11.39-9.85s11.4,4.42,11.4,9.85A8.34,8.34,0,0,1,77,33.94a78.77,78.77,0,0,0-22.43,0A9.16,9.16,0,0,1,54.39,32.29Zm45.05,68.54a2.27,2.27,0,0,0-1,1.14,2.3,2.3,0,0,0-.08,1.53l2,6.28a1.32,1.32,0,0,1,0,.56,1.38,1.38,0,0,1-.17.53,1.35,1.35,0,0,1-.37.42,1.38,1.38,0,0,1-.5.25c-2.3.77-4.52,1.41-6.6,1.91s-4.35.94-6.78,1.32a1.72,1.72,0,0,1-1.92-1L82.87,110a2.87,2.87,0,0,0-3.35-1.73,71.37,71.37,0,0,1-27.48,0A2.9,2.9,0,0,0,48.7,110l-1.2,3.7a1.68,1.68,0,0,1-.78.84,1.7,1.7,0,0,1-1.13.16c-2.43-.38-4.72-.82-6.79-1.32s-4.29-1.14-6.59-1.91a1.38,1.38,0,0,1-.5-.25,1.43,1.43,0,0,1-.55-1,1.51,1.51,0,0,1,.05-.56l2-6.28a2.3,2.3,0,0,0-1.1-2.67C25.11,96.54,19.92,91.1,17,85a2.77,2.77,0,0,0-1.9-1.43l-4.89-1.12A5.16,5.16,0,0,1,7.48,81,5.21,5.21,0,0,1,6,78.27a35.81,35.81,0,0,1-.4-4.51A35.81,35.81,0,0,1,6,69.25a5.23,5.23,0,0,1,4.19-4.2l4.91-1a2.71,2.71,0,0,0,1.09-.5,2.76,2.76,0,0,0,.77-.93A32.25,32.25,0,0,1,22.15,55a2.29,2.29,0,0,0,.59-1.31L23.8,41a.94.94,0,0,1,.16-.43,1,1,0,0,1,.34-.32A1.35,1.35,0,0,1,25,40h.34l12.07,3.21a3.24,3.24,0,0,0,2.06-.14A69.17,69.17,0,0,1,65.78,38c28.34,0,51.4,16.06,51.4,35.8C117.18,84.16,110.71,94,99.44,100.83Z" transform="translate(0 0)"/><path d="M60.81,12.57a2.65,2.65,0,0,0,2.83-2.45V2.45a2.86,2.86,0,0,0-5.66,0v7.67a2.65,2.65,0,0,0,2.83,2.45Z" transform="translate(0 0)"/><path d="M70.12,15.13a2.63,2.63,0,0,0,1-.12,2.64,2.64,0,0,0,1.56-1.32,2.77,2.77,0,0,0,.28-1V4.27a2.86,2.86,0,0,0-5.66,0v8.41a2.64,2.64,0,0,0,.89,1.79A2.67,2.67,0,0,0,70.12,15.13Z" transform="translate(0 0)"/></g></svg>