<svg id="abb5b7fd-93d9-4892-a668-3ed385f006aa" data-name="Layer 1" xmlns="http://www.w3.org/2000/svg" viewBox="0 0 102 115"><title>organ-heart</title><path d="M100,48.33a35.42,35.42,0,0,0-10.33-16C94.24,20.67,94.4,7.55,94.4,6.84,94.63,3.43,89.49.91,83.89.2,78.13-.53,72.17.73,71.57,4.32a52.18,52.18,0,0,1-1.79,8.09C65.4,9.35,56.86,7.74,49.31,8.81c-6.37.9-16.7,4.5-20.09,17.25A61,61,0,0,1,20.84,18c-.6-.9-2.2-2.15-5.57-2a24.93,24.93,0,0,0-7.35,2,22,22,0,0,0-6.13,4.32C-.4,24.75-.2,26.6.4,27.5A44.62,44.62,0,0,0,11.13,43.83,30,30,0,0,0,5,57.9C3.18,70.59,10.93,84.42,28,99A84.15,84.15,0,0,0,42,108.67s.2,0,.2.17c8.15,4.5,15.1,6.16,21.07,6.16a32,32,0,0,0,15.31-4C99.2,99,105.76,65.21,100,48.33ZM80.52,3.61a15,15,0,0,1,2.59.17c4.77.54,7,2.34,7.14,2.89-.39.52-3.17,1.61-7.74,1.07-4.77-.55-7.16-2.34-7.16-2.87C75.54,4.32,77.33,3.61,80.52,3.61ZM9.53,21.2a16.17,16.17,0,0,1,6.4-1.61,8.12,8.12,0,0,1,1.4.18c0,.53-1.59,2.87-5.76,4.84-4.38,2-7.36,1.8-7.76,1.45C3.77,25.51,5.37,23.19,9.53,21.2Zm-4,8.63h.57a25.75,25.75,0,0,0,7.35-2,21.72,21.72,0,0,0,6.13-4.31c.21-.18.41-.54.6-.71A77.33,77.33,0,0,0,28.37,30v.17A62,62,0,0,0,13.48,41,39.07,39.07,0,0,1,5.56,29.83Zm83.7,64.29c-.8-3.77-4-7.39-9.34-11-10.34-6.79-2.59-18-2.18-18.32a1.76,1.76,0,0,0,.28-.66,1.7,1.7,0,0,0,0-.71,1.81,1.81,0,0,0-.31-.64,1.73,1.73,0,0,0-.55-.46,2.08,2.08,0,0,0-1.5-.28,2.15,2.15,0,0,0-1.29.81,22.1,22.1,0,0,0-3.58,8.44,9.14,9.14,0,0,0-5.17-.88,1.59,1.59,0,0,0-.75.1,1.64,1.64,0,0,0-.63.44,1.73,1.73,0,0,0-.37.66,1.67,1.67,0,0,0,0,.77,1.86,1.86,0,0,0,.24.72,1.94,1.94,0,0,0,.5.57,1.79,1.79,0,0,0,.69.31,1.73,1.73,0,0,0,.75,0,4.19,4.19,0,0,1,1.69,0,4.08,4.08,0,0,1,1.52.71,4.13,4.13,0,0,1,1.14,1.25,4.2,4.2,0,0,1,.56,1.59c0,.17,0,.17.21.36a14.93,14.93,0,0,0,6.35,8.43c4.78,3.23,7.35,6.29,8,9.34.41,2.16-.6,4.49-2.58,7a35.89,35.89,0,0,1-6.76,5.2c-9.34,5.21-20.47,4.5-32.81-2.33a7,7,0,0,1-3.58-5.21c-.19-3,1.79-6.28,5.78-9.34h.2s.19,0,.19-.18c0,0,3.19-2,6-1.43a2.18,2.18,0,0,0,2.38-1.44,2,2,0,0,0-1.5-2.21,6.54,6.54,0,0,0-2.57,0,8.61,8.61,0,0,0,.59-3c-.2-3.94-3.78-6.46-4-6.64a2.32,2.32,0,0,0-1.46-.3,2.39,2.39,0,0,0-1.33.65,1.87,1.87,0,0,0-.3,1.32,1.75,1.75,0,0,0,.7,1.15,6.27,6.27,0,0,1,2.45,3.77c0,1.8-1.23,3.6-3.78,5.39-6.36,4.85-7.35,9.34-7.16,12.4-1.79-1.23-3.58-2.7-5.37-4.14C14.32,82.8,7,70.05,8.75,58.55a28,28,0,0,1,6.13-13.28A50.32,50.32,0,0,1,27.83,34.85c0,7.54,1.79,16.71,5.56,27.1a1.91,1.91,0,0,0,.71.9,1.89,1.89,0,0,0,1.08.34.85.85,0,0,0,.32,0,.76.76,0,0,0,.28-.15,1.54,1.54,0,0,0,.67-.32,1.66,1.66,0,0,0,.48-.57,1.93,1.93,0,0,0,.2-.71,1.89,1.89,0,0,0-.12-.74c-4-11.85-5.57-21.9-4.77-29.56,1.56-13.49,10.3-17.63,17.65-18.7,9-1.45,17.54,1.79,18.76,3.95A44.06,44.06,0,0,1,65,24.08a45.66,45.66,0,0,0-14.12,2,1.61,1.61,0,0,0-.66.31,1.87,1.87,0,0,0-.48.57,1.93,1.93,0,0,0-.2.71,1.81,1.81,0,0,0,.12.73,1.84,1.84,0,0,0,.69.91,2,2,0,0,0,1.1.33.82.82,0,0,0,.6-.18,52.67,52.67,0,0,1,10.53-1.61,30.46,30.46,0,0,1-5.37,5.74,1.82,1.82,0,0,0-.59,1.19A1.76,1.76,0,0,0,57,36a2.27,2.27,0,0,0,1.4.55A2.19,2.19,0,0,0,59.76,36c9.55-7.72,13.33-20.64,14.72-27.1a21.87,21.87,0,0,0,7.35,2.34,18.9,18.9,0,0,0,3.19.17,17.59,17.59,0,0,0,4.57-.54c.2,0,.2-.17.39-.17-.6,6.83-2.58,20.94-9.53,29.46a1.79,1.79,0,0,0-.31,1.31,1.83,1.83,0,0,0,.7,1.15,3.18,3.18,0,0,0,1.3.47,1.91,1.91,0,0,0,1.59-.73,30,30,0,0,0,4-6.28,31.59,31.59,0,0,1,8.16,13.48C100.39,61.6,97.41,80.47,89.26,94.12Z" transform="translate(0 0)"/></svg>