<svg id="8ad2fa36-3236-4314-b8df-70002fa8223c" data-name="Layer 1" xmlns="http://www.w3.org/2000/svg" viewBox="0 0 165 154.24"><title>path</title><path d="M73.38,60.32a1.5,1.5,0,0,0,0,2.13l6,6-5.66,5.65a1.51,1.51,0,0,0,0,2.12,1.49,1.49,0,0,0,2.12,0l5.66-5.65,5.66,5.65a1.49,1.49,0,0,0,2.12,0,1.51,1.51,0,0,0,0-2.12l-5.66-5.65,5.66-5.66a1.51,1.51,0,0,0,0-2.12,1.49,1.49,0,0,0-2.12,0l-5.66,5.65-6-6A1.51,1.51,0,0,0,73.38,60.32Z" transform="translate(-1.33 -1.25)"/><path d="M60.29,128.88a1.51,1.51,0,0,0-2.12,0l-5.66,5.66-6-6a1.5,1.5,0,1,0-2.12,2.12l6,6-5.66,5.66a1.5,1.5,0,0,0,2.12,2.12l5.66-5.66,5.66,5.66a1.5,1.5,0,1,0,2.12-2.12l-5.66-5.66L60.29,131A1.51,1.51,0,0,0,60.29,128.88Z" transform="translate(-1.33 -1.25)"/><path d="M135.33,32a14.5,14.5,0,1,0-14.5,14.5A14.52,14.52,0,0,0,135.33,32Zm-24.85,0a10.36,10.36,0,1,1,10.35,10.36A10.36,10.36,0,0,1,110.48,32Z" transform="translate(-1.33 -1.25)"/><path d="M27.33,108a9.5,9.5,0,1,0-9.5,9.5A9.52,9.52,0,0,0,27.33,108Zm-9.5,5.7a5.7,5.7,0,1,1,5.7-5.7A5.7,5.7,0,0,1,17.83,113.68Z" transform="translate(-1.33 -1.25)"/><path d="M18.33,136.48a1.88,1.88,0,0,0,1.45-.67c1.59-1.89,15.55-18.74,15.55-27.45a17,17,0,0,0-34,0c0,8.71,14,25.56,15.55,27.45A1.88,1.88,0,0,0,18.33,136.48Zm0-41.25a13.2,13.2,0,0,1,13.23,13.13c0,5.59-8.53,17.4-13.23,23.27C13.63,125.76,5.11,114,5.11,108.36A13.19,13.19,0,0,1,18.33,95.23Z" transform="translate(-1.33 -1.25)"/><path d="M120.83,72.48a2.07,2.07,0,0,0,1.56-.71c.94-1.1,22.94-27,22.94-39.91a24.5,24.5,0,0,0-49,0c0,12.94,22,38.81,23,39.91A2.06,2.06,0,0,0,120.83,72.48Zm0-60.93a20.39,20.39,0,0,1,20.42,20.31c0,8.78-13.54,27.05-20.42,35.42-6.88-8.37-20.41-26.64-20.41-35.42A20.39,20.39,0,0,1,120.83,11.55Z" transform="translate(-1.33 -1.25)"/><path d="M92.5,118.87H76.62a13.08,13.08,0,1,1,0-26.16h54.71a2.62,2.62,0,1,0,0-5.23H76.62a18.31,18.31,0,1,0,0,36.62H92.5a13.08,13.08,0,1,1,0,26.15H11.33a2.62,2.62,0,0,0,0,5.23H92.5a18.31,18.31,0,1,0,0-36.61Z" transform="translate(-1.33 -1.25)"/><path d="M52.33,54.48a6.91,6.91,0,0,0-7,6.8c0,3.3,4.75,8.61,5.7,9.64a1.77,1.77,0,0,0,1.3.56,1.79,1.79,0,0,0,1.31-.56c1-1,5.69-6.34,5.69-9.64A6.91,6.91,0,0,0,52.33,54.48Zm0,12.67c-1.86-2.27-3.5-4.81-3.5-5.87a3.5,3.5,0,0,1,7,0C55.83,62.37,54.19,64.9,52.33,67.15Z" transform="translate(-1.33 -1.25)"/><path d="M166.29,90.34,160.77,57.7a2.8,2.8,0,0,0-2.7-2.42H156.6a2.91,2.91,0,0,0-2.7,2.42l-5.52,32.64a2.69,2.69,0,0,0,.49,2.16l6.26,8.64a2.7,2.7,0,0,0,4.41,0l6.26-8.64A2.73,2.73,0,0,0,166.29,90.34Zm-9,8.73-6-8.27,5.5-32.52h1l5.5,32.52Z" transform="translate(-1.33 -1.25)"/><path d="M155.08,53.28h4.5a2.64,2.64,0,0,0,1.94-.93,3.16,3.16,0,0,0,.81-2.07,2.92,2.92,0,0,0-2.75-3h-4.5a3,3,0,0,0,0,6Z" transform="translate(-1.33 -1.25)"/><path d="M60.94,33.57a1,1,0,0,0,1.08,0,64.76,64.76,0,0,0,12-9C77.63,21,80.33,17,80.33,12.77c0-7.66-5.6-11.52-10-11.52a10.77,10.77,0,0,0-8.9,4.53,10.77,10.77,0,0,0-8.9-4.53c-4.35,0-10,3.86-10,11.52,0,4.27,2.71,8.27,6.27,11.8A65.16,65.16,0,0,0,60.94,33.57ZM52.58,4.25a7.77,7.77,0,0,1,6.51,3.34l2.39,3.16,2.39-3.16a7.74,7.74,0,0,1,6.51-3.34c2.89,0,7,2.64,7,8.52,0,2.88-1.81,6.14-5.37,9.67a60,60,0,0,1-10.48,8A60,60,0,0,1,51,22.44c-3.57-3.53-5.38-6.79-5.38-9.67C45.62,6.89,49.69,4.25,52.58,4.25Z" transform="translate(-1.33 -1.25)"/><path d="M154.24,122.89a10.78,10.78,0,0,0-8.91,4.54,10.78,10.78,0,0,0-8.9-4.54c-4.34,0-10,3.87-10,11.53,0,4.27,2.7,8.27,6.27,11.8a65.66,65.66,0,0,0,12,9,1,1,0,0,0,.54.15,1,1,0,0,0,.54-.15,65.72,65.72,0,0,0,12-9c3.57-3.53,6.27-7.53,6.27-11.8C164.19,126.76,158.58,122.89,154.24,122.89Zm1.57,21.19A58.27,58.27,0,0,1,145.33,152a58.52,58.52,0,0,1-10.47-7.95c-3.57-3.53-5.38-6.78-5.38-9.66,0-5.88,4.06-8.53,7-8.53a7.75,7.75,0,0,1,6.51,3.35l2.39,3.16,2.39-3.16a7.78,7.78,0,0,1,6.52-3.35c2.88,0,6.95,2.65,6.95,8.53C161.19,137.3,159.38,140.55,155.81,144.08Z" transform="translate(-1.33 -1.25)"/><path d="M8.32,36.77h3.62a8.78,8.78,0,0,0,6.68,7v3.65h0v.09h0a1.7,1.7,0,0,0,3.39,0h0V43.73a8.78,8.78,0,0,0,6.68-7h3.6a1.81,1.81,0,1,0,0-3.61,1.47,1.47,0,0,0-.36,0H28.73a8.76,8.76,0,0,0-6.68-7V22.48h0a1.7,1.7,0,0,0-3.39,0h0v.1h0v3.66a8.76,8.76,0,0,0-6.68,7H8.68a1.47,1.47,0,0,0-.36,0,1.81,1.81,0,1,0,0,3.61Zm12-7.14a5.36,5.36,0,0,1,0,10.71,5.36,5.36,0,0,1,0-10.71Z" transform="translate(-1.33 -1.25)"/></svg>