<svg id="a2437502-beec-4fb6-bd06-0484db9e7b9b" data-name="Layer 1" xmlns="http://www.w3.org/2000/svg" viewBox="0 0 137.5 86.65"><title>peers</title><path d="M142.12,98.74h0a14.36,14.36,0,0,0-4.68-5.29,12.83,12.83,0,0,0-3-1.17l-1.78-.46L134,90.57a14.85,14.85,0,0,0,4-15.39l-4-12.89c-.4-9.25-8.6-17.37-17.57-17.37-9.21,0-17,8.28-17,18.08a.23.23,0,0,1,0,.11v.12L98.05,84.32a1.92,1.92,0,0,0,.49,1.45,2,2,0,0,0,1.37.68h.14a2,2,0,0,0,1.37-.53,2,2,0,0,0,.63-1.32l.59-8.48,1.69,2.22a18,18,0,0,1,1.77,3l.13.29a17.2,17.2,0,0,0,1.29,2l.47.62-.49.61a1.87,1.87,0,0,0-.3.48l-.18.45a13.74,13.74,0,0,1-2.6,4.86l-.29.37h-.47A14.31,14.31,0,0,0,89.5,105.5V123a2,2,0,0,0,.59,1.41,2,2,0,0,0,2.82,0A2,2,0,0,0,93.5,123V105.5a10.24,10.24,0,0,1,2.89-7.33,10.27,10.27,0,0,1,3.31-2.3,10.44,10.44,0,0,1,3.93-.86h.3c3.29,0,5.22-3.75,6.53-7l.42-1.06,1,.56a10.16,10.16,0,0,0,5,1.42,12.38,12.38,0,0,0,4.83-1.24l1-.5.35,1.09c.1.29.2.58.32.86a10.22,10.22,0,0,0,1.7,2.95l.58.71-9.08,8.72-3.9-3.81a2,2,0,0,0-3.29,1.51,2,2,0,0,0,.53,1.38l5.25,5.13a2,2,0,0,0,1.4.57h0a2,2,0,0,0,1.36-.52L129.11,95l.55.15a20,20,0,0,0,2.18.51,10,10,0,0,1,3.3,1.07l.1.06a10.49,10.49,0,0,1,4.51,8.85v17.43a2,2,0,0,0,.59,1.41,2,2,0,0,0,2.83,0,2,2,0,0,0,.58-1.41V105.63A14.46,14.46,0,0,0,142.12,98.74ZM125.3,78.06c-.33.44-.67.93-1,1.45l-.11.14a1.65,1.65,0,0,0-.31.42,8.69,8.69,0,0,1-7,4.88h0c-2.53,0-5.4-2.06-7.09-5a23.1,23.1,0,0,0-2.12-3.68,21.28,21.28,0,0,1-4.16-12.95V63.1a2,2,0,0,0,0-.42v-.17c.25-7.49,6.07-13.59,13-13.59a14.16,14.16,0,0,1,9.64,4.33A14.31,14.31,0,0,1,130,61.56l.11,1-1,.1c-4.65.49-10.34-1.22-15.61-4.71a2,2,0,0,0-2.77.57,2,2,0,0,0-.3,1.51,2.18,2.18,0,0,0,.31.72,2.06,2.06,0,0,0,.55.55,30,30,0,0,0,16.23,5.47c.33,0,.78,0,1.18,0l1.27-.08-.22,1.25A23,23,0,0,1,125.3,78.06Zm3.55,11.2-.84.44-.48-.82a6.42,6.42,0,0,1-.57-1.19,5.93,5.93,0,0,1-.5-2.41,6.13,6.13,0,0,1,.53-2.5,20.33,20.33,0,0,1,1.54-2.38,27.06,27.06,0,0,0,3.3-5.59l1.08-2.44,1.25,4a10.89,10.89,0,0,1-5.31,12.89Z" transform="translate(-6.25 -38.42)"/><path d="M103.5,109a2,2,0,0,0-2,2v10.5a2,2,0,0,0,.59,1.41,2,2,0,0,0,2.82,0,2,2,0,0,0,.59-1.41V111a2,2,0,0,0-2-2Z" transform="translate(-6.25 -38.42)"/><path d="M92.37,90.17h.23a2,2,0,0,0,1.71-1.53,2,2,0,0,0-1-2.24,17,17,0,0,0-6.34-1.79l-.31,0-.24-.2A12.89,12.89,0,0,1,82.92,80a1.84,1.84,0,0,0-.13-.25l-.36-.6.42-.58a12.43,12.43,0,0,0,1.32-2l.11-.24a28.4,28.4,0,0,1,1.54-3.07A34.23,34.23,0,0,0,91,55.71a17.3,17.3,0,0,0-34.6,0,1.92,1.92,0,0,0,.06.44l0,.12v.11a30.24,30.24,0,0,0,5.38,17.49c.24.37.45.73.66,1.1l.26.5.26.44.23.39a5.94,5.94,0,0,1,.48,2.34,6.14,6.14,0,0,1-.54,2.5,6.49,6.49,0,0,1-2.87,3.45l-.18.08a2,2,0,0,0-1.32,2.23,2.12,2.12,0,0,0,2.75,1.55l.09,0,.88-.43.5.61a14,14,0,0,0,10.66,5.24,14.41,14.41,0,0,0,6.83-2,14.21,14.21,0,0,0,3.69-3.18l.46-.54.66.25a3.33,3.33,0,0,0,1,.23A13.09,13.09,0,0,1,91.48,90,2,2,0,0,0,92.37,90.17ZM81.25,86.11a10.73,10.73,0,0,1-2.6,2.27h0a10.65,10.65,0,0,1-4.87,1.51h-.11a10.38,10.38,0,0,1-7.64-4l-.44-.57.39-.6a10.14,10.14,0,0,0,1-2c.13-.31.23-.58.32-.86l.36-1.08,1,.5a13,13,0,0,0,5.06,1.28,13.68,13.68,0,0,0,4.59-.75l.81-.29.41.75a18.49,18.49,0,0,0,1.69,2.56l.49.64ZM80.53,75c-1.42,2.51-3.51,3.59-6.81,3.59A9,9,0,0,1,67,74.69l-.14-.27a28.5,28.5,0,0,0-1.51-2.56A27,27,0,0,1,60.5,55.7a1.88,1.88,0,0,0,0-.31v-.21a13.29,13.29,0,0,1,26.56.2l0,1.09L86,56.4c-7.82-.49-9.26-3.43-10.41-5.79L75.25,50l-.08-.13a1,1,0,0,0-.13-.18l-.11-.12-.16-.16-.13-.09-.2-.13-.37-.15-.15,0a.91.91,0,0,0-.23,0h-.37l-.16,0-.24,0-.35.15-.14.09-.19.13a.63.63,0,0,0-.12.11l-.16.17a.44.44,0,0,0-.08.11l-.14.21,0,.09c-.2.4-.39.82-.59,1.23-1.35,2.9-2.3,4.67-4.88,4.93a2,2,0,0,0-1.44.66,2,2,0,0,0,.15,2.83,2,2,0,0,0,1.44.52l.27,0A8.2,8.2,0,0,0,73,56.37l.7-1,.85.9c2.31,2.41,5.89,3.76,10.94,4.14l1.14.08-.24,1.13a30.42,30.42,0,0,1-4.06,10A37.74,37.74,0,0,0,80.53,75Z" transform="translate(-6.25 -38.42)"/><path d="M53.86,93.48a12.53,12.53,0,0,0-4.81-1.69,19.29,19.29,0,0,1-2.57-.63l-.2-.08a3.68,3.68,0,0,1-1.07-1,2,2,0,0,0-1.31-.67h-.19a2,2,0,0,0-1.55,3.27,6.91,6.91,0,0,0,3,2.22,22.5,22.5,0,0,0,3,.75,10,10,0,0,1,3.3,1.07l.1.06a10.52,10.52,0,0,1,4.54,8.85v17.43a2,2,0,0,0,.59,1.41,2,2,0,0,0,1.44.59,2.05,2.05,0,0,0,1.42-.58,2,2,0,0,0,.44-.65,2.08,2.08,0,0,0,.16-.77V105.64a14.47,14.47,0,0,0-6.3-12.16Z" transform="translate(-6.25 -38.42)"/><path d="M27.07,88.17l.48-.89.88.49A9.53,9.53,0,0,0,33,89c4.15,0,8.42-2.92,10.87-7.44l.09-.24.23-.38c.33-.52.69-1,1.14-1.61,2.06-2.78,5.15-7,5.15-16.33l0-.21C50.28,53.06,42.27,44.92,33,44.92c-9,0-16.65,7.83-17,17.46l0,.19a2.37,2.37,0,0,0-.05.43,28.71,28.71,0,0,0,5.28,16.27l.1.16c.48.76.94,1.48,1.29,2.14a.28.28,0,0,0,.07.09l.17.24a19.52,19.52,0,0,0,1.3,2l.41.54-.35.58a1.51,1.51,0,0,0-.15.28,21.1,21.1,0,0,1-3.8,5.61l-.18.18-.24.08c-.88.29-1.61.5-2.4.73A14.92,14.92,0,0,0,10,95.68a14.29,14.29,0,0,0-3.72,9.89v17.51a2,2,0,0,0,.58,1.41,2.06,2.06,0,0,0,2.83,0,2,2,0,0,0,.59-1.41V105.57a10.34,10.34,0,0,1,2.67-7.24l.12-.11a12,12,0,0,1,5.5-2.47c.71-.2,1.58-.44,2.48-.74l.5-.18,10.24,7.88a2.39,2.39,0,0,0,2.6,0l4.76-3.91a2.22,2.22,0,0,0,.5-.6,2.25,2.25,0,0,0,.23-.75,2,2,0,0,0-.08-.78,2,2,0,0,0-.37-.69,2,2,0,0,0-.61-.5,1.92,1.92,0,0,0-.75-.22,1.83,1.83,0,0,0-.77.08,1.92,1.92,0,0,0-.69.37L33,98.58l-8.4-6.45.56-.79A31.46,31.46,0,0,0,27.07,88.17ZM19.92,63.33v-.07l0-.18c0-7.84,5.84-14.16,13-14.16,6.49,0,12.35,5.33,13.35,12.12l.22,1.55L45,62.15c-2.13-.64-4.76-3.31-5.93-4.85a2.12,2.12,0,0,0-.7-.53,2.1,2.1,0,0,0-1.8,0,2.23,2.23,0,0,0-.73.56A13.69,13.69,0,0,1,26,62.5a2,2,0,0,0-1.42.63,2,2,0,0,0-.41.66,1.89,1.89,0,0,0-.13.78,2.26,2.26,0,0,0,.17.76,2,2,0,0,0,.46.63,2,2,0,0,0,.66.41,1.84,1.84,0,0,0,.77.13h.31a18.06,18.06,0,0,0,10.49-4.26l.7-.6.66.65c1.67,1.67,4.26,3.7,7.09,4l1,.09-.14,1A18.46,18.46,0,0,1,42.11,77c-.52.7-1,1.32-1.37,2a.3.3,0,0,0,0,.09l-.19.38a2,2,0,0,0-.2.3C38.68,82.78,35.6,85,33,85s-5.21-2-6.86-5.28a3,3,0,0,0-.25-.28l-.19-.24c-.35-.63-.73-1.25-1.14-1.91A24.88,24.88,0,0,1,19.92,63.33Z" transform="translate(-6.25 -38.42)"/><path d="M33,121a2,2,0,0,0-1.41.58,2.06,2.06,0,0,0-.54,1,2,2,0,0,0,.11,1.15,2,2,0,0,0,.74.9A2,2,0,0,0,33,125a1.5,1.5,0,0,0,.37,0,1.6,1.6,0,0,0,.38-.1,2.17,2.17,0,0,0,.34-.19,1.22,1.22,0,0,0,.29-.23A2,2,0,0,0,35,123a2,2,0,0,0-2-2Z" transform="translate(-6.25 -38.42)"/><path d="M33,113.5a2,2,0,0,0-2,2v.21a2,2,0,0,0,.59,1.41,2,2,0,0,0,2.82,0,2,2,0,0,0,.59-1.41v-.21a2,2,0,0,0-2-2Z" transform="translate(-6.25 -38.42)"/><path d="M33.76,106.15A2,2,0,0,0,33,106a1.72,1.72,0,0,0-.39,0,1.93,1.93,0,0,0-1,.55,2,2,0,0,0,.3,3.07,2,2,0,0,0,2.52-.25A2,2,0,0,0,35,108a2,2,0,0,0-1.24-1.85Z" transform="translate(-6.25 -38.42)"/></svg>