<svg id="40f88d04-7947-43bf-b122-776665b2f623" data-name="Layer 1" xmlns="http://www.w3.org/2000/svg" xmlns:xlink="http://www.w3.org/1999/xlink" viewBox="0 0 109 118.11"><defs><clipPath id="0273c750-1423-4790-8fdf-41d6c8c3bd4d" transform="translate(0 0.08)"><rect width="109" height="118" fill="none"/></clipPath></defs><title>self-preservation</title><g clip-path="url(#0273c750-1423-4790-8fdf-41d6c8c3bd4d)"><path d="M56.77,5.87V2.17A2.26,2.26,0,0,0,56.1.56a2.34,2.34,0,0,0-3.21,0,2.29,2.29,0,0,0-.66,1.61v3.7C22.9,7,0,29.4,0,57.15A2.17,2.17,0,0,0,.16,58a2.23,2.23,0,0,0,.51.74,2.18,2.18,0,0,0,.76.46,2,2,0,0,0,.81.11,2.14,2.14,0,0,0,.87-.13,2.1,2.1,0,0,0,.74-.46A2.23,2.23,0,0,0,4.34,58a2.11,2.11,0,0,0,.16-.83,8,8,0,0,1,8.23-7.68,8,8,0,0,1,8.16,7.68,2.17,2.17,0,0,0,.16.87,2.09,2.09,0,0,0,.51.73,2.07,2.07,0,0,0,.76.47,2,2,0,0,0,.8.11,2,2,0,0,0,.88-.11,2.07,2.07,0,0,0,.76-.47,2.09,2.09,0,0,0,.51-.73,2.12,2.12,0,0,0,.16-.84,8,8,0,0,1,8.19-7.71,8,8,0,0,1,8.16,7.69,2.25,2.25,0,0,0,.66,1.6,2.32,2.32,0,0,0,3.21,0,2.21,2.21,0,0,0,.67-1.58,8,8,0,0,1,5.91-7.39V106A8,8,0,0,1,44,113.69,8,8,0,0,1,35.88,106a2.26,2.26,0,0,0-.67-1.61,2.34,2.34,0,0,0-3.21,0,2.29,2.29,0,0,0-.66,1.61c0,6.63,5.7,12,12.71,12s12.72-5.4,12.72-12V49.75a7.73,7.73,0,0,1,5.91,7.39,2.29,2.29,0,0,0,.66,1.61,2.34,2.34,0,0,0,3.21,0,2.25,2.25,0,0,0,.67-1.58,8.19,8.19,0,0,1,16.35,0,2.29,2.29,0,0,0,.66,1.61,2.34,2.34,0,0,0,3.21,0,2.25,2.25,0,0,0,.67-1.58,8.19,8.19,0,0,1,16.35,0,2.29,2.29,0,0,0,.66,1.61,2.34,2.34,0,0,0,3.21,0,2.26,2.26,0,0,0,.67-1.61C109,29.39,86.1,7,56.77,5.87ZM103.15,47a13,13,0,0,0-6.87-1.9h0a12.71,12.71,0,0,0-6.16,1.48,12.84,12.84,0,0,0-4.29,3.67,13.09,13.09,0,0,0-4.3-3.63,13.42,13.42,0,0,0-12.27,0A13.22,13.22,0,0,0,65,50.28a12.81,12.81,0,0,0-10.26-5.15H54.5a13,13,0,0,0-10.45,5.15,12.78,12.78,0,0,0-10.43-5.15,13,13,0,0,0-6.17,1.48,12.82,12.82,0,0,0-4.29,3.66,12.69,12.69,0,0,0-4.28-3.66,12.85,12.85,0,0,0-6.16-1.48,13.86,13.86,0,0,0-7.25,2C10.44,25.58,30.76,10,54.29,10S98.17,25.51,103.15,47Z" transform="translate(0 0.08)"/></g></svg>