<svg id="cd8f92c7-3141-47ab-9c04-059f79e23625" data-name="Layer 1" xmlns="http://www.w3.org/2000/svg" viewBox="0 0 83.57 120.02"><title>single-parent-family</title><path d="M50.33,57.64h.52a2.19,2.19,0,0,0,.75-.37,2.27,2.27,0,0,0,.76-1.18,2.15,2.15,0,0,0-1.11-2.41,14.48,14.48,0,0,0-6.64-1.63h-.47l-.3-.36a14.65,14.65,0,0,1-2.74-5.19l-.16-.38a2.18,2.18,0,0,0-.29-.48l-.47-.6.47-.61a16.26,16.26,0,0,0,1.4-2.17l.12-.25A18.92,18.92,0,0,1,44,38.84l1.62-2.23.24,2.68.42,6.1a2.16,2.16,0,0,0,2.14,2h0l.15,0a2.1,2.1,0,0,0,1.47-.72,2.18,2.18,0,0,0,.53-1.56L49.06,23.16v-.44c0-10.25-8.19-18.9-17.84-18.9S13.21,12.16,12.79,22l0,.26L8.67,35.41a15.57,15.57,0,0,0,4.24,16.15l1.3,1.21-1.71.48a13.65,13.65,0,0,0-3.26,1.4A15.22,15.22,0,0,0,2.66,67.39v49.67a2.19,2.19,0,0,0,.62,1.52,2.25,2.25,0,0,0,1.59.63,2.11,2.11,0,0,0,.8-.15,2,2,0,0,0,.71-.46,2.08,2.08,0,0,0,.48-.7,2,2,0,0,0,.17-.83V67.28a11,11,0,0,1,4.7-9.21l.11-.06a10.3,10.3,0,0,1,3.47-1.11c.57-.1,1.22-.26,2-.47l.55-.15L29.68,67.59a2,2,0,0,0,1.47.54,2.07,2.07,0,0,0,1.53-.55l5.45-5.41a2.14,2.14,0,0,0-1.51-3.57,2.15,2.15,0,0,0-1.5.54l-4,3.93L21.64,54l.62-.71a10.85,10.85,0,0,0,1.9-3.21c.12-.28.2-.52.28-.75l.36-1.06,1,.43A13.09,13.09,0,0,0,30.92,50,10.62,10.62,0,0,0,36,48.47l1-.55.43,1c1.41,3.47,3.45,7.46,7,7.36a10.12,10.12,0,0,1,4.92,1.08A2.24,2.24,0,0,0,50.33,57.64ZM20.2,48.52a6.16,6.16,0,0,1-.66,1.31l-.49.79-.82-.44a11.32,11.32,0,0,1-5.5-13.39l1.32-4.25L15.13,35a27.75,27.75,0,0,0,3.46,5.86c.31.41.61.85.94,1.37l.13.27a1,1,0,0,0,.06.16c.15.3.31.56.47.83l.21.38a6.15,6.15,0,0,1,.36,2.08A6.25,6.25,0,0,1,20.2,48.52Zm10.72-2.85h-.09a9.09,9.09,0,0,1-4.32-1.57,9.24,9.24,0,0,1-2.26-2.28l-.17-.36L24,41.33a22.47,22.47,0,0,0-1.89-3,24,24,0,0,1-4.7-10.44l-.23-1.25,1.28.07c.41,0,.82,0,1.23,0a31.38,31.38,0,0,0,17-5.71,2.14,2.14,0,1,0-2.34-3.59C28.83,21.13,22.88,22.92,18,22.4l-1-.11.11-1a14.87,14.87,0,0,1,4-8.68,14.72,14.72,0,0,1,10-4.52h0c7.32,0,13.52,6.65,13.6,14.53v.18l0,.63a22,22,0,0,1-4.35,13.18,23.27,23.27,0,0,0-2.17,3.76C36.52,43.48,33.46,45.67,30.92,45.67Z" transform="translate(-2.66 -3.82)"/><path d="M83.57,95.78a13.67,13.67,0,0,0-7-5l-.18-.05-.15-.12A16.28,16.28,0,0,1,73.7,88l-.47-.59.43-.61a10.43,10.43,0,0,0,.6-1l.13-.27a19.29,19.29,0,0,1,1.14-2.21A26,26,0,0,0,79.44,70.1a2.57,2.57,0,0,0-.09-.62l0-.17a13.37,13.37,0,0,0-26.68.77.38.38,0,0,1,0,.08l0,.18v.07a22.72,22.72,0,0,0,4.1,13.41c.34.52.66,1,.94,1.56a3.75,3.75,0,0,1,.35,1.56,3.7,3.7,0,0,1-.32,1.49,4.49,4.49,0,0,1-1.59,2.13l-.15.11-.17,0a13.74,13.74,0,0,0-10,13.17V121.7a2.15,2.15,0,0,0,.63,1.51,2.07,2.07,0,0,0,1.52.63,2.26,2.26,0,0,0,.82-.16,2.21,2.21,0,0,0,.7-.47,2,2,0,0,0,.46-.69,2.15,2.15,0,0,0,.17-.82V103.91A9.37,9.37,0,0,1,56,95.19l.74-.3.46.65a11.25,11.25,0,0,0,3.41,3.19,11.38,11.38,0,0,0,5.4,1.56,11.15,11.15,0,0,0,8.8-4.74l.45-.65.74.3a9.36,9.36,0,0,1,5.91,8.72V121.7a2.15,2.15,0,0,0,.63,1.51,2.21,2.21,0,0,0,3,0,2.19,2.19,0,0,0,.62-1.51V103.92A13.62,13.62,0,0,0,83.57,95.78Zm-25-30.67a9.9,9.9,0,0,1,1.11-1.29,9.09,9.09,0,0,1,15.23,4.9l.23,1.22-1.24,0c-10.11-.27-13.41-2-15.16-3.45l-.71-.59ZM57,72.41l-.17-1.82,1.62.84c3.2,1.66,8,2.53,15,2.74l1.27,0-.33,1.23a21.51,21.51,0,0,1-2.61,5.89,26.16,26.16,0,0,0-1.3,2.53,4.37,4.37,0,0,1-1.93,1.9,4.42,4.42,0,0,1-1.94.46,5.19,5.19,0,0,1-.68,0,6,6,0,0,1-2.78-1.07,5.89,5.89,0,0,1-1.93-2.3,2.21,2.21,0,0,0-.28-.39l-.16-.24-.35-.55A18.79,18.79,0,0,1,57,72.41Zm14.4,20.66a6.38,6.38,0,0,1-8.73,2,6.34,6.34,0,0,1-2-2l-.37-.57.39-.55a8.59,8.59,0,0,0,.91-1.68l.36-.91.92.34a10,10,0,0,0,3.14.66,8.51,8.51,0,0,0,3.06-.36l.68-.2.42.58a18.05,18.05,0,0,0,1.13,1.42l.49.56Z" transform="translate(-2.66 -3.82)"/></svg>