<svg id="00126b8d-21a5-43ab-bbe0-a5ee591dc019" data-name="Layer 1" xmlns="http://www.w3.org/2000/svg" viewBox="0 0 99.97 91"><title>sleep</title><path d="M100,55.91v-.12a2,2,0,0,0-.06-.35V55.3a2.75,2.75,0,0,0-.15-.36L85.33,29.4V6.21C85.33,2.79,83,0,80,0H20c-3,0-5.38,2.79-5.38,6.21V29.4L.22,54.89a1.69,1.69,0,0,0-.15.37v.13a2,2,0,0,0-.06.35V89a1.76,1.76,0,0,0,.08.72,1.83,1.83,0,0,0,.35.64,1.93,1.93,0,0,0,.57.45,1.87,1.87,0,0,0,.7.19,1.92,1.92,0,0,0,.7-.19A2.06,2.06,0,0,0,3,90.36a2,2,0,0,0,.35-.64A2,2,0,0,0,3.41,89V75.62H96.55V89a1.69,1.69,0,0,0,.39,1.38,1.76,1.76,0,0,0,1.31.6,1.72,1.72,0,0,0,1.3-.6,1.78,1.78,0,0,0,.35-.65,1.63,1.63,0,0,0,0-.73ZM18,6.21a2.16,2.16,0,0,1,2-2.29H80a2.15,2.15,0,0,1,1.47.73A2.21,2.21,0,0,1,82,6.21V28H78.4V26.74c0-1.42-.09-2.83-.24-4.24a5.58,5.58,0,0,0,.53-3.5,4.69,4.69,0,0,0-3.42-3.87,4.13,4.13,0,0,0-.78-.08,3.83,3.83,0,0,0-1.79.45,43.21,43.21,0,0,0-7.27-.5,41.5,41.5,0,0,0-7.22.54,3.82,3.82,0,0,0-1.78-.45,3.57,3.57,0,0,0-.8.09,4.65,4.65,0,0,0-2.27,1.38A4.58,4.58,0,0,0,52.25,19a5.48,5.48,0,0,0,.43,3.43,39.14,39.14,0,0,0-.25,4.33V28h-5V26.73c0-1.42-.09-2.83-.24-4.24A5.62,5.62,0,0,0,47.67,19a4.69,4.69,0,0,0-3.42-3.87,4.13,4.13,0,0,0-.78-.08,3.83,3.83,0,0,0-1.79.45,43.21,43.21,0,0,0-7.27-.5,41.5,41.5,0,0,0-7.22.54,3.82,3.82,0,0,0-1.78-.45,3.57,3.57,0,0,0-.8.09,4.65,4.65,0,0,0-2.27,1.38A4.58,4.58,0,0,0,21.23,19a5.55,5.55,0,0,0,.42,3.43,41.74,41.74,0,0,0-.25,4.33V28H18ZM74.71,21.9a40.44,40.44,0,0,1,.34,4.79,40.46,40.46,0,0,1-.34,4.8,1.39,1.39,0,0,0,.07.64,1.55,1.55,0,0,0,.33.55,1.24,1.24,0,0,1,.23.44,1.16,1.16,0,0,1,0,.49,1.13,1.13,0,0,1-.24.49,1,1,0,0,1-.46.29h-.17a.83.83,0,0,1-.56-.23,1.18,1.18,0,0,0-.79-.35h-.2a34.4,34.4,0,0,1-7.51.65,34.72,34.72,0,0,1-7.48-.6h-.21a1.14,1.14,0,0,0-.78.34.79.79,0,0,1-.56.23h-.17a.91.91,0,0,1-.46-.28.86.86,0,0,1-.23-.49,1.11,1.11,0,0,1,0-.48,1.17,1.17,0,0,1,.22-.43,1.52,1.52,0,0,0,.3-.56,1.56,1.56,0,0,0,.07-.64,41,41,0,0,1-.34-4.82,41,41,0,0,1,.34-4.82,1.5,1.5,0,0,0-.07-.63,1.45,1.45,0,0,0-.3-.56,1.08,1.08,0,0,1-.22-.44,1.11,1.11,0,0,1,0-.48.88.88,0,0,1,.24-.48.9.9,0,0,1,.45-.29h.17a.77.77,0,0,1,.56.24,1.14,1.14,0,0,0,.78.34.74.74,0,0,0,.21,0A35.11,35.11,0,0,1,65.4,19a34.41,34.41,0,0,1,7.51.66h.2a1.18,1.18,0,0,0,.79-.35.8.8,0,0,1,.56-.24h.17a1,1,0,0,1,.46.3,1,1,0,0,1,.24.49,1.16,1.16,0,0,1,0,.49,1.42,1.42,0,0,1-.23.44,1.43,1.43,0,0,0-.37,1.14Zm-31,0A42.66,42.66,0,0,1,44,26.69a42.68,42.68,0,0,1-.33,4.8,1.39,1.39,0,0,0,.07.64,1.55,1.55,0,0,0,.33.55,1.24,1.24,0,0,1,.23.44,1.16,1.16,0,0,1,0,.49,1.13,1.13,0,0,1-.24.49,1,1,0,0,1-.46.29h-.17a.79.79,0,0,1-.56-.23,1.18,1.18,0,0,0-.79-.35h-.2a34.4,34.4,0,0,1-7.51.65,34.72,34.72,0,0,1-7.48-.6h-.21a1.12,1.12,0,0,0-.78.34.83.83,0,0,1-.56.23h-.17a.91.91,0,0,1-.46-.28.86.86,0,0,1-.23-.49,1,1,0,0,1,.22-.91,1.71,1.71,0,0,0,.31-.56,1.74,1.74,0,0,0,.06-.64,37.07,37.07,0,0,1-.34-4.82,37.07,37.07,0,0,1,.34-4.82,1.5,1.5,0,0,0-.07-.63,1.45,1.45,0,0,0-.3-.56,1,1,0,0,1-.22-.43,1,1,0,0,1,0-.49.88.88,0,0,1,.24-.48.9.9,0,0,1,.45-.29h.17a.8.8,0,0,1,.56.24,1.12,1.12,0,0,0,.78.34.74.74,0,0,0,.21,0A35.11,35.11,0,0,1,34.4,19a34.41,34.41,0,0,1,7.51.66h.2a1.18,1.18,0,0,0,.79-.35.72.72,0,0,1,.25-.18.81.81,0,0,1,.31-.06h.17a1,1,0,0,1,.46.3,1,1,0,0,1,.24.49,1.16,1.16,0,0,1,0,.49,1.42,1.42,0,0,1-.23.44,1.51,1.51,0,0,0-.32.53,1.57,1.57,0,0,0-.07.61Zm-26.46,10h4.11a5.49,5.49,0,0,0-.11,2.58,4.61,4.61,0,0,0,3.38,3.79,3.57,3.57,0,0,0,.8.09,3.82,3.82,0,0,0,1.78-.45,41.5,41.5,0,0,0,7.22.54,41.26,41.26,0,0,0,7.27-.55,3.73,3.73,0,0,0,1.79.46,3.46,3.46,0,0,0,.78-.09,4.69,4.69,0,0,0,3.42-3.87,5.71,5.71,0,0,0-.14-2.5h4.83a5.49,5.49,0,0,0-.11,2.58,4.61,4.61,0,0,0,3.38,3.79,3.57,3.57,0,0,0,.8.09,3.82,3.82,0,0,0,1.78-.45,41.5,41.5,0,0,0,7.22.54,41.19,41.19,0,0,0,7.27-.55,3.73,3.73,0,0,0,1.79.46,3.46,3.46,0,0,0,.78-.09,4.69,4.69,0,0,0,3.42-3.87,5.71,5.71,0,0,0-.13-2.5h4.11L95.12,54H4.78Zm-13.9,26h93.2V71.69H3.35Z" transform="translate(0)"/></svg>