<svg id="fbadfe37-6e24-408d-b31f-b61d4ff1fef6" data-name="Layer 1" xmlns="http://www.w3.org/2000/svg" viewBox="0 0 66 47"><title>stress</title><path d="M30,0l8.95.11a1.29,1.29,0,0,1,1.25,1.63L34.94,15.41a1.3,1.3,0,0,0,1.25,1.64L41.7,17a1.31,1.31,0,0,1,1.2,1.82L34.75,38.21a1.28,1.28,0,0,1-2.45-.6l.61-10.21a1.29,1.29,0,0,0-1-1.35L29,25.21a1.31,1.31,0,0,1-1-1.42L28.7,1.16A1.3,1.3,0,0,1,30,0ZM57.42,10.18l7.91,4.87a1.35,1.35,0,0,1,.28,2.12L54,26.55a1.36,1.36,0,0,0,.28,2.12l4.94,2.87a1.36,1.36,0,0,1,.13,2.25L42.12,46.73a1.34,1.34,0,0,1-1.88-1.84L46,36.13a1.36,1.36,0,0,0-.2-1.74L43.66,32.1a1.38,1.38,0,0,1-.16-1.8L55.71,10.54A1.3,1.3,0,0,1,57.42,10.18Zm-49.21-1-7.63,5A1.38,1.38,0,0,0,.13,15.9L11.6,35.81a1.27,1.27,0,0,0,1.6.66l2.9-.91a1.25,1.25,0,0,1,1.57.6l4.92,9.15A1.28,1.28,0,0,0,25,44.44L21.53,23.08a1.28,1.28,0,0,0-2-.9l-4.62,3.19a1.27,1.27,0,0,1-1.93-.7L10.14,9.92A1.27,1.27,0,0,0,8.21,9.22Z" transform="translate(0)"/></svg>