<svg id="20fa84a9-b83f-46e0-87fd-383ed751e083" data-name="Layer 1" xmlns="http://www.w3.org/2000/svg" viewBox="0 0 57 49"><title>stroke</title><path d="M17.36,13.16a1,1,0,0,0-.63-.48,8,8,0,0,0-5.65.87,8.35,8.35,0,0,0-3.56,5.72,1,1,0,0,0,.15.77,1,1,0,0,0,.65.44,1,1,0,0,0,1.22-.79,6.38,6.38,0,0,1,2.61-4.39,5.76,5.76,0,0,1,4-.65,1,1,0,0,0,1.27-.73A1,1,0,0,0,17.36,13.16Z" transform="translate(-1.5 -1.5)" fill="#2c2b2a"/><path d="M13.85,29.5a12.51,12.51,0,0,0,1.78-.14A1.05,1.05,0,0,0,16.3,29a1.07,1.07,0,0,0,.19-.77,1.05,1.05,0,0,0-1.19-.86c-5.16.82-6.63-2.72-6.78-3.12a1,1,0,0,0-1-.7,1,1,0,0,0-.34.06,1,1,0,0,0-.6.52,1,1,0,0,0,0,.78A7.43,7.43,0,0,0,13.85,29.5Z" transform="translate(-1.5 -1.5)" fill="#2c2b2a"/><path d="M50.2,7.84A33.5,33.5,0,0,0,30,1.5C14.29,1.5,1.5,11.13,1.5,23v2.64a9.33,9.33,0,0,0,9.36,9.28h4L15,35a9.46,9.46,0,0,0,6.58,2.69h3.7l.15.22a9.42,9.42,0,0,0,7.6,4.1h.33l2.39,6.17A3.39,3.39,0,0,0,40,50.32,3.42,3.42,0,0,0,42,48.62a3.32,3.32,0,0,0,.16-2.55l-1.39-4h4.44a9.64,9.64,0,0,0,2.11-.25l.17,0,.09,0a9.81,9.81,0,0,0,1.4-.48c6.17-2.5,9.55-9,9.55-18.3C58.5,17.27,55.56,11.9,50.2,7.84Zm-23.06,29a7.61,7.61,0,0,0-.86-1,1.07,1.07,0,0,0-.41-.1h-4c1.9-1,4.12-1.82,4.85-1.7.53.28,1.49,2.32,2.25,4.69a7.15,7.15,0,0,1-.76-.6A11.75,11.75,0,0,1,27.14,36.82Zm-3.23-8.34c-.07-.44-.24-1.52-6.81-4.71,6.07-.84,6.62-1.56,6.82-1.82s.85-1.1-1.27-7.44c4.6,3.47,5.26,3.3,5.67,3.2s1.11-.28,3.16-4.76c2.51,5.22,3,5.45,3.35,5.59s.88.39,6.18-2c-1.1,1.94-2,4-1.8,5.05s1.81,1.84,4.68,2.51c-2.13.77-3.92,1.7-4.29,2.69s.62,3.52,2,6.12c-3.09-1.95-6.07-3.51-7.24-3.15s-2.75,3.52-4,6.81c-.79-2.12-1.89-4.22-3.22-4.49a2.22,2.22,0,0,0-.53-.05,11.19,11.19,0,0,0-3.91,1.09C23.42,31.37,24.06,29.4,23.91,28.48ZM55,32l-.13.09a5.57,5.57,0,0,1-2.42,1,3.63,3.63,0,0,1-2.93-1c-1.82-1.68-2.15-1.8-2.64-1.82-.26,0-.94.36-.73,1s.3.87,2,2.36A5.79,5.79,0,0,0,52.45,35l1.11-.07-.68.88a11.41,11.41,0,0,1-4.72,3.59,7,7,0,0,1-1.12.38,7.28,7.28,0,0,1-1.85.25H39.32a1,1,0,0,0-.83.43,1,1,0,0,0-.14.91l1.85,5.35a1.29,1.29,0,0,1-.07,1,1.27,1.27,0,0,1-.76.67,1.33,1.33,0,0,1-.43.07,1.38,1.38,0,0,1-1.29-.95L35,40.68a1,1,0,0,0-1-.65h-.86a7.36,7.36,0,0,1-1.81-.23c1.17-3.49,2.84-7.44,3.61-8.12,1.14.14,5.54,2.79,9.1,5.27a1,1,0,0,0,1.42-1.34c-2-3.17-4-7.12-4-8.14.56-.61,3.73-1.84,6.94-2.68a1,1,0,0,0,.74-1,1,1,0,0,0-.86-.93c-3.22-.44-6.45-1.26-7.13-1.8.09-.86,1.54-3.64,3.29-6.29a1,1,0,0,0-.08-1.21,1,1,0,0,0-1.18-.24c-2.91,1.38-6.35,2.9-7.56,3.27-.64-1-2.1-3.91-3.28-6.44a1,1,0,0,0-.92-.58,1,1,0,0,0-.91.61,40.89,40.89,0,0,1-2.71,5.46,61.8,61.8,0,0,1-6.61-4.75A1,1,0,0,0,19.65,12a51.93,51.93,0,0,1,2.58,8.74,55.84,55.84,0,0,1-8.84,1.48,1,1,0,0,0-.3,1.9c3.76,1.69,8.11,3.95,8.85,4.79a28.29,28.29,0,0,1-2.06,5.86,1,1,0,0,0,0,.74,7.32,7.32,0,0,1-3.79-2.28,1,1,0,0,0-.77-.35H10.86a7.29,7.29,0,0,1-7.32-7.26V23c0-9,8.34-16.78,20.27-18.89l1.85-.33L24.22,5A10.92,10.92,0,0,0,21,9.3a1,1,0,0,0,.05.76,1,1,0,0,0,.58.52A1,1,0,0,0,23,10a9.33,9.33,0,0,1,4.8-4.83c3.31-1.46,7.63-1.15,12.82.94l.58.23-.36.51c-1.69,2.46-5.5,1.91-5.93,1.84a1,1,0,0,0-1.19.81,1,1,0,0,0,.16.75,1.07,1.07,0,0,0,.66.42,10.08,10.08,0,0,0,1.7.14c1.63,0,5.57-.4,7-4.08l.19-.5.48.22C51.74,10,56.47,16.17,56.47,23a25.45,25.45,0,0,1-1.4,8.83Z" transform="translate(-1.5 -1.5)" fill="#2c2b2a"/></svg>