<?xml version="1.0" encoding="utf-8"?>
<!-- Generator: Adobe Illustrator 22.1.0, SVG Export Plug-In . SVG Version: 6.00 Build 0)  -->
<svg version="1.1" id="Layer_1" xmlns="http://www.w3.org/2000/svg" xmlns:xlink="http://www.w3.org/1999/xlink" x="0px" y="0px"
	 viewBox="0 0 119 124" style="enable-background:new 0 0 119 124;" xml:space="preserve">
<style type="text/css">
	.st0{clip-path:url(#SVGID_2_);}
</style>
<g>
	<defs>
		<rect id="SVGID_1_" width="119" height="124"/>
	</defs>
	<clipPath id="SVGID_2_">
		<use xlink:href="#SVGID_1_"  style="overflow:visible;"/>
	</clipPath>
	<g class="st0">
		<polygon points="109.6,105.5 109.6,105.5 109.6,105.5 		"/>
		<path d="M98.8,114c1.7,0.3,3.4,0.2,5-0.5c1.6-0.7,2.9-1.8,3.9-3.2c0.9-1.4,1.5-3.1,1.5-4.8c0-2.3-0.9-4.5-2.6-6.1
			c-1.6-1.6-3.9-2.5-6.2-2.5c-1.7,0-3.4,0.5-4.8,1.5c-1.4,1-2.5,2.3-3.2,3.9c-0.6,1.6-0.8,3.3-0.5,5s1.2,3.2,2.4,4.4
			C95.5,112.9,97.1,113.7,98.8,114z M95.8,104.6c0.2-0.9,0.6-1.7,1.3-2.4c0.7-0.6,1.5-1.1,2.4-1.3c0.9-0.2,1.8-0.1,2.7,0.3
			c0.9,0.4,1.6,1,2.1,1.7c0.5,0.8,0.8,1.7,0.8,2.6v0c0,1.2-0.5,2.4-1.4,3.3c-0.9,0.9-2.1,1.4-3.3,1.4h0c-0.9,0-1.8-0.3-2.6-0.8
			c-0.8-0.5-1.4-1.2-1.7-2.1C95.7,106.4,95.6,105.5,95.8,104.6z"/>
		<path d="M100.3,119.5"/>
		<path d="M101.5,87.7"/>
		<path d="M101.5,65.7c-0.5,0-1-0.3-1.3-0.6l0,0l-12-12l0,0c-2.1-2.1-4.8-3.3-7.7-3.4c-2.9-0.2-5.8,0.8-8,2.6L70.3,54l-0.4,0.3
			L69.6,54l-7.1-7.5L62,45.9l0.7-0.3c3.1-1.3,5.8-3.4,7.7-6.2c1.9-2.8,3-6.1,3-9.4c0.1-3.4-0.9-6.7-2.7-9.6
			c-1.8-2.9-4.4-5.1-7.5-6.5l-0.5-0.2l0.3-0.5c0.6-1.1,1-2.3,1-3.5l0,0l0,0c0-0.9-0.2-1.8-0.5-2.6c-0.4-0.8-0.9-1.6-1.6-2.2
			c-1.2-1-2.7-1.6-4.3-1.6h0c-3.2,0-5.5,2.1-5.5,4.9c0,0.5,0.3,1,0.6,1.3c0.4,0.4,0.9,0.6,1.4,0.6s1-0.2,1.4-0.6
			c0.4-0.4,0.6-0.8,0.6-1.4l0,0c0-0.3,0.2-0.5,0.4-0.6c0.2-0.1,0.3-0.1,0.5-0.2c0.1,0,0.3,0,0.4-0.1c0,0,0.1,0,0.1,0c0,0,0,0,0,0
			c0,0,0,0,0,0c0,0,0,0,0,0c0,0,0,0,0,0c0,0,0,0,0,0c0,0,0,0,0,0c0,0,0,0,0,0l0,0l0,0l0,0v0c0.6,0,1.1,0.2,1.6,0.6l0,0l0,0
			c0.2,0.2,0.4,0.5,0.5,0.8C59.9,9,60,9.3,59.9,9.7h0c0,0.4,0,1.2-0.6,1.8c-0.6,0.6-1.7,0.9-3.5,0.9h0c-3.2,0-6.4,0.9-9.2,2.6
			c-2.8,1.7-5,4.1-6.5,7l-0.3,0.6L39.4,22L23.3,4.9l0,0l0,0c-2.2-2.5-5.3-4-8.6-4.3c-3.3-0.3-6.6,0.7-9.2,2.7l0,0
			c-1.4,1.1-2.5,2.4-3.4,4c-0.8,1.5-1.4,3.2-1.5,5c-0.2,1.7,0,3.5,0.6,5.2c0.6,1.7,1.4,3.2,2.6,4.5l0,0L9.3,28
			c0.4,0.4,0.9,0.6,1.4,0.7c0.5,0,1.1-0.1,1.5-0.5c0.2-0.2,0.4-0.4,0.5-0.6c0.1-0.2,0.2-0.5,0.2-0.8c0-0.3,0-0.5-0.1-0.8
			c-0.1-0.2-0.2-0.5-0.4-0.7l-5.5-6.1l0,0c-0.8-0.9-1.4-2-1.8-3.1c-0.4-1.2-0.5-2.4-0.4-3.6c0.1-1.2,0.5-2.4,1.1-3.4
			C6.2,8,7,7.1,8,6.4l0,0c1.8-1.4,4.1-2,6.4-1.8c2.3,0.2,4.4,1.3,5.9,3l0,0l8.2,8.7l0.1,0.1l0,0.2l0.4,58l0,0l0,0h0v0l0,0
			c0,2.6,0.3,5.2,1,7.7c0.6,2,1.4,3.9,2.4,5.7l0.3,0.5L32,88.7c-3.1,1.1-5.8,3.1-7.8,5.7c-2,2.6-3.3,5.6-3.7,8.9
			c-0.4,3.2,0.1,6.5,1.4,9.5c1.3,3,3.5,5.6,6.1,7.4c2.7,1.9,5.8,3,9.1,3.2c3.3,0.2,6.5-0.5,9.4-2c2.9-1.5,5.4-3.8,7.1-6.6
			c1.7-2.8,2.6-6,2.6-9.3v-0.8v-0.7l0.6,0.2c3.9,1.1,7.9,1.6,12,1.6h0c4.3,0,8.6-0.6,12.7-1.7l0.6-0.2v0.7c0,0.2,0,0.4,0,0.5
			c0,0.2,0,0.3,0,0.4v0c0,3.5,1,7,2.9,10c1.9,3,4.7,5.3,7.9,6.8c3.3,1.4,6.9,1.9,10.4,1.3c3.5-0.6,6.8-2.2,9.4-4.6
			c2.6-2.4,4.4-5.5,5.3-9s0.6-7.1-0.6-10.4c-1.2-3.3-3.4-6.3-6.2-8.4c-2.8-2.1-6.2-3.4-9.8-3.6l-0.2,0l-0.1-0.2l0,0L96.9,83
			l-0.7-0.8l1.1-0.1c6.2-0.4,12.9-3.4,14-4c2.3-1.2,4.7-3.6,4.2-6.7h0c-0.2-1.4-0.9-2.6-1.9-3.5c-1-0.9-2.3-1.5-3.7-1.6l0,0
			L101.5,65.7L101.5,65.7 M97.8,91.8c2.7-0.5,5.5-0.2,8.1,0.8c2.5,1.1,4.7,2.9,6.3,5.1c1.5,2.3,2.3,5,2.3,7.7v0
			c0,3.7-1.5,7.3-4.2,9.9c-2.6,2.6-6.2,4.1-9.9,4.1h0c-2.8,0-5.5-0.9-7.7-2.4c-2.3-1.5-4.1-3.7-5.1-6.3c-1-2.6-1.3-5.4-0.7-8.1
			c0.6-2.7,1.9-5.2,3.9-7.1C92.6,93.7,95.1,92.4,97.8,91.8z M91.2,76.8L91,76.7l-17.9-19l-0.4-0.4l0.4-0.3l1.9-1.6l0,0l0,0
			c1.5-1.2,3.3-1.8,5.2-1.7c1.9,0.1,3.7,0.9,5,2.2l0,0l12,12l0,0c1,1,2.4,1.7,3.9,1.8l0,0l8.3,0.7v0c0.5,0,0.9,0.2,1.3,0.5
			c0.4,0.3,0.6,0.8,0.7,1.2l0,0c0,0.3,0,0.6-0.1,0.8c-0.1,0.2-0.3,0.5-0.5,0.7c-0.4,0.4-0.9,0.8-1.4,1l0,0l0,0
			c-2.2,1.1-5.9,2.4-9.4,3.1c-1.8,0.4-3.5,0.6-5,0.5c-1.5-0.1-2.9-0.4-3.8-1.3L91.2,76.8z M43,25.2c0.1-0.1,0.2-0.3,0.3-0.5l0,0
			c0.8-2.1,2.2-4,3.9-5.5c1.7-1.5,3.8-2.5,6.1-2.9c2.2-0.4,4.6-0.3,6.7,0.4c2.2,0.7,4.1,1.9,5.7,3.6c1.6,1.7,2.7,3.7,3.3,5.9
			c0.6,2.2,0.6,4.5,0,6.7c-0.6,2.2-1.7,4.2-3.3,5.9c-1.6,1.7-3.5,2.9-5.7,3.6l0,0c-0.2,0.1-0.4,0.2-0.5,0.3l-0.4,0.2l-0.3-0.3
			L43,25.9l-0.3-0.3L43,25.2z M52.2,105.5c0,3.7-1.5,7.3-4.2,9.9c-2.6,2.6-6.2,4.1-9.9,4.1h0c-2.8,0-5.5-0.9-7.7-2.4
			c-2.3-1.5-4.1-3.7-5.1-6.3c-1-2.6-1.3-5.4-0.7-8.1c0.6-2.7,1.9-5.2,3.9-7.1s4.5-3.3,7.2-3.8c2.7-0.5,5.5-0.2,8.1,0.8
			c2.5,1.1,4.7,2.9,6.3,5.1C51.4,100.1,52.2,102.8,52.2,105.5L52.2,105.5z M83.3,99.2l-0.2,0.1c-4.6,1.8-9.4,2.6-14.3,2.6v0
			c0,0,0,0,0,0c0,0,0,0,0,0v0c-4.6,0.1-9.1-0.7-13.4-2.3l-0.2-0.1l-0.1-0.2c-1.3-3.4-3.6-6.4-6.7-8.5s-6.6-3.2-10.3-3.2h0h0
			c-0.7,0-1.9,0.2-1,0l-0.3,0l-0.2-0.3c-2.5-3.8-3.8-8.3-3.7-12.9h0L32.6,22l0-1.3l0.9,0.9l62.1,65.9l0.6,0.6l-0.8,0.2
			c-2.7,0.8-5.1,2.1-7.2,4c-2.1,1.9-3.7,4.2-4.7,6.7L83.3,99.2z"/>
		<polygon points="7.2,18.9 7.2,18.9 7.2,18.9 		"/>
		<polygon points="19.9,7.9 19.9,7.9 19.9,7.9 		"/>
		<path d="M83.4,99"/>
		<polygon points="33.5,74.5 33.5,74.5 33.5,74.5 		"/>
		<polygon points="68.8,101.4 68.8,101.4 68.8,101.4 		"/>
		<polygon points="12.5,28.6 12.5,28.6 12.5,28.6 		"/>
		<polygon points="51.7,8.2 51.7,8.2 51.7,8.2 		"/>
		<polygon points="111.5,78.7 111.5,78.7 111.5,78.7 		"/>
		<polygon points="72.1,51.9 72.1,51.9 72.1,51.9 		"/>
		<polygon points="56.8,8.2 56.8,8.2 56.8,8.2 		"/>
		<polygon points="47.4,105.5 47.4,105.5 47.4,105.5 		"/>
		<path d="M36.5,114c1.7,0.3,3.4,0.2,5-0.5c1.6-0.7,2.9-1.8,3.9-3.2c1-1.4,1.5-3.1,1.5-4.8c0-2.3-0.9-4.5-2.6-6.1
			c-1.6-1.6-3.9-2.5-6.2-2.5c-1.7,0-3.4,0.5-4.8,1.5c-1.4,1-2.5,2.3-3.2,3.9c-0.6,1.6-0.8,3.3-0.5,5c0.3,1.7,1.2,3.2,2.4,4.4
			C33.3,112.9,34.8,113.7,36.5,114z M33.6,104.6c0.2-0.9,0.6-1.7,1.3-2.4c0.7-0.6,1.5-1.1,2.4-1.3c0.9-0.2,1.8-0.1,2.7,0.3
			s1.6,1,2.1,1.7c0.5,0.8,0.8,1.7,0.8,2.6v0c0,1.2-0.5,2.4-1.4,3.3c-0.9,0.9-2.1,1.4-3.3,1.4h0c-0.9,0-1.8-0.3-2.6-0.8
			s-1.4-1.2-1.7-2.1C33.5,106.4,33.4,105.5,33.6,104.6z"/>
		<path d="M95.6,87.5"/>
	</g>
</g>
</svg>
