<svg id="3d1fc58d-c7a6-4d3d-8e87-05469c4ce6d1" data-name="Layer 1" xmlns="http://www.w3.org/2000/svg" viewBox="0 0 141 138.85"><title>substance-use</title><path d="M34.16,124.17l-16.35-6.62a8.47,8.47,0,0,0-6.36,15.71l16.34,6.62a8.48,8.48,0,0,0,6.37-15.71Zm2,10a5.63,5.63,0,0,1-7.31,3.1L22,134.46l2.48-6.12a1.42,1.42,0,0,0,0-1.09,1.4,1.4,0,0,0-.78-.77,1.43,1.43,0,0,0-1.86.79l-2.48,6.11-6.84-2.77a5.61,5.61,0,0,1,2.11-10.82,5.43,5.43,0,0,1,2.1.42L23.59,123l-.45,1.09a1.42,1.42,0,0,0,0,1.09,1.4,1.4,0,0,0,.78.77,1.45,1.45,0,0,0,1.86-.79l.45-1.09,6.84,2.77A5.63,5.63,0,0,1,36.18,134.13Z" transform="translate(-1.67 -1.65)"/><path d="M24.45,114.16a8,8,0,0,0,7.83,6.44,7.73,7.73,0,0,0,1.59-.16A8,8,0,0,0,39,117l9.14-13.71a8,8,0,0,0-13.33-8.88l-9.14,13.71A8,8,0,0,0,24.45,114.16ZM28,109.73l3.78-5.66L36.2,107a1.47,1.47,0,0,0,2-.4,1.44,1.44,0,0,0-.4-2l-4.4-2.93L37.15,96a5.15,5.15,0,1,1,8.57,5.72L42,107.4l-.84-.56a1.4,1.4,0,0,0-1.07-.21,1.38,1.38,0,0,0-.91.61,1.43,1.43,0,0,0,.39,2l.84.56-3.78,5.66a5.09,5.09,0,0,1-3.27,2.2,5.19,5.19,0,0,1-3.87-.77A5.16,5.16,0,0,1,28,109.73Z" transform="translate(-1.67 -1.65)"/><path d="M13.44,115.05a11.42,11.42,0,0,0,1.93-.16A11.78,11.78,0,1,0,3.89,96.39a11.79,11.79,0,0,0,9.55,18.66Zm0-20.71a8.92,8.92,0,0,1,8,12.9L7.15,97A8.91,8.91,0,0,1,13.47,94.34ZM4.65,104.71a8.75,8.75,0,0,1,.82-5.43l14.31,10.28a8.75,8.75,0,0,1-4.88,2.51,8.93,8.93,0,0,1-10.25-7.36Z" transform="translate(-1.67 -1.65)"/><path d="M44.28,116a9.73,9.73,0,0,0,1.5,17.92,10.06,10.06,0,0,0,3,.46A9.73,9.73,0,1,0,44.28,116Zm1.31,2.54a6.87,6.87,0,0,1,8.46,1.76l-11.93,6.16A6.89,6.89,0,0,1,45.59,118.49Zm6.3,12.22A6.87,6.87,0,0,1,43.43,129l11.93-6.16A6.88,6.88,0,0,1,51.89,130.71Z" transform="translate(-1.67 -1.65)"/><path d="M142.6,83.81a2.05,2.05,0,0,0-.42-.8h0a1.87,1.87,0,0,0-.71-.53,2,2,0,0,0-.86-.19H114.29a2.14,2.14,0,0,0-1.57.71l0,.05a2.11,2.11,0,0,0-.44,1.63v0l5,29.24h0a2.11,2.11,0,0,0,.71,1.23,2.07,2.07,0,0,0,1.34.49h16.38a2.09,2.09,0,0,0,2-1.72l5-29.25h0A2.1,2.1,0,0,0,142.6,83.81Zm-7.82,28.71H120.2l-.79-4.65h16.16Zm1.12-6.81H119.1l-3.52-20.27h23.74Z" transform="translate(-1.67 -1.65)"/><path d="M93.22,45.83c.51-13.3-2-26.54-3.07-31.57a5,5,0,0,0,.3-1.73v-.17l-.07-.83h.22V6.85h0a5.15,5.15,0,0,0-5.1-5.19H77.84a5.15,5.15,0,0,0-5.1,5.2v4.68H73l-.07.83v.17a5,5,0,0,0,.3,1.73c-1.08,5-3.58,18.27-3.07,31.57A25.92,25.92,0,0,0,68.21,48c-1.59,2-3.67,5.4-3.67,9.37v50.87a8.11,8.11,0,0,0,2,5.39,10.06,10.06,0,0,0,4,2.74,17.62,17.62,0,0,0,3.84,1v.29H84.91a22.86,22.86,0,0,0,7.84-1.25,10.19,10.19,0,0,0,4.07-2.74,8.11,8.11,0,0,0,2-5.41V57.39c0-4-2.09-7.34-3.68-9.38A25.92,25.92,0,0,0,93.22,45.83Zm1.59,62.42c0,4.61-6,5.38-9.92,5.4h-6.5c-3.89,0-9.85-.81-9.85-5.39V57.38c0-5.25,5.66-9.9,5.66-9.9-.91-15.25,2.58-31.08,3.25-34a1.19,1.19,0,0,1-.56-1l.43-5h-.58V6.85a1.22,1.22,0,0,1,.58-1.06,1,1,0,0,1,.52-.14H85.5a1,1,0,0,1,.52.14,1.23,1.23,0,0,1,.58,1.06v.68H86l.43,5a1.19,1.19,0,0,1-.56,1c.67,2.88,4.16,18.71,3.25,34,0,0,5.66,4.65,5.67,9.91Z" transform="translate(-1.67 -1.65)"/></svg>