<svg id="b100187d-375e-4654-928c-68d116ee8ff2" data-name="8dae0bb8-ce7d-4bef-83a6-cd5413145433" xmlns="http://www.w3.org/2000/svg" viewBox="0 0 49 52"><title>suicide2</title><path d="M30.1,15.43a1.88,1.88,0,0,0-2-1.76,2,2,0,0,0-2,1.85,1.77,1.77,0,0,0,0,.23,1.84,1.84,0,0,0,2,1.67h.19a1.86,1.86,0,0,0,1.81-1.91Z" transform="translate(-0.85 -0.52)"/><path d="M34.21,13.67h-.15a1.87,1.87,0,0,0-1.85,1.86,2.09,2.09,0,0,0,0,.25,1.83,1.83,0,0,0,2,1.65h.21a1.85,1.85,0,0,0,1.79-1.91A2,2,0,0,0,34.21,13.67Z" transform="translate(-0.85 -0.52)"/><path d="M31.16,18c-.83,0-1.39,1.51-1,1.69h0a.28.28,0,0,0,.37-.08.71.71,0,0,1,.62-.24.8.8,0,0,1,.66.25c.09.09.15.15.3.07C32.49,19.54,32,18,31.16,18Z" transform="translate(-0.85 -0.52)"/><path d="M40.67,3.59c-9-5.2-17.49-4.18-23.25,6A25.72,25.72,0,0,0,14,22.25c-.23,4.23-.41,7.45-6.38,11.48,0,0-3.06,2.18-5.15,3.47s-2.85,4.54,2.5,9.95c4.15,4.19,12.49,6.24,15.24,5A2.29,2.29,0,0,0,21.63,50c.18-1.23.44-2.92,3.1-5.32,1-.88,2-.59,4.31.72s4,1.29,5.75-.39a33.73,33.73,0,0,0,2.73-3.11c.61-.77,1.31-1.62,2.12-2.57a3.45,3.45,0,0,1,2.46.18c1,.32,2,.61,2.44-.2s.39-2.43.29-4.09c-.1-1.84-.2-3.78.44-4.93l2.45-4.33C51.74,18.79,50.44,9.23,40.67,3.59ZM36.78,18.65a6.42,6.42,0,0,0-1.4,2.59c-.56,2.63-1.85,3.3-4.2,3.3a3.88,3.88,0,0,1-4.2-3.3,4.71,4.71,0,0,0-1.11-2,8.92,8.92,0,0,1-2.19-6.08c0-3.47,2.5-6.66,7.5-6.78s7.51,2.84,7.51,6.78A7.57,7.57,0,0,1,36.78,18.65Z" transform="translate(-0.85 -0.52)"/></svg>