<svg id="3e568086-c306-4b0d-9a84-dd621caa1b8e" data-name="Layer 1" xmlns="http://www.w3.org/2000/svg" xmlns:xlink="http://www.w3.org/1999/xlink" viewBox="0 0 90 126"><defs><clipPath id="ab5e6c6d-cacb-4165-916c-0dda5ca6387f" transform="translate(0)"><rect width="90" height="126" fill="none"/></clipPath></defs><title>trees</title><g clip-path="url(#ab5e6c6d-cacb-4165-916c-0dda5ca6387f)"><path d="M90,27.64c0-9-6.92-16.36-15.41-16.36a14.8,14.8,0,0,0-3.68.47A15.54,15.54,0,0,0,56.11,0H33.82A15.54,15.54,0,0,0,19,11.75a14.71,14.71,0,0,0-3.62-.45C6.92,11.3,0,18.63,0,27.64A17,17,0,0,0,3.61,38.15,16.91,16.91,0,0,0,0,48.64C0,57.66,6.92,65,15.41,65A14.63,14.63,0,0,0,19,64.58a15.7,15.7,0,0,0,12.6,11.54v45.25H25.08a2.29,2.29,0,0,0-2.31,2.31A2.3,2.3,0,0,0,25.08,126H66a2.3,2.3,0,0,0,2.31-2.32A2.29,2.29,0,0,0,66,121.37H60V75.77a15.66,15.66,0,0,0,6.94-4.18,15.9,15.9,0,0,0,4-7.07,14.33,14.33,0,0,0,3.68.51C83.09,65,90,57.72,90,48.68a16.91,16.91,0,0,0-3.61-10.49A17,17,0,0,0,90,27.64ZM22.85,61.26a2.25,2.25,0,0,0-.34-1,2.31,2.31,0,0,0-.74-.75,2.06,2.06,0,0,0-1-.31,2,2,0,0,0-1,.19,10.45,10.45,0,0,1-4.4,1c-6.09,0-11-5.26-11-11.72a12.05,12.05,0,0,1,3.75-8.76,2.44,2.44,0,0,0,.53-.79,2.45,2.45,0,0,0,0-1.89,2.44,2.44,0,0,0-.53-.79,12.1,12.1,0,0,1-3.74-8.77c0-6.5,5-11.72,11-11.72a10.6,10.6,0,0,1,4.4,1,2,2,0,0,0,1,.19,2,2,0,0,0,1-.3,2.41,2.41,0,0,0,.74-.75,2.34,2.34,0,0,0,.34-1c.66-5.92,5.34-10.39,11-10.39a11.31,11.31,0,0,1,11,10.43,2.28,2.28,0,0,0,.33,1,2.34,2.34,0,0,0,.75.75,2.06,2.06,0,0,0,1,.31,2,2,0,0,0,1-.2,10.67,10.67,0,0,1,4.45-1c6.08,0,11,5.26,11,11.71a12,12,0,0,1-1,4.76,11.79,11.79,0,0,1-2.77,4,2.45,2.45,0,0,0-.53,2.68,2.24,2.24,0,0,0,.53.79,12,12,0,0,1,3.73,8.77c0,6.45-5,11.71-11,11.71a10.27,10.27,0,0,1-4.46-1,2.19,2.19,0,0,0-1-.19,2,2,0,0,0-1,.31,2.21,2.21,0,0,0-.74.75,2.38,2.38,0,0,0-.34,1A11.43,11.43,0,0,1,36,71.42V50.68l10.3-14.44A2.45,2.45,0,0,0,45.88,33a2,2,0,0,0-.77-.4,2.26,2.26,0,0,0-.86-.05,2.33,2.33,0,0,0-.81.3,2.09,2.09,0,0,0-.62.6L36,43V25.38a2.19,2.19,0,0,0-.13-.88,2.28,2.28,0,0,0-.46-.76,2.19,2.19,0,0,0-.73-.51,2.15,2.15,0,0,0-.87-.18,2.19,2.19,0,0,0-.87.18,2.15,2.15,0,0,0-.72.51,2.3,2.3,0,0,0-.47.76,2.19,2.19,0,0,0-.12.88V51.84L26,45.79a2,2,0,0,0-.7-.5,2,2,0,0,0-.84-.18,2.09,2.09,0,0,0-.85.18,2.14,2.14,0,0,0-.7.5,2.45,2.45,0,0,0-.62,1.63A2.41,2.41,0,0,0,22.87,49l8.49,9.07.28.19V71.42a11.44,11.44,0,0,1-8.79-10.16ZM36,121.37V76.54l19.6-.24v45.07ZM81.89,39.88a12,12,0,0,1,3.73,8.76c0,6.46-5,11.72-11,11.72a10.31,10.31,0,0,1-4.44-1,2.18,2.18,0,0,0-1-.19,2,2,0,0,0-1,.31,2.31,2.31,0,0,0-.74.75,2.24,2.24,0,0,0-.33,1,11.28,11.28,0,0,1-11,10.45l-11.65.14a16.43,16.43,0,0,0,4.19-7.31A14.3,14.3,0,0,0,52.3,65c8.49,0,15.4-7.31,15.4-16.35a16.91,16.91,0,0,0-3.61-10.49,17,17,0,0,0,3.62-10.55c0-9-6.92-16.36-15.4-16.36a14.74,14.74,0,0,0-3.68.47,16.41,16.41,0,0,0-4-7.12H56.11a11.28,11.28,0,0,1,11,10.43,2.28,2.28,0,0,0,.33,1,2.41,2.41,0,0,0,.74.75,2.13,2.13,0,0,0,1,.31,2.06,2.06,0,0,0,1-.2,10.67,10.67,0,0,1,4.45-1c6.09,0,11,5.26,11,11.73a12.2,12.2,0,0,1-1,4.76,12.06,12.06,0,0,1-2.78,4,2.44,2.44,0,0,0-.53.79,2.45,2.45,0,0,0,0,1.89A2.44,2.44,0,0,0,81.89,39.88Z" transform="translate(0)"/></g></svg>